<svg width="16" height="12" viewBox="0 0 16 12" fill="none" xmlns="http://www.w3.org/2000/svg">
<path d="M15.1644 5.60198C15.1107 5.5143 13.7743 4.38532 12.1963 3.09741C9.67809 1.0532 9.2819 0.757252 9.06701 0.724369C8.65739 0.664084 8.34177 0.740811 8.06645 0.96551C7.79113 1.19021 7.69712 1.44779 7.77098 1.7821C7.81128 1.95747 8.07317 2.19861 9.70495 3.53037L11.5919 5.08134L6.24664 5.0923C0.961807 5.10874 0.894656 5.10874 0.713346 5.22383C0.357442 5.43757 0.25 5.61295 0.25 5.95821C0.25 6.30348 0.357442 6.47886 0.713346 6.6926C0.894656 6.80769 0.961807 6.80769 6.24664 6.82413L11.5919 6.83509L9.70495 8.38606C7.66354 10.0521 7.65683 10.0631 7.77098 10.5454C7.83142 10.8139 8.23433 11.1427 8.56337 11.1921C9.17445 11.2852 9.08044 11.351 12.1963 8.81902C13.8213 7.49275 15.1107 6.40213 15.1644 6.30348C15.2785 6.08427 15.2785 5.81572 15.1644 5.60198Z" fill="#17161A"/>
</svg>
