<svg width="70" height="60" viewBox="0 0 70 60" fill="none" xmlns="http://www.w3.org/2000/svg">
<path opacity="0.1" d="M41.7986 17L0 60H70L41.7986 17Z" fill="#8FB568"/>
<path d="M18.5048 6.31645C15.7392 7.46489 13.9462 9.32817 13.29 11.7305C13.0087 12.75 12.997 15.211 13.2783 16.3243L13.4775 17.1329L12.7275 18.1289C12.3056 18.6797 11.6962 19.6055 11.3564 20.1797L10.7353 21.2227L10.4892 20.3086C9.87983 17.9883 8.29779 16.2539 5.62592 14.9532C4.62983 14.4727 4.27826 14.3555 3.78608 14.3555C2.97748 14.3555 2.66108 14.6719 2.35639 15.7383C1.19623 19.7813 2.29779 23.4493 5.33295 25.6172C6.05951 26.1211 8.14545 27.1875 8.43842 27.1875C8.54389 27.1875 8.56733 27.3164 8.49701 27.6797C8.27436 29.0274 8.20404 29.7071 8.13373 31.0196L8.0517 32.4375L7.36029 31.9688C5.9892 31.0313 4.12592 30.4922 2.07514 30.4571C0.821232 30.4336 0.493108 30.5508 0.164983 31.1836C-0.233455 31.9571 0.270451 34.5586 1.19623 36.4454C2.39154 38.9063 4.38373 40.3125 7.44233 40.8516C7.95795 40.9454 8.74311 41.0157 9.1767 41.0157H9.97358L10.3134 41.7774C10.5009 42.1993 10.8642 42.9024 11.1337 43.3477C11.3915 43.793 11.6025 44.1797 11.6025 44.2149C11.6025 44.2383 11.0634 44.2618 10.4072 44.2735C8.87201 44.2852 7.71186 44.5782 6.12983 45.3633C3.70404 46.5586 3.62201 47.3555 5.67279 49.5352C8.0517 52.0782 10.7939 52.9922 13.9111 52.2657C14.8369 52.043 16.5712 51.3047 17.3564 50.7891C17.6728 50.5899 17.6728 50.5899 18.6337 51.211C20.5673 52.4414 23.954 53.836 25.3954 53.9883C25.9345 54.0469 26.0283 54.0235 26.2978 53.7539C26.4853 53.5664 26.6025 53.3204 26.6025 53.1094C26.6025 52.5 26.2978 52.2774 24.8212 51.8438C21.329 50.8243 18.4462 49.0665 15.8564 46.3711C10.8876 41.2032 8.96576 33.7149 10.7822 26.6602C11.5087 23.8477 12.5634 21.6914 14.4619 19.1368C14.9892 18.4219 15.2822 18.1407 15.5869 18.0352C15.8095 17.9649 16.3486 17.7188 16.7822 17.5079C19.0322 16.4063 20.4619 14.8829 21.165 12.8321C21.4462 12 21.4814 11.7188 21.4931 10.3125C21.5048 8.23832 21.2236 6.9141 20.6728 6.3516C20.3564 6.0352 20.2158 5.97661 19.7939 5.98833C19.5126 5.98833 18.9267 6.14067 18.5048 6.31645ZM19.5361 9.7852C19.6064 11.0743 19.4189 12.1641 18.9736 13.0313C18.4697 14.0274 16.9462 15.3282 15.6689 15.8555C15.2705 16.0313 15.2587 16.0196 15.1884 15.7852C15.0126 15.1993 14.9775 13.3477 15.1181 12.6329C15.4697 10.793 16.454 9.60942 18.5751 8.4727L19.2783 8.0977L19.372 8.35551C19.4306 8.49614 19.5009 9.14067 19.5361 9.7852ZM4.74701 16.711C5.50873 17.0274 6.77436 17.918 7.33686 18.5508C8.34467 19.6758 8.78998 20.9063 8.78998 22.5821C8.78998 23.3321 8.60248 24.9375 8.49701 25.0547C8.47358 25.0782 8.20404 24.9727 7.89936 24.8204C4.8642 23.3438 3.62201 21.1641 3.96186 17.9766C4.09076 16.8633 4.16108 16.5235 4.26654 16.5235C4.28998 16.5235 4.51264 16.6055 4.74701 16.711ZM4.37201 32.7539C5.87201 33.1407 7.23139 34.1485 7.95795 35.4375C8.37983 36.1758 8.86029 37.5821 8.96576 38.4258L9.04779 39.0586L8.36811 38.9766C5.03998 38.5899 3.11811 36.9727 2.34467 33.9375C2.21576 33.4219 2.11029 32.8711 2.11029 32.6954V32.3907L2.88373 32.4844C3.31733 32.5313 3.98529 32.6485 4.37201 32.7539ZM12.3759 46.5821C12.7978 46.7461 13.4775 47.1094 13.8759 47.3907C14.6025 47.9063 15.8212 49.1133 15.8212 49.3125C15.8212 49.4649 14.3212 50.1211 13.5009 50.3438C12.458 50.6133 10.9814 50.5899 10.1376 50.2735C9.14154 49.8985 7.99311 49.1133 7.14936 48.211C6.32904 47.3321 6.30561 47.4141 7.60639 46.8633C9.42279 46.1016 10.8759 46.0196 12.3759 46.5821Z" fill="#8FB568"/>
<path d="M39.3281 6.3516C38.7773 6.9141 38.4961 8.23832 38.5078 10.3125C38.5195 11.7188 38.5547 12 38.8359 12.8321C39.5391 14.8829 40.9687 16.4063 43.2187 17.5079C43.6523 17.7188 44.1914 17.9649 44.4141 18.0352C44.7187 18.1407 45.0117 18.4219 45.5391 19.1368C47.4375 21.6914 48.4922 23.8477 49.2187 26.6602C52.0312 37.5704 45.8203 48.7266 35.1797 51.8438C33.7031 52.2774 33.3984 52.5 33.3984 53.1094C33.3984 53.3204 33.5156 53.5664 33.7031 53.7539C33.9727 54.0235 34.0664 54.0469 34.6055 53.9883C36.0469 53.836 39.4336 52.4414 41.3672 51.211C42.3281 50.5899 42.3281 50.5899 42.6445 50.7891C43.4297 51.3047 45.1641 52.043 46.0898 52.2657C49.207 52.9922 51.9492 52.0782 54.3281 49.5352C56.3789 47.3555 56.2969 46.5586 53.8711 45.3633C52.2891 44.5782 51.1289 44.2852 49.6055 44.2735C48.9375 44.2618 48.3984 44.2383 48.3984 44.2149C48.3984 44.1797 48.6094 43.793 48.8672 43.3477C49.1367 42.9024 49.5 42.1993 49.6875 41.7774L50.0273 41.0157H50.8242C51.2578 41.0157 52.043 40.9454 52.5586 40.8516C54.6445 40.4883 56.1094 39.7735 57.375 38.5079C58.0547 37.8282 58.3242 37.4532 58.8047 36.4454C59.7305 34.5586 60.2344 31.9571 59.8359 31.1836C59.5078 30.5508 59.1797 30.4336 57.9141 30.4571C55.8984 30.4922 53.9883 31.043 52.6406 31.9688L51.9492 32.4375L51.8672 31.0196C51.7969 29.7071 51.7266 29.0274 51.5039 27.6797C51.4336 27.3164 51.457 27.1875 51.5625 27.1875C51.8555 27.1875 53.9414 26.1211 54.668 25.6172C57.7031 23.4493 58.8047 19.7813 57.6445 15.7383C57.3398 14.6719 57.0234 14.3555 56.2148 14.3555C55.7227 14.3555 55.3711 14.4727 54.375 14.9532C51.7031 16.2539 50.1211 17.9883 49.5117 20.3086L49.2656 21.2227L48.6445 20.1797C48.3047 19.6055 47.6953 18.6797 47.2734 18.1289L46.5234 17.1329L46.7227 16.3243C47.0039 15.211 46.9922 12.75 46.7109 11.7305C46.043 9.29301 44.1445 7.35942 41.3555 6.26957C40.3125 5.85942 39.7969 5.88285 39.3281 6.3516ZM42.5508 9.15239C44.3437 10.3594 45.1172 12.0821 44.9648 14.4493C44.918 15.0469 44.8594 15.6446 44.8125 15.7852C44.7422 16.0196 44.7305 16.0313 44.332 15.8555C43.0547 15.3282 41.5312 14.0274 41.0273 13.0313C40.582 12.1641 40.3945 11.0743 40.4648 9.7852C40.5117 9.14067 40.5703 8.49614 40.6172 8.35551L40.6875 8.0977L41.2969 8.40239C41.625 8.56645 42.1875 8.90629 42.5508 9.15239ZM55.9219 17.0039C55.9687 17.2266 56.0391 17.8711 56.0742 18.4571C56.2852 21.3282 54.9727 23.4258 52.1016 24.8204C51.7969 24.9727 51.5273 25.0782 51.5039 25.0547C51.3984 24.9375 51.2109 23.3321 51.2109 22.5821C51.2109 20.9063 51.6562 19.6758 52.6641 18.5508C53.4141 17.7188 55.3359 16.4766 55.7227 16.5704C55.7812 16.5821 55.875 16.7813 55.9219 17.0039ZM57.668 33.9024C57.0117 36.4922 55.582 38.0274 53.2031 38.6602C52.7227 38.7891 52.0195 38.9297 51.6328 38.9766L50.9531 39.0586L51.0352 38.4258C51.082 38.0743 51.2461 37.3946 51.4102 36.9141C52.3008 34.2071 54.0937 32.8125 57.1055 32.4844C57.7969 32.4024 57.832 32.4141 57.8672 32.6719C57.8906 32.8125 57.7969 33.3633 57.668 33.9024ZM51.6328 46.5821C52.125 46.7461 52.7578 47.004 53.0508 47.1446L53.5781 47.4258L52.8516 48.1993C52.0078 49.1133 50.8711 49.8985 49.8633 50.2735C49.0195 50.5899 47.543 50.6133 46.5 50.3438C45.6797 50.1211 44.1797 49.4649 44.1797 49.3125C44.1797 49.1133 45.3984 47.9063 46.1133 47.4024C46.8516 46.875 47.7656 46.4532 48.5742 46.2891C49.3125 46.125 50.6719 46.254 51.6328 46.5821Z" fill="#8FB568"/>
<path d="M29.3203 18.3164C28.9453 18.7148 26.8359 23.1797 26.8359 23.5664C26.8359 24.2812 27.7266 24.7383 28.3008 24.3281C28.4297 24.2344 28.8516 23.5312 29.2383 22.7461C29.6133 21.9609 29.9648 21.3281 30 21.3281C30.0469 21.3281 30.75 22.7227 31.582 24.4336C32.4023 26.1328 33.1992 27.6445 33.3516 27.7852C33.5742 27.9961 34.1367 28.1016 37.1133 28.5469C39.0352 28.8281 40.6523 29.0625 40.7109 29.0625C40.7695 29.0625 39.6211 30.2344 38.1563 31.6641C35.8008 33.9727 35.4961 34.3242 35.5078 34.6406C35.5078 35.2148 35.9063 35.625 36.457 35.625C36.9023 35.625 37.0313 35.5195 40.3594 32.2617C42.2578 30.4219 43.8398 28.793 43.875 28.6406C43.957 28.3125 43.8164 27.9023 43.5234 27.6328C43.3594 27.4922 42.1875 27.2812 38.9766 26.8125L34.6406 26.1914L32.7773 22.3828C31.7461 20.2852 30.8086 18.457 30.668 18.3047C30.3398 17.9531 29.6602 17.9531 29.3203 18.3164Z" fill="#8FB568"/>
<path d="M21.0352 26.8008C17.0625 27.3867 16.6758 27.457 16.4062 27.7148C16.207 27.9141 16.125 28.125 16.125 28.4297C16.125 28.8164 16.3125 29.0273 19.3008 31.9687L22.4883 35.0977L21.7383 39.3633C21.3398 41.7187 21.0352 43.7227 21.0703 43.8164C21.1992 44.2148 21.6094 44.5312 21.9609 44.5312C22.207 44.5312 23.6133 43.8516 26.1211 42.5391C28.207 41.4375 29.9531 40.5469 30 40.5469C30.0469 40.5469 31.793 41.4375 33.8789 42.5391C36.3867 43.8516 37.793 44.5312 38.0391 44.5312C38.5195 44.5312 38.9531 44.0625 38.9414 43.5586C38.918 42.8789 38.0859 38.3203 37.9453 38.0859C37.7109 37.7109 37.207 37.5586 36.7969 37.7344C36.1406 38.0039 36.0937 38.3555 36.4336 40.3711C36.5508 41.0742 36.6445 41.6719 36.6211 41.6953C36.6094 41.7187 35.1797 40.9922 33.4687 40.0898C31.4648 39.0234 30.2227 38.4375 30 38.4375C29.7773 38.4375 28.5352 39.0234 26.5312 40.0898C24.8203 40.9922 23.3906 41.7187 23.3789 41.6953C23.3555 41.6719 23.6016 40.1602 23.918 38.3203C24.2344 36.4805 24.4922 34.8164 24.4922 34.6289C24.5039 34.3242 24.1523 33.9375 21.8437 31.6641C20.3789 30.2344 19.2305 29.0625 19.2891 29.0625C19.3477 29.0625 20.9648 28.8281 22.8867 28.5469C25.957 28.0898 26.4258 27.9961 26.6719 27.7617C27.0586 27.3984 27.0469 26.8008 26.6602 26.4258C26.2734 26.0273 26.168 26.0391 21.0352 26.8008Z" fill="#8FB568"/>
</svg>
