<svg width="63" height="50" viewBox="0 0 63 50" fill="none" xmlns="http://www.w3.org/2000/svg">
<path opacity="0.1" d="M27.2224 5.40538L15.1666 28.3784L9.1389 29.9228C9.78704 28.5071 10.565 27.3488 11.4724 26.4479C12.5095 25.5469 13.676 25.0965 14.9723 25.0965C17.6945 25.0965 20.1576 26.1905 22.3613 28.3784C24.6946 30.5663 25.8611 33.3977 25.8611 36.8726C25.8611 40.3475 24.5649 43.4363 21.9723 46.139C19.5093 48.713 16.5277 50 13.0277 50C9.52773 50 6.48171 48.713 3.88912 46.139C1.29653 43.565 0 40.4762 0 36.8726C0 35.3282 0.324133 33.5907 0.97228 31.6602C1.62043 29.601 2.72224 27.027 4.27779 23.9382L17.3055 0L27.2224 5.40538ZM63 5.40538L50.9446 28.3784L44.9168 29.9228C45.565 28.5071 46.3427 27.3488 47.2501 26.4479C48.2871 25.5469 49.4536 25.0965 50.7499 25.0965C53.4721 25.0965 55.9352 26.1905 58.1389 28.3784C60.4722 30.5663 61.6388 33.3977 61.6388 36.8726C61.6388 40.3475 60.3425 43.4363 57.7499 46.139C55.287 48.713 52.3057 50 48.8057 50C45.3057 50 42.2594 48.713 39.6668 46.139C37.0742 43.565 35.7779 40.4762 35.7779 36.8726C35.7779 35.3282 36.1018 33.5907 36.7499 31.6602C37.3981 29.601 38.5002 27.027 40.0557 23.9382L53.0835 0L63 5.40538Z" fill="white"/>
</svg>
