<svg width="35" height="35" viewBox="0 0 35 35" fill="none" xmlns="http://www.w3.org/2000/svg">
<g clip-path="url(#clip0_653_2572)">
<path d="M4.99761 0.0957069C4.64215 0.293949 4.65582 0.129887 4.64898 5.85156V11.1904L4.19097 11.2725C2.83746 11.5186 1.71637 12.6055 1.44293 13.9316C1.38824 14.1846 1.36773 16.5772 1.36773 21.7725V29.2578H1.21734C0.991759 29.2646 0.540587 29.4834 0.362853 29.6748C0.000548384 30.0713 -0.0814828 30.6113 0.103087 31.4795C0.444884 33.1201 1.88043 34.5557 3.52105 34.8975C4.23883 35.0479 30.7622 35.0479 31.48 34.8975C32.731 34.6377 33.941 33.6943 34.5152 32.5391C35.1236 31.3018 35.1509 30.1396 34.5835 29.6201C34.3921 29.4424 33.9751 29.2578 33.7701 29.2578C33.6333 29.2578 33.6333 29.251 33.6333 22.4424V15.627L34.3169 14.9365C35.0279 14.2119 35.1031 14.0684 34.9253 13.7197C34.7818 13.4326 31.8286 10.5273 31.6099 10.459C31.316 10.3633 31.0767 10.4658 30.6802 10.8555L30.3521 11.1699V5.8584C30.3521 0.0820351 30.3658 0.259769 29.9761 0.0820351C29.8462 0.0205116 28.6021 3.8147e-06 25.1158 3.8147e-06C20.0367 3.8147e-06 20.146 -0.00683212 19.9751 0.37598C19.8179 0.724613 19.9273 1.10743 20.2417 1.27149C20.399 1.35352 21.1441 1.36719 24.7124 1.36719H28.9849V6.95899V12.5439L26.5035 15.0254L24.0288 17.5H16.2906C10.439 17.5 8.51128 17.5205 8.37457 17.582C8.17632 17.6709 7.99859 17.958 7.99859 18.1836C7.99859 18.4092 8.17632 18.6963 8.37457 18.7852C8.51128 18.8467 10.2818 18.8672 15.607 18.8672H22.6617L21.1578 20.3711L19.6539 21.875H14.1031C9.94683 21.875 8.50445 21.8955 8.37457 21.957C8.17632 22.0459 7.99859 22.333 7.99859 22.5586C7.99859 22.7842 8.17632 23.0713 8.37457 23.1602C8.50445 23.2217 9.7896 23.2422 13.4126 23.2422H18.273L17.6988 23.8438C17.1724 24.3906 17.0972 24.5137 16.7896 25.2314C16.605 25.6621 16.1333 26.7422 15.7437 27.6309L15.0259 29.2578H10.521H6.01617V15.3125V1.36719H10.2886C13.4468 1.36719 14.6021 1.34668 14.732 1.28516C14.9302 1.19629 15.108 0.909184 15.108 0.683598C15.108 0.458012 14.9302 0.170902 14.732 0.0820351C14.4585 -0.0410118 5.2232 -0.0273399 4.99761 0.0957069ZM26.9888 20.3506L20.6451 26.6943L19.688 25.7373L18.731 24.7803L25.0679 18.4434L31.4117 12.0996L32.3687 13.0566L33.3257 14.0137L26.9888 20.3506ZM4.64898 20.918V29.2578H3.69195H2.73492V21.8203C2.73492 13.6719 2.72125 14 3.13824 13.4189C3.24762 13.2686 3.43902 13.0703 3.56207 12.9814C3.78082 12.8242 4.38238 12.585 4.56695 12.5781C4.62847 12.5781 4.64898 14.2871 4.64898 20.918ZM32.2661 23.1396V29.2578H31.3091H30.3521V24.083V18.9014L31.2886 17.9648C31.8081 17.4453 32.2388 17.0215 32.2456 17.0215C32.2593 17.0215 32.2661 19.7764 32.2661 23.1396ZM28.9644 29.2373C28.9507 29.251 26.6538 29.251 23.8716 29.2441L18.7994 29.2236L19.8863 28.752L20.98 28.2734L24.9654 24.2881L28.9507 20.3027L28.9712 24.7598C28.9781 27.207 28.9781 29.2236 28.9644 29.2373ZM19.4146 27.4189C19.4146 27.4668 16.8785 28.5947 16.8511 28.5605C16.8374 28.54 17.316 27.4326 17.815 26.3252L17.9859 25.9492L18.6968 26.6602C19.0933 27.0566 19.4146 27.3916 19.4146 27.4189ZM33.6333 30.7275C33.6333 30.9873 33.4556 31.5889 33.2779 31.9512C32.8882 32.7236 32.0474 33.373 31.1861 33.5576C30.9263 33.6123 27.105 33.6328 17.48 33.6328C2.92633 33.6328 3.79449 33.6533 2.99469 33.25C2.52301 33.0107 1.97613 32.4502 1.7232 31.9512C1.54547 31.5889 1.36773 30.9873 1.36773 30.7275C1.36773 30.6387 3.44586 30.625 17.5005 30.625C31.5552 30.625 33.6333 30.6387 33.6333 30.7275Z" fill="#987750"/>
<path d="M17.1662 0.095703C16.5715 0.423828 16.8244 1.36719 17.5012 1.36719C17.8498 1.36719 18.1848 1.03223 18.1848 0.69043C18.1848 0.177734 17.6174 -0.157227 17.1662 0.095703Z" fill="#987750"/>
<path d="M8.34685 4.47091C7.88884 4.72384 7.90251 5.44845 8.37419 5.66036C8.64763 5.78341 11.3615 5.76974 11.6144 5.64669C12.0656 5.40743 12.0656 4.71017 11.6144 4.47091C11.3478 4.33419 8.59294 4.33419 8.34685 4.47091Z" fill="#987750"/>
<path d="M14.7726 4.4707C14.3146 4.72363 14.3283 5.44824 14.8 5.66016C14.9299 5.72168 16.4133 5.74219 20.7131 5.74219C25.0129 5.74219 26.4962 5.72168 26.6261 5.66016C26.8244 5.57129 27.0021 5.28418 27.0021 5.05859C27.0021 4.83301 26.8244 4.5459 26.6261 4.45703C26.3527 4.33398 14.9982 4.34766 14.7726 4.4707Z" fill="#987750"/>
<path d="M8.34685 8.84562C7.88884 9.09855 7.90251 9.82316 8.37419 10.0351C8.61345 10.1445 18.9836 10.1513 19.2297 10.0419C19.4211 9.95304 19.6193 9.64543 19.6193 9.43351C19.6193 9.2216 19.4211 8.91398 19.2297 8.82511C18.9699 8.7089 8.5656 8.72941 8.34685 8.84562Z" fill="#987750"/>
<path d="M22.4296 8.8457C22.1083 9.02344 21.999 9.41992 22.1767 9.76855C22.3476 10.0967 22.4843 10.1172 24.5488 10.1172C26.6269 10.1172 26.7636 10.0967 26.9208 9.74121C27.0781 9.39258 26.9687 9.00976 26.6542 8.8457C26.3876 8.70898 22.6757 8.70898 22.4296 8.8457Z" fill="#987750"/>
<path d="M8.34685 13.2207C7.88884 13.4736 7.90251 14.1982 8.37419 14.4102C8.50408 14.4717 9.3654 14.4922 11.5256 14.4922C14.0412 14.4922 14.5265 14.4785 14.6974 14.3896C14.9367 14.2666 15.0392 14.0957 15.0392 13.8086C15.0392 13.5215 14.9367 13.3506 14.6974 13.2275C14.424 13.084 8.60661 13.0771 8.34685 13.2207Z" fill="#987750"/>
<path d="M17.7607 13.3232C17.5762 13.4873 17.5352 13.5693 17.5352 13.8086C17.5352 14.0479 17.5762 14.1299 17.7607 14.2939L17.9795 14.4922H21.3291C24.918 14.4922 24.9453 14.4922 25.1299 14.1436C25.3144 13.7881 25.1846 13.3574 24.8496 13.207C24.7197 13.1455 23.7764 13.125 21.3291 13.125H17.9795L17.7607 13.3232Z" fill="#987750"/>
</g>
<defs>
<clipPath id="clip0_653_2572">
<rect width="35" height="35" fill="white"/>
</clipPath>
</defs>
</svg>
