<svg width="32" height="16" viewBox="0 0 32 16" fill="none" xmlns="http://www.w3.org/2000/svg">
<path d="M23.7953 0.0581627C23.4076 0.176239 23.1887 0.57397 23.2887 0.971701C23.3138 1.08978 24.3581 2.16489 26.403 4.20326L29.4735 7.26703L14.9902 7.27946L0.500623 7.2981L0.325522 7.42861C0.231718 7.49697 0.106646 7.67097 0.0566174 7.81391C-0.0246794 8.04385 -0.0184258 8.09356 0.0753782 8.28621C0.131661 8.40429 0.256733 8.55344 0.350537 8.61558C0.51313 8.72123 1.18226 8.72745 14.9965 8.74609L29.4735 8.75852L26.4343 11.7912C24.7583 13.4567 23.3575 14.8985 23.3263 14.9917C23.1699 15.3956 23.3263 15.7747 23.714 15.9363C24.1517 16.1165 24.0642 16.1911 28.1415 12.133C30.7055 9.58505 31.9562 8.29864 31.9812 8.18057C32.0063 8.08735 32.0063 7.9382 31.9812 7.83877C31.9562 7.72691 30.7118 6.44671 28.1791 3.91739C24.9647 0.716905 24.1517 -0.0474834 23.9954 0.00223255C23.9829 0.00223255 23.8953 0.0333052 23.7953 0.0581627Z" fill="#6d9f38"/>
</svg>
