<svg width="60" height="60" viewBox="0 0 60 60" fill="none" xmlns="http://www.w3.org/2000/svg">
<g clip-path="url(#clip0_937_189)">
<path d="M45.9961 1.58203C45.7266 1.83984 45.7031 1.95703 45.7031 2.92969C45.7031 4.16016 45.8672 4.45312 46.5703 4.45312C47.2383 4.45312 47.4609 4.04297 47.4609 2.84766C47.4609 1.95703 47.4375 1.83984 47.168 1.58203C47.0156 1.41797 46.7461 1.28906 46.582 1.28906C46.418 1.28906 46.1484 1.41797 45.9961 1.58203Z" fill="#6d9f38"/>
<path d="M40.7816 2.69531C40.4535 3.02344 40.4886 3.375 40.9457 4.38281C41.3441 5.25 41.6019 5.50781 42.0707 5.50781C42.3988 5.50781 42.891 5.00391 42.891 4.66406C42.891 4.35938 42.2699 2.97656 41.9886 2.66016C41.7308 2.39062 41.0746 2.40234 40.7816 2.69531Z" fill="#6d9f38"/>
<path d="M51.2344 2.5429C51.0234 2.62494 50.2734 4.27728 50.2734 4.65228C50.2734 4.80462 50.4141 5.06244 50.5781 5.23822C50.8125 5.47259 50.9414 5.51947 51.2461 5.46087C51.7383 5.36712 51.8203 5.26165 52.2656 4.2304C52.6523 3.33978 52.6641 2.98822 52.3125 2.64837C52.1367 2.47259 51.5508 2.414 51.2344 2.5429Z" fill="#6d9f38"/>
<path d="M36.6328 5.75388C36.4219 5.91794 36.3281 6.10544 36.3281 6.36325C36.3281 6.82028 36.3516 6.85544 37.1836 7.59372C37.9922 8.32028 38.4961 8.41403 38.8945 7.89841C39.3281 7.34763 39.1758 6.99606 38.1797 6.11716C37.4062 5.44919 37.1133 5.37888 36.6328 5.75388Z" fill="#6d9f38"/>
<path d="M55.0545 6.04687C54.7147 6.33984 54.3397 6.69141 54.2342 6.82031C53.7537 7.35937 54.1873 8.20312 54.9373 8.20312C55.2303 8.20312 55.4647 8.05078 56.074 7.48828C56.7186 6.87891 56.8358 6.70312 56.8358 6.38672C56.8358 6.10547 56.7537 5.92969 56.5311 5.75391C56.0623 5.37891 55.7342 5.44922 55.0545 6.04687Z" fill="#6d9f38"/>
<path d="M44.5898 5.80078C42.082 6.33984 39.668 8.23828 38.5078 10.5703C37.8047 12.0117 37.5703 12.9844 37.5703 14.5898C37.5703 16.1836 37.8047 17.1562 38.4961 18.5742C39.1055 19.8398 40.0078 20.9414 41.0625 21.7383C41.9766 22.4297 42.0586 22.7461 41.4844 23.4023L41.1328 23.8008V26.2617C41.1328 29.0156 41.1797 29.25 41.8828 29.5781C42.1289 29.6953 42.5859 29.7656 43.0547 29.7656H43.8281V30.5977C43.8281 31.5234 44.0156 31.957 44.5312 32.2734C44.8008 32.4258 45.1992 32.4609 46.6172 32.4609C48.2109 32.4609 48.3984 32.4375 48.6797 32.2148C49.1602 31.8398 49.3359 31.3828 49.3359 30.5508V29.7891L50.2852 29.7422C51.2109 29.707 51.2461 29.6953 51.6328 29.2734L52.0312 28.8281V26.4023C52.0312 24.1758 52.0078 23.9297 51.7969 23.5781C51.668 23.3672 51.4805 23.168 51.3867 23.1328C51.293 23.0859 51.2109 22.9102 51.2109 22.7227C51.2109 22.4531 51.3281 22.3008 51.832 21.9375C52.6992 21.293 53.8945 19.9805 54.4102 19.0898C55.2891 17.5898 55.7461 15.4336 55.5469 13.6875C55.3477 11.9766 55.1016 11.4844 54.4219 11.4844C53.8477 11.4844 53.5195 11.8828 53.6016 12.4805C53.6367 12.7383 53.7187 13.3125 53.7773 13.7695C53.8945 14.6133 53.8008 15.7852 53.543 16.6992C53.1328 18.1523 51.8906 19.7812 50.4492 20.7305C49.582 21.3047 49.4883 21.4688 49.4648 22.4062L49.4531 22.9688H48.457H47.4609V21.1641V19.3594L47.8594 19.125C48.8203 18.5625 49.1484 17.6484 49.0898 15.7383C49.043 14.6133 49.0078 14.4141 48.7148 13.9219C48.1406 12.9492 46.957 12.4688 45.8555 12.7852C45.1641 12.9727 44.4023 13.6992 44.2031 14.3672C44.0273 14.9648 44.0156 17.1211 44.1914 17.7305C44.332 18.2344 45.0234 19.0781 45.4336 19.2305C45.7031 19.3242 45.7031 19.3594 45.7031 21.1523V22.9805L44.6836 22.9453L43.6523 22.9102L43.6172 22.3242C43.5703 21.3633 43.5234 21.2695 42.7266 20.7539C40.5352 19.3242 39.3281 17.1328 39.3281 14.5898C39.3281 12.5508 39.9961 10.9688 41.4844 9.48047C42.9258 8.05078 44.543 7.38281 46.5937 7.38281C48.3867 7.38281 49.9453 7.95703 51.4102 9.16406C51.9844 9.64453 52.4062 9.72656 52.8281 9.42188C53.0156 9.29297 53.0859 9.12891 53.0859 8.78906C53.0859 8.39062 53.0156 8.27344 52.418 7.73438C51.5859 6.99609 49.7344 6.07031 48.5508 5.8125C47.543 5.58984 45.5742 5.57812 44.5898 5.80078ZM47.0977 14.7188C47.3086 14.9883 47.3437 15.1992 47.3437 16.1016C47.3437 17.3672 47.1914 17.6953 46.6172 17.6953C45.9375 17.6953 45.8203 17.4609 45.8203 16.0898C45.8203 15.0352 45.8555 14.8477 46.0547 14.6484C46.3828 14.3203 46.8047 14.3555 47.0977 14.7188ZM50.2734 26.3672V28.0078H46.582H42.8906V26.3672V24.7266H46.582H50.2734V26.3672ZM47.5781 30.2344V30.7031H46.582H45.5859V30.2344V29.7656H46.582H47.5781V30.2344Z" fill="#6d9f38"/>
<path d="M33.9726 10.3008C33.6679 10.5469 33.5976 11.2266 33.8554 11.5195C34.0078 11.7188 35.6484 12.3047 36.0117 12.3047C36.3164 12.3047 36.7968 11.7773 36.7968 11.4375C36.7968 10.957 36.3398 10.5938 35.4257 10.3242C34.4062 10.0195 34.3124 10.0195 33.9726 10.3008Z" fill="#6d9f38"/>
<path d="M57.6562 10.3241C57.2343 10.4648 56.7773 10.6757 56.6366 10.8163C56.2499 11.1562 56.2734 11.7421 56.6718 12.0585C57.0702 12.3749 57.1757 12.3632 58.2773 11.9999C59.0741 11.7304 59.2265 11.6366 59.3554 11.332C59.6015 10.746 59.2265 10.0781 58.6523 10.0898C58.5234 10.0898 58.078 10.1952 57.6562 10.3241Z" fill="#6d9f38"/>
<path d="M0.738268 14.0625C-0.0586072 14.5429 -1.34831e-05 12.7617 -1.34831e-05 36.2695C-1.34831e-05 59.6484 -0.0468885 58.0664 0.691393 58.5117C1.0078 58.6992 2.00389 58.7109 14.2383 58.7109C28.7344 58.7109 27.9141 58.7461 28.3008 58.0078C28.4414 57.7383 28.4766 57.2226 28.4766 55.664V53.6719H36.1875C42.4922 53.6719 44.0273 53.6367 44.6953 53.4961C45.3164 53.3672 46.0898 53.0039 48.0351 51.9492C49.4297 51.1992 50.707 50.4375 50.8945 50.2617C51.3164 49.8398 51.3398 49.0312 50.9531 48.5859C50.6836 48.2929 46.3594 45.8672 45.4219 45.4922C45 45.3164 44.0039 45.2812 36.7383 45.2344L28.5351 45.1758L28.5 43.8164L28.4648 42.457L29.7891 42.375C34.6289 42.0937 38.8125 39.7265 41.4023 35.8008C42.0469 34.8164 42.0937 34.7109 42.0469 34.1953C41.9297 33.0469 39.5859 30.2226 37.6172 28.8633C35.2148 27.2226 32.4492 26.3086 29.6484 26.2265L28.5351 26.1914L28.4766 20.4258L28.418 14.6484L28.0312 14.2734L27.6562 13.8867L19.1015 13.8515C10.664 13.8281 10.5469 13.8281 10.3125 14.0625C9.96092 14.414 9.99608 15.0351 10.3828 15.3398C10.6875 15.5859 10.7812 15.5859 18.7031 15.5859H26.7187L26.6953 21L26.6601 26.4023L25.7812 26.6133C25.3008 26.7304 24.8906 26.8242 24.8789 26.8359C24.8555 26.8359 24.8437 26.5664 24.8437 26.2383C24.8437 25.8867 24.7617 25.5 24.6445 25.3008C24.2109 24.5742 24.6328 24.5976 14.0625 24.6328L4.42967 24.6679L4.03124 25.1015L3.6328 25.5469V32.1094C3.6328 37.7578 3.65624 38.7304 3.80858 39.0234C4.18358 39.75 3.89061 39.7265 12.7031 39.7265H20.7422L21.4101 40.1601C22.6758 40.9687 24.8086 41.8242 26.3437 42.1289L26.7187 42.2109V43.7226V45.2226L21.0469 45.2578L15.3633 45.2929L14.9765 45.6679L14.5898 46.0429L9.91405 46.0781L5.24999 46.1133L5.02733 46.3945C4.73436 46.7461 4.74608 47.1211 5.05077 47.5078L5.28514 47.8125H9.79686H14.2969V49.0429V50.2734H9.79686H5.28514L5.05077 50.5781C4.74608 50.9648 4.73436 51.3398 5.02733 51.6914L5.24999 51.9726L9.83202 52.0078C14.0039 52.0312 14.414 52.0547 14.414 52.2304C14.414 52.5234 14.8828 53.1562 15.293 53.4023C15.6211 53.6015 16.043 53.6133 21.1875 53.6484L26.7187 53.6836V55.3125V56.9531H14.2383H1.7578V36.2695V15.5859H4.32421C6.73827 15.5859 6.90233 15.5742 7.1953 15.3398C7.58202 15.0351 7.61717 14.414 7.26561 14.0625C7.04295 13.8398 6.87889 13.8281 4.07811 13.8281C1.34764 13.8281 1.08983 13.8515 0.738268 14.0625ZM23.0859 26.9531V27.539L22.3594 27.9023C20.1562 29.0156 17.8476 31.1953 16.6758 33.2578C16.3359 33.8672 16.2773 34.0781 16.3242 34.4531C16.3828 34.957 17.1094 36.1289 18.0351 37.2304L18.6445 37.9687H12.0117H5.39061V32.1679V26.3672H14.2383H23.0859V26.9531ZM30.7031 28.0664C34.2773 28.3594 38.0391 30.7383 40.1016 33.9961C40.2891 34.3008 40.2891 34.3242 39.7617 35.0976C37.875 37.9101 34.5586 39.9609 31.0195 40.5C26.3555 41.2148 21.3984 39.082 18.6562 35.1679L18.0469 34.3125L18.6562 33.4453C19.418 32.332 21.1758 30.6562 22.3008 29.9531C23.3789 29.2734 24.6914 28.7226 26.0156 28.3594C27.0117 28.1015 28.7695 27.9023 29.5312 27.9609C29.7539 27.9844 30.2812 28.0312 30.7031 28.0664ZM19.8984 49.4179L19.8633 51.8554H17.9883H16.1133L16.0781 49.4179L16.0547 46.9922H17.9883H19.9219L19.8984 49.4179ZM42.5391 47.7539V48.5156H40.6172C38.8594 48.5156 38.6836 48.539 38.3906 48.7617C38.0039 49.0664 37.9687 49.6875 38.3203 50.039C38.5312 50.25 38.707 50.2734 40.5469 50.2734H42.5391V51.0937V51.914H32.1094H21.6797V51.0937V50.2734H28.418C35.0039 50.2734 35.1562 50.2734 35.3906 50.039C35.7422 49.6875 35.707 49.0664 35.3203 48.7617C35.0156 48.5156 34.9101 48.5156 28.3476 48.5156H21.6797V47.7539V46.9922H32.1094H42.5391V47.7539ZM45.5039 47.4844L46.1836 47.8242L46.1484 49.4062L46.1133 51L45.4687 51.3281C45.1172 51.5156 44.707 51.6914 44.5664 51.7383L44.2969 51.8086V49.3945V46.9804L44.5664 47.0625C44.707 47.0976 45.1289 47.2969 45.5039 47.4844ZM48.5156 49.1015C48.7734 49.2304 48.9844 49.3594 48.9844 49.3945C48.9844 49.4531 48.1055 49.9219 47.9883 49.9219C47.9531 49.9219 47.9297 49.6875 47.9297 49.3945C47.9297 49.1015 47.9531 48.8672 47.9883 48.8672C48.0234 48.8672 48.2695 48.9726 48.5156 49.1015Z" fill="#6d9f38"/>
<path d="M28.1245 29.1797C26.8823 29.4375 25.4761 30.4219 24.7964 31.5C23.73 33.1875 23.7769 35.5782 24.9019 37.2422C26.7534 39.9727 30.7847 40.2422 33.023 37.793C33.3159 37.4649 33.7144 36.8672 33.9136 36.4454C34.2183 35.7891 34.2769 35.5196 34.312 34.5118C34.3472 33.5391 34.312 33.2227 34.1128 32.6368C33.5972 31.1719 32.4136 29.9532 30.9839 29.4141C30.2222 29.1329 28.8862 29.0274 28.1245 29.1797ZM30.6323 31.1836C31.605 31.6407 32.5777 32.9297 32.5777 33.7735C32.5777 34.0782 32.5425 34.1016 32.0737 34.1016C30.8902 34.1016 29.6948 33.3282 29.1323 32.2032C28.9683 31.8633 28.8277 31.418 28.8277 31.1954V30.7852L29.4722 30.8672C29.8355 30.9024 30.3511 31.043 30.6323 31.1836ZM27.2456 32.25C27.855 34.125 29.648 35.625 31.523 35.836L32.2612 35.918L31.8628 36.4336C31.6402 36.7149 31.1714 37.1133 30.8198 37.3125C30.2339 37.6407 30.0816 37.6758 29.1792 37.6758C28.3003 37.6758 28.1128 37.6407 27.562 37.3243C26.812 36.9141 26.4253 36.4922 26.0386 35.6368C25.7925 35.0977 25.7573 34.8868 25.8042 34.1133C25.8628 33.1407 26.062 32.625 26.6362 32.0157C26.8355 31.8164 27.0112 31.6407 27.023 31.6407C27.0347 31.6407 27.1402 31.9219 27.2456 32.25Z" fill="#6d9f38"/>
<path d="M34.5817 15.2461C33.9372 15.3281 33.6325 15.4219 33.4333 15.6094C33.07 15.9492 33.0817 16.4531 33.4567 16.8281C33.7262 17.0977 33.8083 17.1094 34.4879 17.0508C35.9762 16.8867 36.3278 16.6992 36.3278 16.0195C36.3278 15.6797 36.0114 15.2812 35.6833 15.1992C35.5544 15.1758 35.0622 15.1992 34.5817 15.2461Z" fill="#6d9f38"/>
<path d="M57.4219 15.1992C57.0703 15.3281 56.8359 15.6328 56.8359 15.9609C56.8359 16.7344 57.2578 16.9687 58.6875 17.0156C59.4727 17.0508 59.5664 17.0273 59.7773 16.7695C60.0586 16.418 60.0586 16.043 59.7656 15.668C59.5664 15.4219 59.3906 15.3516 58.7344 15.293C58.3008 15.2461 57.8672 15.1992 57.7734 15.1758C57.6797 15.1523 57.5156 15.1641 57.4219 15.1992Z" fill="#6d9f38"/>
<path d="M35.9176 20.0391C35.4606 20.3086 35.027 20.6016 34.9567 20.707C34.5817 21.1992 35.027 22.0312 35.6598 22.0312C36.0817 22.0312 37.5465 21.1992 37.7457 20.8477C38.0153 20.332 37.5582 19.5703 36.9723 19.5703C36.8434 19.5703 36.3629 19.7812 35.9176 20.0391Z" fill="#6d9f38"/>
<path d="M55.6052 19.8633C55.0309 20.4375 55.277 20.9765 56.4138 21.6093C57.3278 22.125 57.7848 22.1484 58.113 21.7265C58.5817 21.1289 58.3708 20.7304 57.1989 20.039C56.2848 19.5 55.9919 19.4648 55.6052 19.8633Z" fill="#6d9f38"/>
<path d="M9.19922 20.0977C9.03516 20.25 8.90625 20.5195 8.90625 20.6836C8.90625 20.8477 9.03516 21.1172 9.19922 21.2695L9.48047 21.5625H14.2383H18.9961L19.2773 21.2695C19.6758 20.8828 19.6641 20.3672 19.2656 20.0508C18.9609 19.8164 18.832 19.8047 14.2148 19.8047H9.48047L9.19922 20.0977Z" fill="#6d9f38"/>
<path d="M5.05078 42.2578C4.91016 42.4336 4.80469 42.6914 4.80469 42.8438C4.80469 43.1719 5.15625 43.5586 5.53125 43.6523C5.68359 43.6875 9.72656 43.6992 14.5078 43.6875L23.2266 43.6523L23.4492 43.3711C23.7422 43.0195 23.7305 42.4805 23.4375 42.1875C23.2031 41.9531 23.0508 41.9531 14.25 41.9531H5.28516L5.05078 42.2578Z" fill="#6d9f38"/>
</g>
<defs>
<clipPath id="clip0_937_189">
<rect width="60" height="60" fill="white"/>
</clipPath>
</defs>
</svg>
