<svg width="14" height="14" viewBox="0 0 14 14" fill="none" xmlns="http://www.w3.org/2000/svg">
<g clip-path="url(#clip0_399_2695)">
<path d="M3.15 0.057373C3.08164 0.0901861 2.99961 0.164014 2.95859 0.226905C2.89023 0.330811 2.88477 0.358154 2.87656 0.713623L2.86836 1.08823L2.30234 1.09917C1.78008 1.11011 1.71992 1.11831 1.51758 1.18394C1.15938 1.30425 0.91875 1.45464 0.639844 1.73355C0.363672 2.00972 0.213281 2.25034 0.0875 2.61128L0.0136719 2.83003V7.54683V12.2636L0.0875 12.4824C0.213281 12.8433 0.363672 13.0839 0.639844 13.3601C0.916016 13.6363 1.15664 13.7867 1.51758 13.9125L1.73633 13.9863L4.12617 13.9945L6.51328 14.0027L6.63633 13.9425C6.71016 13.907 6.78672 13.8414 6.83047 13.773C6.89336 13.6773 6.9043 13.6335 6.9043 13.4531C6.9043 13.2726 6.89336 13.2289 6.83047 13.1332C6.78672 13.0675 6.71016 12.9992 6.63906 12.9636C6.51875 12.9062 6.50234 12.9062 4.38594 12.9062C3.11445 12.9062 2.1793 12.8953 2.06445 12.8789C1.5668 12.8078 1.19219 12.4332 1.12109 11.9355C1.08555 11.6757 1.08555 3.41792 1.12109 3.15815C1.15664 2.90933 1.26055 2.69878 1.43281 2.52651C1.69258 2.26948 1.96055 2.19019 2.56484 2.18745H2.87109V2.53472C2.87109 2.94487 2.91484 3.07339 3.09805 3.1937C3.19375 3.25659 3.2375 3.26753 3.41797 3.26753C3.59844 3.26753 3.64219 3.25659 3.73789 3.1937C3.92109 3.07339 3.96484 2.94487 3.96484 2.53472V2.18745H5.19531H6.42578V2.53472C6.42578 2.94487 6.46953 3.07339 6.65273 3.1937C6.74844 3.25659 6.79219 3.26753 6.97266 3.26753C7.15313 3.26753 7.19688 3.25659 7.29258 3.1937C7.47578 3.07339 7.51953 2.94487 7.51953 2.53472V2.18745H8.76367H10.0078V2.53472C10.0078 2.94487 10.0516 3.07339 10.2348 3.1937C10.3305 3.25659 10.3742 3.26753 10.5547 3.26753C10.7352 3.26753 10.7789 3.25659 10.8746 3.1937C11.0578 3.07339 11.1016 2.94487 11.1016 2.53472V2.18745H11.4242C12.0395 2.19019 12.3074 2.26948 12.5672 2.52651C12.7395 2.69878 12.8434 2.90933 12.8789 3.15815C12.8926 3.26753 12.9063 4.03042 12.9063 4.94644C12.9063 6.5187 12.9063 6.54604 12.9637 6.66636C12.9992 6.73745 13.0676 6.81401 13.1332 6.85776C13.2289 6.92065 13.2727 6.93159 13.4531 6.93159C13.6336 6.93159 13.6773 6.92065 13.773 6.85776C13.8414 6.81401 13.907 6.73745 13.9426 6.66362C14.0027 6.54058 14.0027 6.53784 13.9945 4.68667L13.9863 2.83003L13.9125 2.61128C13.7867 2.25034 13.6363 2.00972 13.3602 1.73355C13.0813 1.45464 12.8406 1.30425 12.4824 1.18394C12.2801 1.11558 12.2227 1.11011 11.684 1.09917L11.1016 1.08823V0.743701C11.1016 0.33628 11.0578 0.207764 10.8746 0.087451C10.7789 0.0245609 10.7352 0.0136232 10.5547 0.0136232C10.3742 0.0136232 10.3305 0.0245609 10.2348 0.087451C10.0516 0.207764 10.0078 0.33628 10.0078 0.746436V1.0937H8.76367H7.51953V0.746436C7.51953 0.33628 7.47578 0.207764 7.29258 0.087451C7.19688 0.0245609 7.15313 0.0136232 6.97266 0.0136232C6.79219 0.0136232 6.74844 0.0245609 6.65273 0.087451C6.46953 0.207764 6.42578 0.33628 6.42578 0.746436V1.0937H5.19531H3.96484V0.746436C3.96484 0.33628 3.92109 0.207764 3.73789 0.087451C3.58477 -0.0137205 3.3168 -0.0273924 3.15 0.057373Z" fill="#545454"/>
<path d="M3.15015 5.25259C2.98062 5.33735 2.89039 5.48774 2.87671 5.70376C2.85484 6.04282 3.04351 6.26157 3.37984 6.28344C3.7189 6.30532 3.93765 6.11665 3.95952 5.78032C3.9732 5.55884 3.89937 5.3893 3.73804 5.28266C3.58492 5.18149 3.31695 5.16782 3.15015 5.25259Z" fill="#545454"/>
<path d="M5.52906 5.25259C5.35953 5.33735 5.26929 5.48774 5.25562 5.70376C5.23374 6.04282 5.42242 6.26157 5.75874 6.28344C6.09781 6.30532 6.31656 6.11665 6.33843 5.78032C6.3521 5.55884 6.27827 5.3893 6.11695 5.28266C5.96382 5.18149 5.69585 5.16782 5.52906 5.25259Z" fill="#545454"/>
<path d="M7.90796 5.25259C7.73843 5.33735 7.6482 5.48774 7.63453 5.70376C7.61265 6.04282 7.80132 6.26157 8.13765 6.28344C8.47672 6.30532 8.69547 6.11665 8.71734 5.78032C8.73101 5.55884 8.65718 5.3893 8.49586 5.28266C8.34273 5.18149 8.07476 5.16782 7.90796 5.25259Z" fill="#545454"/>
<path d="M10.2869 5.25259C10.1173 5.33735 10.0271 5.48774 10.0134 5.70376C9.99156 6.04282 10.1802 6.26157 10.5166 6.28344C10.8556 6.30532 11.0744 6.11665 11.0962 5.78032C11.1099 5.55884 11.0361 5.3893 10.8748 5.28266C10.7216 5.18149 10.4537 5.16782 10.2869 5.25259Z" fill="#545454"/>
<path d="M10.0809 7.42388C9.41094 7.54966 8.78476 7.89145 8.30625 8.39184C7.90156 8.8102 7.62539 9.29966 7.46953 9.87114C7.40391 10.1118 7.39844 10.1747 7.39844 10.6915C7.39844 11.2083 7.40391 11.2711 7.46953 11.5118C7.63359 12.1133 7.90977 12.5918 8.35 13.0321C8.79023 13.4723 9.26875 13.7485 9.87031 13.9125C10.1109 13.9782 10.1738 13.9836 10.6906 13.9836C11.2074 13.9836 11.2703 13.9782 11.5109 13.9125C12.1125 13.7485 12.591 13.4723 13.0312 13.0321C13.4715 12.5918 13.7477 12.1133 13.9117 11.5118C13.9773 11.2711 13.9828 11.2083 13.9828 10.6915C13.9828 10.1747 13.9773 10.1118 13.9117 9.87114C13.7477 9.26958 13.4715 8.79106 13.0312 8.35083C12.5883 7.91059 12.1043 7.62895 11.5109 7.47309C11.2922 7.41567 11.1773 7.402 10.7727 7.3938C10.4309 7.38833 10.234 7.39653 10.0809 7.42388ZM11.1609 8.5477C11.85 8.7063 12.4352 9.19028 12.7086 9.83286C12.9383 10.377 12.9383 11.0059 12.7086 11.55C12.4352 12.1926 11.85 12.6766 11.1609 12.8352C10.9094 12.8926 10.4719 12.8926 10.2203 12.8352C9.38633 12.6465 8.73555 11.9958 8.54687 11.1618C8.48945 10.9102 8.48945 10.4727 8.54687 10.2211C8.73555 9.3981 9.35898 8.76372 10.1848 8.55591C10.4363 8.49302 10.9012 8.49028 11.1609 8.5477Z" fill="#545454"/>
<path d="M10.4233 9.08071C10.355 9.11353 10.2729 9.18736 10.2319 9.25025L10.1581 9.35962L10.1499 10.0979C10.1417 10.8034 10.1444 10.8362 10.2019 10.9565C10.2374 11.0303 10.303 11.1069 10.3714 11.1506C10.4808 11.2245 10.4862 11.2245 11.0522 11.2327C11.5937 11.2409 11.6319 11.2381 11.7468 11.1807C11.8233 11.1452 11.8999 11.0795 11.9437 11.0112C12.0065 10.9155 12.0175 10.8717 12.0175 10.6913C12.0175 10.5108 12.0065 10.467 11.9437 10.3713C11.8397 10.2155 11.6839 10.1444 11.4351 10.1444H11.2382V9.78345C11.2382 9.35689 11.1972 9.23384 11.0112 9.11079C10.8581 9.00962 10.5901 8.99595 10.4233 9.08071Z" fill="#545454"/>
<path d="M3.15015 7.63149C2.98062 7.71625 2.89039 7.86664 2.87671 8.08266C2.85484 8.42172 3.04351 8.64047 3.37984 8.66235C3.7189 8.68422 3.93765 8.49555 3.95952 8.15922C3.9732 7.93774 3.89937 7.76821 3.73804 7.66156C3.58492 7.56039 3.31695 7.54672 3.15015 7.63149Z" fill="#545454"/>
<path d="M5.52906 7.63149C5.35953 7.71625 5.26929 7.86664 5.25562 8.08266C5.23374 8.42172 5.42242 8.64047 5.75874 8.66235C6.09781 8.68422 6.31656 8.49555 6.33843 8.15922C6.3521 7.93774 6.27827 7.76821 6.11695 7.66156C5.96382 7.56039 5.69585 7.54672 5.52906 7.63149Z" fill="#545454"/>
<path d="M3.15015 10.0104C2.98062 10.0952 2.89039 10.2456 2.87671 10.4616C2.85484 10.8006 3.04351 11.0194 3.37984 11.0413C3.7189 11.0631 3.93765 10.8745 3.95952 10.5381C3.9732 10.3166 3.89937 10.1471 3.73804 10.0405C3.58492 9.9393 3.31695 9.92563 3.15015 10.0104Z" fill="#545454"/>
<path d="M5.52906 10.0104C5.35953 10.0952 5.26929 10.2456 5.25562 10.4616C5.23374 10.8006 5.42242 11.0194 5.75874 11.0413C6.09781 11.0631 6.31656 10.8745 6.33843 10.5381C6.3521 10.3166 6.27827 10.1471 6.11695 10.0405C5.96382 9.9393 5.69585 9.92563 5.52906 10.0104Z" fill="#545454"/>
</g>
<defs>
<clipPath id="clip0_399_2695">
<rect width="14" height="14" fill="white"/>
</clipPath>
</defs>
</svg>
