<svg width="35" height="35" viewBox="0 0 35 35" fill="none" xmlns="http://www.w3.org/2000/svg">
<path d="M4.82715 0.615235C4.39649 0.72461 3.78125 1.09375 3.48047 1.41504C3.0293 1.90039 2.79004 2.49512 2.74902 3.21973L2.71484 3.82813H3.27539H3.8291V3.44531C3.8291 3.2334 3.86328 2.93262 3.91113 2.77539C4.02051 2.39941 4.58789 1.83203 4.96387 1.72266C5.60645 1.53125 6.11914 1.66797 6.59766 2.15332C7.29493 2.84375 7.29493 3.71875 6.59766 4.40918C6.21485 4.79883 5.90039 4.92188 5.30567 4.92188H4.92285V6.5625V8.20312H5.46973H6.0166V7.0752C6.0166 6.16602 6.03711 5.94727 6.11231 5.94727C6.16016 5.94727 6.41992 5.83789 6.67969 5.70801C7.26758 5.41406 7.66407 5.00391 7.95118 4.38867C8.14942 3.97168 8.16993 3.86914 8.16993 3.27441C8.16993 2.65918 8.15625 2.59766 7.917 2.10547C7.45215 1.17578 6.63184 0.622071 5.62012 0.574219C5.33301 0.560547 4.97754 0.581055 4.82715 0.615235Z" fill="#987750"/>
<path d="M15.1768 0.65625C14.4863 0.84082 13.9053 1.26465 13.4678 1.90723C13.2559 2.22168 13.1533 2.31055 12.8799 2.40625C11.8066 2.78223 11.0479 3.78711 10.959 4.95605C10.9316 5.33203 10.959 5.59863 11.1094 6.21387L11.2939 6.98633L11.1367 7.33496C11.0068 7.61523 10.9727 7.79297 10.9727 8.23047C10.9795 8.72266 11 8.83203 11.2119 9.21484C11.335 9.4541 11.5332 9.7207 11.6426 9.81641C11.9434 10.0693 12.4424 10.3018 12.791 10.3564L13.0986 10.4043L13.1738 10.8691C13.3174 11.7783 13.9463 12.7422 14.6777 13.1729C14.8418 13.2686 14.9717 13.3643 14.9717 13.3916C14.9717 13.4189 14.876 13.5693 14.7598 13.7266C14.5273 14.041 13.8643 14.5127 13.4814 14.6357C13.3311 14.6836 12.4219 14.7383 11.2461 14.7656C9.89941 14.8066 9.12012 14.8545 8.81934 14.9229C7.31543 15.2715 6.05078 15.9619 4.99121 17.0215C4.32129 17.6914 3.87695 18.334 3.45312 19.2227C2.8584 20.501 2.71484 21.3623 2.74902 23.584C2.76953 25.1904 2.76953 25.1904 2.96094 25.5322C3.06348 25.7168 3.17969 25.9219 3.22754 25.9834C3.28906 26.0723 3.26172 26.1475 3.09766 26.3594C2.83105 26.7012 2.73535 26.9951 2.73535 27.4873V27.877L1.99023 27.9043C1.18359 27.9248 1.02637 27.9863 0.725586 28.3965C0.588867 28.5811 0.582031 28.6631 0.582031 31.1719C0.582031 33.6807 0.588867 33.7627 0.725586 33.9473C0.800781 34.0498 0.951172 34.2002 1.05371 34.2754C1.23828 34.4189 1.31348 34.4189 4.92285 34.4189C8.53223 34.4189 8.60742 34.4189 8.79199 34.2754C8.89453 34.2002 9.04492 34.0498 9.12012 33.9473C9.25684 33.7627 9.26367 33.6807 9.26367 31.1719C9.26367 28.6631 9.25684 28.5811 9.12012 28.3965C8.81934 27.9863 8.66211 27.9248 7.85547 27.9043L7.11035 27.877V27.4873C7.11035 26.9951 7.01465 26.7012 6.74805 26.3594C6.58398 26.1475 6.55664 26.0723 6.61816 25.9834C6.66602 25.9219 6.78223 25.7168 6.88477 25.5322C7.06934 25.1904 7.06934 25.1836 7.11035 23.4746L7.14453 21.7656L7.39746 21.2461C7.70508 20.624 8.10156 20.2412 8.7373 19.9404C9.18848 19.7285 9.22266 19.7217 10.3438 19.7012L11.4854 19.6738V20.1182C11.4854 21.4648 11.2256 25.0127 10.9863 26.9883C10.9385 27.3779 10.9248 27.7129 10.9521 27.7266C10.9863 27.7471 11.2188 27.8359 11.4717 27.918C11.8408 28.0479 11.9229 28.1025 11.9092 28.2051C11.8955 28.2803 11.5195 29.6816 11.0684 31.3291C10.624 32.9766 10.2549 34.3506 10.2549 34.3916C10.2549 34.4258 11.5195 34.4531 13.5225 34.4531H16.7832L17.1182 33.5986C17.3027 33.127 17.4736 32.7441 17.501 32.7441C17.5283 32.7441 17.6992 33.127 17.8838 33.5986L18.2188 34.4531H21.4863C23.4824 34.4531 24.7471 34.4258 24.7471 34.3916C24.7471 34.3506 24.3779 32.9766 23.9336 31.3291C23.4824 29.6816 23.1064 28.2803 23.0928 28.2051C23.0791 28.1025 23.1611 28.0479 23.5508 27.918C23.8105 27.8291 24.043 27.7334 24.0703 27.6992C24.0977 27.6719 24.0908 27.4668 24.0635 27.2412C23.8242 25.5527 23.6191 23.085 23.5439 20.9727L23.4961 19.6875H24.583C26.2646 19.6875 27.2012 19.4893 28.4043 18.8877C28.7051 18.7305 29.1357 18.4707 29.3682 18.2998C29.8467 17.9375 30.708 17.0488 31.0156 16.6113C31.3369 16.1328 31.7539 15.2646 31.9453 14.6631C32.2598 13.6582 32.2734 13.2549 32.2529 7.6084C32.2324 2.40625 32.2324 2.33105 32.0889 2.14648C32.0137 2.04395 31.8633 1.89355 31.7607 1.81836C31.5762 1.68164 31.4941 1.6748 28.7119 1.6748C25.9297 1.6748 25.8477 1.68164 25.6631 1.81836C25.5605 1.89355 25.4102 2.04395 25.335 2.14648C25.1914 2.33105 25.1914 2.40625 25.1914 6.01562C25.1914 9.625 25.1914 9.7002 25.335 9.88477C25.6562 10.3223 25.7588 10.3564 26.8799 10.377L27.9053 10.3975L27.8779 11.7783C27.8574 13.1182 27.8506 13.166 27.6729 13.5078C27.3994 14.0273 27.1943 14.2393 26.7158 14.499L26.2852 14.7314H24.0635C21.5889 14.7314 21.5205 14.7246 20.8574 14.2803C20.502 14.041 20.0303 13.5352 20.0303 13.3916C20.0303 13.3643 20.1602 13.2686 20.3242 13.1729C21.0557 12.7422 21.6846 11.7783 21.8281 10.8691L21.9033 10.4043L22.2109 10.3564C22.5596 10.3018 23.0586 10.0693 23.3594 9.81641C23.4688 9.7207 23.667 9.4541 23.7969 9.21484C24.002 8.8252 24.0225 8.72949 24.0293 8.20312C24.0293 7.71094 24.002 7.57422 23.8584 7.29395L23.6807 6.96582L23.7969 6.26855C24.0566 4.72363 24.1523 2.27637 23.9814 1.68164C23.8721 1.30566 23.3047 0.738281 22.9287 0.628906C22.4844 0.499023 15.6826 0.519531 15.1768 0.65625ZM22.8125 1.81836L22.9902 1.99609L22.9424 3.47949C22.9219 4.29297 22.8604 5.21582 22.8125 5.53711C22.7373 6.05664 22.7168 6.11816 22.5938 6.09766C22.5186 6.09082 22.252 6.06348 22.0059 6.04297L21.5479 5.99512L20.5703 5.01758C20.0303 4.47754 19.5586 4.0332 19.5176 4.0332C19.4287 4.0332 18.7998 4.66211 18.7998 4.75098C18.7998 4.79199 19.2441 5.26367 19.791 5.81055L20.7891 6.80176L20.7686 8.88672L20.748 10.9717L20.5156 11.4023C20.2559 11.8809 20.0439 12.0859 19.5244 12.3594L19.1758 12.5439H17.501H15.8262L15.4775 12.3594C14.958 12.0859 14.7461 11.8809 14.4863 11.4023L14.2539 10.9717L14.2334 8.71582C14.2197 7.23242 14.2334 6.37793 14.2812 6.20703C14.377 5.89941 14.7529 5.55762 15.0742 5.49609L15.3135 5.45508V4.9082V4.35449L15.0059 4.39551C14.3223 4.49121 13.6455 5.00391 13.3516 5.65332C13.2217 5.93359 13.1533 6.01562 13.0303 6.01562C12.9414 6.01562 12.7295 6.05664 12.5586 6.11133L12.2373 6.20703L12.1689 5.9541C12.0254 5.47559 12.0117 4.95605 12.1279 4.61426C12.3535 3.94434 12.8115 3.54102 13.5771 3.32227L14.0967 3.17871L14.2266 2.84375C14.418 2.32422 14.917 1.86621 15.4502 1.70215C15.5459 1.6748 17.2002 1.64746 19.1279 1.64746L22.6348 1.64062L22.8125 1.81836ZM31.1729 5.6123C31.1729 7.88867 31.1523 8.4834 31.0908 8.44922C30.3799 8.15527 29.7783 8.14844 29.1699 8.42871C28.8486 8.5791 28.2334 9.1123 28.2334 9.24219C28.2334 9.26953 27.7891 9.29688 27.2422 9.29688H26.251V6.01562V2.73438H28.7119H31.1729V5.6123ZM13.126 8.20312C13.126 9.41309 13.1328 9.38574 12.6953 9.20117C11.8408 8.8457 11.834 7.57422 12.6816 7.20508C13.1328 7.00684 13.126 6.99316 13.126 8.20312ZM22.4844 7.30078C22.8193 7.54688 22.9355 7.7793 22.9355 8.20312C22.9355 8.50391 22.9014 8.6543 22.792 8.79102C22.6006 9.05762 22.3613 9.22168 22.1016 9.26953L21.876 9.31055V8.20312V7.08887L22.1016 7.13672C22.2178 7.15723 22.3955 7.23242 22.4844 7.30078ZM30.6807 9.48145C31.0771 9.77539 31.1387 9.93262 31.1592 10.7393L31.1865 11.4844H30.0859H28.9854V10.8418C28.9854 9.95996 29.1357 9.61816 29.6348 9.39258C29.9082 9.2627 30.4482 9.31055 30.6807 9.48145ZM31.1455 13.0908C30.9404 15.3672 29.4775 17.3223 27.3379 18.1768C26.5107 18.5117 25.834 18.5938 24.0225 18.5938H22.4229V19.6123C22.4229 21.376 22.6416 24.7393 22.874 26.6328L22.915 26.9746L22.3135 27.1592C20.6045 27.6787 19.3877 27.8496 17.501 27.8496C15.6279 27.8496 14.3975 27.6719 12.6885 27.1592L12.0869 26.9746L12.1279 26.6328C12.3604 24.7393 12.5791 21.376 12.5791 19.6123V18.5938H11.0547C9.27734 18.5938 8.91504 18.6484 8.16309 19.0039C7.05566 19.5371 6.24902 20.6377 6.07129 21.8682L5.98926 22.4219H4.90234H3.80859L3.85645 21.8818C3.98633 20.3301 4.64258 18.9287 5.77051 17.8008C6.64551 16.9258 7.5957 16.3789 8.80566 16.0576C9.25684 15.9346 9.63281 15.9072 11.417 15.8662C12.5654 15.8389 13.502 15.8184 13.5088 15.8184C13.5088 15.8252 13.7207 16.3447 13.9736 16.9873C14.2266 17.623 14.459 18.1768 14.4932 18.2109C14.5273 18.2383 14.8076 18.1152 15.1289 17.917C15.4502 17.7256 15.7373 17.5684 15.7715 17.5684C15.8057 17.5684 15.9492 17.8145 16.0996 18.1084L16.3594 18.6553L15.5254 21.4375L14.6914 24.2266L16.0928 25.6279L17.501 27.0361L18.9092 25.6279L20.3105 24.2266L19.4766 21.4375L18.6426 18.6553L18.9023 18.1084C19.0527 17.8145 19.1963 17.5684 19.2305 17.5684C19.2646 17.5684 19.5518 17.7256 19.8662 17.917C20.1807 18.1016 20.4678 18.2451 20.4951 18.2246C20.5225 18.2041 20.7617 17.6572 21.0215 17.0078L21.4863 15.8252L23.7285 15.8457C25.2529 15.8662 26.0869 15.8457 26.3467 15.791C27.666 15.5176 28.7324 14.3965 28.9443 13.0498L29.0127 12.5781H30.1064H31.1934L31.1455 13.0908ZM18.998 13.7949C19.0527 13.8975 18.9434 14.0068 18.3145 14.5127C17.9043 14.8408 17.542 15.1074 17.501 15.1074C17.46 15.1074 17.0977 14.8408 16.6875 14.5127C15.6416 13.6719 15.6416 13.6719 17.501 13.6719C18.7998 13.6719 18.9365 13.6855 18.998 13.7949ZM16.1885 15.5107C16.3457 15.6338 16.4688 15.7705 16.4619 15.8047C16.4277 15.9004 15.0811 16.6797 15.0332 16.625C15.0059 16.5977 14.876 16.3105 14.7461 15.9756L14.5068 15.3809L14.7939 15.1826C14.9512 15.0732 15.1221 14.9365 15.1699 14.875C15.252 14.7725 15.293 14.793 15.5801 15.0186C15.751 15.1553 16.0244 15.3809 16.1885 15.5107ZM20.2832 15.2305L20.4951 15.3809L20.2559 15.9824C20.126 16.3105 19.9961 16.5977 19.9688 16.625C19.9141 16.6934 18.5605 15.8867 18.5605 15.7842C18.5605 15.7432 18.8203 15.4971 19.1416 15.2441L19.7227 14.7725L19.8936 14.9297C19.9893 15.0186 20.1602 15.1553 20.2832 15.2305ZM17.9316 16.748L18.2529 16.9531L17.9795 17.5C17.7266 17.999 17.6855 18.0469 17.501 18.0469C17.3164 18.0469 17.2754 17.999 17.0225 17.5L16.749 16.9531L17.0703 16.748C17.2549 16.6387 17.4463 16.543 17.501 16.543C17.5557 16.543 17.7471 16.6387 17.9316 16.748ZM17.8018 19.7012C17.8975 20.0156 18.2188 21.082 18.5195 22.0801L19.0664 23.8916L18.2871 24.6777L17.501 25.4639L16.7148 24.6777L15.9355 23.8916L16.4824 22.0801C16.7832 21.082 17.1045 20.0156 17.2002 19.7012C17.3369 19.25 17.3916 19.1406 17.501 19.1406C17.6104 19.1406 17.665 19.25 17.8018 19.7012ZM6.00293 24.2607C5.98242 25.0674 5.9209 25.2246 5.51074 25.5254C5.24414 25.7236 4.60156 25.7236 4.33496 25.5254C3.9248 25.2246 3.86328 25.0674 3.84277 24.2607L3.81543 23.5156H4.92285H6.03027L6.00293 24.2607ZM5.8457 26.9678C5.98926 27.1045 6.0166 27.2002 6.0166 27.5146V27.8906H4.92285H3.8291V27.5146C3.8291 27.2002 3.85645 27.1045 4 26.9678C4.15723 26.8037 4.21191 26.7969 4.92285 26.7969C5.63379 26.7969 5.68848 26.8037 5.8457 26.9678ZM15.1631 28.8203C15.7578 28.916 16.3662 28.9434 17.501 28.9434C19.1211 28.9434 19.9141 28.8613 21.3154 28.5469L21.9922 28.3965L22.6553 30.8232C23.0176 32.1631 23.3115 33.2773 23.3115 33.3047C23.3115 33.3389 22.334 33.3594 21.1377 33.3594H18.9639L18.5811 32.4023L18.1982 31.4453L18.4785 31.3018C18.6357 31.2197 18.7793 31.1445 18.793 31.1309C18.834 31.0967 18.376 30.1465 18.3281 30.1465C18.3076 30.1533 18.0137 30.2969 17.6719 30.4746L17.0566 30.7959L16.5508 32.0742L16.0381 33.3594H13.8643C12.668 33.3594 11.6904 33.3389 11.6904 33.3047C11.6904 33.2773 11.9844 32.1631 12.3467 30.8232L13.0098 28.3965L13.6865 28.5469C14.0625 28.6289 14.7256 28.752 15.1631 28.8203ZM7.30859 29.2236C6.65234 29.7432 5.71582 30.0781 4.92285 30.0781C4.12305 30.0781 3.10449 29.709 2.54395 29.2168L2.29102 28.9912L4.9502 28.9844H7.60938L7.30859 29.2236ZM3.20703 30.8506C3.4668 30.9531 3.84277 31.0488 4.02734 31.0762L4.37598 31.124V31.6914V32.2656H4.92285H5.46973V31.6914V31.124L5.8252 31.0762C6.3584 31.001 7.17188 30.6592 7.71875 30.2764L8.2041 29.9346V31.6504V33.3594H4.92285H1.6416V31.6504V29.9482L2.18848 30.3105C2.48242 30.5088 2.94727 30.7549 3.20703 30.8506Z" fill="#987750"/>
<path d="M16.3877 4.36133C16.21 4.53906 16.0664 4.7168 16.0664 4.75098C16.0664 4.79199 16.5449 5.29785 17.126 5.87891L18.1855 6.93848L18.5752 6.54199L18.9717 6.15234L17.9121 5.09277C17.3311 4.51172 16.8252 4.0332 16.7842 4.0332C16.7432 4.0332 16.5654 4.18359 16.3877 4.36133Z" fill="#987750"/>
<path d="M18.5664 9.53613C18.5117 9.83008 18.2246 10.1787 17.9307 10.2949C17.7939 10.3564 17.4521 10.3906 17.0557 10.3906H16.4062V10.9443V11.498L17.2471 11.4707C18.04 11.4434 18.1016 11.4297 18.5117 11.2109C18.751 11.0879 19.0176 10.8896 19.1133 10.7803C19.373 10.4727 19.5986 9.98047 19.6533 9.61816L19.7012 9.29687H19.1543H18.6074L18.5664 9.53613Z" fill="#987750"/>
<path d="M27.3438 4.375V4.92188H28.7109H30.0781V4.375V3.82812H28.7109H27.3438V4.375Z" fill="#987750"/>
<path d="M27.3438 6.5625V7.10938H28.7109H30.0781V6.5625V6.01562H28.7109H27.3438V6.5625Z" fill="#987750"/>
<path d="M4.92188 9.84375V10.3906H5.46875H6.01562V9.84375V9.29688H5.46875H4.92188V9.84375Z" fill="#987750"/>
<path d="M29.8389 20.3164C29.6543 20.3506 29.251 20.501 28.9434 20.6445C27.624 21.2803 26.7969 22.6338 26.7969 24.1787V24.6094H27.3369H27.8701L27.9043 24.001C27.9727 22.8935 28.4922 22.0937 29.4492 21.6152C29.9414 21.376 30.0029 21.3623 30.625 21.3623C31.2471 21.3623 31.3086 21.376 31.8008 21.6152C32.4229 21.9228 32.8057 22.3193 33.1064 22.9551C33.3047 23.3721 33.3252 23.4746 33.3252 24.0693C33.3252 24.6846 33.3115 24.7461 33.0723 25.2383C32.5938 26.1953 31.7939 26.7148 30.6865 26.7832L30.0781 26.8174V29.5381V32.2656H30.625H31.1719V30.0576V27.8564L31.5342 27.7676C32.498 27.542 33.5098 26.7764 33.9473 25.9355C34.3232 25.2246 34.4189 24.8486 34.4189 24.0625C34.4189 22.9551 34.084 22.1416 33.3115 21.3623C32.4229 20.4599 31.124 20.0703 29.8389 20.3164Z" fill="#987750"/>
<path d="M30.0781 33.9062V34.4531H30.625H31.1719V33.9062V33.3594H30.625H30.0781V33.9062Z" fill="#987750"/>
</svg>
