<svg width="35" height="35" viewBox="0 0 35 35" fill="none" xmlns="http://www.w3.org/2000/svg">
<path d="M9.93137 0.109375C9.39133 0.225586 8.51633 0.587891 8.28391 0.786133C7.95579 1.07324 8.09251 1.63379 8.51633 1.73633C8.63254 1.77051 8.81712 1.72266 9.07688 1.59961C9.85618 1.23047 10.1911 1.14844 11.0046 1.11426C11.9138 1.07324 12.3923 1.16895 13.1579 1.53809C14.3337 2.1123 15.2156 3.19238 15.5505 4.47754C15.6941 5.01758 15.6872 6.09082 15.5505 6.64453C15.3523 7.41699 14.99 8.0459 14.3816 8.6748C13.9099 9.16016 13.8005 9.24219 13.6638 9.20801C13.5749 9.18066 13.1101 9.16016 12.6316 9.16016H11.7566V8.46973V7.78613L12.0027 7.68359C12.3308 7.54688 12.8298 7.0752 13.0007 6.74023C13.1921 6.37109 13.2468 5.72852 13.1032 5.5166C12.8025 5.05176 12.0984 5.3252 12.0984 5.90625C12.0984 6.34375 11.4831 6.82227 11.0251 6.7334C10.6833 6.67188 10.3415 6.31641 10.2868 5.97461C10.2253 5.58496 10.1091 5.38672 9.89036 5.31152C9.44602 5.16797 9.09739 5.55078 9.18626 6.09766C9.29563 6.78125 9.69895 7.33496 10.2937 7.62891L10.6628 7.80664V8.4834V9.16016H9.76047C9.26145 9.16016 8.78294 9.18066 8.69407 9.20117C8.56419 9.23535 8.44797 9.15332 8.01047 8.70898C6.92356 7.6084 6.48606 6.11816 6.80051 4.63477C6.90989 4.08789 7.08079 3.68457 7.45676 3.0625C7.68235 2.68652 7.7302 2.56348 7.68919 2.39258C7.59348 1.96875 7.06028 1.83887 6.75266 2.16699C6.30833 2.65234 5.86399 3.63672 5.69309 4.53906C5.57005 5.19531 5.60422 6.37793 5.76829 7.00684C5.96653 7.76562 6.53391 8.77734 7.07395 9.35156L7.5593 9.87109L7.39524 10.1719C6.94407 10.9717 7.23118 12.1338 7.98997 12.5918C8.12669 12.6738 8.2429 12.7422 8.25657 12.749C8.2634 12.7559 8.22239 12.9541 8.16087 13.1934C7.92844 14.1162 8.30442 14.9434 9.15891 15.3877C9.45969 15.5449 9.51438 15.5518 11.1892 15.5518H12.9118L12.9802 15.832C13.0486 16.0986 13.0349 16.1465 12.8161 16.5088C12.0915 17.7188 12.5017 19.2295 13.7322 19.8584C13.9236 19.9541 14.1218 20.0293 14.1833 20.0293C14.2654 20.0293 14.2859 20.125 14.2859 20.5215C14.2927 22.333 15.0241 23.9258 16.2683 24.8418L16.6648 25.1357L16.2068 25.5117C15.4411 26.1406 14.8738 26.9678 14.5115 27.9932L14.32 28.54V31.1377V33.7354L14.5046 34.0498C14.7234 34.4189 15.031 34.6992 15.4138 34.8701C15.6736 34.9932 16.07 35 23.0359 35C30.282 35 30.3913 34.9932 30.6921 34.8564C31.0886 34.6787 31.4099 34.3643 31.6355 33.9404L31.82 33.5986V31.3086C31.82 28.7314 31.7654 28.1914 31.4577 27.959C31.1364 27.6992 30.6784 27.8428 30.5896 28.2256C30.5691 28.335 30.5759 28.5469 30.6169 28.6904C30.6579 28.834 30.7058 29.1758 30.7331 29.4424L30.781 29.9414H29.6736H28.573V29.6748C28.573 29.292 28.3611 29.0527 28.0193 29.0527C27.8415 29.0527 27.7048 29.1006 27.6159 29.1895C27.4929 29.3125 27.4792 29.415 27.4792 30.2764V31.2197L26.2009 31.2607C24.7927 31.3018 24.4509 31.3701 23.9109 31.7119L23.5827 31.9238V30.208C23.5827 29.2646 23.6032 28.5059 23.6374 28.5195C24.6013 29.0186 25.6677 29.3945 26.1189 29.3945C26.4538 29.3945 26.5974 29.2578 26.8025 28.7383C26.9323 28.4033 26.9597 28.2051 26.9597 27.583C26.9597 26.8311 26.9529 26.8037 26.6247 26.0244C26.5837 25.9219 26.6247 25.9082 26.9734 25.9014C27.1989 25.9014 27.5476 25.8604 27.7527 25.8125C28.115 25.7305 28.1423 25.7373 28.532 25.9355C28.7507 26.0449 29.154 26.3525 29.4343 26.6123C29.8718 27.0225 29.9743 27.084 30.1931 27.084C30.5075 27.084 30.6921 26.8857 30.6921 26.5371C30.6921 26.3252 30.6306 26.2295 30.2341 25.8398C29.9743 25.5869 29.6941 25.334 29.5984 25.2656L29.4275 25.1494L29.6325 25.0059C29.7488 24.9238 30.07 24.6299 30.3503 24.3428C31.2253 23.4541 31.7038 22.3398 31.7585 21.0547C31.8064 20.0498 31.7927 20.084 32.2029 19.9404C32.6404 19.7832 33.1872 19.2568 33.4265 18.7646C33.57 18.4775 33.5974 18.3203 33.5974 17.7734C33.5974 17.1992 33.5769 17.0762 33.406 16.7344C33.1736 16.2627 32.654 15.7773 32.2097 15.6133C32.032 15.5518 31.8679 15.4766 31.8474 15.4561C31.82 15.4355 31.7517 14.752 31.6833 13.9453C31.6218 13.1387 31.5466 12.2842 31.5193 12.0449C31.4782 11.6758 31.4851 11.6074 31.6013 11.498C31.6765 11.4365 31.9568 11.1016 32.2302 10.7666C33.5222 9.16016 34.1579 7.75879 34.0144 6.82227C33.9187 6.17285 33.3376 5.68066 32.6745 5.67383C32.2507 5.67383 31.9499 5.76953 31.4851 6.0498C31.2663 6.17969 31.0749 6.28906 31.0613 6.28906C31.0476 6.28906 31.0339 6.17285 31.0339 6.0293C31.0339 5.68066 30.7468 5.12695 30.4734 4.94238C29.7146 4.42969 28.4568 4.65527 27.6091 5.44824C27.4245 5.61914 27.2673 5.74902 27.2536 5.73535C27.2468 5.72168 27.1648 5.55762 27.0759 5.37988C26.7068 4.64844 25.8933 4.45703 25.0798 4.90137C24.779 5.06543 24.0818 5.70117 23.8357 6.04297C23.74 6.17285 23.7263 6.17285 23.2341 5.93359C20.6433 4.67578 18.4421 4.88086 17.1638 6.4873C16.9997 6.69922 16.8767 6.79492 16.7947 6.78125C16.6853 6.76074 16.6784 6.71289 16.7195 6.47363C16.8083 5.91992 16.7605 4.77832 16.6101 4.2041C16.323 3.06934 15.612 1.93457 14.7439 1.23047C14.2038 0.786133 13.2468 0.314453 12.5495 0.136719C11.907 -0.0273438 10.6013 -0.0410156 9.93137 0.109375ZM26.0642 5.83789C26.2077 5.98145 26.2556 6.52832 26.1804 7.04102C26.0095 8.12793 26.0095 8.10742 26.2009 8.29883C26.529 8.62695 26.905 8.49023 27.1443 7.97754C27.6296 6.93164 28.4431 6.0293 29.0652 5.84473C29.5095 5.71484 29.5984 5.71484 29.7966 5.85156C29.947 5.96094 29.9538 6.00195 29.9265 6.41895C29.906 6.66504 29.8034 7.10254 29.7009 7.38281C29.5984 7.66309 29.4958 8.01855 29.4822 8.17578C29.4548 8.42188 29.4753 8.47656 29.6325 8.60645C29.9743 8.87305 30.1042 8.81152 30.8562 8.0459C31.6697 7.21191 32.2165 6.82227 32.5857 6.80859C32.9616 6.79492 33.0232 7.02734 32.8249 7.64941C32.3464 9.12598 30.3093 11.5186 28.4704 12.7695C27.5681 13.3779 26.7273 13.7061 25.4968 13.918C24.5124 14.0889 22.6394 14.0205 21.6755 13.7812C20.3835 13.4531 19.4402 12.9951 18.6267 12.3115C18.3054 12.0312 18.1755 11.9629 17.9704 11.9629C17.6355 11.9629 17.5124 12.1201 17.3484 12.7627C17.0544 13.9316 16.3708 14.9297 15.6531 15.2373C15.3865 15.3535 14.0876 15.5586 14.0398 15.4971C14.0398 15.4902 13.9988 15.3535 13.9577 15.1895C13.8962 14.9297 13.9099 14.8613 14.0603 14.5879C14.2859 14.1846 14.3406 13.5557 14.1902 13.125C14.0808 12.8242 14.0876 12.8174 14.2312 12.7148C14.8874 12.2773 15.1814 11.751 15.1814 11.0264C15.1814 10.6777 15.1404 10.4932 14.9968 10.1992L14.8122 9.81641L14.9558 9.7207C15.195 9.56348 15.824 8.75 16.0974 8.25098C16.2341 7.99805 16.3572 7.79297 16.3708 7.79297C16.3845 7.79297 16.5622 7.86133 16.7741 7.93652C17.3073 8.1416 17.4441 8.08691 17.7995 7.5332C18.3669 6.64453 18.9753 6.28906 19.987 6.24121C20.7322 6.20703 21.5866 6.39844 22.4753 6.80176L23.0359 7.06152L22.8855 7.27344C22.5847 7.69727 21.9695 8.29199 21.614 8.49023C21.4157 8.60645 21.2107 8.76367 21.156 8.83887C20.9372 9.15332 21.0945 9.59082 21.4636 9.67285C22.0105 9.7959 22.906 9.05762 24.1501 7.46484C25.3396 5.94727 25.7907 5.56445 26.0642 5.83789ZM13.6228 10.3496C13.9099 10.4658 14.0808 10.7324 14.0808 11.0537C14.0808 11.3613 13.9441 11.5801 13.6706 11.7236C13.3767 11.874 9.0427 11.874 8.72141 11.7236C8.46165 11.6006 8.27024 11.2998 8.27024 11.0195C8.27024 10.7939 8.54368 10.4111 8.7761 10.3223C8.85813 10.2881 9.93137 10.2607 11.1618 10.2607C12.905 10.2539 13.4519 10.2744 13.6228 10.3496ZM30.6032 14.0205C30.6921 15.0254 30.7195 16.0576 30.7195 18.2861C30.7126 21.082 30.7058 21.2529 30.5691 21.7656C30.2478 22.9346 29.4616 23.8984 28.4226 24.3906C28.1081 24.541 27.6843 24.6982 27.4792 24.7461C26.9118 24.8623 23.5759 24.958 21.6003 24.9102C18.654 24.8418 18.1277 24.7529 17.1843 24.1172C16.405 23.5977 15.8445 22.8252 15.5505 21.875C15.4138 21.4102 15.2634 18.1562 15.3386 17.1445L15.3933 16.4814L15.6052 16.4336C16.2546 16.2969 16.9724 15.8047 17.4304 15.2031C17.7107 14.834 18.2507 13.7949 18.2507 13.624C18.2507 13.4941 18.2917 13.5078 18.7361 13.7744C20.1989 14.6699 21.9148 15.1074 23.9109 15.1074C26.4675 15.1074 28.2243 14.499 30.0427 12.9951C30.2683 12.8105 30.4597 12.667 30.4665 12.6738C30.4802 12.6807 30.5349 13.2891 30.6032 14.0205ZM12.782 13.0361C13.3562 13.3711 13.2947 14.0957 12.6657 14.417C12.4333 14.5332 9.97239 14.5195 9.67161 14.3965C9.07004 14.1436 9.04954 13.3096 9.64426 13.0088C9.76047 12.9473 10.2322 12.9199 11.196 12.9199C12.3786 12.9199 12.6179 12.9404 12.782 13.0361ZM14.2585 16.8916C14.238 17.0078 14.2175 17.5068 14.2175 17.9922C14.2175 18.8535 14.2175 18.874 14.0808 18.7783C13.4656 18.3477 13.3835 17.4521 13.9167 16.9189C14.2175 16.6182 14.32 16.6113 14.2585 16.8916ZM32.2029 16.9326C32.4011 17.1514 32.5378 17.4863 32.5378 17.7393C32.5378 18.1562 32.2781 18.6416 31.9773 18.8057C31.8611 18.8672 31.8542 18.7988 31.8542 17.7734C31.8542 16.748 31.8611 16.6797 31.9773 16.7412C32.0388 16.7754 32.1482 16.8574 32.2029 16.9326ZM18.4831 25.8467C18.6677 25.8809 18.9685 25.9082 19.1531 25.9082C19.4538 25.9082 19.488 25.9219 19.447 26.0244C19.1804 26.6875 19.1257 26.9336 19.1257 27.5488C19.1189 28.6699 19.447 29.3945 19.9529 29.3945C20.3357 29.3945 21.1628 29.1416 21.8601 28.8135L22.489 28.5127V30.2148V31.9238L22.1677 31.7119C21.6208 31.3701 21.2722 31.2949 19.9118 31.2607L18.6745 31.2197L18.6472 30.2832C18.6198 29.1826 18.5652 29.0527 18.0935 29.0527C17.7038 29.0527 17.5671 29.2031 17.5671 29.6133V29.9414H16.4734H15.3796V29.5107C15.3796 28.5059 15.8513 27.4189 16.6101 26.667C17.1023 26.1816 17.8816 25.6758 18.0456 25.7441C18.1003 25.7646 18.2986 25.8125 18.4831 25.8467ZM24.738 26.1201C24.6491 26.2842 24.0749 26.6465 23.7605 26.7422C23.3435 26.8584 22.6462 26.8447 22.2361 26.7012C22.031 26.6328 21.737 26.4551 21.5593 26.2979L21.2448 26.0107H23.0222C24.6491 26.0107 24.7927 26.0176 24.738 26.1201ZM21.3542 27.5283C21.4909 27.5898 21.6003 27.665 21.6003 27.6855C21.6003 27.7334 21.1013 27.9453 20.5954 28.123C20.3152 28.2188 20.3083 28.2188 20.2605 28.0752C20.1853 27.8496 20.2126 27.1318 20.2947 26.9062L20.3698 26.7148L20.739 27.0635C20.9441 27.2549 21.2175 27.46 21.3542 27.5283ZM25.8386 27.0771C25.9206 27.3984 25.9001 28.0137 25.8044 28.1641C25.7634 28.2324 25.196 28.0547 24.7448 27.8223L24.4441 27.665L24.7722 27.501C24.9499 27.4121 25.2234 27.2002 25.3806 27.0361C25.5378 26.8721 25.6882 26.7354 25.7156 26.7354C25.7361 26.7285 25.7976 26.8857 25.8386 27.0771ZM17.5671 31.582C17.5671 32.3408 17.5056 32.3135 19.447 32.3477C21.2175 32.375 21.4089 32.4229 21.9079 32.915C22.1472 33.1611 22.4138 33.6328 22.4206 33.8174C22.4206 33.8857 21.7302 33.9062 19.2077 33.9062C15.6736 33.9062 15.6941 33.9062 15.4822 33.4961C15.4001 33.3457 15.3796 33.0449 15.3796 32.1631V31.0352H16.4734H17.5671V31.582ZM30.7605 32.04C30.7605 33.2021 30.6989 33.4893 30.4118 33.7285L30.1999 33.9062H26.9255H23.6443L23.6921 33.749C23.8493 33.2295 24.2185 32.8057 24.7448 32.5322C25.0388 32.3818 25.1413 32.375 26.6794 32.3477L28.2995 32.3203L28.4363 32.1494C28.5456 32.0127 28.573 31.8691 28.573 31.5068V31.0352H29.6667H30.7605V32.04Z" fill="white"/>
<path d="M18.8739 16.1055C18.5253 16.3516 18.3407 17.1924 18.5321 17.6846C18.6551 18.0264 18.9354 18.252 19.2157 18.252C19.5712 18.252 19.8036 18.0469 19.9335 17.5957C20.2137 16.6182 19.5301 15.6475 18.8739 16.1055Z" fill="white"/>
<path d="M26.4893 16.1465C26.2363 16.3447 26.1133 16.666 26.1133 17.124C26.1133 17.7939 26.4141 18.252 26.8515 18.252C27.1728 18.252 27.3232 18.1562 27.4804 17.8418C27.6445 17.5205 27.665 16.8574 27.5215 16.5156C27.4053 16.2285 27.1045 15.9961 26.8652 15.9961C26.7627 15.9961 26.5918 16.0645 26.4893 16.1465Z" fill="white"/>
<path d="M20.9996 19.7559C20.5689 20.1592 21.0611 21.0342 21.9771 21.5128C22.4283 21.752 23.2622 21.8067 23.8023 21.6426C24.8345 21.3145 25.6138 20.1729 25.0943 19.7422C24.9849 19.6534 24.8482 19.6192 24.6841 19.6329C24.4859 19.6465 24.397 19.7149 24.1851 19.9883C23.8501 20.4395 23.5015 20.6446 23.0845 20.6446C22.9068 20.6446 22.6607 20.6036 22.5376 20.5489C22.3394 20.4669 22.2232 20.3506 21.7378 19.7696C21.5738 19.5713 21.2046 19.5645 20.9996 19.7559Z" fill="white"/>
<path d="M2.59136 1.29199C2.24273 1.64062 2.31792 1.80469 3.31597 2.7959C4.0816 3.56836 4.18413 3.65039 4.40972 3.65039C4.73101 3.65039 4.94976 3.43164 4.94976 3.11035C4.94976 2.88477 4.86773 2.78223 4.1021 2.0166C3.10406 1.01855 2.93999 0.943359 2.59136 1.29199Z" fill="white"/>
<path d="M1.10022 4.82617C0.833614 5.16797 0.977169 5.60547 1.38733 5.70801C1.47619 5.73535 2.06408 5.74219 2.69299 5.72852C3.80041 5.70801 3.84143 5.70117 3.97131 5.54395C4.14904 5.3252 4.14221 4.9834 3.94397 4.79883C3.79358 4.65528 3.72522 4.64844 2.51526 4.64844H1.23693L1.10022 4.82617Z" fill="white"/>
<path d="M3.37015 7.46484C2.93948 7.88867 2.543 8.32617 2.48831 8.42871C2.28323 8.81836 2.53616 9.22852 2.97366 9.22852C3.1514 9.22852 3.31546 9.0918 4.06741 8.33984C4.87405 7.52637 4.94925 7.4375 4.94925 7.20508C4.94925 6.89062 4.73733 6.69922 4.3887 6.69922C4.17679 6.69922 4.06741 6.78125 3.37015 7.46484Z" fill="white"/>
</svg>
