<svg width="70" height="60" viewBox="0 0 70 60" fill="none" xmlns="http://www.w3.org/2000/svg">
<path d="M35.991 0.213931C55.2363 -1.49235 58.2537 20.2321 67.1532 35.7404C76.0526 51.2486 63.4048 58.9483 38.7213 59.5548C14.0377 60.1613 0.510004 63.0507 0.0131327 40.2094C-0.483739 17.3681 13.1093 -2.27832 35.991 0.213931Z" fill="#8FB568" fill-opacity="0.2"/>
<g clip-path="url(#clip0_370_2)">
<path d="M22.7305 2.22244V4.44507H23.8438H24.9571V2.22244V-0.000187337H23.8438H22.7305V2.22244Z" fill="#8FB568"/>
<path d="M17.1477 3.55619L16.4102 4.30632L17.927 5.83438C18.762 6.68176 19.5135 7.36244 19.597 7.34855C19.6666 7.33465 20.0423 6.98737 20.4181 6.58452L21.1139 5.82049L20.5573 5.26483C20.265 4.95922 19.5414 4.26465 18.9569 3.75067L17.8992 2.79216L17.1477 3.55619Z" fill="#8FB568"/>
<path d="M28.1529 4.27829L26.5664 5.77856L27.2483 6.57037C27.638 7.00101 28.0137 7.36218 28.0833 7.36218C28.1668 7.36218 28.9183 6.66761 29.7533 5.83413L31.2841 4.30607L30.5187 3.54204L29.7533 2.77801L28.1529 4.27829Z" fill="#8FB568"/>
<path d="M42.1569 9.02942C40.5426 9.2239 38.4691 9.72399 37.0774 10.238C35.4075 10.8492 34.5864 10.877 33.2504 10.363C32.1371 9.94625 31.6361 9.90458 31.2465 10.238C31.0377 10.4325 30.0636 11.6966 28.7832 13.4469C28.7554 13.4747 28.157 13.6969 27.4194 13.9609L26.1113 14.4332L24.4274 13.8775L22.7435 13.3358L21.3936 13.7664C20.656 14.0025 20.0437 14.1692 20.0159 14.1415C19.988 14.1137 19.7376 13.5025 19.4453 12.7801C18.5686 10.5575 18.1511 10.363 16.5229 11.516C14.3658 13.044 12.7515 15.35 11.9861 18.0172C11.7217 18.934 11.666 19.4341 11.666 21.1844C11.666 23.5321 11.8191 24.2683 12.7097 26.2131C13.3638 27.63 13.9205 28.4496 14.992 29.5609L15.8409 30.45L17.5388 43.0356L19.2366 55.6213L19.7376 56.6214C20.2664 57.705 21.3519 58.8302 22.326 59.3303C25.318 60.8444 28.992 59.6914 30.481 56.7465C30.7455 56.2464 31.3856 53.5236 32.8051 46.953C34.2524 40.3129 34.8369 37.8541 34.9761 37.8541C35.1152 37.8541 35.6997 40.299 37.1192 46.8835C39.2623 56.7187 39.3319 56.9687 40.5148 58.1773C42.0595 59.7609 44.1748 60.3582 46.318 59.7887C48.4333 59.2469 50.2006 57.4688 50.6738 55.4268C50.7434 55.0795 51.5505 49.3284 52.4412 42.6467L54.0694 30.4917L54.807 29.7276C57.3676 27.0188 58.4948 24.0322 58.3139 20.4482C58.0495 15.2111 54.3477 10.7797 48.9621 9.26557C48.1967 9.0572 47.4452 8.98774 45.5526 8.95996C44.2166 8.93218 42.6858 8.95996 42.1569 9.02942ZM48.5446 11.4465C51.3975 12.2522 53.7493 14.1831 55.0853 16.8364C56.2682 19.1979 56.4491 21.754 55.6002 24.2127C55.0297 25.8936 54.4452 26.8104 53.1092 28.1718C52.469 28.8108 51.9541 29.3665 51.9541 29.3942C51.9541 29.4359 51.1609 35.2148 50.2006 42.2577C48.8925 51.8984 48.3915 55.1906 48.1967 55.5796C47.7792 56.3853 47.2364 56.9409 46.485 57.316C45.149 57.9967 43.7156 57.8994 42.6023 57.0521C41.4055 56.1352 41.4333 56.2186 39.2902 46.3279C38.2047 41.3548 37.2166 37.0762 37.0774 36.8123C36.2425 35.187 33.7097 35.187 32.8747 36.8123C32.7355 37.0762 31.7474 41.3409 30.6759 46.2862C29.6043 51.2316 28.6302 55.4684 28.5188 55.6907C27.6421 57.3716 25.8886 58.1217 24.0516 57.5938C22.9523 57.2604 21.8807 56.2186 21.5606 55.1351C21.3797 54.5516 17.998 30.2833 17.998 29.6165C17.998 29.5193 17.4413 28.8525 16.7594 28.1301C14.7833 26.0325 13.8231 23.7404 13.8231 21.115C13.8231 18.5034 14.8111 16.114 16.6342 14.2943L17.3439 13.5858L17.8727 14.8916C18.4294 16.2252 18.7773 16.6697 19.3061 16.6697C19.4592 16.6697 20.2803 16.4197 21.1153 16.1279L22.6322 15.6001L24.3578 16.1696L26.0695 16.7253L27.8508 16.1418C28.825 15.8223 29.7574 15.4611 29.9383 15.3361C30.1053 15.225 30.7176 14.5165 31.2743 13.7664L32.318 12.405L33.1113 12.669C34.4472 13.1135 35.644 13.044 37.5784 12.3911C40.6261 11.3632 42.2126 11.1131 45.4134 11.1687C47.0277 11.2104 47.9601 11.2937 48.5446 11.4465Z" fill="#8FB568"/>
<path d="M43.1153 15.9059C42.656 16.3504 42.67 16.6005 43.2684 18.3647L43.7554 19.8511L42.7117 21.4208C41.6819 22.9489 41.5149 23.3795 41.7793 23.8796C41.9741 24.2408 45.7177 26.6718 46.0795 26.6718C46.2465 26.6718 47.5129 26.1022 48.8906 25.4215L51.3956 24.1713L52.0914 22.7822C52.4671 22.0181 52.7872 21.2819 52.7872 21.1569C52.7872 21.0179 52.495 20.0455 52.1471 18.9898C51.6878 17.6284 51.4234 17.0172 51.2147 16.8922C50.9363 16.7116 44.4373 15.5586 43.7415 15.5586C43.5884 15.5586 43.2962 15.7114 43.1153 15.9059ZM47.8608 18.4758C48.7932 18.6286 49.5864 18.7536 49.6282 18.7536C49.6699 18.7536 49.8787 19.2676 50.0874 19.8927L50.4632 21.0179L50.1013 21.7542C49.7395 22.4765 49.6838 22.5182 48.0556 23.3378C47.1371 23.7962 46.3161 24.1713 46.2186 24.1713C46.1212 24.1713 45.6481 23.8935 45.1749 23.574L44.3121 22.9627L45.2167 21.6292C45.7037 20.8929 46.1073 20.1706 46.1073 20.0317C46.1073 19.8927 45.9821 19.4065 45.829 18.962C45.495 17.9757 45.4811 18.0452 45.8707 18.1285C46.0377 18.1563 46.9284 18.323 47.8608 18.4758Z" fill="#8FB568"/>
</g>
<defs>
<clipPath id="clip0_370_2">
<rect width="60" height="60" fill="white" transform="translate(5)"/>
</clipPath>
</defs>
</svg>
