<svg width="60" height="60" viewBox="0 0 60 60" fill="none" xmlns="http://www.w3.org/2000/svg">
<path d="M29.25 5.03906C28.7226 5.20312 28.1719 5.63672 27.8437 6.12891C27.5273 6.62109 27.3515 7.44141 27.4687 7.82812C27.539 8.02734 26.7187 8.90625 22.8984 12.7617L18.2578 17.4609H11.3203C3.77342 17.4609 3.58592 17.4727 2.46092 18.1289C1.65233 18.6094 0.843735 19.4883 0.433579 20.3672L0.0585791 21.1523L0.0234229 36.0234C-1.4645e-05 50.8711 -1.46339e-05 50.9062 0.246079 51.6445C0.820298 53.3672 2.35545 54.668 4.18358 54.9609C5.09764 55.1133 54.9023 55.1133 55.8164 54.9609C57.6445 54.668 59.1797 53.3672 59.7539 51.6445C60 50.9062 60 50.8711 59.9766 36.0234L59.9414 21.1523L59.5664 20.3672C59.1562 19.4883 58.3476 18.6094 57.5391 18.1289C56.4141 17.4727 56.2266 17.4609 48.6797 17.4609H41.7422L37.1367 12.7969L32.5195 8.13281L32.5078 7.44141C32.5078 6.44531 32.0156 5.64844 31.1367 5.19141C30.7148 4.98047 29.707 4.88672 29.25 5.03906ZM34.3008 13.7344L38.0273 17.4609H30H21.9726L25.6992 13.7344L29.414 10.0195H30H30.5859L34.3008 13.7344ZM56.0859 20.3555C56.6836 20.6719 57.1406 21.1992 57.3047 21.7734C57.3984 22.0781 57.4219 26.5547 57.3984 36.5039L57.3633 50.8008L57.0469 51.2695C56.6133 51.8906 56.0859 52.2422 55.3242 52.3828C54.457 52.5469 5.54295 52.5469 4.67577 52.3828C3.91405 52.2422 3.3867 51.8906 2.95311 51.2695L2.6367 50.8008L2.60155 36.5039C2.57811 26.5547 2.60155 22.0781 2.6953 21.7734C2.90624 21.0234 3.56249 20.4258 4.45311 20.1445C4.61717 20.0977 16.1836 20.0625 30.1758 20.0742L55.6055 20.0977L56.0859 20.3555Z" fill="#987750"/>
<path d="M7.34766 30.2343C6.45703 30.5742 5.80078 31.1953 5.36719 32.0859L4.98047 32.871V36.2695V39.6679L5.28516 40.3124C5.67187 41.1328 6.32812 41.789 7.14844 42.1757C8.05078 42.6093 9.51562 42.6093 10.3711 42.1992C11.8242 41.4726 12.8203 39.6796 12.4922 38.3788C12.1875 37.1835 10.2773 37.207 10.0195 38.4023C9.83203 39.246 9.65625 39.5507 9.23437 39.7617C8.73047 40.0078 8.33203 39.9374 7.92187 39.5273C7.53516 39.1406 7.47656 38.5546 7.52344 35.7421C7.55859 33.7968 7.59375 33.4101 7.76953 33.1523C8.42578 32.1796 9.73828 32.5312 9.91406 33.7265C10.0312 34.5117 10.5703 35.039 11.25 35.039C11.6484 35.039 11.8125 34.9687 12.1406 34.6406C12.4922 34.289 12.5391 34.1718 12.5391 33.6445C12.5391 32.2968 11.6602 30.9492 10.3711 30.3398C9.78516 30.0585 9.51562 29.9999 8.78906 29.9999C8.21484 30.0117 7.71094 30.0937 7.34766 30.2343Z" fill="#987750"/>
<path d="M14.2266 30.2109C13.7227 30.6211 13.7109 30.7031 13.7109 36.3281V41.7422L14.1094 42.1406L14.5078 42.5391H17.4141C20.0859 42.5391 20.3672 42.5156 20.6953 42.3164C21.1875 42.0117 21.3984 41.4023 21.2109 40.8281C20.9531 40.0664 20.625 39.9609 18.3164 39.9609H16.2891V35.4375C16.2891 32.3438 16.2422 30.8438 16.1602 30.668C15.9258 30.2109 15.5625 30 15 30C14.6719 30 14.3789 30.082 14.2266 30.2109Z" fill="#987750"/>
<path d="M23.3779 30.3398C22.499 30.7499 21.7842 31.5117 21.4561 32.4023C21.21 33.0468 21.1982 33.2343 21.2334 36.4335C21.2686 39.7148 21.2686 39.7968 21.5498 40.371C21.9248 41.1093 22.6396 41.8242 23.3779 42.1992C24.2334 42.6093 25.6982 42.6093 26.6006 42.1757C27.4209 41.789 28.0772 41.1328 28.4639 40.3124L28.7686 39.6679V36.2695V32.871L28.3818 32.0859C27.7022 30.7148 26.5303 29.9999 24.9248 29.9999C24.2451 29.9999 23.9522 30.0585 23.3779 30.3398ZM25.5225 32.7421C26.1436 33.0585 26.1904 33.3046 26.1904 36.2695C26.1904 39.2929 26.1553 39.457 25.4639 39.7968C25.1006 39.9609 24.9951 39.9609 24.6201 39.8203C23.835 39.5273 23.7764 39.2578 23.8115 36.0585L23.8467 33.2578L24.2334 32.9179C24.6553 32.5429 25.042 32.496 25.5225 32.7421Z" fill="#987750"/>
<path d="M32.4262 30.1758C31.3949 30.5625 30.4106 31.6055 30.1176 32.625C29.9067 33.3984 30.0121 34.7461 30.3285 35.4141C30.9027 36.5742 31.9574 37.3125 33.3402 37.5117C34.2074 37.6289 34.5824 37.8281 34.7816 38.2734C35.0043 38.7422 34.9457 39.1055 34.5824 39.5156L34.2426 39.9023L32.6723 39.9375C31.8168 39.9492 30.9848 39.9961 30.8441 40.0312C29.8129 40.2539 29.684 41.9062 30.6684 42.4102C30.8207 42.4922 31.6176 42.5391 32.684 42.5391C34.7582 42.5391 35.4379 42.3516 36.3051 41.5547C37.0785 40.8398 37.5004 39.8906 37.5004 38.8242C37.5004 36.7383 36.2816 35.3555 34.1254 34.9805C33.3754 34.8516 33.1762 34.7578 32.9066 34.4648C32.4731 33.9844 32.4848 33.5156 32.9184 33.0234L33.2582 32.6367L35.0395 32.5781L36.8207 32.5195L37.1606 32.1328C37.641 31.5938 37.641 30.832 37.1606 30.3398L36.8207 30L34.8402 30.0117C33.4574 30.0117 32.7426 30.0703 32.4262 30.1758Z" fill="#987750"/>
<path d="M39.1178 30.3398L38.7311 30.6797L38.696 35.9414C38.6725 39.5625 38.696 41.332 38.7897 41.6367C38.8717 41.9297 39.0475 42.1641 39.2936 42.3047C39.6335 42.5156 39.903 42.5391 42.5866 42.5391H45.4928L45.8913 42.1406C46.2194 41.8125 46.2897 41.6484 46.2897 41.25C46.2897 40.8516 46.2194 40.6875 45.8913 40.3594L45.4928 39.9609H43.3717H41.2506V38.7305V37.5H42.7858H44.3209L44.6608 37.1602C45.1413 36.668 45.1413 35.9062 44.6608 35.3672L44.3209 34.9805L42.7858 34.9336L41.2506 34.8984V33.7383V32.5781H43.1842C45.3639 32.5781 45.8092 32.4727 46.1022 31.8867C46.4303 31.2656 46.3014 30.6328 45.7741 30.2109C45.5514 30.0234 45.1881 30 42.5163 30H39.4928L39.1178 30.3398Z" fill="#987750"/>
<path d="M47.9766 30.2109C47.4727 30.6211 47.4609 30.7031 47.4609 36.3281V41.7422L47.8711 42.1523L48.2695 42.5508L50.2383 42.5156C52.0781 42.4805 52.2539 42.457 52.8516 42.1758C53.6719 41.7891 54.3281 41.1328 54.7148 40.3125L55.0195 39.668V36.2695V32.8711L54.6328 32.0859C54.1875 31.1719 53.5312 30.5742 52.6172 30.2227C52.125 30.0352 51.7266 30 50.1211 30C48.5039 30 48.1875 30.0352 47.9766 30.2109ZM51.7734 32.7422C52.3945 33.0586 52.4414 33.3047 52.4414 36.2695C52.4414 39.2813 52.4062 39.457 51.7383 39.7852C51.5273 39.8789 51.0586 39.9609 50.6953 39.9609H50.0391V36.2695V32.5781H50.7422C51.1406 32.5781 51.5977 32.6484 51.7734 32.7422Z" fill="#987750"/>
</svg>
