<svg width="60" height="60" viewBox="0 0 60 60" fill="none" xmlns="http://www.w3.org/2000/svg">
<g clip-path="url(#clip0_937_170)">
<path d="M4.42969 1.53516C2.42578 2.00391 0.65625 3.98438 0.175781 6.26953C-0.0820313 7.48828 -0.0820313 41.1328 0.175781 42.3398C0.679688 44.7188 2.46094 46.6641 4.54688 47.0977C5.32031 47.2617 12.5156 47.2734 12.9375 47.1094C13.6523 46.8398 13.8633 45.7969 13.3125 45.2461L13.0078 44.9414L8.92969 44.8828C5.01563 44.8242 4.83984 44.8125 4.38281 44.5664C3.72656 44.2148 2.98828 43.3594 2.67188 42.5508L2.40234 41.8945V30.6445V19.3945L27.8672 19.3594L53.3203 19.3359V25.3125V31.2891H52.8867C52.3477 31.2891 51.5039 31.6641 51.082 32.0625L50.7656 32.3672L49.9688 32.0156C49.5234 31.8281 49.043 31.6289 48.9023 31.5938C48.7031 31.5352 48.6328 31.3945 48.5742 30.9023C48.4336 29.8711 47.9297 29.1328 47.0625 28.6875C46.5 28.3945 44.4492 28.2656 43.418 28.4648C42.1406 28.6992 41.2969 29.6016 41.168 30.8555L41.1094 31.4766L40.0664 31.9219L39.0234 32.3672L38.6602 32.0508C38.0273 31.5352 37.6055 31.3711 36.8555 31.3711C36.375 31.3711 36.0117 31.4414 35.6836 31.6172C35.0508 31.9453 33.1055 33.9375 32.8711 34.4766C32.5078 35.3672 32.7656 36.6562 33.457 37.3828L33.75 37.6875L33.293 38.7305L32.8359 39.7852L32.2148 39.8438C31.4883 39.9258 31.0078 40.1484 30.5742 40.6289C29.9531 41.2969 29.8359 41.6602 29.7891 43.3242L29.7422 44.8828H26.1094H22.4766L22.1367 45.2227C21.5625 45.7969 21.7266 46.7227 22.4648 47.0977C22.6406 47.1914 24.293 47.2266 27.7969 47.2266H32.8711L33.3164 48.2812L33.7734 49.3477L33.4219 49.7344C32.6836 50.5781 32.5078 51.7969 33 52.7578C33.3047 53.3555 35.168 55.1602 35.7539 55.4297C36.4805 55.7578 37.3125 55.7344 38.0508 55.3711C38.3789 55.207 38.7305 54.9727 38.8359 54.8555C39.0234 54.6445 39.0703 54.6562 40.0664 55.0664L41.1094 55.4883L41.2383 56.25C41.4023 57.2344 41.8242 57.832 42.6445 58.2656C43.2305 58.5703 43.3477 58.5938 44.7891 58.5938C45.6328 58.5938 46.5234 58.5352 46.7695 58.4648C47.7539 58.1602 48.4805 57.2109 48.5977 56.0625C48.6328 55.7109 48.7266 55.4297 48.7969 55.4297C48.8672 55.4297 49.3477 55.2422 49.8633 55.0195L50.7891 54.6094L51.1523 54.9609C51.8906 55.6758 53.1563 55.875 54.082 55.4297C54.6914 55.1367 56.6602 53.1445 56.8945 52.582C57.2695 51.668 57.0469 50.4492 56.3672 49.7461L56.0156 49.3828L56.4258 48.457C56.6484 47.9414 56.8359 47.4492 56.8359 47.3672C56.8359 47.2852 57 47.2266 57.2578 47.2266C58.0195 47.2266 58.6289 46.9688 59.1797 46.4062C59.8711 45.7148 60 45.2578 60 43.3828C60 41.9414 59.9766 41.8242 59.6719 41.2383C59.2266 40.3828 58.5938 39.9492 57.6563 39.8555L56.9297 39.7852L56.6602 39.0703C56.5078 38.6719 56.3086 38.1914 56.2031 37.9922C56.0391 37.6758 56.0391 37.6289 56.2031 37.4883C56.3086 37.4062 56.543 37.0664 56.7305 36.7383C57.3516 35.6602 57.1641 34.4883 56.1914 33.4102L55.793 32.9766L55.7578 19.793L55.7227 6.62109L55.4063 5.67188C54.8555 4.07812 53.707 2.61328 52.5234 2.00391C51.293 1.37109 52.5234 1.40625 27.7734 1.41797C14.9766 1.42969 4.66406 1.47656 4.42969 1.53516ZM51.0117 3.9375C51.7266 4.18359 52.4883 4.92188 52.9219 5.8125L53.2617 6.50391L53.2969 11.7422L53.332 16.9922H27.832H2.33203L2.36719 11.8594C2.40234 6.85547 2.41406 6.72656 2.67188 6.08203C3.10547 5.00391 3.97266 4.14844 4.92188 3.85547C5.08594 3.80859 15.3984 3.76172 27.8438 3.76172C48.2695 3.75 50.5195 3.77344 51.0117 3.9375ZM46.1719 31.6641C46.1719 32.2383 46.2422 32.6484 46.3828 32.9297C46.5586 33.3047 46.6875 33.375 47.6953 33.7031C48.3047 33.9023 49.2422 34.2891 49.7695 34.5469C50.3086 34.8164 50.8594 35.0391 51.0117 35.0391C51.3398 35.0391 51.6914 34.8047 52.418 34.1133L52.9688 33.5859L53.8477 34.4531C54.3281 34.9336 54.7266 35.3789 54.7266 35.4492C54.7266 35.5195 54.4688 35.8359 54.1406 36.1523C53.8242 36.4688 53.4961 36.9023 53.4258 37.1133C53.3086 37.4766 53.3438 37.6055 53.8828 38.707C54.2109 39.3633 54.5859 40.2773 54.7148 40.7344C55.0664 41.918 55.3008 42.1055 56.5781 42.1875L57.5977 42.2461L57.6328 43.4062C57.6563 44.1562 57.6211 44.6133 57.5273 44.7188C57.4336 44.8359 57.1172 44.8828 56.4844 44.8828C55.2656 44.8828 55.0898 45.0234 54.668 46.3711C54.4922 46.9453 54.1172 47.8594 53.8242 48.4219C53.3438 49.3477 53.3086 49.4648 53.4258 49.8281C53.4961 50.0508 53.8242 50.4844 54.1406 50.8008C54.4688 51.1172 54.7266 51.4336 54.7266 51.5039C54.7266 51.6562 53.0625 53.3203 52.8984 53.3203C52.8398 53.3203 52.5 53.0273 52.1484 52.6758C51.2813 51.7969 51.0703 51.7734 49.8281 52.418C49.2656 52.7109 48.3516 53.0859 47.7891 53.25C46.4414 53.6602 46.2891 53.8477 46.2891 55.0781C46.2891 55.7109 46.2422 56.0273 46.125 56.1211C46.0195 56.2148 45.5625 56.25 44.8125 56.2266L43.6523 56.1914L43.5938 55.1719C43.5117 53.8945 43.3242 53.6602 42.1406 53.3086C41.6836 53.168 40.7813 52.793 40.1367 52.4766C39.0703 51.9375 38.9414 51.9023 38.5547 52.0195C38.332 52.0898 37.8867 52.4062 37.5586 52.7344C37.2422 53.0508 36.9258 53.3203 36.8555 53.3203C36.7852 53.3203 36.3516 52.9336 35.8711 52.4531C34.9219 51.5039 34.8984 51.375 35.6133 50.8711C36.0352 50.5664 36.4453 49.9219 36.4453 49.5703C36.4453 49.418 36.2109 48.8438 35.9297 48.293C35.6484 47.7422 35.2969 46.8867 35.1563 46.4062C34.7695 45.1289 34.5703 44.9531 33.3047 44.8828L32.2852 44.8242L32.25 43.5L32.2148 42.1875H33.0703C33.6445 42.1875 34.0547 42.1172 34.3359 41.9766C34.7109 41.8008 34.7813 41.6719 35.1563 40.5469C35.3906 39.8672 35.7773 38.9531 36.0117 38.5078C36.2461 38.0625 36.4453 37.5938 36.4453 37.4766C36.4453 37.125 36.1523 36.6562 35.5781 36.0938C35.2852 35.8125 35.0391 35.5195 35.0391 35.4609C35.0391 35.2617 36.5977 33.75 36.7969 33.75C36.9023 33.75 37.1953 33.9609 37.4414 34.2305C37.9805 34.7812 38.4258 35.0391 38.8359 35.0391C38.9883 35.0391 39.5742 34.8047 40.1133 34.5234C40.6641 34.2305 41.4961 33.8789 41.9766 33.75C42.5625 33.5742 42.9375 33.3867 43.1602 33.1523C43.4531 32.8359 43.4766 32.7305 43.4766 31.8984C43.4766 31.3945 43.5117 30.9375 43.5586 30.9023C43.5938 30.8555 44.2031 30.8203 44.9063 30.8203H46.1719V31.6641Z" fill="#6d9f38"/>
<path d="M9.96094 6.62109C9.23438 6.82031 8.25 7.45312 7.88672 7.94531C7.23047 8.83594 7.08984 9.26953 7.08984 10.4297C7.08984 11.3555 7.13672 11.6367 7.35938 12.082C7.79297 12.9609 8.37891 13.5469 9.22266 13.9688C9.91406 14.3086 10.125 14.3555 10.957 14.3555C11.7422 14.3555 12.0117 14.2969 12.5977 14.0273C13.5 13.6055 14.3203 12.7383 14.6484 11.8594C15 10.9453 14.9414 9.5625 14.5312 8.73047C13.7109 7.04297 11.7305 6.14062 9.96094 6.62109ZM11.9766 9.22266C12.6914 9.86719 12.7148 10.9336 12.0352 11.5664C11.4961 12.0586 10.9336 12.1641 10.3477 11.8828C9.25781 11.3438 9.05859 10.0195 9.94922 9.21094C10.4297 8.76562 11.4844 8.77734 11.9766 9.22266Z" fill="#6d9f38"/>
<path d="M20.2621 6.59764C18.2348 7.17186 16.9926 9.09374 17.3559 11.0976C17.602 12.4336 18.3988 13.4531 19.6762 14.0508C20.602 14.4844 21.9145 14.4844 22.8637 14.039C23.7074 13.6523 24.434 12.9375 24.8324 12.082C25.0902 11.5312 25.1371 11.2617 25.1371 10.4297C25.1371 9.5742 25.0902 9.33983 24.809 8.76561C23.9887 7.08983 21.9613 6.11717 20.2621 6.59764ZM22.266 9.24608C22.9691 9.7617 23.0043 10.8867 22.3363 11.5547C21.8207 12.0703 21.2582 12.164 20.602 11.8476C19.9691 11.543 19.6879 11.0859 19.6879 10.3828C19.6879 9.93749 19.7582 9.77342 20.0746 9.42186C20.6723 8.76561 21.5395 8.6953 22.266 9.24608Z" fill="#6d9f38"/>
<path d="M34.3005 6.57422C31.8982 7.13672 30.5388 9.80859 31.5114 12.0234C31.8396 12.75 32.7302 13.6523 33.5036 14.0273L34.1599 14.3555H40.3708C46.5817 14.3555 46.5817 14.3555 47.156 14.0859C48.0466 13.6875 48.6677 13.1016 49.1013 12.293C50.0505 10.5 49.5232 8.34375 47.8357 7.18359C46.8044 6.46875 46.4997 6.44531 40.3122 6.45703C37.2536 6.46875 34.5466 6.51562 34.3005 6.57422ZM46.5114 9.12891C47.2263 9.64453 47.4255 10.5703 46.9567 11.2617C46.4177 12.082 46.488 12.0703 40.5349 12.0703C37.5935 12.0703 35.0153 12.0352 34.8044 12C34.3005 11.8945 33.6794 11.2617 33.5857 10.7344C33.4802 10.207 33.8317 9.33984 34.2302 9.12891C34.8044 8.82422 35.2732 8.80078 40.6052 8.82422L46.113 8.84766L46.5114 9.12891Z" fill="#6d9f38"/>
<path d="M43.1245 36.5156C41.1558 37.0312 39.316 38.5195 38.4605 40.3242C37.8511 41.5781 37.687 42.457 37.7574 43.9805C37.8042 44.9297 37.8863 45.3398 38.1441 45.9961C38.9995 48.1406 40.5113 49.5937 42.6792 50.3555C43.7808 50.7539 45.7027 50.8008 46.816 50.4609C49.2535 49.7344 51.1402 47.8476 51.8667 45.4101C52.1831 44.3437 52.1597 42.5976 51.8199 41.4844C51.0699 39.0586 48.9839 37.0664 46.6167 36.5039C45.691 36.293 43.9683 36.293 43.1245 36.5156ZM46.9214 39.1172C49.9449 40.5351 50.6714 44.4023 48.3863 46.8164C46.066 49.2773 42.0816 48.668 40.5816 45.6211C40.2183 44.8828 40.148 44.6015 40.1011 43.7812C40.0425 42.5742 40.2535 41.7773 40.8863 40.8281C41.4605 39.9609 42.3511 39.2812 43.3472 38.9297C44.4605 38.543 45.8433 38.6133 46.9214 39.1172Z" fill="#6d9f38"/>
<path d="M18.5512 26.1328C18.4106 26.1914 18.2113 26.3672 18.1059 26.5195C17.8832 26.8593 15.5746 36.3984 15.5512 37.0664C15.5395 37.4414 15.5981 37.582 15.9145 37.8632C16.5824 38.4609 17.5199 38.2148 17.8012 37.3476C18.0707 36.5156 20.1684 27.5742 20.1801 27.2343C20.1801 26.7422 19.9926 26.4023 19.5707 26.1914C19.1957 25.9922 18.9379 25.9804 18.5512 26.1328Z" fill="#6d9f38"/>
<path d="M10.7113 27.1055C10.2191 27.3867 6.91441 31.2188 6.77379 31.6641C6.53941 32.4492 6.75035 32.8242 8.62535 34.9336C9.56285 35.9883 10.4418 36.9492 10.5707 37.0547C10.7113 37.1836 11.0043 37.2656 11.2972 37.2656C11.9769 37.2656 12.4222 36.8086 12.4222 36.1289C12.4222 35.6836 12.3285 35.543 10.8988 33.9258C10.0668 32.9883 9.37535 32.168 9.37535 32.1211C9.37535 32.0742 9.68004 31.6992 10.055 31.2773C12.5043 28.5117 12.4222 28.6172 12.4222 28.1133C12.4222 27.2227 11.473 26.6602 10.7113 27.1055Z" fill="#6d9f38"/>
<path d="M23.6956 27.2461C23.2855 27.5977 23.1683 28.0547 23.3792 28.5352C23.4613 28.7227 24.1761 29.6016 24.9496 30.4688C25.723 31.3359 26.3675 32.0859 26.3675 32.1211C26.3675 32.168 25.6996 32.9414 24.891 33.8555C23.1331 35.8359 22.9456 36.2812 23.6371 36.9609C23.8597 37.1953 24.0589 37.2656 24.4222 37.2656C24.68 37.2656 24.9847 37.1953 25.0902 37.1133C25.6058 36.7266 28.8402 32.9414 28.9574 32.6016C29.2035 31.8633 29.016 31.4883 27.68 29.9648C26.9886 29.1797 26.0863 28.1836 25.6644 27.7383C24.9964 27.0586 24.8441 26.9531 24.4691 26.9531C24.1878 26.9531 23.93 27.0469 23.6956 27.2461Z" fill="#6d9f38"/>
<path d="M17.098 45.0585C16.4183 45.4335 16.3831 46.3945 17.0276 46.9453C17.3323 47.2031 17.473 47.2382 17.8597 47.1914C18.5159 47.0976 18.8675 46.6757 18.8675 45.996C18.8675 45.5742 18.8089 45.4453 18.5042 45.1874C18.1058 44.8476 17.5784 44.8007 17.098 45.0585Z" fill="#6d9f38"/>
</g>
<defs>
<clipPath id="clip0_937_170">
<rect width="60" height="60" fill="white"/>
</clipPath>
</defs>
</svg>
