<svg width="70" height="60" viewBox="0 0 70 60" fill="none" xmlns="http://www.w3.org/2000/svg">
<path d="M35.991 0.213931C55.2363 -1.49235 58.2537 20.2321 67.1532 35.7404C76.0526 51.2486 63.4048 58.9483 38.7213 59.5548C14.0377 60.1613 0.510004 63.0507 0.0131327 40.2094C-0.483739 17.3681 13.1093 -2.27832 35.991 0.213931Z" fill="#E22454" fill-opacity="0.2"/>
<g clip-path="url(#clip0_372_2006)">
<path d="M17.1802 0.330034C17.0011 0.568812 16.9414 1.03144 16.9414 2.04625C16.9414 3.26999 16.9713 3.44907 17.2697 3.73262C17.6577 4.09079 18.1055 4.12064 18.5532 3.79232C18.8516 3.58339 18.8815 3.44907 18.8815 2.03133C18.8815 0.732972 18.8367 0.464347 18.6129 0.255416C18.2099 -0.117675 17.4488 -0.0729037 17.1802 0.330034Z" fill="#E22454"/>
<path d="M50.1469 3.1506C45.7295 3.9714 42.1926 7.07551 40.8942 11.2541L40.5808 12.2689L39.5212 12.5525C38.2826 12.8659 36.5067 13.6419 35.5366 14.3135C35.1785 14.5672 34.8203 14.7761 34.7606 14.7761C34.7009 14.7761 34.2383 14.5075 33.7458 14.1792C32.6414 13.4777 31.1342 12.836 29.6269 12.448C28.7613 12.2242 28.0151 12.1645 26.3437 12.1794C24.4484 12.1943 24.0156 12.2391 22.8366 12.5973C18.0461 14.0448 14.5092 17.731 13.3303 22.4916C13.0915 23.4915 13.002 24.2526 13.002 25.6704C13.002 28.8342 13.6735 30.8488 15.7927 34.0425C18.4938 38.1167 19.628 41.2655 19.628 44.698C19.628 49.0258 20.4041 54.1745 21.5084 57.0398C22.2248 58.9351 23.732 59.9947 25.687 59.9947C26.5675 59.9947 26.8959 59.9201 27.657 59.5321C28.7165 59.0097 29.4926 58.174 29.8657 57.1741C30.1044 56.5772 30.1492 55.6818 30.2089 49.6974L30.2984 42.9071L30.7014 42.146C31.1491 41.2954 31.8505 40.6089 32.8056 40.1164C33.7309 39.6239 35.6859 39.6239 36.7007 40.1313C37.611 40.5791 38.4467 41.4297 38.9094 42.355C39.2526 43.0564 39.2526 43.1161 39.3272 49.9212L39.4019 56.7861L39.8048 57.5472C40.3122 58.5023 41.3718 59.4574 42.2672 59.7559C44.6699 60.5767 47.1174 59.3828 48.0277 56.9353C49.0127 54.3386 49.5499 51.1002 49.7738 46.5634C49.8633 44.8771 49.9976 43.0116 50.0722 42.3997C50.3856 40.0716 51.6094 37.2362 53.6539 34.1022C55.6089 31.1324 56.2805 29.4013 56.4446 26.9239L56.5342 25.5659L57.2207 25.2226C62.1604 22.8349 64.8168 16.94 63.3543 11.6571C62.1305 7.25459 58.5787 4.01617 54.1016 3.19537C52.8331 2.97151 51.2512 2.95659 50.1469 3.1506ZM54.997 5.49361C57.8773 6.4338 60.3695 8.92604 61.2799 11.7914C61.7276 13.1793 61.8171 15.3283 61.5037 16.7759C60.8919 19.5218 59.0115 21.9693 56.5491 23.2527C55.0269 24.0288 53.8181 24.3272 52.0272 24.3272C49.2962 24.3272 47.2815 23.4766 45.2818 21.4917C43.282 19.5069 42.4612 17.537 42.4463 14.7463C42.4463 12.0003 43.2969 9.911 45.2221 7.97093C46.1772 7.00089 46.6697 6.6278 47.6845 6.13532C49.5648 5.22498 50.2961 5.07575 52.3108 5.13544C53.5196 5.16529 54.3106 5.28468 54.997 5.49361ZM29.2538 14.4776C30.6417 14.8358 31.761 15.3283 32.9847 16.1192C33.4772 16.4326 34.1487 16.746 34.4771 16.7908C35.1038 16.8953 35.0591 16.9102 37.417 15.6118C38.2826 15.1343 39.9093 14.4776 40.2227 14.4776C40.2823 14.4776 40.3719 15.0298 40.4167 15.7014C40.6256 18.7159 42.2373 21.7604 44.64 23.7601C45.6698 24.6257 47.8039 25.7151 49.1768 26.0733C49.8932 26.2673 50.714 26.3419 52.3257 26.3419L54.5046 26.327L54.4449 26.9389C54.2061 29.0282 53.5644 30.6101 52.0272 32.8934C49.1918 37.1018 47.8337 40.9521 47.8337 44.698C47.8337 48.9661 46.9084 54.7565 45.9086 56.7115C45.5802 57.3532 44.8788 57.8457 44.0879 57.98C43.3268 58.1143 42.2224 57.592 41.7598 56.8757C41.4165 56.3683 41.4165 56.3533 41.4165 50.16C41.4165 43.4145 41.3419 42.6684 40.5957 41.1909C39.372 38.7733 36.3276 37.2511 33.6861 37.7436C33.1489 37.848 32.343 38.1017 31.9102 38.3107C30.8805 38.7882 29.5075 40.0716 28.9852 40.9969C28.1793 42.4893 28.1345 42.937 28.1345 49.7571C28.1345 55.7862 28.1196 56.0399 27.8211 56.6518C27.2839 57.7711 26.0154 58.2785 24.8812 57.8308C23.9708 57.4577 23.5679 56.8757 23.0605 55.249C22.2546 52.5776 21.9114 50.1899 21.7174 45.6232C21.4786 40.2358 20.6429 37.7436 17.4193 32.7889C16.4045 31.2369 15.9568 30.3713 15.5837 29.2819C15.1062 27.9089 15.0913 27.7298 15.0913 25.6704C15.0913 23.6258 15.1062 23.4318 15.5539 22.1484C16.703 18.8353 19.1356 16.2237 22.2098 14.9701C24.2842 14.1344 27.1197 13.9255 29.2538 14.4776Z" fill="#E22454"/>
<path d="M49.8478 8.41854C49.4897 8.77671 49.4748 8.86625 49.4748 10.5228V12.239H47.6988C45.4006 12.239 45.4454 12.1942 45.4454 14.7462C45.4454 16.4922 45.4603 16.5967 45.8185 16.9399C46.1617 17.2981 46.2811 17.313 47.8332 17.313H49.4748V18.9546C49.4748 20.5067 49.4897 20.6261 49.8478 20.9693C50.1911 21.3275 50.2956 21.3424 52.0864 21.3424C54.5637 21.3424 54.5488 21.3573 54.5488 19.0442V17.3429L56.3396 17.2832C58.6826 17.2235 58.6379 17.2683 58.6976 14.9849C58.7573 13.0896 58.608 12.433 58.0708 12.3136C57.9066 12.2688 57.056 12.2241 56.1904 12.1942L54.6234 12.1644L54.5488 10.3437C54.504 9.13488 54.4145 8.46331 54.2802 8.329C54.1459 8.19469 53.4743 8.12007 52.161 8.09022C50.2657 8.03053 50.2209 8.04545 49.8478 8.41854ZM52.6087 11.8659C52.6087 13.3881 52.6386 13.612 52.9072 13.8806C53.1758 14.1492 53.3997 14.1791 54.9219 14.1791H56.6381V14.7014V15.2237H54.9219C53.3997 15.2237 53.1758 15.2536 52.9072 15.5222C52.6386 15.7908 52.6087 16.0147 52.6087 17.5369V19.2531H52.0864H51.5641V17.6264C51.5641 16.2236 51.5193 15.955 51.2507 15.6117C50.9522 15.2386 50.9074 15.2237 49.236 15.2237H47.5347V14.7014V14.1791H49.2509C51.5491 14.1791 51.5641 14.1641 51.5641 11.8361V10.1497H52.0864H52.6087V11.8659Z" fill="#E22454"/>
<path d="M25.8203 24.1033C25.0742 24.8345 25.5219 26.0284 26.5516 26.0284C27.6559 26.0284 28.1484 24.7898 27.3276 24.0734C26.8053 23.6257 26.2681 23.6407 25.8203 24.1033Z" fill="#E22454"/>
<path d="M40.2521 23.969C39.5209 24.4764 39.5358 25.4166 40.282 25.909C41.4013 26.6254 42.5951 25.0435 41.64 24.1033C41.2222 23.6705 40.7297 23.6257 40.2521 23.969Z" fill="#E22454"/>
<path d="M37.9542 30.6997C37.8199 30.8489 37.6109 31.1773 37.4915 31.431C37.1931 32.0279 36.5364 32.2965 35.7604 32.1622C35.2381 32.0727 35.1038 32.1174 34.7754 32.4458C33.7606 33.4606 35.1187 34.5649 36.8946 34.1769C38.2526 33.8784 39.3868 32.789 39.5809 31.61C39.6405 31.1922 39.5958 31.0131 39.3421 30.7594C38.9541 30.3714 38.2676 30.3565 37.9542 30.6997Z" fill="#E22454"/>
<path d="M13.2404 4.26988C13.0166 4.41911 12.9121 4.64297 12.9121 5.00113C12.9121 5.91147 13.5837 6.20995 15.4044 6.09056C16.2102 6.04579 16.4341 5.97117 16.6579 5.68762C17.0161 5.23991 17.0161 4.91159 16.6281 4.41911C16.3445 4.04602 16.255 4.0311 14.9417 4.0311C13.9418 4.0311 13.4792 4.09079 13.2404 4.26988Z" fill="#E22454"/>
<path d="M19.3596 4.26988C19.1357 4.41911 19.0312 4.64297 19.0312 5.00113C19.0312 5.91147 19.7028 6.20995 21.5235 6.09056C22.3294 6.04579 22.5532 5.97117 22.7771 5.68762C23.1352 5.23991 23.1352 4.91159 22.7472 4.41911C22.4637 4.04602 22.3741 4.0311 21.0609 4.0311C20.061 4.0311 19.5983 4.09079 19.3596 4.26988Z" fill="#E22454"/>
<path d="M17.1951 6.38895C17.0011 6.6128 16.9414 6.97097 16.9414 8.10517C16.9414 9.46322 16.9563 9.53784 17.3294 9.83631C17.8219 10.2243 18.195 10.2392 18.583 9.85123C18.8367 9.59753 18.8815 9.35875 18.8815 8.09024C18.8815 6.85158 18.8367 6.56803 18.6129 6.37403C18.2398 6.04571 17.4936 6.06063 17.1951 6.38895Z" fill="#E22454"/>
<path d="M6.22651 17.8056C5.56987 18.507 6.03251 19.5516 7.00254 19.5516C7.61441 19.5516 8.03227 19.1189 8.03227 18.4771C8.03227 17.5668 6.86823 17.1191 6.22651 17.8056Z" fill="#E22454"/>
<path d="M62.503 38.9822C62.3239 39.0718 62.115 39.3105 62.0404 39.5344C61.6375 40.6686 63.1895 41.5341 63.876 40.5492C64.2043 40.0866 64.1446 39.5792 63.7268 39.1762C63.3387 38.7733 63.0253 38.7285 62.503 38.9822Z" fill="#E22454"/>
<path d="M56.2062 48.9661C54.684 49.4288 53.6543 50.8167 53.6543 52.4135C53.6543 52.8911 53.7438 53.5029 53.8483 53.7716C54.3856 55.0401 55.7735 55.9653 57.1614 55.9653C58.012 55.9653 59.2059 55.4729 59.7282 54.9058C60.952 53.5626 60.9669 51.2644 59.7431 49.966C58.9223 49.1005 57.2957 48.6378 56.2062 48.9661ZM58.1015 51.2644C59.191 52.1747 58.594 53.876 57.2061 53.876C56.4599 53.876 55.9525 53.5328 55.7436 52.906C55.5198 52.2493 55.6839 51.7121 56.2212 51.2644C56.8032 50.7719 57.5195 50.7719 58.1015 51.2644Z" fill="#E22454"/>
</g>
<defs>
<clipPath id="clip0_372_2006">
<rect width="60" height="60" fill="white" transform="translate(5)"/>
</clipPath>
</defs>
</svg>
