<svg width="38" height="38" viewBox="0 0 38 38" fill="none" xmlns="http://www.w3.org/2000/svg">
<g clip-path="url(#clip0_578_622)">
<path d="M13.8195 0.148415C12.2609 0.556618 11.0141 1.82576 10.6504 3.35466C10.5613 3.72576 10.5391 4.44568 10.5391 6.8281V9.84138L10.2051 10.1679C9.75234 10.6133 9.61875 11.0586 9.66328 11.9789C9.68555 12.5578 9.72266 12.7136 9.89336 13.0105C10.168 13.4781 10.5465 13.7156 11.1699 13.8195C11.4445 13.864 11.6746 13.9383 11.6895 13.9828C12.068 15.5191 12.5727 16.5879 13.4484 17.7234C13.7898 18.1613 13.8418 18.332 13.634 18.332C13.4707 18.332 12.6691 18.7773 12.2609 19.089C11.7637 19.475 11.1031 20.3062 10.8211 20.9C10.7098 21.1449 10.5539 21.6273 10.4797 21.9613C10.4055 22.3101 10.3016 22.5996 10.2422 22.6367C10.1828 22.6664 9.16602 22.9855 7.97852 23.3418C6.79844 23.6906 5.65547 24.0617 5.45508 24.1508C4.76484 24.4625 4.20078 25.0859 3.97812 25.7984C3.83711 26.2289 3.19141 29.9547 3.19141 30.3183C3.19141 30.4965 3.24336 30.6078 3.38437 30.7191C3.63672 30.9195 3.80742 30.9121 4.04492 30.7043C4.22305 30.5558 4.26758 30.3926 4.60898 28.4258C4.80938 27.2605 5.00234 26.214 5.04688 26.0953C5.16562 25.7465 5.47734 25.3902 5.81133 25.2195C6.07109 25.0859 10.0938 23.8242 10.2645 23.8242C10.2941 23.8242 10.3164 24.0765 10.3164 24.3808C10.3164 24.8633 10.3016 24.9375 10.1902 24.9375C9.87852 24.9375 9.15117 25.3679 8.78008 25.7761C8.14922 26.4738 8.11211 26.6148 7.85234 29.9324C7.6 33.1758 7.6 33.2203 8.08242 33.7027C8.39414 34.0144 8.75781 34.1406 9.36641 34.1406C9.87109 34.1406 10.1234 34.0441 10.2348 33.7918C10.3535 33.5246 10.3387 33.4133 10.1309 33.2129C9.98242 33.057 9.87852 33.0273 9.47773 33.0273C8.66875 33.0273 8.71328 33.2648 8.96562 30.014C9.21055 26.9043 9.22539 26.8301 9.75234 26.3699C10.0938 26.0656 10.4574 25.9543 11.0215 25.9914C11.682 26.0359 12.1422 26.3179 12.4094 26.8672C12.6023 27.2605 12.6246 27.4015 12.825 30.0066C13.0031 32.3297 13.018 32.7601 12.9289 32.8863C12.8473 33.0051 12.7434 33.0273 12.3277 33.0273C11.8973 33.0273 11.8008 33.0496 11.6672 33.198C11.4594 33.4207 11.452 33.7769 11.6598 33.9625C11.7859 34.0812 11.9344 34.1035 12.4613 34.1035C13.018 34.1035 13.1441 34.0812 13.4336 33.9031C13.916 33.6285 14.1016 33.2574 14.1016 32.5969C14.1016 31.8918 13.7453 27.4312 13.6562 26.9933C13.4633 26.0508 12.7211 25.2566 11.7785 24.9746L11.4668 24.8855L11.4445 24.173L11.4223 23.4605L12.0754 23.2676C12.4316 23.1562 12.8695 23.0226 13.0477 22.9707L13.3594 22.8742L13.4781 23.1414C14.3613 25.2121 16.0684 29.5539 17.6715 33.8066C18.4953 35.9886 18.6586 36.2929 19 36.2929C19.3414 36.2929 19.5047 35.9886 20.3285 33.8066C21.9316 29.5539 23.6387 25.2121 24.5219 23.1414L24.6406 22.8742L24.9523 22.9707C25.1305 23.0226 25.5609 23.1562 25.9246 23.2676L26.5703 23.4605L26.5555 25.1008L26.5332 26.7336L26.125 26.882C24.1285 27.6168 23.6016 30.1847 25.1453 31.632C26.0359 32.4633 27.2234 32.6562 28.307 32.1515C30.118 31.3054 30.5336 28.9676 29.116 27.55C28.7449 27.1789 28.0918 26.7929 27.8172 26.7929C27.691 26.7929 27.6836 26.6742 27.6836 25.3086C27.6836 24.4922 27.7059 23.8242 27.743 23.8242C27.9062 23.8242 31.9289 25.0859 32.1887 25.2195C32.5152 25.3902 32.8121 25.7242 32.9457 26.073C33.0273 26.2808 34.7344 36.1445 34.7344 36.3894C34.7344 36.4636 34.6527 36.6047 34.5488 36.7011L34.3707 36.8867H19H3.6293L3.45117 36.7011C3.34727 36.6047 3.26562 36.4636 3.26562 36.3894C3.26562 36.3152 3.38437 35.573 3.53281 34.7344C3.84453 32.9308 3.85938 32.6711 3.6293 32.4929C3.36953 32.2777 3.05039 32.3148 2.83516 32.5894C2.74609 32.7082 2.15234 35.9738 2.15234 36.3523C2.15234 36.9758 2.71641 37.7328 3.31016 37.9109C3.75547 38.0445 34.2445 38.0445 34.6898 37.9109C35.2762 37.7328 35.8477 36.9758 35.8477 36.3597C35.8477 36.0406 34.1406 26.1695 34.0219 25.7984C33.7992 25.0859 33.2352 24.4625 32.5449 24.1508C32.3445 24.0617 31.209 23.6906 30.0215 23.3344C28.8414 22.9855 27.8172 22.6664 27.7504 22.6293C27.6762 22.5922 27.602 22.3918 27.55 22.0949C27.409 21.2265 26.9711 20.3656 26.266 19.5715C25.9246 19.1855 25.0859 18.5918 24.6035 18.4136C24.4254 18.3469 24.2547 18.2726 24.2324 18.2429C24.2102 18.2207 24.4031 17.9238 24.6555 17.5824C25.3754 16.6324 25.9246 15.5043 26.1992 14.4355L26.3328 13.916L26.8375 13.8269C27.4609 13.7082 27.832 13.4707 28.1066 13.0105C28.2773 12.7136 28.3145 12.5578 28.3367 11.9789C28.3813 11.0586 28.2477 10.6133 27.7949 10.1679L27.4609 9.84138V8.74294C27.4609 7.74099 27.4461 7.62966 27.3125 7.49607C27.1121 7.29568 26.7113 7.3031 26.5258 7.50349C26.3996 7.64451 26.3848 7.80779 26.3625 8.8988L26.3402 10.1457L25.9543 10.2719C25.7391 10.3461 25.5312 10.4203 25.4793 10.4351C25.4125 10.4648 25.3828 9.87107 25.368 7.96365C25.3457 5.75193 25.3309 5.41795 25.2121 5.1656C25.0043 4.70544 24.6184 4.2824 24.1879 4.0449C23.7945 3.82966 23.7648 3.82224 22.518 3.79998C21.0781 3.77029 20.8109 3.81482 20.284 4.19334C19.2746 4.9281 18.7254 4.9281 17.716 4.19334C17.1891 3.81482 16.9219 3.77029 15.482 3.79998C14.2352 3.82224 14.2055 3.82966 13.8121 4.0449C13.3816 4.2824 12.9957 4.70544 12.7879 5.1656C12.6691 5.41795 12.6543 5.75193 12.632 7.96365C12.6172 9.87107 12.5875 10.4648 12.5207 10.4351C12.4688 10.4203 12.2535 10.3386 12.0457 10.2719L11.6523 10.1383V7.00623C11.6523 4.16365 11.6672 3.82966 11.7859 3.42888C12.1496 2.28592 13.1293 1.41755 14.3242 1.18748C14.8512 1.09099 23.1488 1.09099 23.6758 1.18748C24.5367 1.35076 25.3234 1.86287 25.791 2.56794C26.1992 3.18396 26.2883 3.49568 26.3402 4.55701C26.3848 5.43279 26.3996 5.52185 26.5629 5.64802C26.7855 5.83357 27.127 5.82615 27.3125 5.6406C27.4461 5.50701 27.4609 5.39568 27.4609 4.65349C27.4609 3.16169 27.0898 2.19685 26.1695 1.29881C25.5609 0.697632 24.9523 0.348804 24.1508 0.148415C23.609 0.0073967 23.327 -2.28882e-05 18.9703 0.0073967C14.6805 0.0073967 14.3242 0.0148201 13.8195 0.148415ZM17.3301 5.26951C18.5844 6.06365 19.4156 6.06365 20.6699 5.26951L21.2563 4.89841H22.3398C23.6164 4.89841 23.8316 4.97263 24.1062 5.49216C24.2695 5.81873 24.2695 5.86326 24.2695 8.61677C24.2695 11.3183 24.277 11.4148 24.418 11.6004C24.5664 11.7933 25.0488 11.9863 25.175 11.9047C25.2047 11.8824 25.2344 12.3054 25.2344 12.8472C25.2344 13.7676 25.2195 13.8715 24.9746 14.6136C24.5516 15.8679 23.8465 16.9812 22.8891 17.8941C20.5883 20.0687 17.4117 20.0687 15.1109 17.8941C14.1535 16.9812 13.4484 15.8679 13.0254 14.6136C12.7805 13.8715 12.7656 13.7676 12.7656 12.8398C12.7656 11.9863 12.7805 11.8676 12.8844 11.9047C13.0477 11.964 13.4633 11.7711 13.6117 11.5707C13.7156 11.4148 13.7305 11.066 13.7305 8.60935C13.7305 5.86326 13.7305 5.81873 13.9012 5.49216C14.1684 4.97263 14.3836 4.89841 15.6602 4.89841H16.7437L17.3301 5.26951ZM11.5633 11.2812C11.7043 11.2812 11.6895 12.684 11.541 12.7359C11.3555 12.8101 10.9398 12.6246 10.8434 12.4242C10.7617 12.2386 10.7246 11.2664 10.7988 11.1922C10.8211 11.1699 10.9844 11.1773 11.1551 11.2144C11.3258 11.2441 11.5113 11.2738 11.5633 11.2812ZM27.2383 11.7265C27.2383 12.3648 27.1418 12.5875 26.8152 12.6988C26.3848 12.8398 26.3477 12.7804 26.3477 11.9937V11.2961L26.741 11.2293C26.9488 11.1922 27.1492 11.1699 27.1863 11.1847C27.216 11.1996 27.2383 11.4445 27.2383 11.7265ZM14.7547 20.2172C14.7324 21.182 14.7176 21.3082 14.5691 21.5011C14.4875 21.6125 14.3687 21.6941 14.3094 21.6793C13.9309 21.5679 13.4855 21.6644 11.6375 22.2359C11.5262 22.2656 11.5262 22.2433 11.6227 21.9316C11.8898 21.0261 12.6023 20.1207 13.4039 19.6679C13.7602 19.4601 14.5172 19.1633 14.7176 19.1558C14.7547 19.1484 14.7695 19.6308 14.7547 20.2172ZM23.6832 19.2672C25.0191 19.6605 25.9691 20.6105 26.3848 21.9539C26.4738 22.2433 26.4738 22.2656 26.3625 22.2359C24.7148 21.7238 24.4105 21.6496 23.9727 21.6422C23.4977 21.6347 23.4902 21.6273 23.3641 21.375C23.2602 21.1672 23.2305 20.9222 23.2305 20.1281C23.2305 19.5937 23.2379 19.1484 23.2527 19.1484C23.2676 19.1484 23.4605 19.2004 23.6832 19.2672ZM16.5434 20.1578C18.2281 20.8554 20.0984 20.7738 22.0133 19.9203C22.0727 19.8906 22.1098 20.1207 22.132 20.6847C22.1543 21.4195 22.1766 21.5234 22.3992 21.9242C22.5254 22.1691 22.6293 22.3695 22.6145 22.3769C22.607 22.3844 21.8055 22.9781 20.8332 23.698C19.8609 24.4179 19.0371 25.0117 19 25.0117C18.9629 25.0117 18.1391 24.4179 17.1668 23.698C16.1945 22.9781 15.393 22.3844 15.3855 22.3769C15.3707 22.3695 15.4746 22.1691 15.6008 21.9242C15.8234 21.5234 15.8457 21.4195 15.868 20.6847C15.8902 20.1207 15.9273 19.8906 15.9867 19.9203C16.0312 19.9426 16.2836 20.0465 16.5434 20.1578ZM17.7977 25.5535C17.8719 25.6129 17.6715 25.7316 16.9812 26.0211C16.4766 26.2289 16.0461 26.3847 16.0238 26.3551C16.0016 26.3328 15.7566 25.7465 15.482 25.0562C15.2 24.366 14.9254 23.6906 14.8734 23.557C14.777 23.3269 14.9105 23.4086 16.2316 24.3883C17.0406 24.9894 17.7457 25.509 17.7977 25.5535ZM23.1266 23.557C23.0672 23.6906 22.8 24.366 22.518 25.0562C22.2434 25.7465 21.9984 26.3328 21.9762 26.3551C21.9539 26.3847 21.516 26.2289 21.0113 26.0211L20.0984 25.6277L21.6422 24.4699C22.4957 23.839 23.2008 23.3121 23.2156 23.3121C23.223 23.3047 23.1859 23.416 23.1266 23.557ZM19.6012 26.6148C19.9426 26.7633 20.2395 26.8969 20.2543 26.9117C20.2691 26.9265 20.1504 27.0824 19.9945 27.2679L19.7051 27.6019H19H18.2949L17.998 27.2605C17.8348 27.0676 17.7383 26.9043 17.7754 26.8894C17.857 26.8597 18.9629 26.3625 18.9703 26.3551C18.9703 26.3476 19.2523 26.4664 19.6012 26.6148ZM17.0926 27.8914L17.4934 28.3664L17.3895 28.8933C17.3375 29.1902 17.2781 29.4574 17.2707 29.4945C17.2559 29.5316 17.0703 29.1086 16.8551 28.5519C16.3504 27.2308 16.4023 27.075 17.0926 27.8914ZM21.4863 27.4609C21.516 27.5054 21.3602 27.9953 21.1449 28.5519C20.9297 29.1086 20.7441 29.5316 20.7293 29.4945C20.7219 29.4574 20.6625 29.1902 20.6105 28.9008L20.5066 28.3664L20.9223 27.8765C21.3379 27.3793 21.4047 27.3273 21.4863 27.4609ZM28.0621 28.0992C28.9676 28.7078 29.1234 29.9992 28.3738 30.7636C27.691 31.4687 26.6742 31.5058 25.9469 30.8601C25.0117 30.0437 25.2418 28.5074 26.3848 27.9656C26.8449 27.7504 27.6316 27.8097 28.0621 28.0992ZM19.5121 29.1086C19.5566 29.3238 19.6754 29.9695 19.7793 30.541L19.9648 31.5801L19.5047 32.8195C19.2449 33.5097 19.0223 34.0664 19 34.0664C18.9777 34.0664 18.7551 33.5097 18.4953 32.8195L18.0352 31.5801L18.2207 30.541C18.3246 29.9695 18.4434 29.3238 18.4879 29.1086L18.5621 28.7226H19H19.4379L19.5121 29.1086Z" fill="#987750"/>
</g>
<defs>
<clipPath id="clip0_578_622">
<rect width="38" height="38" fill="white"/>
</clipPath>
</defs>
</svg>
