<svg width="1071" height="2" viewBox="0 0 1071 2" fill="none" xmlns="http://www.w3.org/2000/svg">
<path d="M2.00187 1.5C2.27801 1.5 2.50187 1.27614 2.50187 1C2.50187 0.723858 2.27801 0.5 2.00187 0.5L2.00187 1.5ZM8.00748 0.500001C7.73133 0.500001 7.50748 0.723858 7.50748 1C7.50748 1.27614 7.73133 1.5 8.00748 1.5L8.00748 0.500001ZM12.0112 1.5C12.2874 1.5 12.5112 1.27614 12.5112 1C12.5112 0.723859 12.2874 0.500001 12.0112 0.500001L12.0112 1.5ZM18.0168 0.500002C17.7407 0.500002 17.5168 0.723859 17.5168 1C17.5168 1.27614 17.7407 1.5 18.0168 1.5L18.0168 0.500002ZM22.0206 1.5C22.2967 1.5 22.5206 1.27614 22.5206 1C22.5206 0.72386 22.2967 0.500002 22.0206 0.500002L22.0206 1.5ZM28.0262 0.500002C27.75 0.500002 27.5262 0.72386 27.5262 1C27.5262 1.27614 27.75 1.5 28.0262 1.5L28.0262 0.500002ZM32.0299 1.5C32.306 1.5 32.5299 1.27615 32.5299 1C32.5299 0.72386 32.306 0.500003 32.0299 0.500003L32.0299 1.5ZM38.0355 0.500003C37.7594 0.500003 37.5355 0.723861 37.5355 1C37.5355 1.27615 37.7594 1.5 38.0355 1.5L38.0355 0.500003ZM42.0393 1.5C42.3154 1.5 42.5393 1.27615 42.5393 1C42.5393 0.723861 42.3154 0.500004 42.0393 0.500004L42.0393 1.5ZM48.0449 0.500004C47.7687 0.500004 47.5449 0.723862 47.5449 1C47.5449 1.27615 47.7687 1.5 48.0449 1.5L48.0449 0.500004ZM52.0486 1.5C52.3247 1.5 52.5486 1.27615 52.5486 1C52.5486 0.723862 52.3247 0.500005 52.0486 0.500005L52.0486 1.5ZM58.0542 0.500005C57.7781 0.500005 57.5542 0.723863 57.5542 1.00001C57.5542 1.27615 57.7781 1.50001 58.0542 1.50001L58.0542 0.500005ZM62.0579 1.50001C62.3341 1.50001 62.5579 1.27615 62.5579 1.00001C62.5579 0.723863 62.3341 0.500005 62.0579 0.500005L62.0579 1.50001ZM68.0636 0.500006C67.7874 0.500006 67.5636 0.723864 67.5636 1.00001C67.5636 1.27615 67.7874 1.50001 68.0636 1.50001L68.0636 0.500006ZM72.0673 1.50001C72.3434 1.50001 72.5673 1.27615 72.5673 1.00001C72.5673 0.723864 72.3434 0.500006 72.0673 0.500006L72.0673 1.50001ZM78.0729 0.500007C77.7968 0.500007 77.5729 0.723864 77.5729 1.00001C77.5729 1.27615 77.7968 1.50001 78.0729 1.50001L78.0729 0.500007ZM82.0766 1.50001C82.3528 1.50001 82.5766 1.27615 82.5766 1.00001C82.5766 0.723865 82.3528 0.500007 82.0766 0.500007L82.0766 1.50001ZM88.0823 0.500008C87.8061 0.500008 87.5823 0.723865 87.5823 1.00001C87.5823 1.27615 87.8061 1.50001 88.0823 1.50001L88.0823 0.500008ZM92.086 1.50001C92.3621 1.50001 92.586 1.27615 92.586 1.00001C92.586 0.723866 92.3621 0.500008 92.086 0.500008L92.086 1.50001ZM98.0916 0.500009C97.8155 0.500009 97.5916 0.723866 97.5916 1.00001C97.5916 1.27615 97.8155 1.50001 98.0916 1.50001L98.0916 0.500009ZM102.095 1.50001C102.371 1.50001 102.595 1.27615 102.595 1.00001C102.595 0.723867 102.371 0.500009 102.095 0.500009L102.095 1.50001ZM108.101 0.500009C107.825 0.500009 107.601 0.723867 107.601 1.00001C107.601 1.27615 107.825 1.50001 108.101 1.50001L108.101 0.500009ZM112.105 1.50001C112.381 1.50001 112.605 1.27615 112.605 1.00001C112.605 0.723867 112.381 0.50001 112.105 0.50001L112.105 1.50001ZM118.11 0.50001C117.834 0.50001 117.61 0.723868 117.61 1.00001C117.61 1.27615 117.834 1.50001 118.11 1.50001L118.11 0.50001ZM122.114 1.50001C122.39 1.50001 122.614 1.27615 122.614 1.00001C122.614 0.723868 122.39 0.500011 122.114 0.500011L122.114 1.50001ZM128.12 0.500011C127.843 0.500011 127.62 0.723869 127.62 1.00001C127.62 1.27615 127.843 1.50001 128.12 1.50001L128.12 0.500011ZM132.123 1.50001C132.4 1.50001 132.623 1.27615 132.623 1.00001C132.623 0.723869 132.4 0.500012 132.123 0.500012L132.123 1.50001ZM138.129 0.500012C137.853 0.500012 137.629 0.72387 137.629 1.00001C137.629 1.27615 137.853 1.50001 138.129 1.50001L138.129 0.500012ZM142.133 1.50001C142.409 1.50001 142.633 1.27615 142.633 1.00001C142.633 0.72387 142.409 0.500012 142.133 0.500012L142.133 1.50001ZM148.138 0.500013C147.862 0.500013 147.638 0.723871 147.638 1.00001C147.638 1.27616 147.862 1.50001 148.138 1.50001L148.138 0.500013ZM152.142 1.50001C152.418 1.50001 152.642 1.27616 152.642 1.00001C152.642 0.723871 152.418 0.500013 152.142 0.500013L152.142 1.50001ZM158.148 0.500014C157.872 0.500014 157.648 0.723871 157.648 1.00001C157.648 1.27616 157.872 1.50001 158.148 1.50001L158.148 0.500014ZM162.151 1.50001C162.428 1.50001 162.651 1.27616 162.651 1.00001C162.651 0.723872 162.428 0.500014 162.151 0.500014L162.151 1.50001ZM168.157 0.500015C167.881 0.500015 167.657 0.723872 167.657 1.00001C167.657 1.27616 167.881 1.50001 168.157 1.50001L168.157 0.500015ZM172.161 1.50002C172.437 1.50002 172.661 1.27616 172.661 1.00002C172.661 0.723873 172.437 0.500015 172.161 0.500015L172.161 1.50002ZM178.166 0.500016C177.89 0.500016 177.666 0.723873 177.666 1.00002C177.666 1.27616 177.89 1.50002 178.166 1.50002L178.166 0.500016ZM182.17 1.50002C182.446 1.50002 182.67 1.27616 182.67 1.00002C182.67 0.723874 182.446 0.500016 182.17 0.500016L182.17 1.50002ZM188.176 0.500016C187.9 0.500016 187.676 0.723874 187.676 1.00002C187.676 1.27616 187.9 1.50002 188.176 1.50002L188.176 0.500016ZM192.179 1.50002C192.456 1.50002 192.679 1.27616 192.679 1.00002C192.679 0.723874 192.456 0.500017 192.179 0.500017L192.179 1.50002ZM198.185 0.500017C197.909 0.500017 197.685 0.723875 197.685 1.00002C197.685 1.27616 197.909 1.50002 198.185 1.50002L198.185 0.500017ZM202.189 1.50002C202.465 1.50002 202.689 1.27616 202.689 1.00002C202.689 0.723875 202.465 0.500018 202.189 0.500018L202.189 1.50002ZM208.194 0.500018C207.918 0.500018 207.694 0.723876 207.694 1.00002C207.694 1.27616 207.918 1.50002 208.194 1.50002L208.194 0.500018ZM212.198 1.50002C212.474 1.50002 212.698 1.27616 212.698 1.00002C212.698 0.723876 212.474 0.500019 212.198 0.500019L212.198 1.50002ZM218.204 0.500019C217.928 0.500019 217.704 0.723877 217.704 1.00002C217.704 1.27616 217.928 1.50002 218.204 1.50002L218.204 0.500019ZM222.207 1.50002C222.484 1.50002 222.707 1.27616 222.707 1.00002C222.707 0.723877 222.484 0.500019 222.207 0.500019L222.207 1.50002ZM228.213 0.50002C227.937 0.50002 227.713 0.723878 227.713 1.00002C227.713 1.27616 227.937 1.50002 228.213 1.50002L228.213 0.50002ZM232.217 1.50002C232.493 1.50002 232.717 1.27616 232.717 1.00002C232.717 0.723878 232.493 0.50002 232.217 0.50002L232.217 1.50002ZM238.222 0.500021C237.946 0.500021 237.722 0.723878 237.722 1.00002C237.722 1.27616 237.946 1.50002 238.222 1.50002L238.222 0.500021ZM242.226 1.50002C242.502 1.50002 242.726 1.27616 242.726 1.00002C242.726 0.723879 242.502 0.500021 242.226 0.500021L242.226 1.50002ZM248.232 0.500022C247.956 0.500022 247.732 0.723879 247.732 1.00002C247.732 1.27616 247.956 1.50002 248.232 1.50002L248.232 0.500022ZM252.235 1.50002C252.512 1.50002 252.735 1.27616 252.735 1.00002C252.735 0.72388 252.512 0.500022 252.235 0.500022L252.235 1.50002ZM258.241 0.500023C257.965 0.500023 257.741 0.72388 257.741 1.00002C257.741 1.27616 257.965 1.50002 258.241 1.50002L258.241 0.500023ZM262.245 1.50002C262.521 1.50002 262.745 1.27617 262.745 1.00002C262.745 0.723881 262.521 0.500023 262.245 0.500023L262.245 1.50002ZM268.25 0.500023C267.974 0.500023 267.75 0.723881 267.75 1.00002C267.75 1.27617 267.974 1.50002 268.25 1.50002L268.25 0.500023ZM272.254 1.50002C272.53 1.50002 272.754 1.27617 272.754 1.00002C272.754 0.723881 272.53 0.500024 272.254 0.500024L272.254 1.50002ZM278.26 0.500024C277.984 0.500024 277.76 0.723882 277.76 1.00002C277.76 1.27617 277.984 1.50002 278.26 1.50002L278.26 0.500024ZM282.263 1.50002C282.54 1.50002 282.763 1.27617 282.763 1.00002C282.763 0.723882 282.54 0.500025 282.263 0.500025L282.263 1.50002ZM288.269 0.500025C287.993 0.500025 287.769 0.723883 287.769 1.00003C287.769 1.27617 287.993 1.50003 288.269 1.50003L288.269 0.500025ZM292.273 1.50003C292.549 1.50003 292.773 1.27617 292.773 1.00003C292.773 0.723883 292.549 0.500026 292.273 0.500026L292.273 1.50003ZM298.278 0.500026C298.002 0.500026 297.778 0.723884 297.778 1.00003C297.778 1.27617 298.002 1.50003 298.278 1.50003L298.278 0.500026ZM302.282 1.50003C302.558 1.50003 302.782 1.27617 302.782 1.00003C302.782 0.723884 302.558 0.500026 302.282 0.500026L302.282 1.50003ZM308.288 0.500027C308.012 0.500027 307.788 0.723885 307.788 1.00003C307.788 1.27617 308.012 1.50003 308.288 1.50003L308.288 0.500027ZM312.291 1.50003C312.568 1.50003 312.791 1.27617 312.791 1.00003C312.791 0.723885 312.568 0.500027 312.291 0.500027L312.291 1.50003ZM318.297 0.500028C318.021 0.500028 317.797 0.723885 317.797 1.00003C317.797 1.27617 318.021 1.50003 318.297 1.50003L318.297 0.500028ZM322.301 1.50003C322.577 1.50003 322.801 1.27617 322.801 1.00003C322.801 0.723886 322.577 0.500028 322.301 0.500028L322.301 1.50003ZM328.306 0.500029C328.03 0.500029 327.806 0.723886 327.806 1.00003C327.806 1.27617 328.03 1.50003 328.306 1.50003L328.306 0.500029ZM332.31 1.50003C332.586 1.50003 332.81 1.27617 332.81 1.00003C332.81 0.723887 332.586 0.500029 332.31 0.500029L332.31 1.50003ZM338.316 0.50003C338.04 0.50003 337.816 0.723887 337.816 1.00003C337.816 1.27617 338.04 1.50003 338.316 1.50003L338.316 0.50003ZM342.319 1.50003C342.596 1.50003 342.819 1.27617 342.819 1.00003C342.819 0.723888 342.596 0.50003 342.319 0.50003L342.319 1.50003ZM348.325 0.50003C348.049 0.50003 347.825 0.723888 347.825 1.00003C347.825 1.27617 348.049 1.50003 348.325 1.50003L348.325 0.50003ZM352.329 1.50003C352.605 1.50003 352.829 1.27617 352.829 1.00003C352.829 0.723888 352.605 0.500031 352.329 0.500031L352.329 1.50003ZM358.334 0.500031C358.058 0.500031 357.834 0.723889 357.834 1.00003C357.834 1.27617 358.058 1.50003 358.334 1.50003L358.334 0.500031ZM362.338 1.50003C362.614 1.50003 362.838 1.27617 362.838 1.00003C362.838 0.723889 362.614 0.500032 362.338 0.500032L362.338 1.50003ZM368.344 0.500032C368.068 0.500032 367.844 0.72389 367.844 1.00003C367.844 1.27617 368.068 1.50003 368.344 1.50003L368.344 0.500032ZM372.347 1.50003C372.624 1.50003 372.847 1.27617 372.847 1.00003C372.847 0.72389 372.624 0.500033 372.347 0.500033L372.347 1.50003ZM378.353 0.500033C378.077 0.500033 377.853 0.723891 377.853 1.00003C377.853 1.27618 378.077 1.50003 378.353 1.50003L378.353 0.500033ZM382.357 1.50003C382.633 1.50003 382.857 1.27618 382.857 1.00003C382.857 0.723891 382.633 0.500033 382.357 0.500033L382.357 1.50003ZM388.362 0.500034C388.086 0.500034 387.862 0.723892 387.862 1.00003C387.862 1.27618 388.086 1.50003 388.362 1.50003L388.362 0.500034ZM392.366 1.50003C392.642 1.50003 392.866 1.27618 392.866 1.00003C392.866 0.723892 392.642 0.500034 392.366 0.500034L392.366 1.50003ZM398.372 0.500035C398.096 0.500035 397.872 0.723892 397.872 1.00003C397.872 1.27618 398.096 1.50003 398.372 1.50003L398.372 0.500035ZM402.376 1.50004C402.652 1.50004 402.876 1.27618 402.876 1.00004C402.876 0.723893 402.652 0.500035 402.376 0.500035L402.376 1.50004ZM408.381 0.500036C408.105 0.500036 407.881 0.723893 407.881 1.00004C407.881 1.27618 408.105 1.50004 408.381 1.50004L408.381 0.500036ZM412.385 1.50004C412.661 1.50004 412.885 1.27618 412.885 1.00004C412.885 0.723894 412.661 0.500036 412.385 0.500036L412.385 1.50004ZM418.39 0.500037C418.114 0.500037 417.89 0.723894 417.89 1.00004C417.89 1.27618 418.114 1.50004 418.39 1.50004L418.39 0.500037ZM422.394 1.50004C422.67 1.50004 422.894 1.27618 422.894 1.00004C422.894 0.723895 422.67 0.500037 422.394 0.500037L422.394 1.50004ZM428.4 0.500037C428.124 0.500037 427.9 0.723895 427.9 1.00004C427.9 1.27618 428.124 1.50004 428.4 1.50004L428.4 0.500037ZM432.404 1.50004C432.68 1.50004 432.904 1.27618 432.904 1.00004C432.904 0.723895 432.68 0.500038 432.404 0.500038L432.404 1.50004ZM438.409 0.500038C438.133 0.500038 437.909 0.723896 437.909 1.00004C437.909 1.27618 438.133 1.50004 438.409 1.50004L438.409 0.500038ZM442.413 1.50004C442.689 1.50004 442.913 1.27618 442.913 1.00004C442.913 0.723896 442.689 0.500039 442.413 0.500039L442.413 1.50004ZM448.418 0.500039C448.142 0.500039 447.918 0.723897 447.918 1.00004C447.918 1.27618 448.142 1.50004 448.418 1.50004L448.418 0.500039ZM452.422 1.50004C452.698 1.50004 452.922 1.27618 452.922 1.00004C452.922 0.723897 452.698 0.50004 452.422 0.50004L452.422 1.50004ZM458.428 0.50004C458.152 0.50004 457.928 0.723898 457.928 1.00004C457.928 1.27618 458.152 1.50004 458.428 1.50004L458.428 0.50004ZM462.432 1.50004C462.708 1.50004 462.932 1.27618 462.932 1.00004C462.932 0.723898 462.708 0.50004 462.432 0.50004L462.432 1.50004ZM468.437 0.500041C468.161 0.500041 467.937 0.723899 467.937 1.00004C467.937 1.27618 468.161 1.50004 468.437 1.50004L468.437 0.500041ZM472.441 1.50004C472.717 1.50004 472.941 1.27618 472.941 1.00004C472.941 0.723899 472.717 0.500041 472.441 0.500041L472.441 1.50004ZM478.447 0.500042C478.17 0.500042 477.947 0.723899 477.947 1.00004C477.947 1.27618 478.17 1.50004 478.447 1.50004L478.447 0.500042ZM482.45 1.50004C482.726 1.50004 482.95 1.27618 482.95 1.00004C482.95 0.7239 482.726 0.500042 482.45 0.500042L482.45 1.50004ZM488.456 0.500043C488.18 0.500043 487.956 0.7239 487.956 1.00004C487.956 1.27619 488.18 1.50004 488.456 1.50004L488.456 0.500043ZM492.46 1.50004C492.736 1.50004 492.96 1.27619 492.96 1.00004C492.96 0.723901 492.736 0.500043 492.46 0.500043L492.46 1.50004ZM498.465 0.500044C498.189 0.500044 497.965 0.723901 497.965 1.00004C497.965 1.27619 498.189 1.50004 498.465 1.50004L498.465 0.500044ZM502.469 1.50004C502.745 1.50004 502.969 1.27619 502.969 1.00004C502.969 0.723902 502.745 0.500044 502.469 0.500044L502.469 1.50004ZM508.475 0.500044C508.198 0.500044 507.975 0.723902 507.975 1.00004C507.975 1.27619 508.198 1.50004 508.475 1.50004L508.475 0.500044ZM512.478 1.50004C512.754 1.50004 512.978 1.27619 512.978 1.00004C512.978 0.723902 512.754 0.500045 512.478 0.500045L512.478 1.50004ZM518.484 0.500045C518.208 0.500045 517.984 0.723903 517.984 1.00005C517.984 1.27619 518.208 1.50005 518.484 1.50005L518.484 0.500045ZM522.488 1.50005C522.764 1.50005 522.988 1.27619 522.988 1.00005C522.988 0.723903 522.764 0.500046 522.488 0.500046L522.488 1.50005ZM528.493 0.500046C528.217 0.500046 527.993 0.723904 527.993 1.00005C527.993 1.27619 528.217 1.50005 528.493 1.50005L528.493 0.500046ZM532.497 1.50005C532.773 1.50005 532.997 1.27619 532.997 1.00005C532.997 0.723904 532.773 0.500047 532.497 0.500047L532.497 1.50005ZM538.503 0.500047C538.226 0.500047 538.003 0.723905 538.003 1.00005C538.003 1.27619 538.226 1.50005 538.503 1.50005L538.503 0.500047ZM542.506 1.50005C542.782 1.50005 543.006 1.27619 543.006 1.00005C543.006 0.723905 542.782 0.500047 542.506 0.500047L542.506 1.50005ZM548.512 0.500048C548.236 0.500048 548.012 0.723906 548.012 1.00005C548.012 1.27619 548.236 1.50005 548.512 1.50005L548.512 0.500048ZM552.516 1.50005C552.792 1.50005 553.016 1.27619 553.016 1.00005C553.016 0.723906 552.792 0.500048 552.516 0.500048L552.516 1.50005ZM558.521 0.500049C558.245 0.500049 558.021 0.723906 558.021 1.00005C558.021 1.27619 558.245 1.50005 558.521 1.50005L558.521 0.500049ZM562.525 1.50005C562.801 1.50005 563.025 1.27619 563.025 1.00005C563.025 0.723907 562.801 0.500049 562.525 0.500049L562.525 1.50005ZM568.531 0.50005C568.254 0.50005 568.031 0.723907 568.031 1.00005C568.031 1.27619 568.254 1.50005 568.531 1.50005L568.531 0.50005ZM572.534 1.50005C572.81 1.50005 573.034 1.27619 573.034 1.00005C573.034 0.723908 572.81 0.50005 572.534 0.50005L572.534 1.50005ZM578.54 0.500051C578.264 0.500051 578.04 0.723908 578.04 1.00005C578.04 1.27619 578.264 1.50005 578.54 1.50005L578.54 0.500051ZM582.544 1.50005C582.82 1.50005 583.044 1.27619 583.044 1.00005C583.044 0.723909 582.82 0.500051 582.544 0.500051L582.544 1.50005ZM588.549 0.500051C588.273 0.500051 588.049 0.723909 588.049 1.00005C588.049 1.27619 588.273 1.50005 588.549 1.50005L588.549 0.500051ZM592.553 1.50005C592.829 1.50005 593.053 1.27619 593.053 1.00005C593.053 0.723909 592.829 0.500052 592.553 0.500052L592.553 1.50005ZM598.559 0.500052C598.282 0.500052 598.059 0.72391 598.059 1.00005C598.059 1.27619 598.282 1.50005 598.559 1.50005L598.559 0.500052ZM602.562 1.50005C602.838 1.50005 603.062 1.2762 603.062 1.00005C603.062 0.72391 602.838 0.500053 602.562 0.500053L602.562 1.50005ZM608.568 0.500053C608.292 0.500053 608.068 0.723911 608.068 1.00005C608.068 1.2762 608.292 1.50005 608.568 1.50005L608.568 0.500053ZM612.572 1.50005C612.848 1.50005 613.072 1.2762 613.072 1.00005C613.072 0.723911 612.848 0.500054 612.572 0.500054L612.572 1.50005ZM618.577 0.500054C618.301 0.500054 618.077 0.723912 618.077 1.00005C618.077 1.2762 618.301 1.50005 618.577 1.50005L618.577 0.500054ZM622.581 1.50005C622.857 1.50005 623.081 1.2762 623.081 1.00005C623.081 0.723912 622.857 0.500054 622.581 0.500054L622.581 1.50005ZM628.587 0.500055C628.31 0.500055 628.087 0.723913 628.087 1.00005C628.087 1.2762 628.31 1.50005 628.587 1.50005L628.587 0.500055ZM632.59 1.50006C632.866 1.50006 633.09 1.2762 633.09 1.00006C633.09 0.723913 632.866 0.500055 632.59 0.500055L632.59 1.50006ZM638.596 0.500056C638.32 0.500056 638.096 0.723913 638.096 1.00006C638.096 1.2762 638.32 1.50006 638.596 1.50006L638.596 0.500056ZM642.6 1.50006C642.876 1.50006 643.1 1.2762 643.1 1.00006C643.1 0.723914 642.876 0.500056 642.6 0.500056L642.6 1.50006ZM648.605 0.500057C648.329 0.500057 648.105 0.723914 648.105 1.00006C648.105 1.2762 648.329 1.50006 648.605 1.50006L648.605 0.500057ZM652.609 1.50006C652.885 1.50006 653.109 1.2762 653.109 1.00006C653.109 0.723915 652.885 0.500057 652.609 0.500057L652.609 1.50006ZM658.615 0.500058C658.338 0.500058 658.115 0.723915 658.115 1.00006C658.115 1.2762 658.338 1.50006 658.615 1.50006L658.615 0.500058ZM662.618 1.50006C662.894 1.50006 663.118 1.2762 663.118 1.00006C663.118 0.723916 662.894 0.500058 662.618 0.500058L662.618 1.50006ZM668.624 0.500058C668.348 0.500058 668.124 0.723916 668.124 1.00006C668.124 1.2762 668.348 1.50006 668.624 1.50006L668.624 0.500058ZM672.628 1.50006C672.904 1.50006 673.128 1.2762 673.128 1.00006C673.128 0.723916 672.904 0.500059 672.628 0.500059L672.628 1.50006ZM678.633 0.500059C678.357 0.500059 678.133 0.723917 678.133 1.00006C678.133 1.2762 678.357 1.50006 678.633 1.50006L678.633 0.500059ZM682.637 1.50006C682.913 1.50006 683.137 1.2762 683.137 1.00006C683.137 0.723917 682.913 0.50006 682.637 0.50006L682.637 1.50006ZM688.643 0.50006C688.366 0.50006 688.143 0.723918 688.143 1.00006C688.143 1.2762 688.366 1.50006 688.643 1.50006L688.643 0.50006ZM692.646 1.50006C692.922 1.50006 693.146 1.2762 693.146 1.00006C693.146 0.723918 692.922 0.500061 692.646 0.500061L692.646 1.50006ZM698.652 0.500061C698.376 0.500061 698.152 0.723919 698.152 1.00006C698.152 1.2762 698.376 1.50006 698.652 1.50006L698.652 0.500061ZM702.656 1.50006C702.932 1.50006 703.156 1.2762 703.156 1.00006C703.156 0.723919 702.932 0.500061 702.656 0.500061L702.656 1.50006ZM708.661 0.500062C708.385 0.500062 708.161 0.72392 708.161 1.00006C708.161 1.2762 708.385 1.50006 708.661 1.50006L708.661 0.500062ZM712.665 1.50006C712.941 1.50006 713.165 1.2762 713.165 1.00006C713.165 0.72392 712.941 0.500062 712.665 0.500062L712.665 1.50006ZM718.671 0.500063C718.395 0.500063 718.171 0.72392 718.171 1.00006C718.171 1.27621 718.395 1.50006 718.671 1.50006L718.671 0.500063ZM722.674 1.50006C722.951 1.50006 723.174 1.27621 723.174 1.00006C723.174 0.723921 722.951 0.500063 722.674 0.500063L722.674 1.50006ZM728.68 0.500064C728.404 0.500064 728.18 0.723921 728.18 1.00006C728.18 1.27621 728.404 1.50006 728.68 1.50006L728.68 0.500064ZM732.684 1.50006C732.96 1.50006 733.184 1.27621 733.184 1.00006C733.184 0.723922 732.96 0.500064 732.684 0.500064L732.684 1.50006ZM738.689 0.500065C738.413 0.500065 738.189 0.723922 738.189 1.00006C738.189 1.27621 738.413 1.50006 738.689 1.50006L738.689 0.500065ZM742.693 1.50006C742.969 1.50006 743.193 1.27621 743.193 1.00006C743.193 0.723923 742.969 0.500065 742.693 0.500065L742.693 1.50006ZM748.699 0.500065C748.422 0.500065 748.199 0.723923 748.199 1.00007C748.199 1.27621 748.422 1.50007 748.699 1.50007L748.699 0.500065ZM752.702 1.50007C752.979 1.50007 753.202 1.27621 753.202 1.00007C753.202 0.723923 752.979 0.500066 752.702 0.500066L752.702 1.50007ZM758.708 0.500066C758.432 0.500066 758.208 0.723924 758.208 1.00007C758.208 1.27621 758.432 1.50007 758.708 1.50007L758.708 0.500066ZM762.712 1.50007C762.988 1.50007 763.212 1.27621 763.212 1.00007C763.212 0.723924 762.988 0.500067 762.712 0.500067L762.712 1.50007ZM768.717 0.500067C768.441 0.500067 768.217 0.723925 768.217 1.00007C768.217 1.27621 768.441 1.50007 768.717 1.50007L768.717 0.500067ZM772.721 1.50007C772.997 1.50007 773.221 1.27621 773.221 1.00007C773.221 0.723925 772.997 0.500068 772.721 0.500068L772.721 1.50007ZM778.727 0.500068C778.451 0.500068 778.227 0.723926 778.227 1.00007C778.227 1.27621 778.451 1.50007 778.727 1.50007L778.727 0.500068ZM782.73 1.50007C783.007 1.50007 783.23 1.27621 783.23 1.00007C783.23 0.723926 783.007 0.500068 782.73 0.500068L782.73 1.50007ZM788.736 0.500069C788.46 0.500069 788.236 0.723927 788.236 1.00007C788.236 1.27621 788.46 1.50007 788.736 1.50007L788.736 0.500069ZM792.74 1.50007C793.016 1.50007 793.24 1.27621 793.24 1.00007C793.24 0.723927 793.016 0.500069 792.74 0.500069L792.74 1.50007ZM798.745 0.50007C798.469 0.50007 798.245 0.723927 798.245 1.00007C798.245 1.27621 798.469 1.50007 798.745 1.50007L798.745 0.50007ZM802.749 1.50007C803.025 1.50007 803.249 1.27621 803.249 1.00007C803.249 0.723928 803.025 0.50007 802.749 0.50007L802.749 1.50007ZM808.755 0.500071C808.479 0.500071 808.255 0.723928 808.255 1.00007C808.255 1.27621 808.479 1.50007 808.755 1.50007L808.755 0.500071ZM812.758 1.50007C813.034 1.50007 813.258 1.27621 813.258 1.00007C813.258 0.723929 813.034 0.500071 812.758 0.500071L812.758 1.50007ZM818.764 0.500072C818.488 0.500072 818.264 0.723929 818.264 1.00007C818.264 1.27621 818.488 1.50007 818.764 1.50007L818.764 0.500072ZM822.768 1.50007C823.044 1.50007 823.268 1.27621 823.268 1.00007C823.268 0.72393 823.044 0.500072 822.768 0.500072L822.768 1.50007ZM828.773 0.500072C828.497 0.500072 828.273 0.72393 828.273 1.00007C828.273 1.27621 828.497 1.50007 828.773 1.50007L828.773 0.500072ZM832.777 1.50007C833.053 1.50007 833.277 1.27622 833.277 1.00007C833.277 0.72393 833.053 0.500073 832.777 0.500073L832.777 1.50007ZM838.783 0.500073C838.507 0.500073 838.283 0.723931 838.283 1.00007C838.283 1.27622 838.507 1.50007 838.783 1.50007L838.783 0.500073ZM842.786 1.50007C843.062 1.50007 843.286 1.27622 843.286 1.00007C843.286 0.723931 843.063 0.500074 842.786 0.500074L842.786 1.50007ZM848.792 0.500074C848.516 0.500074 848.292 0.723932 848.292 1.00007C848.292 1.27622 848.516 1.50007 848.792 1.50007L848.792 0.500074ZM852.796 1.50007C853.072 1.50007 853.296 1.27622 853.296 1.00007C853.296 0.723932 853.072 0.500075 852.796 0.500075L852.796 1.50007ZM858.801 0.500075C858.525 0.500075 858.301 0.723933 858.301 1.00008C858.301 1.27622 858.525 1.50008 858.801 1.50008L858.801 0.500075ZM862.805 1.50008C863.081 1.50008 863.305 1.27622 863.305 1.00008C863.305 0.723933 863.081 0.500075 862.805 0.500075L862.805 1.50008ZM868.811 0.500076C868.535 0.500076 868.311 0.723934 868.311 1.00008C868.311 1.27622 868.535 1.50008 868.811 1.50008L868.811 0.500076ZM872.814 1.50008C873.091 1.50008 873.314 1.27622 873.314 1.00008C873.314 0.723934 873.091 0.500076 872.814 0.500076L872.814 1.50008ZM878.82 0.500077C878.544 0.500077 878.32 0.723934 878.32 1.00008C878.32 1.27622 878.544 1.50008 878.82 1.50008L878.82 0.500077ZM882.824 1.50008C883.1 1.50008 883.324 1.27622 883.324 1.00008C883.324 0.723935 883.1 0.500077 882.824 0.500077L882.824 1.50008ZM888.829 0.500078C888.553 0.500078 888.329 0.723935 888.329 1.00008C888.329 1.27622 888.553 1.50008 888.829 1.50008L888.829 0.500078ZM892.833 1.50008C893.109 1.50008 893.333 1.27622 893.333 1.00008C893.333 0.723936 893.109 0.500078 892.833 0.500078L892.833 1.50008ZM898.839 0.500079C898.563 0.500079 898.339 0.723936 898.339 1.00008C898.339 1.27622 898.563 1.50008 898.839 1.50008L898.839 0.500079ZM902.842 1.50008C903.119 1.50008 903.342 1.27622 903.342 1.00008C903.342 0.723937 903.119 0.500079 902.842 0.500079L902.842 1.50008ZM908.848 0.500079C908.572 0.500079 908.348 0.723937 908.348 1.00008C908.348 1.27622 908.572 1.50008 908.848 1.50008L908.848 0.500079ZM912.852 1.50008C913.128 1.50008 913.352 1.27622 913.352 1.00008C913.352 0.723937 913.128 0.50008 912.852 0.50008L912.852 1.50008ZM918.857 0.50008C918.581 0.50008 918.357 0.723938 918.357 1.00008C918.357 1.27622 918.581 1.50008 918.857 1.50008L918.857 0.50008ZM922.861 1.50008C923.137 1.50008 923.361 1.27622 923.361 1.00008C923.361 0.723938 923.137 0.500081 922.861 0.500081L922.861 1.50008ZM928.867 0.500081C928.591 0.500081 928.367 0.723939 928.367 1.00008C928.367 1.27622 928.591 1.50008 928.867 1.50008L928.867 0.500081ZM932.87 1.50008C933.147 1.50008 933.37 1.27622 933.37 1.00008C933.37 0.723939 933.147 0.500082 932.87 0.500082L932.87 1.50008ZM938.876 0.500082C938.6 0.500082 938.376 0.72394 938.376 1.00008C938.376 1.27622 938.6 1.50008 938.876 1.50008L938.876 0.500082ZM942.88 1.50008C943.156 1.50008 943.38 1.27622 943.38 1.00008C943.38 0.72394 943.156 0.500082 942.88 0.500082L942.88 1.50008ZM948.885 0.500083C948.609 0.500083 948.385 0.723941 948.385 1.00008C948.385 1.27623 948.609 1.50008 948.885 1.50008L948.885 0.500083ZM952.889 1.50008C953.165 1.50008 953.389 1.27623 953.389 1.00008C953.389 0.723941 953.165 0.500083 952.889 0.500083L952.889 1.50008ZM958.895 0.500084C958.619 0.500084 958.395 0.723941 958.395 1.00008C958.395 1.27623 958.619 1.50008 958.895 1.50008L958.895 0.500084ZM962.898 1.50008C963.175 1.50008 963.398 1.27623 963.398 1.00008C963.398 0.723942 963.175 0.500084 962.898 0.500084L962.898 1.50008ZM968.904 0.500085C968.628 0.500085 968.404 0.723942 968.404 1.00008C968.404 1.27623 968.628 1.50008 968.904 1.50008L968.904 0.500085ZM972.908 1.50009C973.184 1.50009 973.408 1.27623 973.408 1.00009C973.408 0.723943 973.184 0.500085 972.908 0.500085L972.908 1.50009ZM978.913 0.500086C978.637 0.500086 978.413 0.723943 978.413 1.00009C978.413 1.27623 978.637 1.50009 978.913 1.50009L978.913 0.500086ZM982.917 1.50009C983.193 1.50009 983.417 1.27623 983.417 1.00009C983.417 0.723944 983.193 0.500086 982.917 0.500086L982.917 1.50009ZM988.923 0.500086C988.647 0.500086 988.423 0.723944 988.423 1.00009C988.423 1.27623 988.647 1.50009 988.923 1.50009L988.923 0.500086ZM992.927 1.50009C993.203 1.50009 993.427 1.27623 993.427 1.00009C993.427 0.723944 993.203 0.500087 992.927 0.500087L992.927 1.50009ZM998.932 0.500087C998.656 0.500087 998.432 0.723945 998.432 1.00009C998.432 1.27623 998.656 1.50009 998.932 1.50009L998.932 0.500087ZM1002.94 1.50009C1003.21 1.50009 1003.44 1.27623 1003.44 1.00009C1003.44 0.723945 1003.21 0.500088 1002.94 0.500088L1002.94 1.50009ZM1008.94 0.500088C1008.67 0.500088 1008.44 0.723946 1008.44 1.00009C1008.44 1.27623 1008.67 1.50009 1008.94 1.50009L1008.94 0.500088ZM1012.95 1.50009C1013.22 1.50009 1013.45 1.27623 1013.45 1.00009C1013.45 0.723946 1013.22 0.500089 1012.95 0.500089L1012.95 1.50009ZM1018.95 0.500089C1018.67 0.500089 1018.45 0.723947 1018.45 1.00009C1018.45 1.27623 1018.67 1.50009 1018.95 1.50009L1018.95 0.500089ZM1022.95 1.50009C1023.23 1.50009 1023.45 1.27623 1023.45 1.00009C1023.45 0.723947 1023.23 0.500089 1022.95 0.500089L1022.95 1.50009ZM1028.96 0.50009C1028.68 0.50009 1028.46 0.723948 1028.46 1.00009C1028.46 1.27623 1028.68 1.50009 1028.96 1.50009L1028.96 0.50009ZM1032.96 1.50009C1033.24 1.50009 1033.46 1.27623 1033.46 1.00009C1033.46 0.723948 1033.24 0.50009 1032.96 0.50009L1032.96 1.50009ZM1038.97 0.500091C1038.69 0.500091 1038.47 0.723948 1038.47 1.00009C1038.47 1.27623 1038.69 1.50009 1038.97 1.50009L1038.97 0.500091ZM1042.97 1.50009C1043.25 1.50009 1043.47 1.27623 1043.47 1.00009C1043.47 0.723949 1043.25 0.500091 1042.97 0.500091L1042.97 1.50009ZM1048.98 0.500092C1048.7 0.500092 1048.48 0.723949 1048.48 1.00009C1048.48 1.27623 1048.7 1.50009 1048.98 1.50009L1048.98 0.500092ZM1052.98 1.50009C1053.26 1.50009 1053.48 1.27623 1053.48 1.00009C1053.48 0.72395 1053.26 0.500092 1052.98 0.500092L1052.98 1.50009ZM1058.99 0.500093C1058.71 0.500093 1058.49 0.72395 1058.49 1.00009C1058.49 1.27623 1058.71 1.50009 1058.99 1.50009L1058.99 0.500093ZM1062.99 1.50009C1063.27 1.50009 1063.49 1.27624 1063.49 1.00009C1063.49 0.723951 1063.27 0.500093 1062.99 0.500093L1062.99 1.50009ZM1069 0.500093C1068.72 0.500093 1068.5 0.723951 1068.5 1.00009C1068.5 1.27624 1068.72 1.50009 1069 1.50009L1069 0.500093ZM-4.37114e-08 1.5L2.00187 1.5L2.00187 0.5L4.37114e-08 0.5L-4.37114e-08 1.5ZM8.00748 1.5L12.0112 1.5L12.0112 0.500001L8.00748 0.500001L8.00748 1.5ZM18.0168 1.5L22.0206 1.5L22.0206 0.500002L18.0168 0.500002L18.0168 1.5ZM28.0262 1.5L32.0299 1.5L32.0299 0.500003L28.0262 0.500002L28.0262 1.5ZM38.0355 1.5L42.0393 1.5L42.0393 0.500004L38.0355 0.500003L38.0355 1.5ZM48.0449 1.5L52.0486 1.5L52.0486 0.500005L48.0449 0.500004L48.0449 1.5ZM58.0542 1.50001L62.0579 1.50001L62.0579 0.500005L58.0542 0.500005L58.0542 1.50001ZM68.0636 1.50001L72.0673 1.50001L72.0673 0.500006L68.0636 0.500006L68.0636 1.50001ZM78.0729 1.50001L82.0766 1.50001L82.0766 0.500007L78.0729 0.500007L78.0729 1.50001ZM88.0823 1.50001L92.086 1.50001L92.086 0.500008L88.0823 0.500008L88.0823 1.50001ZM98.0916 1.50001L102.095 1.50001L102.095 0.500009L98.0916 0.500009L98.0916 1.50001ZM108.101 1.50001L112.105 1.50001L112.105 0.50001L108.101 0.500009L108.101 1.50001ZM118.11 1.50001L122.114 1.50001L122.114 0.500011L118.11 0.50001L118.11 1.50001ZM128.12 1.50001L132.123 1.50001L132.123 0.500012L128.12 0.500011L128.12 1.50001ZM138.129 1.50001L142.133 1.50001L142.133 0.500012L138.129 0.500012L138.129 1.50001ZM148.138 1.50001L152.142 1.50001L152.142 0.500013L148.138 0.500013L148.138 1.50001ZM158.148 1.50001L162.151 1.50001L162.151 0.500014L158.148 0.500014L158.148 1.50001ZM168.157 1.50001L172.161 1.50002L172.161 0.500015L168.157 0.500015L168.157 1.50001ZM178.166 1.50002L182.17 1.50002L182.17 0.500016L178.166 0.500016L178.166 1.50002ZM188.176 1.50002L192.179 1.50002L192.179 0.500017L188.176 0.500016L188.176 1.50002ZM198.185 1.50002L202.189 1.50002L202.189 0.500018L198.185 0.500017L198.185 1.50002ZM208.194 1.50002L212.198 1.50002L212.198 0.500019L208.194 0.500018L208.194 1.50002ZM218.204 1.50002L222.207 1.50002L222.207 0.500019L218.204 0.500019L218.204 1.50002ZM228.213 1.50002L232.217 1.50002L232.217 0.50002L228.213 0.50002L228.213 1.50002ZM238.222 1.50002L242.226 1.50002L242.226 0.500021L238.222 0.500021L238.222 1.50002ZM248.232 1.50002L252.235 1.50002L252.235 0.500022L248.232 0.500022L248.232 1.50002ZM258.241 1.50002L262.245 1.50002L262.245 0.500023L258.241 0.500023L258.241 1.50002ZM268.25 1.50002L272.254 1.50002L272.254 0.500024L268.25 0.500023L268.25 1.50002ZM278.26 1.50002L282.263 1.50002L282.263 0.500025L278.26 0.500024L278.26 1.50002ZM288.269 1.50003L292.273 1.50003L292.273 0.500026L288.269 0.500025L288.269 1.50003ZM298.278 1.50003L302.282 1.50003L302.282 0.500026L298.278 0.500026L298.278 1.50003ZM308.288 1.50003L312.291 1.50003L312.291 0.500027L308.288 0.500027L308.288 1.50003ZM318.297 1.50003L322.301 1.50003L322.301 0.500028L318.297 0.500028L318.297 1.50003ZM328.306 1.50003L332.31 1.50003L332.31 0.500029L328.306 0.500029L328.306 1.50003ZM338.316 1.50003L342.319 1.50003L342.319 0.50003L338.316 0.50003L338.316 1.50003ZM348.325 1.50003L352.329 1.50003L352.329 0.500031L348.325 0.50003L348.325 1.50003ZM358.334 1.50003L362.338 1.50003L362.338 0.500032L358.334 0.500031L358.334 1.50003ZM368.344 1.50003L372.347 1.50003L372.347 0.500033L368.344 0.500032L368.344 1.50003ZM378.353 1.50003L382.357 1.50003L382.357 0.500033L378.353 0.500033L378.353 1.50003ZM388.362 1.50003L392.366 1.50003L392.366 0.500034L388.362 0.500034L388.362 1.50003ZM398.372 1.50003L402.376 1.50004L402.376 0.500035L398.372 0.500035L398.372 1.50003ZM408.381 1.50004L412.385 1.50004L412.385 0.500036L408.381 0.500036L408.381 1.50004ZM418.39 1.50004L422.394 1.50004L422.394 0.500037L418.39 0.500037L418.39 1.50004ZM428.4 1.50004L432.404 1.50004L432.404 0.500038L428.4 0.500037L428.4 1.50004ZM438.409 1.50004L442.413 1.50004L442.413 0.500039L438.409 0.500038L438.409 1.50004ZM448.418 1.50004L452.422 1.50004L452.422 0.50004L448.418 0.500039L448.418 1.50004ZM458.428 1.50004L462.432 1.50004L462.432 0.50004L458.428 0.50004L458.428 1.50004ZM468.437 1.50004L472.441 1.50004L472.441 0.500041L468.437 0.500041L468.437 1.50004ZM478.447 1.50004L482.45 1.50004L482.45 0.500042L478.447 0.500042L478.447 1.50004ZM488.456 1.50004L492.46 1.50004L492.46 0.500043L488.456 0.500043L488.456 1.50004ZM498.465 1.50004L502.469 1.50004L502.469 0.500044L498.465 0.500044L498.465 1.50004ZM508.475 1.50004L512.478 1.50004L512.478 0.500045L508.475 0.500044L508.475 1.50004ZM518.484 1.50005L522.488 1.50005L522.488 0.500046L518.484 0.500045L518.484 1.50005ZM528.493 1.50005L532.497 1.50005L532.497 0.500047L528.493 0.500046L528.493 1.50005ZM538.503 1.50005L542.506 1.50005L542.506 0.500047L538.503 0.500047L538.503 1.50005ZM548.512 1.50005L552.516 1.50005L552.516 0.500048L548.512 0.500048L548.512 1.50005ZM558.521 1.50005L562.525 1.50005L562.525 0.500049L558.521 0.500049L558.521 1.50005ZM568.531 1.50005L572.534 1.50005L572.534 0.50005L568.531 0.50005L568.531 1.50005ZM578.54 1.50005L582.544 1.50005L582.544 0.500051L578.54 0.500051L578.54 1.50005ZM588.549 1.50005L592.553 1.50005L592.553 0.500052L588.549 0.500051L588.549 1.50005ZM598.559 1.50005L602.562 1.50005L602.562 0.500053L598.559 0.500052L598.559 1.50005ZM608.568 1.50005L612.572 1.50005L612.572 0.500054L608.568 0.500053L608.568 1.50005ZM618.577 1.50005L622.581 1.50005L622.581 0.500054L618.577 0.500054L618.577 1.50005ZM628.587 1.50005L632.59 1.50006L632.59 0.500055L628.587 0.500055L628.587 1.50005ZM638.596 1.50006L642.6 1.50006L642.6 0.500056L638.596 0.500056L638.596 1.50006ZM648.605 1.50006L652.609 1.50006L652.609 0.500057L648.605 0.500057L648.605 1.50006ZM658.615 1.50006L662.618 1.50006L662.618 0.500058L658.615 0.500058L658.615 1.50006ZM668.624 1.50006L672.628 1.50006L672.628 0.500059L668.624 0.500058L668.624 1.50006ZM678.633 1.50006L682.637 1.50006L682.637 0.50006L678.633 0.500059L678.633 1.50006ZM688.643 1.50006L692.646 1.50006L692.646 0.500061L688.643 0.50006L688.643 1.50006ZM698.652 1.50006L702.656 1.50006L702.656 0.500061L698.652 0.500061L698.652 1.50006ZM708.661 1.50006L712.665 1.50006L712.665 0.500062L708.661 0.500062L708.661 1.50006ZM718.671 1.50006L722.674 1.50006L722.674 0.500063L718.671 0.500063L718.671 1.50006ZM728.68 1.50006L732.684 1.50006L732.684 0.500064L728.68 0.500064L728.68 1.50006ZM738.689 1.50006L742.693 1.50006L742.693 0.500065L738.689 0.500065L738.689 1.50006ZM748.699 1.50007L752.702 1.50007L752.702 0.500066L748.699 0.500065L748.699 1.50007ZM758.708 1.50007L762.712 1.50007L762.712 0.500067L758.708 0.500066L758.708 1.50007ZM768.717 1.50007L772.721 1.50007L772.721 0.500068L768.717 0.500067L768.717 1.50007ZM778.727 1.50007L782.73 1.50007L782.73 0.500068L778.727 0.500068L778.727 1.50007ZM788.736 1.50007L792.74 1.50007L792.74 0.500069L788.736 0.500069L788.736 1.50007ZM798.745 1.50007L802.749 1.50007L802.749 0.50007L798.745 0.50007L798.745 1.50007ZM808.755 1.50007L812.758 1.50007L812.758 0.500071L808.755 0.500071L808.755 1.50007ZM818.764 1.50007L822.768 1.50007L822.768 0.500072L818.764 0.500072L818.764 1.50007ZM828.773 1.50007L832.777 1.50007L832.777 0.500073L828.773 0.500072L828.773 1.50007ZM838.783 1.50007L842.786 1.50007L842.786 0.500074L838.783 0.500073L838.783 1.50007ZM848.792 1.50007L852.796 1.50007L852.796 0.500075L848.792 0.500074L848.792 1.50007ZM858.801 1.50008L862.805 1.50008L862.805 0.500075L858.801 0.500075L858.801 1.50008ZM868.811 1.50008L872.814 1.50008L872.814 0.500076L868.811 0.500076L868.811 1.50008ZM878.82 1.50008L882.824 1.50008L882.824 0.500077L878.82 0.500077L878.82 1.50008ZM888.829 1.50008L892.833 1.50008L892.833 0.500078L888.829 0.500078L888.829 1.50008ZM898.839 1.50008L902.842 1.50008L902.842 0.500079L898.839 0.500079L898.839 1.50008ZM908.848 1.50008L912.852 1.50008L912.852 0.50008L908.848 0.500079L908.848 1.50008ZM918.857 1.50008L922.861 1.50008L922.861 0.500081L918.857 0.50008L918.857 1.50008ZM928.867 1.50008L932.87 1.50008L932.87 0.500082L928.867 0.500081L928.867 1.50008ZM938.876 1.50008L942.88 1.50008L942.88 0.500082L938.876 0.500082L938.876 1.50008ZM948.885 1.50008L952.889 1.50008L952.889 0.500083L948.885 0.500083L948.885 1.50008ZM958.895 1.50008L962.898 1.50008L962.898 0.500084L958.895 0.500084L958.895 1.50008ZM968.904 1.50008L972.908 1.50009L972.908 0.500085L968.904 0.500085L968.904 1.50008ZM978.913 1.50009L982.917 1.50009L982.917 0.500086L978.913 0.500086L978.913 1.50009ZM988.923 1.50009L992.927 1.50009L992.927 0.500087L988.923 0.500086L988.923 1.50009ZM998.932 1.50009L1002.94 1.50009L1002.94 0.500088L998.932 0.500087L998.932 1.50009ZM1008.94 1.50009L1012.95 1.50009L1012.95 0.500089L1008.94 0.500088L1008.94 1.50009ZM1018.95 1.50009L1022.95 1.50009L1022.95 0.500089L1018.95 0.500089L1018.95 1.50009ZM1028.96 1.50009L1032.96 1.50009L1032.96 0.50009L1028.96 0.50009L1028.96 1.50009ZM1038.97 1.50009L1042.97 1.50009L1042.97 0.500091L1038.97 0.500091L1038.97 1.50009ZM1048.98 1.50009L1052.98 1.50009L1052.98 0.500092L1048.98 0.500092L1048.98 1.50009ZM1058.99 1.50009L1062.99 1.50009L1062.99 0.500093L1058.99 0.500093L1058.99 1.50009ZM1069 1.50009L1071 1.50009L1071 0.500094L1069 0.500093L1069 1.50009Z" fill="#987750"/>
</svg>
