<svg width="60" height="60" viewBox="0 0 60 60" fill="none" xmlns="http://www.w3.org/2000/svg">
<g clip-path="url(#clip0_600_1574)">
<path d="M11.3084 0.175732C8.5076 0.796825 6.39823 2.42573 5.81229 4.44136C5.64823 4.98042 5.62479 5.89448 5.62479 10.4296V15.7851L5.89432 16.3007C6.23417 16.9453 6.93729 17.4492 7.7576 17.625L8.3787 17.7656L8.41385 18.6796L8.44901 19.582L8.05057 19.746C7.0662 20.1562 6.04667 21.1523 5.51932 22.2187C4.18339 24.8906 5.29667 28.1718 7.9451 29.4375C8.6951 29.789 8.76542 29.8593 8.89432 30.3164C9.24588 31.664 9.76151 32.2265 10.4764 32.039C11.1092 31.8867 11.2967 31.2304 10.9451 30.3984C10.4412 29.2148 10.4178 28.9453 10.3592 23.3085L10.3006 17.8476L11.9412 17.7656C14.9178 17.625 17.5545 17.121 20.1678 16.2304C21.656 15.7148 24.5857 14.2968 25.7928 13.5L26.6951 12.914L26.7537 13.4296C26.824 14.1328 27.3396 15.1289 27.949 15.75C28.8045 16.6289 30.0467 17.1093 31.4764 17.1093H32.1326L32.0857 22.9921C32.0271 29.5664 32.0506 29.332 31.1599 31.0546C30.0584 33.1875 27.7264 35.4375 25.0193 36.9843C23.2732 37.9804 21.7381 38.496 20.9178 38.3789C18.8553 38.0625 15.492 36.0585 13.3357 33.8554C12.7381 33.246 12.6092 33.164 12.199 33.164C11.8357 33.164 11.6834 33.2343 11.4959 33.4687C11.0506 34.0429 11.156 34.3828 12.1053 35.3203C12.5623 35.789 13.1717 36.3515 13.4412 36.5742L13.9451 36.9726L12.5037 38.4726C11.156 39.8671 11.0154 39.9843 10.1365 40.3476C5.96464 42.0703 2.39042 45.9257 0.937292 50.2734C0.433386 51.7617 0.222449 52.9921 0.152136 54.7265C0.0935426 56.2851 0.11698 56.4843 0.351355 57.1054C0.902136 58.5703 2.1912 59.625 3.73807 59.8828C4.27714 59.9648 9.74979 60 21.9724 59.9765C41.2381 59.9414 39.656 60.0117 40.9451 59.1562L41.6482 58.6992L42.2928 58.9921C42.656 59.1562 43.4295 59.4257 44.0037 59.6015C44.9881 59.9062 45.199 59.9296 47.2263 59.9296C49.1717 59.9414 49.4998 59.9062 50.3904 59.6601C52.3123 59.1093 53.7303 58.4062 55.1365 57.2929C58.0076 55.0195 59.6482 51.832 59.8474 48.1523C59.9529 46.0546 59.742 45.4687 58.8865 45.4687C58.1482 45.4687 58.0545 45.6914 57.9724 47.5312C57.8553 50.6132 56.9295 52.8632 54.9724 54.832C50.7888 59.0625 44.4607 59.2617 40.1482 55.3125C37.4881 52.8632 36.1873 48.9726 36.8904 45.5742C37.3474 43.3593 38.3553 41.4843 39.8787 39.9726C40.8631 39.0117 41.5779 38.5078 42.8318 37.9101C46.7928 36.0117 51.3513 36.75 54.5974 39.7968C55.5349 40.6757 56.5428 42.0468 57.0584 43.1484C57.3631 43.7929 57.7967 44.0039 58.3592 43.8046C59.0857 43.5585 59.1209 42.996 58.4881 41.7421C56.7771 38.332 53.6013 35.9531 49.781 35.2148C48.6443 34.9921 46.1717 34.9687 45.0935 35.1562C41.367 35.8359 38.0506 38.2148 36.3865 41.4023C36.1873 41.7656 35.9998 42.0703 35.9646 42.0703C35.9178 42.0703 35.6013 41.8828 35.2615 41.6484C34.5467 41.1679 33.1404 40.4531 32.3201 40.1367C31.8748 39.9726 31.4764 39.621 30.281 38.3554L28.8045 36.7851L29.8006 35.8476C31.5232 34.2421 32.8357 32.3671 33.3982 30.7382C33.656 29.9765 33.7263 29.8828 34.0428 29.8125C34.7107 29.6718 35.7771 29.039 36.3748 28.4414C38.4724 26.3203 38.4959 22.9921 36.4334 20.8828C35.824 20.25 35.1209 19.8046 34.4295 19.582L33.9842 19.4296V18.2695V17.1093H34.5232C34.8631 17.1093 35.2381 17.0156 35.5193 16.8515C36.3396 16.3945 36.3279 16.4531 36.3279 10.6875C36.3279 5.94136 36.3045 5.47261 36.1053 4.81636C35.8592 4.00776 35.1092 2.92964 34.5818 2.62495C34.2771 2.44917 34.242 2.35542 34.1951 1.68745C34.1482 0.890575 33.9021 0.503857 33.2576 0.164013C32.8006 -0.0703621 12.3865 -0.0586433 11.3084 0.175732ZM32.3435 2.19136C32.3435 4.14839 31.0662 6.43354 28.699 8.75386C25.4529 11.9531 21.0818 14.2734 16.4646 15.2812C14.4842 15.7148 13.1834 15.8437 10.6053 15.8671C8.35526 15.8789 8.20292 15.8671 7.88651 15.6328L7.55838 15.3867V10.1835C7.55838 4.27729 7.49979 4.66401 8.57792 3.60933C9.16385 3.03511 9.70292 2.70698 10.5935 2.37886C11.8592 1.91011 12.0349 1.89839 22.3592 1.88667L32.3435 1.87495V2.19136ZM34.1834 5.06245C34.3709 5.41401 34.3943 5.91792 34.4295 10.3359L34.4646 15.2343H32.7185C30.6795 15.2343 30.0115 15.082 29.3904 14.4843C28.8396 13.9453 28.617 13.4296 28.5232 12.457L28.4412 11.6484L29.1326 11.0156C30.3748 9.87886 31.5232 8.62495 32.2498 7.61714C32.9295 6.6562 33.7498 5.14448 33.7498 4.83979C33.7498 4.55854 33.9724 4.68745 34.1834 5.06245ZM35.1795 22.371C36.3162 23.625 36.3748 25.3828 35.3318 26.7421C34.9803 27.2109 34.2771 27.7734 34.0545 27.7734C34.0193 27.7734 33.9842 26.3437 33.9842 24.6093V21.4335L34.324 21.6093C34.4998 21.7031 34.8865 22.0429 35.1795 22.371ZM8.43729 24.6679V27.539L8.15604 27.3632C7.68729 27.0585 7.04276 26.0039 6.90213 25.3242C6.74979 24.5976 6.83182 23.9648 7.15995 23.2031C7.3826 22.6992 8.14432 21.7968 8.34354 21.7968C8.39042 21.7968 8.43729 23.0859 8.43729 24.6679ZM17.9764 42.375C19.3123 44.6718 20.367 46.5937 20.3201 46.6406C19.9803 46.9453 15.7498 49.5703 15.5857 49.5703C15.4685 49.5703 15.3279 49.5 15.2693 49.4179C15.1521 49.2773 12.6443 41.4023 12.656 41.2148C12.656 41.0976 15.3748 38.2148 15.4685 38.2148C15.5037 38.2148 16.6287 40.0898 17.9764 42.375ZM29.0271 45.2226C28.324 47.4492 27.6912 49.3476 27.6209 49.4179C27.5623 49.5 27.4217 49.5703 27.3045 49.5703C27.1404 49.5703 22.9451 46.9687 22.5818 46.6406C22.4998 46.5703 26.906 38.8945 27.3396 38.3437C27.4451 38.2148 27.7732 38.5078 28.8865 39.6796L30.3045 41.1796L29.0271 45.2226ZM24.3748 39.539C24.3748 39.6328 21.5506 44.3554 21.4685 44.3906C21.3865 44.414 18.6209 39.8203 18.6795 39.75C18.7029 39.7382 19.0193 39.832 19.3826 39.9609C20.7771 40.4414 22.406 40.3593 23.7303 39.7265C24.199 39.5039 24.3748 39.457 24.3748 39.539ZM12.1873 46.1484C12.8904 48.3515 13.5115 50.2382 13.5818 50.3554C14.1209 51.3632 15.6678 51.7382 16.8162 51.1523C17.1326 51 17.4021 50.8828 17.4139 50.8945C17.4256 50.9062 17.4842 51.2578 17.5662 51.6679C17.6482 52.1835 17.8006 52.5585 18.0232 52.8398L18.3514 53.2617L17.6014 55.6875L16.8396 58.125H13.5701H10.3123V55.0429C10.3123 52.5234 10.2771 51.9257 10.1365 51.7148C9.77323 51.1992 8.83573 51.2812 8.5662 51.8671C8.48417 52.0664 8.43729 53.1796 8.43729 55.1484V58.1484L6.17557 58.1015C4.01932 58.0664 3.89042 58.0546 3.33964 57.7617C2.98807 57.5859 2.61307 57.2695 2.40214 56.9648C2.08573 56.5195 2.05057 56.3554 2.0037 55.4648C1.82792 51.1757 4.32401 46.3828 8.15604 43.6406C8.91776 43.0898 10.7928 42.0468 10.8748 42.1289C10.8982 42.1406 11.4842 43.957 12.1873 46.1484ZM33.7732 43.0078C34.3123 43.3242 34.8631 43.6875 35.0154 43.7929L35.2849 44.0156L35.074 44.8242C34.9334 45.4335 34.8748 46.1367 34.8748 47.5195C34.8748 49.1132 34.9099 49.5585 35.1443 50.4375C35.7888 52.9335 36.6795 54.4921 38.5193 56.332L39.8318 57.6562L39.4568 57.8554C39.1521 58.0195 38.6599 58.0664 36.7732 58.1015L34.4529 58.1484V55.0546C34.4529 52.1015 34.4412 51.9492 34.2185 51.7031C34.0896 51.5625 33.8553 51.4218 33.7029 51.375C33.3748 51.2929 32.7537 51.5859 32.6482 51.8554C32.6131 51.9609 32.5779 53.414 32.5779 55.0898V58.125H29.3787H26.1912L25.406 55.6523L24.6209 53.1679L24.8904 52.8046C25.1951 52.4179 25.4295 51.7031 25.4295 51.1757C25.4295 50.8007 25.4295 50.8007 25.9451 51.1054C26.1795 51.246 26.6717 51.375 27.0701 51.4101C27.6678 51.4687 27.8553 51.4335 28.3826 51.164C28.7224 51 29.0974 50.7304 29.2146 50.5781C29.367 50.3554 31.992 42.3867 31.992 42.1289C31.992 42.0234 32.8357 42.4453 33.7732 43.0078ZM22.5584 48.9257L23.5545 49.5703V50.4375C23.5545 50.9179 23.5193 51.3867 23.4842 51.4921C23.4256 51.6562 23.1326 51.6796 21.4451 51.6796C19.1717 51.6796 19.3357 51.7851 19.3357 50.3671V49.5703L20.3084 48.9375C20.8357 48.5859 21.3396 48.2929 21.4217 48.2929C21.5037 48.2812 22.0076 48.5742 22.5584 48.9257ZM23.449 55.7812C23.824 56.9062 24.1287 57.9023 24.1287 57.9726C24.1404 58.0898 23.5428 58.125 21.492 58.125C19.4178 58.125 18.8553 58.0898 18.8904 57.9726C18.9256 57.9023 19.2303 56.8945 19.5701 55.746L20.2029 53.6601L21.492 53.6953L22.781 53.7304L23.449 55.7812Z" fill="#987750"/>
<path d="M13.4769 19.0311C12.7386 19.2538 12.1293 19.535 11.9886 19.7108C11.7308 20.0155 11.6839 20.496 11.8832 20.8124C12.223 21.328 12.5746 21.3749 13.5824 21.0233C14.4261 20.7303 14.5433 20.7186 16.0902 20.7889C17.6019 20.8475 17.7191 20.8358 17.9418 20.6131C18.2933 20.2616 18.2113 19.4999 17.7777 19.1717C17.4847 18.9491 17.2621 18.9256 15.7269 18.9022C14.555 18.8788 13.8402 18.9256 13.4769 19.0311Z" fill="#987750"/>
<path d="M25.5704 18.9727C25.3595 19.0313 25.0782 19.1719 24.961 19.2774C24.6329 19.5704 24.6446 20.2852 24.9727 20.5782C25.1954 20.7774 25.418 20.8008 27.1173 20.8008C28.8399 20.8008 29.0509 20.8243 29.5548 21.0703C30.1993 21.375 30.5977 21.3282 30.9376 20.8946C31.4298 20.2618 31.0899 19.6172 30.0235 19.2071C29.461 18.9844 29.086 18.9375 27.6563 18.9141C26.7188 18.8907 25.7813 18.9258 25.5704 18.9727Z" fill="#987750"/>
<path d="M14.8 23.3789C14.05 23.6953 13.7336 24.7149 14.1671 25.4063C15.1164 26.9063 17.4015 25.7344 16.7101 24.1055C16.5226 23.625 15.925 23.2031 15.4679 23.2031C15.3039 23.2149 15.0109 23.2852 14.8 23.3789Z" fill="#987750"/>
<path d="M26.8944 23.3672C26.4608 23.5547 26.2733 23.7773 26.1327 24.2578C25.9803 24.7851 26.1092 25.2656 26.496 25.6523C27.1522 26.3086 28.2303 26.1914 28.7108 25.4062C29.4608 24.164 28.2303 22.7812 26.8944 23.3672Z" fill="#987750"/>
<path d="M18.0474 29.6132C17.8247 29.8945 17.8013 30.0468 17.8482 30.5742C17.9888 31.9101 18.9732 33.1757 20.1919 33.5859C21.0122 33.8671 22.2076 33.8437 22.899 33.539C24.4693 32.8359 25.5943 30.5624 24.8326 29.6015C24.3287 28.957 23.2037 29.3554 23.2037 30.1874C23.2037 31.0663 22.3716 31.8749 21.4693 31.8749C20.5318 31.8749 19.9224 31.3242 19.7466 30.2929C19.6294 29.6367 19.2779 29.2968 18.7388 29.2968C18.399 29.2968 18.2466 29.3671 18.0474 29.6132Z" fill="#987750"/>
<path d="M45.1179 38.7891C44.1101 39.0586 43.4421 39.3399 42.6686 39.7969C38.9421 42.0352 37.3483 46.9571 39.0593 51.0352C40.1257 53.6016 42.7155 55.7344 45.4343 56.3086C46.6179 56.5664 47.0632 56.5313 47.403 56.1914C48.0476 55.5586 47.6022 54.6914 46.571 54.5508C42.6686 54.0469 39.7976 50.4492 40.3132 46.7227C40.6647 44.2266 42.0827 42.1875 44.2155 41.1328C47.3327 39.5977 51.2233 40.6172 53.1804 43.5C54.2936 45.1289 54.6804 47.4141 54.1999 49.3946C53.7897 51.0586 52.1608 52.9922 50.4382 53.8828C49.4655 54.375 49.3366 54.5156 49.3366 55.0313C49.3366 55.8047 49.9226 56.0977 50.8366 55.7813C51.6686 55.4883 52.9108 54.6446 53.7077 53.836C55.6647 51.8555 56.5788 49.2539 56.2507 46.5703C55.7702 42.5977 53.2272 39.7032 49.3835 38.7305C48.3757 38.4844 46.1257 38.5078 45.1179 38.7891Z" fill="#987750"/>
<path d="M49.7101 43.0898C49.5929 43.207 48.5499 44.8242 47.4015 46.6992C46.2648 48.5625 45.2569 50.168 45.1749 50.25C45.0577 50.3789 44.8937 50.2148 44.2491 49.3477C43.8273 48.7617 43.3702 48.2344 43.253 48.1641C42.8663 47.9648 42.421 48.0352 42.1046 48.3516C41.6359 48.8203 41.7765 49.2188 43.0773 51C44.5773 53.0625 44.6007 53.0859 45.1163 53.0859C45.4327 53.0859 45.6202 53.0039 45.8429 52.7578C45.9952 52.582 47.2843 50.5664 48.6905 48.2813C51.3976 43.8867 51.503 43.6523 51.0226 43.1133C50.7648 42.832 50.0382 42.8203 49.7101 43.0898Z" fill="#987750"/>
</g>
<defs>
<clipPath id="clip0_600_1574">
<rect width="60" height="60" fill="white"/>
</clipPath>
</defs>
</svg>
