<svg width="60" height="60" viewBox="0 0 60 60" fill="none" xmlns="http://www.w3.org/2000/svg">
<path d="M4.72358 0.164059C3.48139 0.562496 2.42671 1.52343 1.96967 2.68359C1.7353 3.28125 1.71186 3.55078 1.71186 5.66015C1.70014 7.96875 1.70014 7.99218 1.98139 8.21484C2.30952 8.47265 2.78999 8.50781 3.11811 8.27343C3.31733 8.12109 3.34077 7.91015 3.39936 5.83593C3.45796 3.70312 3.48139 3.55078 3.75092 3.04687C3.91499 2.76562 4.27827 2.36718 4.5478 2.16796L5.06342 1.8164H24.1181H43.1845L43.6533 2.0625C44.2978 2.40234 44.79 3.11718 44.8603 3.84375L44.9072 4.42968L44.4033 4.6875C44.122 4.82812 43.4423 5.28515 42.8916 5.68359C42.3408 6.08203 41.7783 6.46875 41.6494 6.53906C41.5087 6.62109 40.7119 6.78515 39.8916 6.91406C37.0205 7.37109 36.3173 8.0625 35.9072 10.8516C35.6845 12.4102 35.5087 12.8203 34.5478 14.0859C33.6572 15.2578 33.3408 15.9844 33.3525 16.875C33.3642 17.7187 33.6806 18.4102 34.6298 19.6875C35.5791 20.9531 35.6728 21.1992 35.9072 22.793C36.3173 25.5703 37.1025 26.3437 39.915 26.7305L40.8994 26.8711L40.9228 33.8203L40.958 40.7578L41.2392 41.0625C41.5439 41.3906 42.1298 41.5547 42.5869 41.4375C42.7392 41.4023 43.1259 41.168 43.4423 40.9219C43.747 40.6758 44.2041 40.3242 44.4501 40.1484L44.8837 39.8086L44.8603 48.2461L44.8251 56.6719L44.497 57.1758C44.2626 57.5156 43.9814 57.7617 43.5595 57.9609L42.9501 58.2422H24.247C10.5712 58.2422 5.43842 58.207 5.14546 58.1133C4.5478 57.9023 4.00874 57.4687 3.71577 56.918L3.45796 56.4258L3.4228 33.7266L3.39936 11.0273L3.09467 10.793C2.68452 10.4766 2.42671 10.4883 2.02827 10.8281L1.70014 11.1094L1.66499 33.3633C1.65327 47.2852 1.67671 55.8867 1.74702 56.3437C1.96967 57.7969 2.78999 58.9219 4.07905 59.5547L4.86421 59.9414H24.2001H43.5361L44.1923 59.6367C45.083 59.2148 45.7041 58.6289 46.1845 57.75L46.583 57.0117L46.6181 48.4219C46.6298 43.7109 46.6767 39.8437 46.7236 39.8437C46.7587 39.8437 47.1923 40.1484 47.6845 40.5234C49.0322 41.5664 49.3369 41.6719 50.04 41.3086C50.7431 40.9453 50.7431 40.9453 50.7431 35.2148C50.7431 30.1523 50.7314 29.9883 50.5087 29.7656C50.1923 29.4492 49.5244 29.4492 49.2431 29.7656C49.0673 29.9883 49.0439 30.457 48.9853 34.6406L48.9267 39.2695L47.6494 38.2734C45.8798 36.9023 45.7158 36.9023 44.04 38.2266C43.4423 38.707 42.8798 39.1289 42.8095 39.1875C42.6923 39.2578 42.6572 38.0859 42.6572 33.5156V27.7617L43.2783 28.2305C44.3798 29.0508 44.8369 29.2383 45.8212 29.2383C46.8525 29.2383 47.2275 29.0742 48.7509 27.9492C50.0634 26.9883 50.0634 26.9883 51.4697 26.7773C52.1259 26.6719 52.9462 26.5195 53.2744 26.4258C54.7392 26.0039 55.4072 25.0078 55.7236 22.7344C55.958 21.1055 56.0283 20.9414 56.9423 19.7461C57.9736 18.4102 58.2666 17.7422 58.2666 16.8398C58.2783 15.8906 58.0439 15.3867 56.9189 13.8516C55.9697 12.5625 55.9345 12.4687 55.665 10.4883C55.4423 8.84765 54.7626 7.79296 53.6259 7.32421C53.4033 7.23046 52.5478 7.04296 51.7392 6.91406C50.9189 6.78515 50.1337 6.62109 49.9931 6.53906C49.8642 6.46875 49.3017 6.08203 48.7509 5.68359C48.2001 5.27343 47.5087 4.82812 47.2158 4.6875L46.6767 4.41796L46.6181 3.6914C46.5009 2.29687 45.5634 1.00781 44.1923 0.363277L43.5361 0.0585899L24.3759 0.0351524C8.75483 0.0234337 5.12202 0.0468712 4.72358 0.164059ZM46.5478 6.3164C46.7822 6.43359 47.3095 6.79687 47.7197 7.125C49.0439 8.17968 49.4658 8.34375 51.8447 8.71875C52.9462 8.90625 53.3916 9.1289 53.6376 9.62109C53.708 9.77343 53.8837 10.5586 54.0126 11.3555C54.3056 13.1016 54.5048 13.5586 55.5009 14.9062C55.9345 15.4805 56.3447 16.1367 56.4267 16.3711C56.6611 17.0625 56.5908 17.2148 55.0205 19.4297C54.4345 20.2617 54.2236 20.8828 53.9775 22.5234C53.6845 24.5273 53.497 24.6914 51.247 25.0195C49.7236 25.2422 49.0556 25.5352 47.708 26.5312C46.4775 27.4336 46.29 27.5391 45.8212 27.5391C45.3525 27.5391 45.165 27.4336 43.9345 26.5312C42.5751 25.5234 41.9189 25.2539 40.3251 25.0195C38.1455 24.7031 37.958 24.5273 37.6767 22.5937C37.3955 20.7305 37.2314 20.2969 36.3876 19.1367C35.9658 18.5742 35.4853 17.8242 35.3212 17.4844C35.0283 16.875 35.0166 16.8398 35.2041 16.3711C35.3095 16.1016 35.708 15.457 36.1064 14.9414C37.2314 13.4648 37.3603 13.1367 37.665 11.0391C37.7705 10.3711 37.9345 9.66796 38.0517 9.48046C38.3095 9.04687 38.872 8.83593 40.372 8.61328C42.0009 8.3789 42.4462 8.20312 43.7119 7.2539C45.3525 6.02343 45.7392 5.89453 46.5478 6.3164Z" fill="#987750"/>
<path d="M45.3525 10.2188C45.1885 10.3008 44.6377 11.0039 44.1104 11.7773L43.1611 13.1719L41.4854 13.6641C39.7861 14.1562 39.5635 14.2969 39.4111 14.8477C39.3057 15.3047 39.458 15.6094 40.501 16.9219L41.5088 18.1875L41.4619 20.0039L41.4268 21.8203L41.8135 22.1602C42.0244 22.3477 42.294 22.5 42.4229 22.5C42.5518 22.5 43.3721 22.2422 44.2275 21.9258L45.8096 21.3398L47.415 21.9258C49.1611 22.5586 49.4658 22.582 49.9229 22.0898C50.1807 21.8086 50.1924 21.7266 50.1689 19.9805L50.1455 18.1758L51.1533 16.9102C52.1963 15.5859 52.3369 15.3047 52.2197 14.8242C52.0908 14.2969 51.751 14.1094 50.1104 13.6523L48.4814 13.1953L47.5791 11.8359C47.0869 11.0977 46.5947 10.418 46.501 10.3359C46.2315 10.1133 45.669 10.0547 45.3525 10.2188ZM46.5713 13.4883C46.958 14.0625 47.3682 14.6016 47.4971 14.6602C47.6143 14.7305 48.1768 14.918 48.7393 15.0703C50.2041 15.4922 50.1104 15.4336 49.8408 15.7383C49.7119 15.8789 49.3369 16.3594 48.9971 16.793L48.3994 17.5898V18.9961C48.3994 19.7578 48.376 20.3906 48.3525 20.3906C48.3291 20.3906 47.8135 20.2031 47.2275 19.9805C46.6416 19.7578 46.0088 19.5703 45.8447 19.5703C45.669 19.5703 45.0361 19.7578 44.4268 19.9805C43.8291 20.2031 43.3135 20.3906 43.29 20.3906C43.2666 20.3906 43.2432 19.7578 43.2432 18.9961V17.6016L42.8096 17.0273C42.5752 16.7227 42.2002 16.2422 41.9775 15.9727C41.6846 15.6094 41.626 15.457 41.7315 15.4219C41.8252 15.3867 42.3525 15.2344 42.9033 15.0703C43.4658 14.918 44.0283 14.7305 44.1455 14.6602C44.2744 14.6016 44.6846 14.0625 45.0713 13.4883C45.4463 12.9023 45.7861 12.4219 45.8213 12.4219C45.8565 12.4219 46.1963 12.9023 46.5713 13.4883Z" fill="#987750"/>
<path d="M23.0859 5.56641C21.8789 5.90625 21.0234 6.60938 20.4141 7.78125C20.1094 8.35547 20.0977 8.44922 20.0625 10.582C20.0156 13.0664 20.1094 13.5586 20.8125 14.4844C21.1875 14.9648 21.2109 15.0586 21.2109 15.8672V16.7344L20.4609 16.9922C19.1602 17.4141 18.1875 18.2461 17.5898 19.4414C17.2969 20.0156 16.7578 22.3594 16.7578 23.0625C16.7578 24.1875 17.4258 25.2187 18.4922 25.7461L19.1602 26.0742L23.6484 26.1094C28.6055 26.1562 29.3906 26.0859 30.2227 25.582C30.8555 25.1836 31.4766 24.2344 31.5938 23.4727C31.6992 22.7695 31.2422 20.2852 30.8438 19.4531C30.3984 18.4922 29.4024 17.5781 28.3242 17.1211C27.832 16.9219 27.3867 16.7578 27.3164 16.7578C27.2578 16.7578 27.1875 16.3477 27.1641 15.8555C27.1289 15.0469 27.1641 14.9062 27.3984 14.6367C27.5391 14.4609 27.8086 14.0039 27.9844 13.6289C28.2891 12.9609 28.3008 12.9023 28.3008 10.7812C28.3008 8.63672 28.3008 8.60156 27.9609 7.88672C27.1172 6.04688 24.9844 5.03906 23.0859 5.56641ZM25.2656 7.46484C25.7461 7.71094 26.2969 8.33203 26.4258 8.7539C26.5195 9.07031 26.2383 9.21094 25.125 9.41015C24.5273 9.51562 24.3398 9.5039 23.9297 9.33984C23.3789 9.11719 22.9453 9.21094 22.7461 9.59765C22.1836 10.6406 23.5195 11.4492 25.2891 11.1562C25.7227 11.0859 26.1914 10.9922 26.3438 10.9453C26.5899 10.875 26.6016 10.8984 26.6016 11.5547C26.6016 12.5039 26.4258 13.0664 25.9453 13.5937C25.418 14.168 24.8906 14.4141 24.1523 14.4141C23.1914 14.4141 22.4297 13.9336 21.9844 13.0312C21.8086 12.7031 21.7852 12.3281 21.8203 10.6758C21.8555 8.82422 21.8672 8.68359 22.1367 8.29687C22.8633 7.24219 24.1641 6.89062 25.2656 7.46484ZM25.4297 16.7227C25.4297 17.2617 25.3945 17.3672 25.1133 17.543C24.7617 17.7773 23.8008 17.8008 23.2969 17.6016C22.9922 17.4727 22.9688 17.4141 22.9688 16.793V16.1133H24.1992H25.4297V16.7227ZM21.8086 18.75C23.168 19.7344 24.9609 19.7695 26.3906 18.8555C26.8945 18.5273 26.9883 18.5039 27.3399 18.6211C28.0547 18.8672 28.793 19.418 29.1094 19.957C29.4727 20.5664 29.9297 22.7109 29.8242 23.2852C29.7891 23.4961 29.6016 23.7891 29.4024 23.9531L29.0391 24.2578H24.1523H19.2539L18.9492 23.9766C18.7852 23.8242 18.6094 23.5547 18.5625 23.3906C18.4688 22.9922 18.8203 20.9531 19.1016 20.332C19.3828 19.6992 19.9688 19.125 20.6836 18.7969C21.3984 18.457 21.3867 18.457 21.8086 18.75Z" fill="#987750"/>
<path d="M6.50391 30.1758C6.33984 30.3281 6.21094 30.5977 6.21094 30.7617C6.21094 31.1484 6.70312 31.6406 7.08984 31.6406C7.47656 31.6406 7.96875 31.1484 7.96875 30.7617C7.96875 30.5977 7.83984 30.3281 7.67578 30.1758C7.52344 30.0117 7.25391 29.8828 7.08984 29.8828C6.92578 29.8828 6.65625 30.0117 6.50391 30.1758Z" fill="#987750"/>
<path d="M9.79687 30.1289C9.375 30.457 9.375 31.0664 9.79687 31.3945C10.1133 31.6406 10.125 31.6406 24.082 31.6406H38.0508L38.2969 31.3711C38.6601 30.9844 38.6367 30.4336 38.25 30.1289C37.9336 29.8828 37.9219 29.8828 24.0234 29.8828C10.125 29.8828 10.1133 29.8828 9.79687 30.1289Z" fill="#987750"/>
<path d="M6.80978 34.711C6.2004 34.9336 6.04806 35.5079 6.45821 36.0235C6.92696 36.6094 7.96993 36.293 7.96993 35.5547C7.96993 34.9102 7.39571 34.4883 6.80978 34.711Z" fill="#987750"/>
<path d="M10.009 34.7344C9.44647 34.9805 9.30584 35.6719 9.72772 36.0937C9.96209 36.3281 10.1144 36.3281 24.0246 36.3281C37.9347 36.3281 38.0871 36.3281 38.3215 36.0937C38.6144 35.8008 38.6262 35.2617 38.3332 34.9102L38.1105 34.6289L24.2355 34.6055C12.7746 34.582 10.3137 34.6055 10.009 34.7344Z" fill="#987750"/>
<path d="M6.50391 39.668C6.33984 39.8203 6.21094 40.0898 6.21094 40.2539C6.21094 40.6406 6.70312 41.1328 7.08984 41.1328C7.47656 41.1328 7.96875 40.6523 7.96875 40.2773C7.96875 39.4805 7.05469 39.1055 6.50391 39.668Z" fill="#987750"/>
<path d="M9.75062 39.6445C9.38734 40.0312 9.41077 40.582 9.79749 40.8867C10.1139 41.1328 10.1256 41.1328 24.0241 41.1328C37.9225 41.1328 37.9342 41.1328 38.2506 40.8867C38.6491 40.5703 38.6725 39.9844 38.2858 39.6328L38.0162 39.375H24.0123H9.99671L9.75062 39.6445Z" fill="#987750"/>
<path d="M6.7385 44.1914C6.16428 44.5196 6.05881 45.0117 6.45725 45.5157C6.926 46.1133 7.96897 45.75 7.96897 44.9766C7.96897 44.3672 7.24241 43.9102 6.7385 44.1914Z" fill="#987750"/>
<path d="M9.99747 44.1797C9.48184 44.3906 9.3295 45.1875 9.72794 45.5859C9.96231 45.8203 10.1147 45.8203 24.0248 45.8203C37.935 45.8203 38.0873 45.8203 38.3217 45.5859C38.6381 45.2695 38.6264 44.6367 38.31 44.3437C38.0756 44.1328 37.6537 44.1211 24.1537 44.0977C16.2904 44.0859 10.1498 44.1211 9.99747 44.1797Z" fill="#987750"/>
<path d="M6.45726 49.1719C6.00022 49.7578 6.26976 50.4375 6.99632 50.5781C7.78148 50.7305 8.28538 49.6758 7.69944 49.125C7.31273 48.7617 6.76194 48.7852 6.45726 49.1719Z" fill="#987750"/>
<path d="M9.75029 49.1367C9.41045 49.5 9.42217 49.9805 9.78545 50.332L10.0667 50.625H24.0003C37.9222 50.625 37.9339 50.625 38.2503 50.3789C38.637 50.0742 38.6722 49.4531 38.3206 49.1016C38.0862 48.8672 37.9339 48.8672 24.0472 48.8672H9.99639L9.75029 49.1367Z" fill="#987750"/>
<path d="M6.71555 53.6719C5.89523 54 6.1882 55.3125 7.07883 55.3125C7.8757 55.3125 8.23899 54.3984 7.67649 53.8477C7.38352 53.543 7.14914 53.4961 6.71555 53.6719Z" fill="#987750"/>
<path d="M9.78678 53.8477C9.41178 54.2109 9.40006 54.7148 9.76334 55.0547L10.0329 55.3125H24.0602C37.9352 55.3125 38.0876 55.3125 38.3219 55.0781C38.6735 54.7266 38.6384 54.1055 38.2516 53.8008C37.9352 53.5547 37.9235 53.5547 24.0016 53.5547H10.068L9.78678 53.8477Z" fill="#987750"/>
</svg>
