<svg width="35" height="35" viewBox="0 0 35 35" fill="none" xmlns="http://www.w3.org/2000/svg">
<g clip-path="url(#clip0_629_91)">
<path d="M6.03071 0.115185C5.69117 0.266094 5.3818 0.560368 5.17808 0.937641L5.01208 1.23946L4.98944 9.25275L4.97435 17.266L3.63126 17.2887C2.30325 17.3113 2.28062 17.3113 1.97125 17.5226C1.79771 17.6358 1.5638 17.8697 1.45062 18.0432L1.23934 18.3601L1.21671 24.5851C1.19407 31.5421 1.18652 31.4063 1.71471 32.4626C2.09198 33.2247 2.99744 34.1151 3.76707 34.4924C4.89135 35.0507 3.95571 35.013 17.7866 34.9904L30.2139 34.9677L30.7044 34.7942C32.1984 34.2584 33.3227 32.9833 33.6849 31.444C33.783 30.9988 33.798 29.7312 33.783 20.835L33.7603 10.7392L33.549 10.4223C33.1869 9.87148 32.9529 9.80357 31.3835 9.80357H30.0253V5.62338C30.0253 1.0131 30.0253 1.03573 29.5499 0.530186C29.4141 0.394367 29.1727 0.213276 29.0067 0.137821C28.7199 0.00200272 28.2597 -0.00554276 17.4998 0.00200272C7.65299 0.00200272 6.26462 0.0170937 6.03071 0.115185ZM28.5162 1.57146C28.6294 1.78273 28.6218 26.6677 28.5087 27.1129C28.4106 27.5203 28.0635 27.9429 27.6787 28.1391C27.4598 28.2522 27.241 28.29 26.7808 28.29H26.1771V21.1369V13.9913L26.0036 13.7121C25.913 13.5612 25.7546 13.3726 25.6489 13.2896C25.249 12.9802 25.0076 12.9651 21.4612 12.9878L18.0657 13.0104L17.7262 13.2141C17.5376 13.3198 17.3112 13.5159 17.2206 13.6367C17.1301 13.7649 16.8283 14.5195 16.5491 15.3193C16.2775 16.1267 16.0058 16.8963 15.9455 17.0246L15.8474 17.2736H11.1692H6.48344V9.40366C6.48344 5.07256 6.50608 1.50355 6.53626 1.48092C6.5589 1.45073 11.5012 1.4281 17.5074 1.4281C28.237 1.4281 28.4332 1.4281 28.5162 1.57146ZM32.3644 20.9256C32.3644 26.9092 32.3342 30.7573 32.2889 30.9988C32.1079 31.9797 31.474 32.8022 30.5761 33.2473C30.0329 33.5114 29.9649 33.5341 29.316 33.5265C28.5087 33.519 28.0107 33.353 27.4297 32.9153C26.6751 32.3419 26.3054 31.5949 26.2148 30.4555L26.162 29.7991H26.66C28.1691 29.7991 29.3085 29.0898 29.8216 27.8222L29.9876 27.4222L30.0102 19.326L30.0253 11.2372H31.1949H32.3644V20.9256ZM24.7435 22.5856C24.7435 31.5194 24.7359 31.4063 25.1811 32.3721C25.3018 32.6362 25.5207 33.0134 25.6716 33.2096L25.9508 33.5718H23.423H20.8953V30.3725C20.8953 28.5314 20.8651 27.0072 20.8198 26.7733C20.5859 25.5661 19.6729 24.6983 18.4279 24.5172C17.7866 24.4267 9.93172 24.4191 9.2979 24.5097C8.31699 24.6531 7.49454 25.2416 7.10217 26.0867L6.89844 26.5168L6.87581 30.0405L6.85317 33.5718H6.25708C4.80835 33.5718 3.73689 33.0285 3.11062 31.9797C2.62771 31.1723 2.63525 31.2855 2.63525 24.7813C2.63525 20.2993 2.65789 18.8657 2.7258 18.7978C2.79371 18.7299 4.37826 18.7072 9.37336 18.7072C14.3232 18.7072 16.0134 18.6846 16.2473 18.6167C16.4359 18.5563 16.6925 18.3903 16.8962 18.179C17.2206 17.8621 17.2735 17.7414 17.7564 16.2927C18.0431 15.44 18.3223 14.6704 18.3826 14.5723L18.4807 14.4063H21.6121H24.7435V22.5856ZM18.7071 26.1018C18.8656 26.1848 19.0768 26.3583 19.1749 26.4942L19.3485 26.7432L19.3711 30.1537L19.3937 33.5718H13.8403H8.29436V30.2971C8.29436 28.1617 8.32454 26.9393 8.37736 26.8035C8.48299 26.5243 8.80745 26.1848 9.08663 26.0565C9.26772 25.9735 10.226 25.9584 13.8629 25.9509C18.2468 25.9509 18.4204 25.9584 18.7071 26.1018Z" fill="#987750"/>
<path d="M8.86035 3.75965C8.77735 3.79738 8.64153 3.90301 8.55853 3.99356C8.41516 4.15202 8.40762 4.28029 8.38498 7.49466C8.36989 9.32066 8.38498 10.9354 8.40762 11.0788C8.4378 11.2146 8.54344 11.4108 8.64907 11.5089L8.84525 11.6899H11.7654H14.6855L14.8816 11.5089C14.9873 11.4108 15.0929 11.2146 15.1231 11.0788C15.1457 10.9354 15.1608 9.32066 15.1457 7.48711L15.1231 4.14447L14.9118 3.94074L14.7081 3.72947L11.8559 3.71438C10.294 3.70683 8.94335 3.72947 8.86035 3.75965ZM13.6517 7.72857V10.2563H11.7654H9.87898V7.72857V5.20084H11.7654H13.6517V7.72857Z" fill="#987750"/>
<path d="M17.1984 3.78992C17.0927 3.84274 16.9494 4.00874 16.8739 4.15965C16.7532 4.40865 16.7457 4.46147 16.8513 4.71047C17.0626 5.20847 16.9796 5.20092 21.8917 5.20092C25.9285 5.20092 26.3133 5.19338 26.5548 5.0651C27.0452 4.82365 27.1282 4.28037 26.7359 3.91065L26.5397 3.72955L21.9671 3.71446C18.4132 3.69937 17.3417 3.71446 17.1984 3.78992Z" fill="#987750"/>
<path d="M17.152 6.72501C16.737 6.9212 16.6842 7.53993 17.0463 7.85684L17.2727 8.06811H21.8452C26.8781 8.06811 26.7573 8.07565 26.9233 7.60029C26.9837 7.42674 26.9837 7.29092 26.9309 7.11738C26.7649 6.61183 26.9686 6.63447 21.8981 6.64201C18.9025 6.64201 17.2576 6.6722 17.152 6.72501Z" fill="#987750"/>
<path d="M17.2121 9.61486C16.8575 9.76577 16.699 10.1581 16.8499 10.5128C17.0688 11.0334 16.9103 11.0183 21.9884 10.9957L26.5534 10.973L26.7571 10.7693C26.9156 10.6109 26.9684 10.4826 26.9684 10.2562C26.9684 10.0299 26.9156 9.90159 26.7571 9.74314L26.5534 9.53941L22.0035 9.52432C18.1855 9.50923 17.4234 9.52432 17.2121 9.61486Z" fill="#987750"/>
</g>
<defs>
<clipPath id="clip0_629_91">
<rect width="35" height="35" fill="white"/>
</clipPath>
</defs>
</svg>
