<svg width="60" height="60" viewBox="0 0 60 60" fill="none" xmlns="http://www.w3.org/2000/svg">
<path d="M43.8516 0.0820312C43.4414 0.246094 43.418 0.5625 43.3594 6.71484L43.3008 12.7969L39.7851 14.707C37.8516 15.7617 36.2344 16.5938 36.1875 16.5586C36.1289 16.5352 36.0937 16.4297 36.0937 16.3359C36.0937 15.9961 34.6992 13.4062 34.3125 13.043C33.3984 12.1641 32.2617 12.0352 30.9023 12.6797C29.4141 13.3945 28.7109 14.4375 28.8633 15.7266C28.957 16.4531 30.2461 18.9844 30.75 19.4297L31.1133 19.7461L30.8086 20.3789C30.3516 21.293 29.8359 23.1094 29.9297 23.4844C29.9766 23.6836 30.1523 23.8711 30.3984 23.9766C30.7383 24.1406 30.832 24.1523 31.125 24.0117C31.4062 23.8711 31.5117 23.6953 31.7344 22.9688C32.2031 21.4688 32.3672 21.0703 32.6836 20.7305C32.8594 20.5312 35.4258 19.0664 38.6719 17.3086C44.8594 13.9453 44.6367 14.0273 44.2383 15.2461C43.8633 16.3594 43.2539 16.8398 38.6133 19.6406C36.293 21.0352 34.3242 22.2656 34.2539 22.3594C34.1719 22.4648 34.1016 22.7109 34.1016 22.9219C34.1016 23.3789 34.5937 23.8359 35.0039 23.7539C35.1562 23.7305 35.2734 23.7656 35.2617 23.8359C35.2617 23.9062 34.9336 24.9141 34.5352 26.0625L33.8086 28.1719L31.8867 28.9688C30.8203 29.4023 29.9297 29.7422 29.9062 29.707C29.8828 29.6836 30.0586 28.9453 30.3047 28.0781C30.668 26.7422 30.7148 26.4375 30.6094 26.1914C30.3516 25.6289 29.4492 25.5469 29.1211 26.0625C29.0391 26.1914 28.6641 27.3633 28.3008 28.6523C27.5742 31.207 27.5859 31.0898 27.3164 36.4453L27.2109 38.6133L25.3125 42.5977C24.2578 44.7891 23.3555 46.6523 23.2852 46.7227C23.2031 46.8281 22.6875 46.875 21.457 46.875C19.8398 46.875 19.6992 46.8984 19.125 47.1797C17.8477 47.8125 17.4609 48.668 17.4609 50.8828V52.3828L17.1562 52.2656C16.9805 52.1953 15.082 52.1484 12.5859 52.1484C7.82812 52.1484 7.81641 52.1484 6.98437 52.9453C6.1875 53.707 6.09375 54.0469 6.09375 56.2734V58.2422H4.86328C3.70312 58.2422 3.60937 58.2656 3.33984 58.5352C2.96484 58.8984 2.96484 59.3438 3.33984 59.707L3.62109 60H29.8594H56.0976L56.3437 59.7305C56.6836 59.3672 56.6836 58.8281 56.332 58.5C56.0859 58.2656 55.9336 58.2422 54.75 58.2422H53.4375V46.5469V34.8516L53.1328 34.2422C52.9687 33.9023 52.6406 33.4805 52.4062 33.2812C51.6328 32.6367 51.2344 32.5781 48.0234 32.5781H45.1172V24.9961V17.4023L45.5859 16.4648C46.1367 15.3516 46.3242 14.332 46.1836 13.2891C46.0547 12.375 45.9141 12.1289 45.4687 11.9766C45.1289 11.8477 45.1172 11.8242 45.1172 11.0859V10.3125H50.5078C56.543 10.3125 56.5195 10.3125 56.8828 9.55078C57.2578 8.77734 57.0586 8.42578 55.4297 7.01953C54.3633 6.09375 54.0586 5.77734 54.1758 5.68359C54.2578 5.61328 54.8906 5.07422 55.582 4.46484C57.0234 3.21094 57.2461 2.80078 56.9062 2.09766C56.543 1.32422 56.7539 1.34766 50.6601 1.3125L45.1172 1.27734V0.890625C45.1172 0.257812 44.4609 -0.164062 43.8516 0.0820312ZM54.375 3.16406C54.375 3.22266 54.3398 3.28125 54.293 3.28125C54.2344 3.28125 53.7305 3.71484 53.168 4.25391C52.2305 5.12109 52.125 5.26172 52.0664 5.73047L51.9961 6.24609L53.2148 7.40625L54.4336 8.55469L49.8047 8.53125L45.1758 8.49609L45.1406 5.91797C45.1289 4.5 45.1406 3.28125 45.1641 3.19922C45.2461 3.01172 54.375 2.97656 54.375 3.16406ZM33.1523 14.3672C33.5391 14.8594 34.4531 16.7227 34.4531 17.0156C34.4531 17.4258 34.1484 17.7891 33.5156 18.1055C32.8711 18.4336 32.3906 18.4805 32.0508 18.2344C31.9219 18.1406 31.5352 17.4961 31.1836 16.7812C30.4687 15.3281 30.457 15.082 31.1133 14.5781C31.957 13.9336 32.7539 13.8516 33.1523 14.3672ZM43.3594 25.7227V32.5781H43.043C42.5742 32.5781 41.6016 33.0703 41.168 33.5156C40.3945 34.3125 40.3711 34.4062 40.3359 38.0508C40.3125 39.8789 40.2656 41.3672 40.2187 41.3672C40.1719 41.3672 39.9375 41.3086 39.7031 41.25C39.3164 41.1328 39.2695 41.0859 39.3164 40.8047C39.4922 39.8438 39.9726 35.5898 39.9726 35.0273C39.9844 34.0547 39.668 33.5391 37.4531 30.9141L35.5195 28.6172L36.5742 25.4531L37.6289 22.2891L39.8203 20.9648C41.0273 20.2383 42.2812 19.4648 42.5976 19.2656C42.9258 19.0547 43.2187 18.8789 43.2773 18.8789C43.3242 18.8672 43.3594 21.9492 43.3594 25.7227ZM32.625 34.4531C31.9922 37.9453 31.8164 38.6719 31.582 39.0234C31.418 39.2461 30.0352 41.0977 28.5 43.125C26.0625 46.3594 25.3125 47.2266 25.3125 46.7812C25.3125 46.7109 26.1094 44.9883 27.0703 42.9492C29.0977 38.6836 28.957 39.2812 29.1914 34.6289C29.2617 33.1406 29.3555 31.9219 29.4023 31.8984C29.7539 31.7344 33.3516 30.2695 33.3633 30.2812C33.375 30.293 33.0469 32.168 32.625 34.4531ZM36.5039 32.5312C38.1094 34.4297 38.2031 34.5703 38.2031 35.168C38.2031 35.6133 37.7227 39.7852 37.5586 40.7461C37.5 41.0625 37.4297 41.1328 37.207 41.1328C37.043 41.1328 36.9141 41.1211 36.9141 41.0977C36.9141 41.0859 36.7852 39.8906 36.6328 38.4375C36.4453 36.6094 36.3047 35.6836 36.1641 35.4141C36.0352 35.1797 35.6719 34.8281 35.2266 34.5469L34.4883 34.0781L34.6289 33.3047C34.7109 32.8711 34.8398 32.1328 34.9219 31.6523C35.0391 30.9609 35.0977 30.8086 35.2031 30.9492C35.2734 31.043 35.8594 31.7578 36.5039 32.5312ZM51.0117 34.4648C51.1523 34.5352 51.3633 34.7109 51.4687 34.8516C51.6562 35.0859 51.6797 35.8828 51.6797 46.6641V58.2422H46.875H42.0703V55.5352C42.0703 52.3477 42.0117 52.1484 41.168 52.1484C40.9336 52.1484 40.6875 52.2422 40.5469 52.3828C40.3242 52.6055 40.3125 52.7695 40.3125 55.4297V58.2422H35.4492H30.5742L30.6094 51.0117C30.6445 43.0547 30.6094 43.418 31.3594 43.0664C31.9102 42.8086 39.1055 42.8086 39.6094 43.0664C40.2539 43.3945 40.3125 43.6758 40.3125 46.4062C40.3125 48.8789 40.3125 48.8789 40.6055 49.1602C40.9687 49.5352 41.4141 49.5352 41.7773 49.1602L42.0703 48.8789V42V35.1328L42.4687 34.7344L42.8672 34.3359H46.8164C49.4883 34.3359 50.8359 34.3828 51.0117 34.4648ZM34.4648 36.1289C34.6172 36.2461 34.7109 36.7969 34.8984 38.6719C35.0273 39.9961 35.1211 41.0859 35.0977 41.1094C35.0859 41.1211 34.4297 41.1211 33.6562 41.1094L32.2383 41.0742L32.8125 40.3125C33.4336 39.4922 33.6094 38.9648 33.9375 37.1133C34.0547 36.4922 34.1719 35.9766 34.207 35.9766C34.2422 35.9766 34.3594 36.0469 34.4648 36.1289ZM28.8281 46.3594V47.0156L28.4531 46.9336C28.2422 46.8867 28.043 46.8281 28.0195 46.8047C27.9844 46.7695 28.7227 45.7031 28.793 45.7031C28.8164 45.7031 28.8281 45.9961 28.8281 46.3594ZM28.4883 48.9727L28.8281 49.3125V53.7773V58.2422H24.0234H19.2187V53.8945C19.2187 49.3828 19.2305 49.2422 19.7344 48.8438C19.957 48.6562 20.3672 48.6328 24.0586 48.6328H28.1484L28.4883 48.9727ZM16.8867 54.0234C17.3555 54.2812 17.4609 54.7383 17.4609 56.543V58.2422H12.6562H7.85156V56.4141V54.5859L8.19141 54.2461L8.53125 53.9062H12.5977C15.1523 53.9062 16.7344 53.9531 16.8867 54.0234Z" fill="#987750"/>
</svg>
