<svg width="60" height="60" viewBox="0 0 60 60" fill="none" xmlns="http://www.w3.org/2000/svg">
<path d="M5.15667 17.9883V35.9766H3.45745H1.75823V22.6406V9.31641L2.03948 8.73047C2.28557 8.17969 2.68401 7.74609 3.22307 7.44141C3.42229 7.32422 3.41057 7.27734 3.16448 6.58594C3.01214 6.17578 2.84807 5.82422 2.78948 5.78906C2.6137 5.67188 1.68792 6.30469 1.13714 6.91406C0.844167 7.24219 0.480886 7.81641 0.328542 8.17969L0.0590111 8.84766L0.0238549 25.9453C-0.0113014 44.6133 -0.0347389 43.7695 0.656667 44.9531C1.26604 45.9844 2.47307 46.793 3.71526 46.9922C4.10198 47.0625 7.98089 47.1094 12.6332 47.1094H20.8598V50.332V53.5547H19.3012C17.4731 53.5547 16.9106 53.6953 16.1371 54.375C15.2465 55.1602 15.0707 55.7344 15.0239 58.0312L14.977 60H30.0004H45.0239L44.977 58.0312C44.9301 55.7344 44.7543 55.1602 43.8637 54.375C43.0903 53.6953 42.5278 53.5547 40.6996 53.5547H39.141V50.332V47.1094H47.3793C52.02 47.1094 55.8989 47.0625 56.2856 46.9922C57.5278 46.793 58.7348 45.9844 59.3442 44.9531C60.0356 43.7695 60.0121 44.6133 59.977 25.9453L59.9418 8.84766L59.6606 8.14453C59.2739 7.18359 58.2074 6.11719 57.2465 5.73047L56.5434 5.44922L41.8129 5.41406L27.0707 5.39062V6.26953V7.14844L41.6957 7.17188L56.309 7.20703L56.7778 7.46484C57.3754 7.78125 57.7035 8.13281 57.9965 8.78906C58.2309 9.30469 58.2426 9.48047 58.2426 22.6523V35.9766L42.5746 35.9531L26.895 35.918L26.8598 22.9336L26.8364 9.9375L24.6918 6.375C23.52 4.41797 22.5239 2.82422 22.477 2.83594C22.4184 2.85938 21.4106 4.5 20.2153 6.48047L18.0473 10.1016V23.0391V35.9883L16.6176 35.9531L15.1762 35.918L15.141 17.9531L15.1176 0H10.1371H5.15667V17.9883ZM13.3598 18.8672V35.9766H10.1371H6.91448V34.9219V33.8672L9.05901 33.8438L11.1918 33.8086L11.227 32.9648L11.2621 32.1094L9.11761 32.0859L6.97307 32.0508L6.93792 31.207L6.90276 30.3633L8.10979 30.3281L9.31682 30.293V29.4141V28.5352L8.10979 28.5L6.90276 28.4648L6.93792 27.6211L6.97307 26.7773L9.11761 26.7422L11.2621 26.7188L11.227 25.8633L11.1918 25.0195L9.05901 24.9844L6.91448 24.9609V24.082V23.2031H8.14495H9.38714L9.35198 22.3477L9.31682 21.5039L8.12151 21.4688L6.91448 21.4336V20.5664V19.6875H9.08245H11.2621L11.227 18.832L11.1918 17.9883L9.05901 17.9531L6.91448 17.9297V17.0508V16.1719H8.14495H9.38714L9.35198 15.3164L9.31682 14.4727L8.12151 14.4375L6.91448 14.4023V13.5352V12.6562H9.08245H11.2504V11.7773V10.8984H9.08245H6.91448V10.0195V9.14062H8.14495H9.37542V8.26172V7.38281H8.14495H6.91448V6.50391V5.625H9.08245H11.2504V4.74609V3.86719H9.08245H6.91448V2.8125V1.75781H10.1371H13.3598V18.8672ZM23.6137 7.99219C24.1996 8.96484 24.6801 9.82031 24.7035 9.89062C24.7153 9.96094 24.2231 10.3242 23.602 10.6992L22.477 11.3672L21.4692 10.7695C20.9067 10.4297 20.391 10.1133 20.309 10.0547C20.2153 9.97266 20.4965 9.41016 21.2934 8.07422C21.9145 7.05469 22.4418 6.21094 22.4887 6.21094C22.5239 6.21094 23.0395 7.01953 23.6137 7.99219ZM21.352 12.7266C21.9262 13.0781 22.4301 13.3594 22.477 13.3594C22.5239 13.3594 23.1215 13.0195 23.8246 12.5977L25.0785 11.8477V21.5742V31.2891L22.477 31.2656L19.8637 31.2305L19.8285 21.5273L19.8051 11.8242L20.0629 11.9648C20.2035 12.0352 20.7895 12.3867 21.352 12.7266ZM25.0785 34.5117V35.9766L22.477 35.9531L19.8637 35.918L19.8285 34.4766L19.7934 33.0469H22.4418H25.0785V34.5117ZM58.2426 40.4531C58.2426 43.0664 58.2309 43.207 57.9614 43.7695C57.809 44.0977 57.5278 44.5078 57.3168 44.6836C56.4731 45.3984 58.184 45.3516 30.0004 45.3516C1.81682 45.3516 3.52776 45.3984 2.68401 44.6836C2.47307 44.5078 2.19182 44.0977 2.03948 43.7695C1.76995 43.207 1.75823 43.0664 1.75823 40.4531V37.7344H30.0004H58.2426V40.4531ZM37.3832 50.332V53.5547H30.0004H22.6176V50.332V47.1094H30.0004H37.3832V50.332ZM42.4809 55.5469C43.02 55.8867 43.2426 56.4141 43.2426 57.4102V58.2422H30.0004H16.7582V57.3867C16.7582 56.4141 16.9692 55.9102 17.5199 55.5469C17.8598 55.3242 18.1176 55.3125 29.9887 55.3125C41.9301 55.3125 42.1059 55.3125 42.4809 55.5469Z" fill="#6d9f38"/>
<path d="M21.5625 18.2812V21.2109H22.4414H23.3203V18.2812V15.3516H22.4414H21.5625V18.2812Z" fill="#6d9f38"/>
<path d="M21.5625 23.8477V24.7266H22.4414H23.3203V23.8477V22.9688H22.4414H21.5625V23.8477Z" fill="#6d9f38"/>
<path d="M21.5625 27.9492V29.4141H22.4414H23.3203V27.9492V26.4844H22.4414H21.5625V27.9492Z" fill="#6d9f38"/>
<path d="M25.5703 41.5078L25.6055 42.3633L26.4609 42.3984L27.3047 42.4336V41.543V40.6641H26.4258H25.5352L25.5703 41.5078Z" fill="#6d9f38"/>
<path d="M29.0859 41.5078L29.1211 42.3633H30H30.8789L30.9141 41.5078L30.9492 40.6641H30H29.0508L29.0859 41.5078Z" fill="#6d9f38"/>
<path d="M32.6953 41.543V42.4336L33.5508 42.3984L34.3945 42.3633L34.4297 41.5078L34.4648 40.6641H33.5742H32.6953V41.543Z" fill="#6d9f38"/>
<path d="M28.7109 9.78516V10.6641H29.5898H30.4688V21.5625V32.4609H29.5898H28.7109V33.3398V34.2188H31.3477H33.9844V33.3398V32.4609H33.1055H32.2266V21.5625V10.6641H33.1055H33.9844V9.78516V8.90625H31.3477H28.7109V9.78516Z" fill="#6d9f38"/>
<path d="M35.9766 13.8867V18.8672H46.2305H56.4844V13.8867V8.90625H46.2305H35.9766V13.8867ZM54.7266 13.8867V17.1094H46.2305H37.7344V13.8867V10.6641H46.2305H54.7266V13.8867Z" fill="#6d9f38"/>
<path d="M35.9766 23.8477V27.0703H40.6641H45.3516L45.3281 23.8711L45.293 20.6836L40.6406 20.6484L35.9766 20.625V23.8477ZM43.5703 23.8711L43.6055 25.3125H40.6641H37.7344V23.8477V22.3828L40.6406 22.4062L43.5352 22.4414L43.5703 23.8711Z" fill="#6d9f38"/>
<path d="M47.1094 23.8477V27.0703H51.7969H56.4844V23.8477V20.625H51.7969H47.1094V23.8477ZM54.7266 23.8477V25.3125H51.7969H48.8672V23.8477V22.3828H51.7969H54.7266V23.8477Z" fill="#6d9f38"/>
<path d="M36.8442 29.5781C36.8091 29.6602 36.7973 30.0703 36.8208 30.4805L36.8559 31.2305L38.8833 31.2656L40.8989 31.2891V30.3516V29.4141H38.9067C37.3364 29.4141 36.8911 29.4492 36.8442 29.5781Z" fill="#6d9f38"/>
<path d="M42.7036 29.5781C42.6684 29.6602 42.6567 30.0703 42.6802 30.4805L42.7153 31.2305L43.5708 31.2656L44.4145 31.3008V30.3516V29.4141H43.5942C43.0083 29.4141 42.7505 29.4609 42.7036 29.5781Z" fill="#6d9f38"/>
<path d="M47.977 29.5781C47.9419 29.6602 47.9302 30.0703 47.9536 30.4805L47.9888 31.2305L50.0161 31.2656L52.0317 31.2891V30.3516V29.4141H50.0395C48.4692 29.4141 48.0239 29.4492 47.977 29.5781Z" fill="#6d9f38"/>
<path d="M53.8364 29.5781C53.8013 29.6602 53.7895 30.0703 53.813 30.4805L53.8481 31.2305L54.7036 31.2656L55.5473 31.3008V30.3516V29.4141H54.727C54.1411 29.4141 53.8833 29.4609 53.8364 29.5781Z" fill="#6d9f38"/>
</svg>
