<svg width="60" height="60" viewBox="0 0 60 60" fill="none" xmlns="http://www.w3.org/2000/svg">
<path d="M16.3714 0.117188C14.4143 0.46875 12.8792 1.27734 11.5432 2.625C9.84403 4.34766 9.15262 5.96484 9.04715 8.39062C9.01199 9.55078 9.03543 9.97266 9.23465 10.7461C9.71512 12.6211 10.8636 14.4258 12.2581 15.5039L12.9026 15.9961L12.8675 16.6992L12.8323 17.4023L11.6487 17.4375L10.4651 17.4727L10.2659 18.7734C9.97293 20.6367 9.90262 22.8164 10.0667 24.3516L10.219 25.6523L6.91434 31.5352C5.10965 34.7695 3.63309 37.418 3.65653 37.4297C3.67996 37.4531 5.30887 37.8281 7.28934 38.2734L10.8987 39.082V45.1992V51.3281H15.762H20.6253V55.6641V60H32.2268H43.8284V53.2266L43.8401 46.4648L44.5081 45.9727C45.4104 45.3164 47.0979 43.7578 48.012 42.75C51.1643 39.2344 53.262 34.8516 54.0823 30.0703C54.5511 27.3633 54.5862 21.7734 54.1643 18.8672L53.9651 17.5195L52.9925 17.4844C52.2776 17.4609 52.0315 17.4141 52.0667 17.3086C52.1018 17.2266 53.0862 14.8945 54.2464 12.1055L56.3675 7.04297V3.57422C56.3675 1.67578 56.344 0.117188 56.3089 0.117188C56.2737 0.117188 55.0081 1.04297 53.5081 2.17969L50.7659 4.23047L47.93 10.8516L45.094 17.4609H42.8323H40.5823L39.6917 15.5508L38.8128 13.6523L39.7151 13.5703C41.2034 13.4297 42.0471 13.0781 42.7971 12.2578C43.6292 11.3672 43.8284 10.5117 43.8284 7.85156V5.85938H44.7659H45.7034V2.92969V0H42.8323H39.9612V2.92969V5.85938H40.8987H41.8362V8.07422C41.8362 10.1719 41.8245 10.3008 41.5784 10.6641C41.0393 11.4609 40.805 11.543 39.2464 11.543H37.8401L36.6214 8.90625L35.4026 6.26953L36.8792 5.53125L38.3675 4.78125L33.7386 2.80078C31.1956 1.71094 29.0159 0.785156 28.887 0.75C28.6643 0.691406 28.5589 0.972656 27.5393 4.58203L26.4261 8.46094L26.2971 7.58203C25.8284 4.60547 24.1175 2.22656 21.5159 0.949219C20.9886 0.691406 20.2503 0.398438 19.8636 0.292969C19.0081 0.0703125 17.1331 -0.0234375 16.3714 0.117188ZM19.8518 2.32031C21.9729 3.08203 23.5784 4.80469 24.1995 6.96094C24.6331 8.4375 24.3987 10.4531 23.637 11.8828C23.1682 12.7617 22.0198 14.0039 21.2229 14.4727L20.637 14.8242L20.6018 16.1133L20.5667 17.4023L19.6057 17.4375L18.6331 17.4727V14.5078V11.5312L19.2307 11.1328C21.6214 9.51562 20.5315 5.85938 17.6721 5.85938C16.43 5.85938 15.3401 6.66797 14.9417 7.85156C14.5315 9.10547 15.0003 10.3711 16.1487 11.1328L16.7581 11.5312L16.7346 14.4727L16.6995 17.4023L15.7386 17.4375L14.7659 17.4727V16.1836V14.8945L14.0511 14.4023C12.1409 13.1133 11.0979 11.3438 10.9456 9.14062C10.7112 6.03516 12.7854 3.12891 15.8792 2.20312C16.8636 1.91016 18.8792 1.96875 19.8518 2.32031ZM43.8284 2.92969V3.86719H42.8323H41.8362V2.92969V1.99219H42.8323H43.8284V2.92969ZM31.8636 4.10156C32.8362 4.51172 33.6331 4.88672 33.6331 4.93359C33.6331 4.98047 33.4807 5.07422 33.2815 5.15625C33.094 5.23828 32.93 5.35547 32.93 5.41406C32.93 5.50781 35.3206 10.7812 35.6487 11.4023C35.7425 11.5898 35.6487 11.6016 33.9143 11.5781L32.0745 11.543L31.2776 9.78516C30.8323 8.8125 30.3167 7.67578 30.1175 7.23047L29.7659 6.44531L29.4026 6.63281C29.2034 6.72656 29.0159 6.78516 28.9925 6.76172C28.9104 6.67969 29.9065 3.26953 30.0003 3.30469C30.0471 3.32812 30.8792 3.67969 31.8636 4.10156ZM54.4925 4.57031C54.4925 4.88672 54.4456 5.15625 54.3753 5.15625C54.2112 5.15625 53.4378 4.76953 53.4378 4.69922C53.4495 4.61719 54.2815 3.99609 54.4104 3.98438C54.4573 3.98438 54.4925 4.24219 54.4925 4.57031ZM53.1448 6.70312C53.6956 6.97266 54.1409 7.23047 54.1409 7.26562C54.1409 7.3125 53.1917 9.60938 52.0432 12.375L49.9456 17.4023L48.5862 17.4375C47.8362 17.4492 47.2268 17.4492 47.2268 17.4141C47.2268 17.3789 48.2346 15.0234 49.4534 12.1875C50.6839 9.33984 51.762 6.83203 51.8557 6.60938C51.9495 6.38672 52.0432 6.21094 52.0784 6.21094C52.1136 6.21094 52.594 6.43359 53.1448 6.70312ZM18.3753 8.15625C19.0081 8.87109 18.2698 9.91406 17.344 9.59766C16.9339 9.44531 16.7581 9.1875 16.7581 8.70703C16.7581 7.81641 17.7659 7.47656 18.3753 8.15625ZM29.4143 10.3828C29.7425 11.0625 30.0003 11.6367 30.0003 11.6602C30.0003 11.6719 29.7893 11.7188 29.5315 11.7539C28.8636 11.8359 28.137 12.2227 27.5511 12.7969C26.6604 13.6758 26.3675 14.5898 26.3675 16.4062V17.4609H24.4339H22.5003V16.7109V15.9609L23.1448 15.4688C24.3987 14.5078 25.7112 12.4922 26.0276 11.0508L26.18 10.4062L27.4104 9.78516C28.0901 9.43359 28.6995 9.15234 28.7464 9.15234C28.7932 9.14062 29.0979 9.70312 29.4143 10.3828ZM31.7346 15.457C32.2034 16.4766 32.5784 17.3438 32.5784 17.3906C32.5784 17.4258 31.6292 17.4609 30.469 17.4609H28.3596V16.1836C28.3596 15.0586 28.3948 14.8711 28.6292 14.5195C29.0511 13.8984 29.5901 13.5938 30.2932 13.5938H30.8909L31.7346 15.457ZM37.4886 15.3984C37.9456 16.3945 38.3206 17.2617 38.3206 17.332C38.3206 17.4258 37.7815 17.4609 36.5393 17.4375L34.7581 17.4023L33.9026 15.5859C33.4456 14.5898 33.0589 13.7344 33.0589 13.6758C33.0471 13.6289 33.8557 13.5938 34.8518 13.5938H36.6448L37.4886 15.3984ZM52.3479 19.6523C52.4065 19.8398 52.4417 21.8789 52.4417 24.1992C52.4417 28.7344 52.3948 29.2383 51.7268 31.7578C50.3557 37.0195 46.9807 41.918 42.6917 44.9062L41.8362 45.5156V51.7617V58.0078H32.1682H22.5003V53.6719V49.3359H17.6956H12.8909L12.8675 43.4531L12.8323 37.5586L9.75028 36.8555C8.05106 36.457 6.66824 36.1055 6.65653 36.0469C6.65653 36 7.91043 33.7383 9.43387 31.0195L12.2112 26.0742L12.0706 24.9375C11.93 23.6602 11.8948 21.3867 12.0237 20.1445L12.1057 19.3359H32.18H52.2659L52.3479 19.6523Z" fill="#226600"/>
<path d="M14.8242 22.875C15.1641 25.3711 17.0859 27.0703 19.5703 27.0703C22.1953 27.0703 24.0938 25.3711 24.4102 22.7578L24.4688 22.2656H23.4961H22.5352L22.4648 22.793C22.2305 24.457 20.7656 25.418 18.9844 25.0781C17.7656 24.8438 16.9336 24 16.793 22.875L16.7227 22.2656H15.7383H14.7422L14.8242 22.875Z" fill="#226600"/>
</svg>
