<svg width="50" height="50" viewBox="0 0 50 50" fill="none" xmlns="http://www.w3.org/2000/svg">
<g opacity="0.1">
<path d="M16.5528 3.03712C15.8497 3.20313 12.6759 4.85352 11.3282 5.75196C9.58016 6.91407 8.59383 7.70509 7.11922 9.1797C2.34383 13.9258 0.53719 18.916 0.0977368 28.5645C0.0293774 29.9512 8.05715e-05 33.8281 0.0196118 38.0859C0.0489087 44.7559 0.0586743 45.293 0.22469 45.6152C0.459065 46.0742 0.918049 46.543 1.40633 46.8066L1.80672 47.0215H10.254C17.1583 47.0215 18.7696 46.9922 19.0821 46.8848C19.5606 46.7188 20.1661 46.1719 20.4395 45.6641L20.6544 45.2637L20.6837 36.9238C20.713 27.7539 20.7227 27.959 20.1173 27.2266C19.961 27.0313 19.5997 26.7578 19.3165 26.6211L18.8087 26.3672H14.7755L10.7423 26.3672V25.6543C10.7423 24.0918 11.1231 21.8945 11.67 20.2539C12.9102 16.543 15.0684 14.1992 19.1407 12.1582C19.9317 11.7578 20.7032 11.3086 20.879 11.1231C21.3282 10.6641 21.5137 10.0977 21.4649 9.35548C21.4259 8.8086 21.2891 8.45704 20.2637 6.31837C19.0626 3.8086 18.838 3.4668 18.1251 3.17384C17.6856 2.98829 17.002 2.9297 16.5528 3.03712Z" fill="#162542"/>
<path d="M44.3359 3.34961C37.7637 6.2207 32.7539 11.1035 30.5371 16.7969C29.9023 18.418 29.3359 20.8887 29.0137 23.4375C28.6035 26.6309 28.5645 27.832 28.5645 36.7187C28.5645 44.9121 28.5742 45.2832 28.75 45.6348C28.9844 46.1133 29.4043 46.5332 29.9219 46.8066L30.3223 47.0215H38.8184C47.2461 47.0215 47.3144 47.0215 47.7539 46.8164C48.2812 46.5723 48.6719 46.1914 48.9648 45.6543C49.1699 45.2637 49.1699 45.2441 49.1992 36.9238C49.2285 27.7539 49.2383 27.959 48.6328 27.2266C48.4766 27.0312 48.1152 26.7578 47.832 26.6211L47.3242 26.3672H43.2422C39.2676 26.3672 39.1602 26.3672 39.1602 26.1816C39.1602 25.4492 39.4141 23.291 39.6094 22.3145C39.9121 20.8105 40.2344 19.8437 40.8691 18.5059C42.2168 15.6738 44.2676 13.7695 47.7539 12.0898C49.5508 11.2305 49.9414 10.7715 49.9512 9.52148C49.9512 8.84765 49.9316 8.80859 48.8281 6.51367C48.2129 5.24414 47.5781 4.0332 47.4219 3.83789C46.7285 2.99804 45.5664 2.8125 44.3359 3.34961Z" fill="#162542"/>
</g>
</svg>
