<svg width="35" height="35" viewBox="0 0 35 35" fill="none" xmlns="http://www.w3.org/2000/svg">
<path d="M16.9317 0.0683594C15.8107 0.355469 15.0177 1.47656 15.1476 2.61133C15.1886 2.99414 15.4962 3.7666 15.6466 3.85547C15.6876 3.88281 15.7218 4.11523 15.7218 4.40918V4.91504L15.503 4.95605C15.38 4.97656 13.1036 5.35938 10.4513 5.80371C5.14659 6.68555 5.25597 6.6582 4.98253 7.19824C4.86632 7.41016 4.84581 7.56055 4.86632 7.875C4.90733 8.43555 5.24229 8.8457 5.74815 8.94824L5.98058 8.99609L6.00108 9.8916L6.02159 10.7871L3.04112 17.3359C1.4005 20.9453 0.0401452 23.9873 0.0196374 24.1035C-0.000870425 24.2197 0.0196374 24.4863 0.067489 24.6982C0.347762 26.0654 1.57823 27.1934 3.5128 27.8633C4.42198 28.1777 5.338 28.3145 6.56163 28.3145C8.14757 28.3213 9.35753 28.0889 10.4991 27.5557C12.1876 26.7627 13.1788 25.5596 13.1993 24.2881C13.2062 23.9941 12.878 23.2422 10.1915 17.3359L7.17686 10.7119V9.87109V9.02344H11.4493H15.7218V15.1553V21.2939L15.4962 21.5127C15.3663 21.6357 15.2296 21.8545 15.1886 21.998C15.1271 22.1895 15.1066 23.4746 15.1066 26.4756V30.6865L14.0333 31.0283C13.4386 31.2129 12.6046 31.4795 12.1739 31.6094C11.2101 31.9102 10.8751 32.1084 10.6017 32.5117C10.3419 32.915 10.2872 33.1543 10.2872 33.9951C10.2872 34.6514 10.2941 34.6719 10.4786 34.8359L10.67 35H17.4991H24.3282L24.5196 34.8359C24.711 34.6719 24.711 34.6582 24.711 33.8857C24.711 33.1543 24.6974 33.0859 24.506 32.7031C24.2325 32.1699 23.8771 31.9375 22.8517 31.6162C22.4073 31.4795 21.5597 31.2129 20.9718 31.0283L19.8917 30.6865V26.4756C19.8917 23.4746 19.8712 22.1895 19.8097 21.998C19.7687 21.8545 19.6319 21.6357 19.5021 21.5127L19.2765 21.2939V15.1553V9.02344H23.5489H27.8214V9.87109V10.7119L24.8067 17.3359C21.5392 24.5205 21.6759 24.1582 21.881 24.9033C22.2296 26.2021 23.7267 27.4463 25.5655 27.9521C27.4728 28.4854 29.7901 28.4512 31.4855 27.8633C32.6066 27.4736 33.5362 26.9131 34.1105 26.2637C34.6847 25.6211 35.0743 24.6572 34.9786 24.1035C34.9581 23.9873 33.5978 20.9453 31.9571 17.3359L28.9767 10.7871L28.9972 9.8916L29.0177 8.99609L29.2501 8.94824C29.756 8.8457 30.0909 8.43555 30.1319 7.875C30.1525 7.56055 30.1319 7.41016 30.0157 7.19824C29.7423 6.6582 29.879 6.69238 24.3829 5.80371C21.628 5.35938 19.3585 4.99023 19.3312 4.99023C19.2423 4.99023 19.2696 3.91016 19.3517 3.85547C19.3927 3.83496 19.5157 3.62988 19.6183 3.4043C20.2062 2.16699 19.6798 0.751953 18.422 0.198242C18.0597 0.0410156 17.3146 -0.0273438 16.9317 0.0683594ZM17.9982 1.25781C18.9484 1.6543 18.962 3.0625 18.0187 3.49316C17.0753 3.92383 16.1046 3.13086 16.296 2.08496C16.3507 1.79785 16.6925 1.38086 16.9864 1.25781C17.253 1.1416 17.7179 1.1416 17.9982 1.25781ZM18.1144 12.9609V21.1914H17.4991H16.8839V12.9609V4.73047H17.4991H18.1144V12.9609ZM15.7218 6.97266V7.86133L10.8546 7.84766C7.78526 7.83398 5.98058 7.7998 5.98058 7.75879C5.98058 7.71094 15.1407 6.11816 15.6056 6.09082C15.7081 6.08398 15.7218 6.16602 15.7218 6.97266ZM24.2394 6.9248C26.837 7.34863 28.9698 7.71777 28.9903 7.75879C29.0108 7.80664 27.3634 7.83398 24.1505 7.84766L19.2765 7.86133V7.00684C19.2765 6.23438 19.2901 6.15234 19.3995 6.15918C19.461 6.15918 21.6417 6.50781 24.2394 6.9248ZM9.18663 17.876C10.5743 20.918 11.7159 23.4541 11.7364 23.4951C11.7638 23.5635 10.711 23.584 6.60948 23.584H1.44835L4.0255 17.917C5.44054 14.793 6.61632 12.2637 6.63683 12.291C6.65733 12.3184 7.80577 14.8271 9.18663 17.876ZM31.0548 18.0947L33.5499 23.584H28.3888C24.2872 23.584 23.2345 23.5635 23.2618 23.4951C23.2823 23.4541 24.3966 21 25.7364 18.0469C27.0831 15.0938 28.2247 12.5713 28.2862 12.4414L28.3888 12.2021L28.4776 12.4072C28.5255 12.5166 29.6876 15.0801 31.0548 18.0947ZM18.7296 26.4209V30.5566H17.4991H16.2687V26.4209V22.2852H17.4991H18.7296V26.4209ZM11.962 24.7871C11.962 25.0195 11.3331 25.7236 10.7999 26.0791C8.72179 27.46 5.20811 27.5762 2.86339 26.3457C2.30968 26.0518 1.59874 25.4229 1.37999 25.0264L1.22276 24.7461H6.58897C9.5421 24.7461 11.962 24.7666 11.962 24.7871ZM33.6183 25.0264C33.3995 25.4229 32.6886 26.0518 32.1349 26.3457C29.7901 27.5762 26.2765 27.46 24.1984 26.0791C23.6651 25.7236 23.0362 25.0195 23.0362 24.7871C23.0362 24.7666 25.4562 24.7461 28.4093 24.7461H33.7755L33.6183 25.0264ZM21.2247 32.2998C23.5011 33.0107 23.5831 33.0586 23.5831 33.5713V33.8379H17.4991H11.4151V33.5713C11.4151 33.0586 11.504 33.0107 13.7394 32.2998L15.756 31.6641L17.465 31.6572L19.1739 31.6504L21.2247 32.2998Z" fill="#987750"/>
</svg>
