<svg width="40" height="40" viewBox="0 0 40 40" xmlns="http://www.w3.org/2000/svg">
<circle cx="20" cy="20" r="19.5" fill="white"/>
<path d="M10.3259 12.0423C10.1071 12.1516 10 12.3611 10 12.6799C10 13.0078 10.1027 13.2264 10.317 13.3448C10.4598 13.4222 10.7634 13.4268 17.1429 13.4268C23.5223 13.4268 23.8259 13.4222 23.9688 13.3448C24.1786 13.2309 24.2857 13.0078 24.2857 12.6981C24.2857 12.3884 24.1786 12.1653 23.9688 12.0514C23.8259 11.974 23.5223 11.9694 17.1429 11.9694C11.1161 11.9694 10.4554 11.9785 10.3259 12.0423Z"/>
<path d="M10.3259 19.3289C10.1071 19.4382 10 19.6477 10 19.9665C10 20.2944 10.1027 20.513 10.317 20.6314C10.4598 20.7088 10.8527 20.7134 20 20.7134C29.1473 20.7134 29.5402 20.7088 29.683 20.6314C29.8929 20.5175 30 20.2944 30 19.9847C30 19.675 29.8929 19.4519 29.683 19.338C29.5402 19.2606 29.1473 19.256 20 19.256C11.3571 19.256 10.4554 19.2652 10.3259 19.3289Z"/>
<path d="M10.3259 26.6155C10.1071 26.7248 10 26.9343 10 27.2531C10 27.581 10.1027 27.7996 10.317 27.918C10.4598 27.9954 10.7634 28 17.1429 28C23.5223 28 23.8259 27.9954 23.9688 27.918C24.1786 27.8042 24.2857 27.581 24.2857 27.2713C24.2857 26.9616 24.1786 26.7385 23.9688 26.6246C23.8259 26.5472 23.5223 26.5427 17.1429 26.5427C11.1161 26.5427 10.4554 26.5518 10.3259 26.6155Z"/>
</svg>
