<svg width="38" height="38" viewBox="0 0 38 38" fill="none" xmlns="http://www.w3.org/2000/svg">
<g clip-path="url(#clip0_577_607)">
<path d="M11.5484 0.0816689C8.40898 0.556667 5.82617 2.88713 4.99492 5.9969C4.80937 6.68714 4.79453 6.82073 4.76484 9.04729L4.73516 11.3852L4.4457 11.7117C4.02266 12.2016 3.83711 12.7508 3.87422 13.4336C3.91133 14.0571 4.07461 14.4504 4.49023 14.9106L4.75 15.1926V21.8723V28.552L4.40859 28.6856C3.22109 29.1383 1.95937 30.4371 1.41016 31.7731C1.03164 32.6785 0.964844 33.2055 0.964844 35.15C0.964844 36.7977 0.972266 36.9387 1.1207 37.243C1.21719 37.436 1.40273 37.6438 1.58086 37.7625C1.87031 37.9555 1.91484 37.9629 3.13203 37.9852L4.37891 38.0074L4.56445 37.8219C4.80195 37.5844 4.80195 37.3024 4.56445 37.0723C4.39375 36.8942 4.34922 36.8867 3.31758 36.8867C2.47148 36.8867 2.22656 36.8645 2.15234 36.7828C2.09297 36.7012 2.0707 36.1965 2.09297 34.868C2.12266 33.2649 2.1375 33.0125 2.28594 32.5821C2.64961 31.4762 3.54023 30.3926 4.49766 29.8953C4.93555 29.6653 10.3312 27.5352 10.4723 27.5352C10.502 27.5352 10.6801 27.7801 10.8656 28.0844C11.3109 28.7969 12.0902 29.5168 12.7805 29.8582C13.6488 30.2887 14.1387 30.3926 15.3262 30.3926C16.5285 30.3926 16.9812 30.2887 17.9238 29.8063C18.6363 29.4426 19.4305 28.6856 19.8164 28.0028C19.9574 27.7504 20.1133 27.5352 20.1578 27.5352C20.1949 27.5352 20.5141 27.6465 20.8629 27.7875C21.2043 27.9211 21.8129 28.1586 22.2137 28.3145C22.9113 28.5817 22.9484 28.6039 23.1117 28.9379C23.5199 29.7395 24.4328 30.7637 25.2789 31.3649C25.8875 31.8028 26.9859 32.3149 27.7207 32.5004C28.0398 32.5895 28.3293 32.6785 28.359 32.7156C28.5668 32.9383 28.6781 36.6047 28.4852 36.7977C28.4258 36.8571 28.0398 36.8867 27.2234 36.8867H26.0508V35.4098C26.0508 33.8364 26.0211 33.6434 25.6945 33.2946C25.3012 32.8789 25.2937 32.8789 21.8055 32.8789C18.7105 32.8789 18.5918 32.8864 18.2801 33.0348C18.1094 33.1164 17.8867 33.2946 17.7977 33.4207C17.6344 33.6508 17.627 33.7324 17.6047 35.2688L17.5824 36.8867H11.8676H6.15273L5.97461 37.0723C5.8707 37.1688 5.78906 37.3395 5.78906 37.4434C5.78906 37.5473 5.8707 37.718 5.97461 37.8145L6.15273 38H17.3449C28.0398 38 28.552 37.9926 28.834 37.859C29.2051 37.6957 29.5094 37.3469 29.6207 36.9684C29.7098 36.6641 29.6727 33.2055 29.5762 32.8938C29.5242 32.7379 29.5391 32.7305 30.0289 32.7305C31.2016 32.7305 32.6637 32.2555 33.8066 31.5133C35.3133 30.5336 36.382 29.0418 36.857 27.2754C37.0723 26.4813 37.0574 24.7446 36.8273 23.8985C36.048 20.9891 33.4504 18.8516 30.3703 18.5621C29.0418 18.4434 27.5797 18.6957 26.4145 19.2449L25.9023 19.4899V17.3449V15.2L26.1324 14.9328C26.266 14.7844 26.459 14.4801 26.5629 14.25C26.9488 13.4336 26.7707 12.3129 26.1547 11.7192L25.9023 11.4742V9.63362C25.9023 8.61682 25.8652 7.46643 25.8207 7.07307C25.5758 4.86878 24.4551 2.87229 22.7184 1.5512C22.0504 1.03909 20.8852 0.482449 20.002 0.244949L19.2598 0.0445595L15.623 0.0297165C13.6266 0.0222931 11.7859 0.0445595 11.5484 0.0816689ZM17.5008 3.10237L17.4785 5.08401L17.1148 5.67776C15.9496 7.5555 13.3297 9.21057 9.51484 10.4797L8.34961 10.8657L7.11016 10.8953L5.86328 10.925V9.1512C5.86328 8.17893 5.90039 7.16956 5.94492 6.90237C6.35312 4.36409 8.22344 2.21175 10.7172 1.41018C11.4594 1.17268 12.0828 1.12815 14.7918 1.12073L17.523 1.11331L17.5008 3.10237ZM19.6234 1.3137C21.6793 1.81839 23.3789 3.25823 24.1953 5.18792C24.648 6.24924 24.7223 6.74651 24.7668 8.92112L24.8039 10.9102H23.75H22.6887L21.8648 10.0715C20.6922 8.89143 19.6902 7.41448 18.948 5.78909L18.6289 5.08401V3.10237V1.12073L18.9109 1.16526C19.0594 1.18753 19.3859 1.25433 19.6234 1.3137ZM18.3766 7.13245C18.8516 8.05276 19.7645 9.41096 20.4027 10.1532C20.8852 10.7024 20.9148 10.7617 20.7293 10.7172C18.8293 10.2867 17.6641 9.64104 16.8031 8.5426L16.484 8.1344L17.0703 7.51839C17.3969 7.17698 17.716 6.79846 17.7902 6.67971C17.857 6.55354 17.9461 6.45706 17.9758 6.45706C18.0055 6.45706 18.1836 6.76135 18.3766 7.13245ZM15.8012 9.0844C16.0609 9.50003 17.0852 10.4278 17.6715 10.7692C18.7402 11.3926 20.0539 11.7934 21.5457 11.9567L22.4141 12.0457V13.0106V13.9754L21.8055 13.9235C18.9703 13.686 16.7734 12.736 15.1926 11.066C14.6211 10.4574 14.1016 9.70784 14.2203 9.67073C14.2648 9.65589 14.584 9.46292 14.9254 9.24768C15.2668 9.02503 15.5711 8.83948 15.6008 8.83948C15.623 8.83206 15.7195 8.94339 15.8012 9.0844ZM13.4707 10.7024C13.8492 11.311 15.252 12.7211 15.9348 13.1664C17.5305 14.2055 19.2746 14.7844 21.5086 14.9996L22.4141 15.0887V15.9125C22.4141 17.3821 22.0504 18.4434 21.2859 19.2301C20.8852 19.6383 18.1168 21.7164 17.3672 22.1692C16.2391 22.8594 14.7547 22.9188 13.5598 22.3324C12.9289 22.0207 9.64102 19.5864 9.24023 19.1262C9.05469 18.911 8.80234 18.5399 8.68359 18.2949C8.26055 17.4414 8.23086 17.1891 8.25312 14.4727L8.27539 12.0086L9.2625 11.7192C10.3312 11.4074 11.7637 10.8805 12.5801 10.4946C12.8695 10.361 13.1219 10.2496 13.1441 10.2496C13.1664 10.2422 13.3148 10.45 13.4707 10.7024ZM7.125 13.2852V14.5469H6.52383C5.81875 14.5469 5.49961 14.4282 5.21758 14.0496C4.93555 13.6785 4.89844 13.0625 5.13594 12.6617C5.3957 12.2164 5.82617 12.0235 6.54609 12.0235H7.125V13.2852ZM24.7891 12.0977C25.0934 12.1793 25.4867 12.5504 25.598 12.8621C25.8133 13.4188 25.5535 14.0942 25.0117 14.3762C24.7594 14.5098 24.5738 14.5469 24.1062 14.5469H23.5273V13.2852V12.0235H24.032C24.3066 12.0235 24.648 12.0606 24.7891 12.0977ZM7.125 16.343C7.125 17.2782 7.28086 17.9461 7.67422 18.7403C8.08242 19.5641 8.60937 20.1653 9.58906 20.9L10.3164 21.4567V23.9207V26.3848L8.1418 27.2235C6.9543 27.6836 5.95234 28.0547 5.92266 28.0547C5.88555 28.0547 5.86328 25.2641 5.86328 21.8574V15.6602H6.49414H7.125V16.343ZM24.7891 17.9535V20.2469L24.3141 20.7293C23.4605 21.5977 22.7777 22.7926 22.4883 23.9356C22.2879 24.7 22.2211 25.8578 22.3324 26.5629C22.377 26.8598 22.4066 27.1196 22.3918 27.1418C22.377 27.1567 21.9094 26.9934 21.3527 26.7782L20.3359 26.3922V23.9059V21.4121L21.1152 20.8332C22.7184 19.6457 23.4086 18.3914 23.5051 16.4617L23.5496 15.6602H24.1656H24.7891V17.9535ZM30.875 19.7496C33.1535 20.1653 35.009 21.8129 35.7141 24.0469C35.8551 24.5219 35.8848 24.7594 35.8848 25.6426C35.8848 26.5258 35.8551 26.7633 35.7141 27.2383C35.1723 28.9602 33.9773 30.311 32.3297 31.0606C31.3352 31.5133 30.9641 31.5801 29.6133 31.5801C28.4406 31.5727 28.359 31.5653 27.6836 31.3352C26.6668 31.0012 25.9098 30.5262 25.1527 29.7692C24.4031 29.0196 23.9727 28.3293 23.6535 27.3719C23.4457 26.741 23.4234 26.6 23.4234 25.6797C23.4234 24.9375 23.4605 24.5516 23.557 24.2028C24.4254 21.0559 27.5574 19.1559 30.875 19.7496ZM12.0977 22.7481C13.1367 23.5051 14.1016 23.8317 15.2742 23.8391C16.5359 23.8391 17.3523 23.5645 18.525 22.7407L19.2301 22.2508L19.2078 24.5442L19.1855 26.8301L18.9258 27.3125C18.1836 28.6856 16.8031 29.3832 15.0293 29.2942C14.2723 29.2496 13.775 29.1235 13.1367 28.7969C12.6543 28.552 11.9418 27.8024 11.6672 27.2457L11.4297 26.7707V24.5071C11.4297 22.711 11.452 22.2657 11.5262 22.3176C11.5707 22.3621 11.8305 22.5551 12.0977 22.7481ZM24.9227 35.4543L24.9375 36.8867H21.8203H18.7031V35.4914C18.7031 34.7196 18.7254 34.0664 18.7551 34.0442C18.7848 34.0145 20.1727 33.9996 21.85 34.0071L24.9004 34.0293L24.9227 35.4543Z" fill="#987750"/>
<path d="M11.3182 12.4762C11.0213 12.6395 10.2124 13.7528 9.93033 14.3836C9.7151 14.8661 9.72252 15.5118 9.94517 15.9793C10.153 16.4172 10.6577 16.8774 11.1104 17.0258C12.387 17.4637 13.7229 16.5211 13.7378 15.1778C13.7452 14.8586 13.6858 14.6508 13.4928 14.2278C13.196 13.6192 12.4835 12.6321 12.2311 12.4911C12.0233 12.3797 11.5186 12.3723 11.3182 12.4762ZM12.3424 14.4207C12.7655 15.111 12.7061 15.6454 12.1717 15.92C11.6893 16.1723 11.0956 15.9274 10.9249 15.4079C10.8432 15.1629 10.8506 15.0887 10.9842 14.7993C11.0585 14.6137 11.2663 14.2649 11.4444 14.02L11.7561 13.5672L11.912 13.7676C11.9936 13.8789 12.1866 14.1758 12.3424 14.4207Z" fill="#987750"/>
<path d="M14.2497 17.5156C12.9954 17.9758 12.1716 19.0668 12.7356 19.5121C13.0399 19.7496 13.1884 19.7051 13.6485 19.2524C14.2126 18.6883 14.6579 18.4805 15.3333 18.4805C15.9938 18.4805 16.4911 18.7106 16.9438 19.2301C17.3446 19.6902 17.6415 19.7719 17.9161 19.4973C18.2278 19.1856 18.1759 18.9332 17.6935 18.4137C17.3966 18.0871 17.1145 17.8793 16.7138 17.6863C16.1942 17.4266 16.0978 17.4043 15.4075 17.3895C14.7989 17.3672 14.5837 17.3895 14.2497 17.5156Z" fill="#987750"/>
<path d="M25.8281 23.8094C25.6871 23.8762 25.4941 24.0469 25.4051 24.1879C25.2492 24.4254 25.2344 24.5144 25.2344 25.6055C25.2344 26.6965 25.2492 26.7855 25.4051 27.023C25.7539 27.5426 25.6797 27.5352 29.643 27.5352C33.0867 27.5352 33.2129 27.5277 33.5172 27.3793C34.0293 27.1344 34.1406 26.8152 34.1406 25.598C34.1406 24.7074 34.1258 24.559 33.9773 24.2695C33.6582 23.6609 33.7844 23.6758 29.6875 23.6758C26.407 23.6758 26.0656 23.6906 25.8281 23.8094ZM33.0273 25.6055V26.4219H29.6875H26.3477V25.6055V24.7891H29.6875H33.0273V25.6055Z" fill="#987750"/>
</g>
<defs>
<clipPath id="clip0_577_607">
<rect width="38" height="38" fill="white"/>
</clipPath>
</defs>
</svg>
