<svg width="70" height="60" viewBox="0 0 70 60" fill="none" xmlns="http://www.w3.org/2000/svg">
<path opacity="0.1" d="M41.7986 17L0 60H70L41.7986 17Z" fill="#E22454"/>
<path d="M28.0555 0.164062C23.9656 0.949219 20.8367 3.35156 19.1024 7.05469C17.5438 10.3828 17.5906 14.1445 19.2195 17.5195C20.8016 20.7891 23.7313 23.168 27.2586 24.0469C28.7352 24.4102 31.2664 24.4102 32.743 24.0469C36.2703 23.168 39.1883 20.8008 40.782 17.5195C42.3992 14.1914 42.4461 10.3945 40.8992 7.06641C39.3406 3.71484 36.4695 1.30078 32.9422 0.386719C31.5477 0.0234375 29.3094 -0.0703125 28.0555 0.164062ZM32.3211 2.22656C38.6609 3.75 41.9422 10.9102 38.9891 16.8164C37.7586 19.2773 35.6258 21.1055 32.9305 21.9844C32.0047 22.2891 31.8055 22.3125 30.0008 22.3125C28.1961 22.3125 27.9969 22.2891 27.0711 21.9844C22.5242 20.4961 19.7 16.3828 19.9578 11.625C20.0399 10.1133 20.2625 9.17578 20.8719 7.875C22.1844 5.02734 24.657 2.96484 27.6336 2.22656C28.9109 1.92188 31.0203 1.92188 32.3211 2.22656Z" fill="#E22454"/>
<path d="M27.5625 4.60552C27.3164 4.86333 27.3047 4.98052 27.3047 7.12505V9.37505H25.125H22.9453L22.6055 9.71489L22.2656 10.0547V12.1758C22.2656 14.2383 22.2773 14.2969 22.5469 14.6133L22.8281 14.9415L25.0664 14.9766L27.3047 15.0118V17.2735C27.3047 20.25 27.0938 20.0391 30.0117 20.0391C32.8945 20.0391 32.6953 20.25 32.6953 17.25V15.0118L34.9336 14.9766L37.1719 14.9415L37.4531 14.6133C37.7227 14.2969 37.7344 14.2383 37.7344 12.1758V10.0547L37.3945 9.71489L37.0547 9.37505H34.875H32.6953V7.11333C32.6953 4.12505 32.9062 4.33598 29.9883 4.33598C27.8672 4.33598 27.8086 4.3477 27.5625 4.60552ZM30.8203 8.44926V10.6875L31.1602 11.0274L31.5 11.3672H33.6211H35.7422V12.1875V13.0079H33.6445C31.5586 13.0079 31.5352 13.0079 31.1836 13.3125L30.8203 13.6172V15.8907V18.1641H30H29.1797V15.8907V13.6172L28.8164 13.3125C28.4648 13.0079 28.4414 13.0079 26.3555 13.0079H24.2578V12.1875V11.3672H26.3789H28.5L28.8398 11.0274L29.1797 10.6875V8.44926V6.21098H30H30.8203V8.44926Z" fill="#E22454"/>
<path d="M28.1836 27.7031C23.1562 28.8633 20.4961 34.2305 22.7344 38.6719C23.25 39.6914 24.0469 40.6641 24.9258 41.3555L25.7344 41.9883L24.8789 42.4219C23.2617 43.2656 21.7266 44.5781 20.6953 46.0195C20.4492 46.3594 20.2383 46.6406 20.2148 46.6406C20.2031 46.6406 20.0391 46.418 19.8633 46.1367C19.0781 44.9648 16.957 43.1133 16.0312 42.8203C15.8086 42.75 15.8555 42.6914 16.4531 42.1172C17.8711 40.7695 18.5273 39.2695 18.5391 37.418C18.5391 35.5898 17.918 34.0781 16.6406 32.8125C15.4102 31.6172 13.7578 30.9375 12.0352 30.9375C9.08203 30.9375 6.41016 32.9297 5.68359 35.6836C5.47266 36.5039 5.4375 38.0156 5.61328 38.8125C5.90625 40.0781 6.76172 41.4609 7.79297 42.3164L8.32031 42.7617L7.62891 43.125C5.75391 44.1328 4.03125 46.1602 3.17578 48.3867C2.56641 49.9805 2.46094 50.7891 2.46094 54C2.46094 56.707 2.47266 56.9531 2.68359 57.1992L2.90625 57.4805L10.5352 57.5156L18.1641 57.5391V58.4883C18.1641 59.332 18.1992 59.4492 18.457 59.707L18.7383 60H30H41.2617L41.543 59.707C41.8008 59.4492 41.8359 59.332 41.8359 58.4883V57.5391L49.4648 57.5156L57.0938 57.4805L57.3164 57.1992C57.5273 56.9531 57.5391 56.707 57.5391 54C57.5391 50.7891 57.4336 49.9805 56.8242 48.3867C55.9688 46.1602 54.2461 44.1328 52.3711 43.125L51.6797 42.7617L52.207 42.3164C53.2383 41.4609 54.0938 40.0781 54.3867 38.8125C54.5508 38.0977 54.5391 36.6562 54.375 35.918C53.8828 33.6914 51.9141 31.7109 49.6172 31.1133C46.2656 30.2461 42.6211 32.3203 41.6602 35.6602C41.3789 36.6328 41.4023 38.2852 41.707 39.2695C42.0117 40.2422 42.7031 41.3086 43.5469 42.1172C44.1445 42.6914 44.1914 42.75 43.9688 42.8203C43.043 43.1133 40.9219 44.9648 40.1367 46.1367C39.9609 46.418 39.7969 46.6406 39.7852 46.6406C39.7734 46.6406 39.4922 46.2773 39.1523 45.832C38.0977 44.4141 36.3047 42.9492 34.7578 42.2344L34.1016 41.9414L34.793 41.4141C36.5859 40.0664 37.6875 37.9805 37.8164 35.6836C38.0039 32.2617 35.8008 29.0859 32.4492 27.9492C31.2539 27.5508 29.332 27.4453 28.1836 27.7031ZM31.6406 29.7305C34.125 30.4102 35.8711 32.707 35.8711 35.2969C35.8711 37.0312 35.2969 38.3203 33.9727 39.5391C31.0312 42.2695 26.2617 41.3789 24.4688 37.7812C24.0234 36.8789 23.9883 36.7148 23.9297 35.6367C23.8828 34.6758 23.918 34.3359 24.1289 33.6445C24.7617 31.5469 26.7422 29.8711 28.9688 29.5312C29.7422 29.4141 30.7852 29.4844 31.6406 29.7305ZM12.8789 32.9297C14.2969 33.1992 15.6328 34.2539 16.2656 35.5898C16.5352 36.1758 16.582 36.4219 16.582 37.3828C16.582 38.3437 16.5352 38.5898 16.2656 39.1641C15.3867 41.0391 13.1836 42.2344 11.2852 41.8594C9.67969 41.5312 8.26172 40.4297 7.72266 39.0469C7.3125 38.0391 7.33594 36.5156 7.75781 35.5898C8.67188 33.6328 10.7812 32.5312 12.8789 32.9297ZM48.8438 32.9297C49.7812 33.1055 50.5078 33.5039 51.2812 34.2773C52.2305 35.2148 52.5469 36 52.5469 37.3828C52.5469 38.6602 52.2422 39.4805 51.4336 40.3711C50.7539 41.0977 49.7578 41.6484 48.7148 41.8594C46.8164 42.2344 44.6133 41.0391 43.7344 39.1641C43.4648 38.5898 43.418 38.3437 43.418 37.3828C43.418 36.4219 43.4648 36.1758 43.7344 35.5898C44.6484 33.6328 46.7578 32.5312 48.8438 32.9297ZM32.6367 43.4766C35.2383 44.2969 37.4648 46.2422 38.7305 48.8086C39.6797 50.7422 39.9609 52.3242 39.9609 55.8047V58.0078H29.9883H20.0156L20.0742 55.1602C20.1211 53.1328 20.1914 52.0781 20.332 51.4453C21.2578 47.2969 24.1992 44.2031 28.0664 43.2891C29.1328 43.043 31.582 43.1367 32.6367 43.4766ZM13.4414 44.0039C14.8945 44.2734 16.1602 44.9648 17.2852 46.1016C17.9062 46.7344 18.375 47.332 18.668 47.8945L19.1133 48.7383L18.8086 49.6875C18.3633 51.1055 18.1641 52.4766 18.1641 54.0937V55.5469H11.2383H4.30078L4.37109 53.168C4.41797 51.2109 4.47656 50.6484 4.6875 49.9219C5.42578 47.3555 7.32422 45.1875 9.55078 44.3437C10.9453 43.8281 12.0117 43.7344 13.4414 44.0039ZM50.2148 44.2734C51.4219 44.6953 52.2773 45.2578 53.2852 46.3242C54.1992 47.2852 54.9258 48.5742 55.3125 49.9219C55.5234 50.6484 55.582 51.2109 55.6289 53.168L55.6992 55.5469H48.7617H41.8359V54.0937C41.8359 52.4766 41.6367 51.1055 41.1914 49.6992L40.8867 48.75L41.332 47.8945C41.625 47.3203 42.0703 46.7461 42.7148 46.1016C44.7773 44.0273 47.5312 43.3477 50.2148 44.2734Z" fill="#E22454"/>
</svg>
