<svg width="18" height="15" viewBox="0 0 18 15" fill="none" xmlns="http://www.w3.org/2000/svg">
<circle cx="10.3066" cy="7.5" r="7" fill="white" stroke="#6d9f38"/>
<path d="M8.19955 4.85968C8.06594 4.90253 7.99052 5.04686 8.025 5.1912C8.03362 5.23405 8.39349 5.62421 9.09814 6.36395L10.1562 7.4758L5.16543 7.48031L0.172508 7.48707L0.112171 7.53443C0.0798471 7.55924 0.0367489 7.62239 0.0195096 7.67426C-0.0085042 7.75771 -0.00634929 7.77575 0.0259744 7.84566C0.0453685 7.88851 0.0884667 7.94264 0.12079 7.96519C0.176818 8.00353 0.407393 8.00579 5.16759 8.01255L10.1562 8.01706L9.10892 9.11764C8.5314 9.72205 8.0487 10.2453 8.03793 10.2791C7.98406 10.4257 8.03793 10.5633 8.17153 10.6219C8.32238 10.6873 8.29221 10.7144 9.69721 9.24168C10.5807 8.31701 11.0117 7.85017 11.0203 7.80732C11.0289 7.77349 11.0289 7.71937 11.0203 7.68328C11.0117 7.64269 10.5829 7.1781 9.71014 6.2602C8.60252 5.09874 8.32238 4.82134 8.2685 4.83938C8.26419 4.83938 8.23403 4.85065 8.19955 4.85968Z" fill="#8A8A8A"/>
</svg>
