<svg width="70" height="60" viewBox="0 0 70 60" fill="none" xmlns="http://www.w3.org/2000/svg">
<path d="M35.991 0.21393C55.2363 -1.49235 58.2537 20.2321 67.1532 35.7404C76.0526 51.2486 63.4048 58.9483 38.7213 59.5548C14.0377 60.1613 0.510004 63.0507 0.0131327 40.2094C-0.483739 17.3681 13.1093 -2.27832 35.991 0.21393Z" fill="#8FB568" fill-opacity="0.2"/>
<g clip-path="url(#clip0_372_2343)">
<path d="M35.6445 0.222654C35.457 0.339842 35.0352 0.714842 34.707 1.04297L34.1328 1.64062H24.9805H15.8164L15.5703 1.91015C15.2305 2.27344 15.2422 2.7539 15.6055 3.10547L15.8867 3.39844H23.1641H30.4297V7.38281V11.3672H18.5938H6.75781V7.38281V3.41015L9.62891 3.375C12.7695 3.33984 12.7812 3.33984 12.9219 2.61328C12.9805 2.30859 12.9336 2.17969 12.6992 1.94531L12.3945 1.64062H9.01953C6.54688 1.65234 5.59766 1.6875 5.45703 1.79297C5.01172 2.13281 5 2.33203 5 7.42969V12.4102L5.28125 12.7383L5.5625 13.0664L19.8945 13.1016L34.2266 13.125L35.0117 13.8867L35.7969 14.6484H37.7422C39.6641 14.6484 39.6992 14.6484 39.9805 14.3555C40.2617 14.0859 40.2734 13.9922 40.2734 12.7734V11.4844H41.5039C42.957 11.4844 43.1094 11.4258 44.0234 10.5L44.6562 9.84375H50.9023C54.3359 9.84375 57.1484 9.86719 57.1484 9.8789C57.1484 9.90234 57.3125 10.7109 57.5 11.6602C57.6875 12.6094 57.8516 13.5117 57.8516 13.6523C57.8516 14.0391 56.9375 16.3945 56.6094 16.8984C56.0234 17.7422 54.7109 18.3047 53.7148 18.1172C53.3164 18.0469 53.2812 18.0117 53.2812 17.625C53.2812 17.0156 52.9883 16.4297 52.6133 16.2773C51.8281 15.9727 49.3438 16.4414 47.3047 17.2852C44.9609 18.2461 43.5195 18.2578 41.3398 17.332C39.3594 16.4883 38.2695 16.2539 36.1719 16.2539C34.1328 16.2422 33.3477 16.3828 31.625 17.0273C29.8672 17.6836 28.7891 18.3984 27.2656 19.9219C26.3164 20.8711 25.7539 21.5508 25.3555 22.2188C23.1758 25.8984 22.9414 30.0469 24.6758 34.0313C24.8164 34.3359 25.3906 35.3086 25.9648 36.1992C28.4844 40.0781 29.2227 42.4102 29.3398 46.875C29.3984 49.207 29.4219 49.418 29.6445 49.6641C29.9609 50.0156 30.4766 50.0039 30.8398 49.6289C31.1211 49.3594 31.1328 49.3008 31.1328 47.5547C31.1211 42.6797 30.1367 39.3047 27.6172 35.5078C25.9883 33.0586 25.4375 31.5938 25.3203 29.2969C25.0273 24.1055 28.5078 19.4766 33.6641 18.1992C34.2031 18.0703 34.9766 18 35.9961 18C37.7773 17.9883 38.7969 18.1875 40.4375 18.8672C42.2773 19.6289 42.7578 19.7461 44.3164 19.7344C45.8047 19.7227 46.3672 19.5938 48.2422 18.7969C49.1914 18.3984 50.5039 18.0469 51.0898 18.0469H51.5234V18.7734C51.5352 22.1719 53.9023 25.5234 57.2891 26.9297C58.4727 27.4219 59.9023 27.6563 61.7539 27.6563H63.2773L63.207 29.0859C63.0898 31.5586 62.5742 32.9883 60.8984 35.5078C58.9297 38.4844 57.8516 41.3789 57.5 44.6719C57.4414 45.2695 57.3828 48.1289 57.3828 51.0234C57.3828 56.1211 57.3711 56.3086 57.1367 56.8008C56.3867 58.3477 54.4648 58.6758 52.4609 57.5859C51.7227 57.1758 50.7148 56.1211 50.3516 55.3594C50.1875 54.9961 49.5781 52.3477 48.6992 48.2227C47.9492 44.6133 47.2578 41.5078 47.1875 41.3086C46.9531 40.7109 46.4961 40.207 45.8633 39.8789C45.3477 39.6094 45.1016 39.5625 44.2578 39.5625C43.3789 39.5625 43.1914 39.5977 42.6172 39.9023C41.4102 40.5586 41.4453 40.4297 39.875 47.9297C38.8438 52.8516 38.4102 54.7383 38.1641 55.2891C37.543 56.625 36.2656 57.7031 34.8359 58.0781C33.3477 58.4766 32.1523 58.0898 31.4609 56.9883C31.2148 56.5781 31.1914 56.3789 31.1328 54.6328C31.0742 52.793 31.0625 52.6992 30.793 52.4883C30.418 52.1836 30.0078 52.207 29.6562 52.5586L29.3516 52.8633L29.3984 54.8203C29.4336 56.6484 29.457 56.8242 29.75 57.4453C30.1836 58.3711 30.8984 59.1094 31.8242 59.5664C32.5273 59.9063 32.6914 59.9414 33.7109 59.9414C34.5664 59.9414 35.0234 59.8711 35.6797 59.6602C37.625 59.0273 39.2422 57.5039 39.9336 55.6758C40.0625 55.3242 40.7773 52.1484 41.5156 48.6328C42.2539 45.1172 42.9336 42.082 43.0273 41.8711C43.3906 41.0625 45.125 41.0625 45.4883 41.8711C45.582 42.082 46.2617 45.1172 47 48.6328C47.7383 52.1484 48.4531 55.3242 48.582 55.6758C49.2734 57.5039 50.8906 59.0273 52.8359 59.6602C54.0898 60.0703 55.6602 60.0586 56.5859 59.625C57.5117 59.1914 58.25 58.4766 58.707 57.5508L59.082 56.7773L59.1523 50.5664C59.2227 44.7539 59.2461 44.2852 59.4805 43.1836C60.043 40.6172 60.8164 38.8594 62.5391 36.2109C63.1133 35.332 63.6992 34.3359 63.8633 33.9844C64.8242 31.793 65.2227 29.1914 64.8828 27.1289C64.7305 26.1328 64.4375 25.8984 63.3594 25.8984H62.5508L62.2461 24.9023C61.8242 23.5313 61.3086 23.1445 60.6172 23.6836C60.2539 23.9648 60.2188 24.4336 60.4883 25.1953C60.582 25.4648 60.6641 25.7461 60.6641 25.8047C60.6641 25.9688 59.4453 25.793 58.4141 25.4648C57.3008 25.125 55.9648 24.2578 55.1562 23.3438C54.582 22.7109 53.6094 20.9297 53.4688 20.2617C53.3984 19.957 53.3984 19.957 54.3125 19.8984C55.9062 19.793 57.2773 19.0547 58.0625 17.8711C58.2969 17.5195 58.4492 17.3789 58.4844 17.4727C58.5195 17.5664 58.6836 18.3164 58.8594 19.1367C59.2227 20.8477 59.4219 21.2109 60.0078 21.2109C60.4414 21.2109 60.8984 20.8125 60.8984 20.4375C60.8984 20.3086 60.7695 19.6289 60.6055 18.9258C60.4414 18.2109 60.1719 16.793 60.0078 15.7617C59.668 13.6289 58.3672 6.94922 58.1797 6.32812C58.0391 5.85937 57.5938 5.33203 57.0898 5.0625C56.7734 4.88672 56.0586 4.86328 50.6445 4.82812L44.5625 4.79297L43.7773 4.04297L42.9922 3.28125H41.6328H40.2734V1.98047C40.2734 0.703123 40.2734 0.679686 39.9336 0.339842L39.5938 -1.90735e-06H37.7891C36.2422 -1.90735e-06 35.9492 0.0351543 35.6445 0.222654ZM38.5156 7.32422V12.8906H37.4961H36.4766L35.9727 12.3984L35.4688 11.9062V7.39453V2.88281L36.0195 2.32031L36.5703 1.75781H37.543H38.5156V7.32422ZM33.6875 7.34765L33.6523 11.3086L32.9258 11.3437L32.1875 11.3789V7.38281V3.39844H32.9492H33.7109L33.6875 7.34765ZM43.0977 5.80078L43.8828 6.5625H45.2422H46.6016V7.32422V8.08594H45.3711C43.918 8.08594 43.7656 8.14453 42.8516 9.07031L42.2188 9.72656H41.2461H40.2734V8.96484V8.20312H40.8477C41.3398 8.20312 41.4688 8.15625 41.668 7.89844C42.207 7.21875 41.832 6.5625 40.8828 6.46875L40.2734 6.41015V5.73047V5.03906H41.293H42.3008L43.0977 5.80078ZM56.4219 6.70312C56.4805 6.78515 56.5742 7.04297 56.6211 7.26562C56.6562 7.48828 56.7266 7.76953 56.75 7.875C56.8086 8.07422 56.5508 8.08594 52.5898 8.08594H48.3594V7.32422V6.5625H52.332C55.3672 6.5625 56.3281 6.59765 56.4219 6.70312Z" fill="#8FB568"/>
<path d="M21.7688 4.93359C21.1594 5.17969 21.007 5.74219 21.4172 6.25781L21.6516 6.5625H24.4406C27.6164 6.5625 27.7336 6.52734 27.7336 5.75391C27.7336 5.44922 27.6516 5.23828 27.4875 5.08594C27.2649 4.88672 27.007 4.86328 24.6399 4.83984C23.1399 4.82812 21.9328 4.86328 21.7688 4.93359Z" fill="#8FB568"/>
<path d="M8.58586 8.33203C8.18742 8.64844 8.16398 9.23438 8.5507 9.58594L8.82023 9.84375H18.0195C27.1132 9.84375 27.2187 9.84375 27.4765 9.60938C27.828 9.28125 27.8163 8.67188 27.4648 8.34375L27.1952 8.08594H18.0429C8.97258 8.08594 8.89055 8.08594 8.58586 8.33203Z" fill="#8FB568"/>
<path d="M39.1372 20.5312C38.8325 20.8594 38.7974 21.2812 39.0318 21.6328C39.2075 21.8906 40.3443 22.3711 41.5044 22.6875C42.4302 22.9336 45.0435 23.0391 46.0865 22.8633C47.2583 22.6641 49.063 22.043 49.3794 21.7266C49.7193 21.3867 49.731 20.8242 49.4029 20.4961C49.0865 20.1797 48.6763 20.2383 47.2466 20.7656C46.2154 21.1406 46.1568 21.1523 44.2583 21.1523C42.3599 21.1523 42.3013 21.1406 41.27 20.7656C39.8052 20.2148 39.4654 20.1797 39.1372 20.5312Z" fill="#8FB568"/>
<path d="M32.0713 39.0586C31.9189 39.1406 31.708 39.3515 31.6025 39.5273C31.4502 39.8086 31.4502 39.8789 31.6025 40.1601C31.8486 40.5937 32.2236 40.7578 33.5713 41.039C34.4971 41.2265 35.0361 41.2617 36.4775 41.2265C38.376 41.1797 38.7744 41.0625 38.9736 40.5117C39.0791 40.2304 38.9267 39.6562 38.7158 39.5273C38.6338 39.4804 37.5439 39.4336 36.29 39.4336C34.2861 39.4219 33.8994 39.3867 33.1846 39.164C32.7393 39.0234 32.3643 38.9062 32.3643 38.9062C32.3643 38.9062 32.2353 38.9765 32.0713 39.0586Z" fill="#8FB568"/>
<path d="M55.2726 39.1758C54.6163 39.3868 54.2062 39.4219 52.2257 39.4336C50.9718 39.4336 49.882 39.4805 49.7999 39.5274C49.589 39.6563 49.4366 40.2305 49.5421 40.5118C49.589 40.6524 49.7765 40.8633 49.964 40.9805C50.2452 41.168 50.5499 41.1915 52.4601 41.1797C54.3116 41.1797 54.7687 41.1446 55.5655 40.9219C56.5382 40.6524 57.0304 40.2891 57.0304 39.8438C57.0304 39.5626 56.5851 39.0586 56.2687 38.9883C56.1398 38.9532 55.6945 39.0352 55.2726 39.1758Z" fill="#8FB568"/>
</g>
<defs>
<clipPath id="clip0_372_2343">
<rect width="60" height="60" fill="white" transform="translate(5)"/>
</clipPath>
</defs>
</svg>
