<svg width="50" height="50" viewBox="0 0 50 50" fill="none" xmlns="http://www.w3.org/2000/svg">
<g opacity="0.1" clip-path="url(#clip0_629_123)">
<path d="M33.4472 46.9629C34.1503 46.7969 37.3241 45.1465 38.6718 44.248C40.4198 43.0859 41.4062 42.2949 42.8808 40.8203C47.6562 36.0742 49.4628 31.084 49.9023 21.4355C49.9706 20.0488 49.9999 16.1719 49.9804 11.9141C49.9511 5.24414 49.9413 4.70703 49.7753 4.38477C49.5409 3.92578 49.082 3.45703 48.5937 3.19336L48.1933 2.97852L39.746 2.97852C32.8417 2.97852 31.2304 3.00781 30.9179 3.11524C30.4394 3.28125 29.8339 3.82813 29.5605 4.33594L29.3456 4.73633L29.3163 13.0762C29.287 22.2461 29.2773 22.041 29.8827 22.7734C30.039 22.9687 30.4003 23.2422 30.6835 23.3789L31.1913 23.6328L35.2245 23.6328L39.2577 23.6328L39.2577 24.3457C39.2577 25.9082 38.8769 28.1055 38.33 29.7461C37.0898 33.457 34.9316 35.8008 30.8593 37.8418C30.0683 38.2422 29.2968 38.6914 29.121 38.8769C28.6718 39.3359 28.4863 39.9023 28.5351 40.6445C28.5741 41.1914 28.7109 41.543 29.7363 43.6816C30.9374 46.1914 31.162 46.5332 31.8749 46.8262C32.3144 47.0117 32.998 47.0703 33.4472 46.9629Z" fill="#162542"/>
<path d="M5.66407 46.6504C12.2363 43.7793 17.2461 38.8965 19.4629 33.2031C20.0977 31.582 20.6641 29.1113 20.9863 26.5625C21.3965 23.3691 21.4355 22.168 21.4355 13.2813C21.4355 5.08789 21.4258 4.7168 21.25 4.36523C21.0156 3.88672 20.5957 3.4668 20.0781 3.19336L19.6777 2.97852L11.1816 2.97852C2.75391 2.97852 2.68555 2.97852 2.2461 3.1836C1.71875 3.42774 1.32813 3.8086 1.03516 4.34571C0.830082 4.73633 0.830082 4.75586 0.800786 13.0762C0.77149 22.2461 0.761724 22.041 1.36719 22.7734C1.52344 22.9688 1.88477 23.2422 2.16797 23.3789L2.67579 23.6328L6.75782 23.6328C10.7324 23.6328 10.8398 23.6328 10.8398 23.8184C10.8398 24.5508 10.5859 26.709 10.3906 27.6855C10.0879 29.1895 9.76563 30.1563 9.13086 31.4941C7.78321 34.3262 5.73243 36.2305 2.2461 37.9102C0.449226 38.7695 0.0586007 39.2285 0.0488352 40.4785C0.0488353 41.1523 0.0683665 41.1914 1.17188 43.4863C1.78712 44.7559 2.42188 45.9668 2.57813 46.1621C3.27149 47.002 4.4336 47.1875 5.66407 46.6504Z" fill="#162542"/>
</g>
<defs>
<clipPath id="clip0_629_123">
<rect width="50" height="50" fill="white" transform="translate(50 50) rotate(180)"/>
</clipPath>
</defs>
</svg>
