<svg width="40" height="22" viewBox="0 0 40 22" fill="none" xmlns="http://www.w3.org/2000/svg">
<path d="M29.2569 1.0727C28.7965 1.2203 28.5366 1.71746 28.6554 2.21462C28.6851 2.36222 29.9252 3.70612 32.3536 6.25408L35.9998 10.0838L18.8009 10.0993L1.59449 10.1226L1.38656 10.2858C1.27517 10.3712 1.12664 10.5887 1.06723 10.7674C0.970693 11.0548 0.978119 11.117 1.08951 11.3578C1.15635 11.5054 1.30487 11.6918 1.41626 11.7695C1.60934 11.9015 2.40394 11.9093 18.8083 11.9326L35.9998 11.9481L32.3907 15.739C30.4005 17.8209 28.7371 19.6231 28.6999 19.7396C28.5143 20.2446 28.6999 20.7184 29.1604 20.9204C29.6802 21.1457 29.5762 21.2389 34.4181 16.1663C37.4628 12.9813 38.948 11.3733 38.9777 11.2257C39.0074 11.1092 39.0074 10.9227 38.9777 10.7985C38.948 10.6586 37.4702 9.05839 34.4626 5.89674C30.6456 1.89613 29.6802 0.940645 29.4945 1.00279C29.4797 1.00279 29.3757 1.04163 29.2569 1.0727Z" fill="#6d9f38" fill-opacity="0.2"/>
<path d="M29.1805 0.834282L29.1806 0.834635C28.5839 1.02591 28.2668 1.66011 28.4117 2.27075C28.4239 2.32397 28.4503 2.36778 28.4616 2.38633C28.4785 2.41415 28.4996 2.44427 28.5225 2.47517C28.5688 2.53744 28.6332 2.61677 28.7137 2.71155C28.8752 2.90184 29.1115 3.16611 29.4208 3.50321C30.0398 4.17799 30.9583 5.15238 32.1725 6.42646C32.1726 6.42649 32.1726 6.42652 32.1726 6.42655L35.4171 9.83431L18.8006 9.84932H18.8005L1.59415 9.87263L1.50798 9.87274L1.44018 9.92594L1.23439 10.0874C1.234 10.0877 1.2336 10.088 1.2332 10.0883C1.14711 10.1547 1.06483 10.2551 0.99963 10.3526C0.932411 10.453 0.868732 10.5722 0.830124 10.6881C0.782537 10.8298 0.744577 10.9579 0.750656 11.0914C0.756855 11.2276 0.807771 11.3441 0.862211 11.4619C0.90638 11.5591 0.972441 11.6598 1.04044 11.7454C1.10738 11.8296 1.1897 11.9163 1.27326 11.9745L1.27512 11.9758L1.27513 11.9758C1.33967 12.02 1.41157 12.0434 1.50224 12.0596C1.5901 12.0752 1.71354 12.0871 1.89465 12.097C2.25916 12.1171 2.89475 12.1311 4.0307 12.1418C6.30531 12.1632 10.6064 12.171 18.8079 12.1826H18.8081L35.4171 12.1976L32.21 15.5663L29.1805 0.834282ZM29.1805 0.834282L29.1936 0.830835M29.1805 0.834282L29.1936 0.830835M29.1936 0.830835C29.2463 0.817068 29.2967 0.801294 29.3389 0.787874L29.3492 0.78458C29.3657 0.779314 29.3824 0.773998 29.3957 0.769979C29.4037 0.767553 29.414 0.764553 29.4244 0.761967C29.4291 0.760773 29.436 0.75914 29.444 0.757629C29.5055 0.743671 29.5609 0.751312 29.5998 0.761057C29.6457 0.772562 29.6878 0.791801 29.7239 0.81138C29.796 0.850458 29.878 0.909811 29.9701 0.984715C30.1563 1.13615 30.4209 1.38202 30.7923 1.7482C31.5372 2.48258 32.7356 3.72453 34.6435 5.72416L34.6438 5.72443C36.1477 7.30542 37.2702 8.49708 38.0207 9.31135C38.3957 9.71823 38.6793 10.0324 38.8716 10.2545C38.9675 10.3652 39.0428 10.4555 39.0961 10.5241C39.1224 10.5581 39.1459 10.59 39.1644 10.6183C39.1736 10.6324 39.1836 10.6485 39.1925 10.6657C39.1993 10.6788 39.213 10.7064 39.2212 10.7416C39.2592 10.9018 39.2602 11.1271 39.2206 11.2848C39.2072 11.3405 39.1775 11.3868 39.1662 11.4044L39.1655 11.4055C39.1468 11.4347 39.123 11.4674 39.0964 11.502C39.0427 11.572 38.9667 11.6635 38.8702 11.7754C38.6764 11.9999 38.3906 12.3167 38.0122 12.7266C37.2551 13.5468 36.1214 14.7463 34.5989 16.3389C34.4968 16.4459 34.3968 16.5506 34.299 16.6531C32.0832 18.9747 30.9616 20.1498 30.3361 20.7155C30.0177 21.0035 29.7906 21.17 29.5876 21.2267C29.3692 21.2877 29.2029 21.2132 29.0916 21.1634C29.0809 21.1586 29.0707 21.154 29.0609 21.1498L29.0599 21.1493M29.1936 0.830835L29.0599 21.1493M29.0599 21.1493C28.7728 21.0234 28.5613 20.8069 28.455 20.5345C28.3494 20.2642 28.3542 19.9567 28.4645 19.6555M29.0599 21.1493L28.4645 19.6555M28.4645 19.6555C28.4756 19.6242 28.4906 19.6002 28.4959 19.5916L28.496 19.5915C28.5048 19.5774 28.5146 19.5634 28.5239 19.5508C28.5425 19.5252 28.5666 19.4948 28.5943 19.4611C28.65 19.3931 28.7281 19.3024 28.825 19.1927C29.019 18.9728 29.2941 18.67 29.6292 18.3068C30.2996 17.5802 31.214 16.6082 32.2097 15.5666L28.4645 19.6555Z" stroke="#FF014F" stroke-opacity="0.2" stroke-width="0.5"/>
</svg>
