<svg width="15" height="15" viewBox="0 0 15 15" fill="none" xmlns="http://www.w3.org/2000/svg">
<path d="M13.6279 0.034009C13.5378 0.0578947 13.4044 0.122726 13.3277 0.180735C13.251 0.23533 11.5435 2.17688 9.53585 4.5006C7.52818 6.82091 5.85402 8.75223 5.81733 8.78976L5.7473 8.85801L4.61674 7.80022C3.99309 7.21673 3.37946 6.67077 3.25606 6.58547C2.91256 6.34661 2.62575 6.25448 2.17886 6.23742C1.52187 6.21354 1.06164 6.39438 0.614749 6.85845C0.30126 7.18261 0.131176 7.49653 0.0511362 7.90941C-0.0956033 8.63621 0.0678112 9.20264 0.614749 9.90215C1.82535 11.4411 4.1465 14.3278 4.28324 14.4643C4.58339 14.7611 5.17034 14.9966 5.61056 15C5.87069 15 6.26756 14.901 6.53436 14.768C6.71778 14.6758 6.85451 14.5735 7.0346 14.3858C7.27139 14.1469 7.52818 13.7307 11.0966 7.84799C13.191 4.39141 14.9319 1.49103 14.9585 1.40231C15.0286 1.19758 15.0086 0.883652 14.9085 0.648209C14.8185 0.433239 14.575 0.184147 14.3649 0.0886049C14.1615 -0.00352478 13.8346 -0.0274105 13.6279 0.034009ZM14.1048 0.753987C14.2282 0.81882 14.3149 0.986018 14.2982 1.12592C14.2915 1.19075 12.8942 3.52812 10.5097 7.459C7.15133 12.997 6.70778 13.7102 6.52102 13.8944C6.23754 14.1777 6.0241 14.263 5.61723 14.2664C5.29707 14.2664 5.13033 14.2118 4.85686 14.0207C4.75014 13.9456 1.04496 9.34254 0.891554 9.09345C0.701459 8.78635 0.648099 8.30864 0.764824 7.92988C0.964923 7.2645 2.41279 7.08949 1.97973 7.08949C2.37326 7.16115 -0.850567 7.10848 0.556798 8.41878C1.54666 11.5204 2.21235 11.1133 2.28906 11.1406C2.32869 11.1552 3.9831 13.9658 5.19678 14.3858C6.53651 14.8495 7.44735 12.9255 7.48584 12.913C7.55921 12.8857 9.14919 9.70082 11.569 6.23742C13.6601 3.82157 14.3582 1.00066 14.4149 0.949479C14.5349 0.847113 13.9614 0.678919 14.1048 0.753987Z" fill="#6d9f38"/>
</svg>
