<svg width="45" height="45" viewBox="0 0 45 45" xmlns="http://www.w3.org/2000/svg">
                            <path d="M33.7705 39.989L35.1825 30.1448L36.5747 30.3445L35.1627 40.1886L33.7705 39.989Z" />
                            <path
                                d="M36.7683 33.544L38.3806 35.1563L36.7683 36.7685L37.7625 37.7628L40.369 35.1563L37.7625 32.5498L36.7683 33.544Z" />
                            <path
                                d="M32.5498 32.5498L29.9434 35.1563L32.5498 37.7628L33.5441 36.7685L31.9318 35.1563L33.5441 33.544L32.5498 32.5498Z" />
                            <path
                                d="M42.8091 32.7523C42.5967 32.6827 42.4308 32.5301 42.3548 32.3346C42.319 32.2418 42.2817 32.1497 42.2416 32.0583C42.1587 31.8663 42.1685 31.6427 42.2684 31.4445C42.6909 30.6091 42.5299 29.6023 41.8676 28.9406L41.4844 28.5574V2.8125C41.4844 1.64953 40.538 0.703125 39.375 0.703125H2.8125C1.64953 0.703125 0.703125 1.64953 0.703125 2.8125V32.3438C0.703125 33.5067 1.64953 34.4531 2.8125 34.4531H26.0452C26.0262 34.5684 26.0156 34.6866 26.0156 34.8061V35.5064C26.0156 36.4423 26.6133 37.2677 27.5034 37.5602C27.7158 37.6298 27.8817 37.7824 27.9577 37.9779C27.9935 38.0707 28.0308 38.1628 28.0709 38.2542C28.1538 38.4462 28.144 38.6698 28.0441 38.868C27.6216 39.7034 27.7826 40.7102 28.4449 41.3719L28.9399 41.8676C29.6016 42.5299 30.6077 42.6902 31.4438 42.2684C31.642 42.1678 31.8656 42.158 32.0583 42.2416C32.149 42.281 32.2411 42.319 32.3325 42.3548C32.5294 42.4308 32.682 42.5974 32.7516 42.8105C33.0448 43.6992 33.8702 44.2969 34.8061 44.2969H35.5064C36.4423 44.2969 37.2677 43.6992 37.5602 42.8091C37.6298 42.5967 37.7824 42.4308 37.9779 42.3548C38.0707 42.319 38.1628 42.2817 38.2542 42.2416C38.4455 42.158 38.6698 42.1678 38.868 42.2684C39.7034 42.6902 40.7102 42.5299 41.3719 41.8676L41.8676 41.3726C42.5299 40.7109 42.6909 39.7041 42.2684 38.8687C42.1678 38.6705 42.1587 38.4469 42.2416 38.2542C42.281 38.1635 42.319 38.0714 42.3548 37.98C42.4308 37.7831 42.5974 37.6305 42.8105 37.5609C43.6992 37.2677 44.2969 36.4423 44.2969 35.5064V34.8061C44.2969 33.8702 43.6992 33.0448 42.8091 32.7523ZM2.10938 2.8125C2.10938 2.42508 2.42508 2.10938 2.8125 2.10938H39.375C39.7624 2.10938 40.0781 2.42508 40.0781 2.8125V9.14062H2.10938V2.8125ZM2.8125 33.0469C2.42508 33.0469 2.10938 32.7312 2.10938 32.3438V10.5469H40.0781V27.829C39.6717 27.7847 39.2527 27.8501 38.868 28.0441C38.6705 28.1447 38.4469 28.1538 38.2535 28.0709C38.1635 28.0315 38.0714 27.9942 37.9793 27.9577C37.7831 27.8817 37.6298 27.7151 37.5602 27.502C37.2677 26.6133 36.4423 26.0156 35.5064 26.0156H34.8061C33.8702 26.0156 33.0448 26.6133 32.7523 27.5034C32.6827 27.7158 32.5301 27.8817 32.3332 27.9577C32.2411 27.9935 32.1497 28.0308 32.0583 28.0709C31.8663 28.1538 31.6427 28.1447 31.4445 28.0441C30.6084 27.6216 29.6023 27.7826 28.9406 28.4449L28.4456 28.9399C27.7833 29.6016 27.6223 30.6084 28.0448 31.4438C28.1454 31.642 28.1545 31.8656 28.0716 32.0583C28.0322 32.149 27.9942 32.2411 27.9584 32.3325C27.8824 32.5294 27.7158 32.682 27.5027 32.7516C27.2918 32.8212 27.0984 32.9224 26.9248 33.0462H2.8125V33.0469ZM42.8906 35.5064C42.8906 35.8334 42.6818 36.1216 42.3703 36.2243C41.7572 36.4254 41.2734 36.8796 41.0442 37.4702C41.0147 37.5455 40.9837 37.6207 40.9521 37.6938C40.7018 38.2704 40.7236 38.9292 41.0133 39.5023C41.1609 39.7941 41.1047 40.1456 40.8734 40.377L40.3777 40.8727C40.1456 41.1047 39.7941 41.1602 39.503 41.0126C38.9306 40.7229 38.2704 40.7018 37.6952 40.9514C37.6214 40.983 37.5462 41.014 37.4695 41.0442C36.8796 41.2734 36.4261 41.7572 36.2243 42.371C36.1223 42.6818 35.8334 42.8906 35.5064 42.8906H34.8061C34.4791 42.8906 34.1909 42.6818 34.0882 42.3703C33.8871 41.7572 33.4329 41.2734 32.8423 41.0442C32.767 41.0147 32.6918 40.9837 32.6187 40.9521C32.3529 40.8361 32.0695 40.7784 31.7848 40.7784C31.4522 40.7784 31.1189 40.8572 30.8102 41.0126C30.5177 41.1602 30.1669 41.104 29.9355 40.8727L29.4398 40.377C29.2085 40.1456 29.1523 39.7941 29.2999 39.5023C29.5896 38.9292 29.6114 38.2704 29.3611 37.6945C29.3295 37.6207 29.2985 37.5455 29.2683 37.4688C29.0391 36.8789 28.5553 36.4254 27.9415 36.2236C27.6307 36.1223 27.4219 35.8334 27.4219 35.5064V34.8061C27.4219 34.4791 27.6307 34.1909 27.9415 34.0882C28.5553 33.8871 29.0391 33.4329 29.2683 32.8423C29.2978 32.767 29.3288 32.6918 29.3604 32.6187C29.6107 32.0421 29.5889 31.3833 29.2992 30.8102C29.1516 30.5184 29.2078 30.1662 29.4391 29.9348L29.9341 29.4398C30.1655 29.2078 30.517 29.1516 30.8095 29.2999C31.3826 29.5896 32.0421 29.6114 32.6173 29.3611C32.6918 29.3287 32.767 29.2978 32.8423 29.269C33.4322 29.0391 33.8864 28.5553 34.0882 27.9422C34.1902 27.6307 34.4791 27.4219 34.8061 27.4219H35.5064C35.8334 27.4219 36.1216 27.6307 36.2243 27.9422C36.4261 28.5553 36.8796 29.0391 37.4695 29.2683C37.5448 29.2978 37.62 29.3288 37.6938 29.3604C38.269 29.6107 38.9292 29.5882 39.5023 29.2992C39.7934 29.1509 40.1456 29.2078 40.3777 29.4391L40.8727 29.9341C41.104 30.1655 41.1602 30.5177 41.0126 30.8095C40.7229 31.3826 40.7011 32.0414 40.9514 32.6173C40.983 32.6911 41.014 32.7663 41.0442 32.843C41.2734 33.4329 41.7572 33.8864 42.371 34.0882C42.6818 34.1902 42.8906 34.4791 42.8906 34.8061V35.5064Z" />
                            <path d="M3.51562 7.73438H7.73438V3.51562H3.51562V7.73438ZM4.92188 4.92188H6.32812V6.32812H4.92188V4.92188Z" />
                            <path d="M9.14062 7.73438H13.3594V3.51562H9.14062V7.73438ZM10.5469 4.92188H11.9531V6.32812H10.5469V4.92188Z" />
                            <path d="M14.7656 7.73438H18.9844V3.51562H14.7656V7.73438ZM16.1719 4.92188H17.5781V6.32812H16.1719V4.92188Z" />
                            <path
                                d="M25.3125 11.9531H5.625C4.46203 11.9531 3.51562 12.8995 3.51562 14.0625V25.3125C3.51562 26.4755 4.46203 27.4219 5.625 27.4219H15.9588L19.7283 29.9348C20.0229 30.131 20.3646 30.2344 20.7176 30.2344C21.7005 30.2344 22.5 29.4349 22.5 28.452V27.4219H25.3125C26.4755 27.4219 27.4219 26.4755 27.4219 25.3125V14.0625C27.4219 12.8995 26.4755 11.9531 25.3125 11.9531ZM26.0156 25.3125C26.0156 25.6999 25.6999 26.0156 25.3125 26.0156H21.0938V28.452C21.0938 28.7332 20.7429 28.9202 20.5087 28.7648L16.3849 26.0156H5.625C5.23758 26.0156 4.92188 25.6999 4.92188 25.3125V14.0625C4.92188 13.6751 5.23758 13.3594 5.625 13.3594H25.3125C25.6999 13.3594 26.0156 13.6751 26.0156 14.0625V25.3125Z" />
                            <path d="M4.92188 30.2344H6.32812V31.6406H4.92188V30.2344Z" />
                            <path d="M7.73438 30.2344H9.14062V31.6406H7.73438V30.2344Z" />
                            <path d="M10.5469 30.2344H11.9531V31.6406H10.5469V30.2344Z" />
                            <path d="M13.3594 30.2344H14.7656V31.6406H13.3594V30.2344Z" />
                            <path
                                d="M7.73438 17.5781C7.73438 18.3537 7.10367 18.9844 6.32812 18.9844V20.3906C7.10367 20.3906 7.73438 21.0213 7.73438 21.7969C7.73438 23.348 8.99578 24.6094 10.5469 24.6094V23.2031C9.77133 23.2031 9.14062 22.5724 9.14062 21.7969C9.14062 20.9531 8.75953 20.2036 8.16891 19.6875C8.75953 19.1714 9.14062 18.4219 9.14062 17.5781C9.14062 16.8026 9.77133 16.1719 10.5469 16.1719V14.7656C8.99578 14.7656 7.73438 16.027 7.73438 17.5781Z" />
                            <path
                                d="M23.2031 17.5781C23.2031 16.027 21.9417 14.7656 20.3906 14.7656V16.1719C21.1662 16.1719 21.7969 16.8026 21.7969 17.5781C21.7969 18.4219 22.178 19.1714 22.7686 19.6875C22.178 20.2036 21.7969 20.9531 21.7969 21.7969C21.7969 22.5724 21.1662 23.2031 20.3906 23.2031V24.6094C21.9417 24.6094 23.2031 23.348 23.2031 21.7969C23.2031 21.0213 23.8338 20.3906 24.6094 20.3906V18.9844C23.8338 18.9844 23.2031 18.3537 23.2031 17.5781Z" />
                            <path d="M11.9531 14.7656H18.9844V16.1719H11.9531V14.7656Z" />
                            <path d="M11.9531 17.5781H18.9844V18.9844H11.9531V17.5781Z" />
                            <path d="M11.9531 20.3906H13.3594V21.7969H11.9531V20.3906Z" />
                            <path d="M14.7656 20.3906H18.9844V21.7969H14.7656V20.3906Z" />
                            <path d="M11.9531 23.2031H18.9844V24.6094H11.9531V23.2031Z" />
                            <path d="M28.8281 14.7656H30.2344V16.1719H28.8281V14.7656Z" />
                            <path d="M31.6406 14.7656H38.6719V16.1719H31.6406V14.7656Z" />
                            <path d="M28.8281 17.5781H38.6719V18.9844H28.8281V17.5781Z" />
                            <path d="M28.8281 20.3906H31.6406V21.7969H28.8281V20.3906Z" />
                            <path d="M33.0469 20.3906H34.4531V21.7969H33.0469V20.3906Z" />
                            <path d="M35.8594 20.3906H38.6719V21.7969H35.8594V20.3906Z" />
                            <path d="M28.8281 23.2031H38.6719V24.6094H28.8281V23.2031Z" />
                            <path d="M28.8281 11.9531H38.6719V13.3594H28.8281V11.9531Z" />
                        </svg>