<svg width="183" height="32" viewBox="0 0 183 32" fill="none" xmlns="http://www.w3.org/2000/svg">
<path d="M41.0924 2.91736C41.1268 2.82643 41.175 2.72034 41.2026 2.68245C41.2301 2.64456 41.5055 2.68245 41.781 2.75823C41.781 2.75823 41.781 2.75823 42.1046 2.47786C42.2492 2.35662 42.2492 2.35662 42.2492 2.35662C42.3869 2.41724 42.6623 2.4627 42.8482 2.4627C43.041 2.4627 43.6952 2.10656 43.7227 2.12172C43.7227 2.12172 43.7227 2.12172 43.7296 2.14445C43.7503 2.27327 43.7503 2.27327 43.7503 2.27327C43.7709 2.41724 43.9775 2.44755 44.2185 2.34146C44.4595 2.23538 45.3753 2.41724 45.6714 2.43997C45.9675 2.46271 46.8006 2.11414 46.9728 2.12929C47.1449 2.15202 47.5994 2.34146 47.7371 2.36419C47.8748 2.38693 48.2604 2.17476 48.3568 2.13688C48.4532 2.09899 48.6942 2.10656 48.7011 1.94744C48.708 1.78831 49.2451 2.0611 49.4103 2.05352C49.4103 2.05352 49.4103 2.05351 49.5205 1.98531C49.8028 1.81103 49.8372 1.90954 49.9268 2.15202C49.9956 2.33388 49.9956 2.33389 49.9956 2.33389C50.1746 2.10656 50.4088 1.97775 50.5258 2.05352C50.636 2.1293 51.1455 2.15203 51.3934 2.09899C51.3934 2.09899 51.3934 2.09898 51.5724 1.97774C51.7377 1.87166 51.7377 1.87166 51.7377 1.87166C51.903 1.89439 52.1371 1.93986 52.261 1.97017C52.261 1.97017 52.261 1.97016 52.3299 2.03078C52.4469 2.14444 52.5227 2.28842 52.6466 2.39451C52.6742 2.41724 52.6742 2.41724 52.6742 2.41724C52.7912 2.3642 52.8738 2.25053 52.8601 2.15202C52.8463 2.05351 53.1975 1.88681 53.4522 1.82619C53.4522 1.82619 53.4522 1.82619 53.6657 2.00047C53.7208 2.04594 53.7208 2.04594 53.7208 2.04594C53.9618 2.17476 54.2854 2.18991 54.43 2.06867C54.43 2.06867 54.43 2.06868 54.5815 1.9929C54.671 1.94743 54.671 1.94744 54.671 1.94744C54.795 1.93986 54.8914 2.0232 54.8845 2.12929C54.8845 2.12929 54.8845 2.12929 54.8776 2.2278C54.8707 2.28842 54.8707 2.28842 54.8707 2.28842C54.8638 2.35662 54.9464 2.40209 55.0566 2.39451C55.0566 2.39451 55.0566 2.39451 55.0979 2.34905C55.1874 2.25054 55.2219 2.11414 55.3045 2.01563C55.4078 1.88681 55.4078 1.88681 55.4078 1.88681C55.5593 1.93986 55.759 1.97017 55.8554 1.94744C55.9518 1.9247 56.4269 1.97017 56.7712 2.26569C56.7712 2.26569 56.7712 2.26569 57.2256 1.97017C57.2945 1.9247 57.501 1.93985 57.5286 1.98531C57.7214 2.29599 57.7214 2.296 57.7214 2.296C57.9762 2.16718 58.2516 1.98531 58.3273 1.90196C58.4031 1.81861 58.6923 1.65191 58.7542 1.78073C58.8162 1.90955 59.1261 2.18234 59.2775 2.03836C59.2775 2.03836 59.2775 2.03836 59.429 2.00047C59.6976 1.93228 59.6976 1.93228 59.6976 1.93228C60.0143 1.91712 60.3104 1.90197 60.3586 1.89439C60.4068 1.88681 60.6822 1.81104 60.8888 1.76557C61.0954 1.72011 61.8459 2.01563 61.9217 1.91712C61.9217 1.91712 61.9217 1.91712 62.0181 1.8565C62.1076 1.80346 62.1076 1.80346 62.1076 1.80346C62.2315 1.78073 62.2866 1.83376 62.2246 1.92469C62.2246 1.92469 62.2246 1.9247 62.2384 1.9929C62.2522 2.0611 62.3486 2.12172 62.4243 2.16718C62.5965 2.28842 62.5965 2.28842 62.5965 2.28842C62.624 2.14445 62.6791 1.95501 62.7204 1.87166C62.7617 1.7883 63.1335 1.64433 63.471 1.68979C63.471 1.68979 63.4709 1.68979 63.7533 1.75041C63.8152 1.76557 63.8152 1.76557 63.8152 1.76557C63.8772 1.84892 63.8979 1.90955 63.8703 1.90955C63.8428 1.90955 63.7464 2.09141 63.6706 2.31116C63.5949 2.5309 62.865 2.44755 62.8099 2.47786C62.8099 2.47786 62.8099 2.47786 62.7961 2.52333C62.7755 2.56879 62.7755 2.56879 62.7755 2.56879C62.7893 2.62941 63.0991 2.84915 63.4572 3.06133C63.4572 3.06133 63.4572 3.06133 63.8772 2.87189C64.0562 2.78853 64.0562 2.78853 64.0562 2.78853C64.2766 2.73549 64.2766 2.62941 64.0562 2.55363C63.8359 2.47786 64.1044 1.84135 64.3179 1.74284C64.3179 1.74284 64.3179 1.74283 64.5796 1.73525C65.0547 1.72768 65.5435 1.84893 66.0187 1.63675C66.1495 1.57613 66.4249 1.65949 66.5557 1.76557C66.6866 1.86408 66.6866 1.86408 66.6866 1.86408C66.7486 2.07625 66.8518 2.15202 66.9207 2.03078C66.9895 1.90954 67.3407 1.60644 67.5542 1.62917C67.7607 1.6519 68.4218 1.5837 68.5801 1.35638C68.5801 1.35638 68.5801 1.35638 68.7592 1.50035C68.8074 1.53824 68.8074 1.53824 68.8074 1.53824C68.8556 1.58371 68.9795 1.74284 69.0897 1.89439C69.0897 1.89439 69.0897 1.89439 69.3238 1.758C69.3858 1.72011 69.3858 1.72011 69.3858 1.72011C69.5304 1.73526 69.6612 1.82619 69.6819 1.91712C69.7025 2.00805 69.8265 2.25811 69.8747 2.10656C69.8747 2.10656 69.8747 2.10655 69.8884 2.03078C69.8953 1.97774 69.8678 1.90955 69.8953 1.86408C69.9848 1.69738 70.1019 1.72768 70.2534 1.81861C70.6183 2.03836 70.336 1.60644 70.515 1.60644C70.6252 1.60644 70.6252 1.60644 70.6252 1.60644C70.7491 1.56097 71.0246 1.57613 71.2311 1.64433C71.2311 1.64433 71.2311 1.64433 71.4171 1.47762C71.4721 1.43216 71.6305 1.40185 71.6581 1.42458C72.0643 1.8565 72.0643 1.8565 72.0643 1.8565C72.3191 1.51551 72.684 1.36396 72.8631 1.52308C73.0421 1.68221 73.8408 1.50793 73.9785 1.59886C74.1163 1.69737 74.7429 1.43216 75.0527 1.45489C75.0527 1.45489 75.0527 1.45489 75.3144 1.31091C75.3557 1.28818 75.3557 1.28818 75.3557 1.28818C75.4383 1.32607 75.7344 1.41701 76.0098 1.48521C76.0098 1.48521 76.0098 1.4852 76.4505 1.40943C76.7604 1.35638 76.7604 1.35638 76.7604 1.35638C76.8086 1.56097 76.9601 1.64433 77.1047 1.53824C77.2493 1.43216 77.7932 1.57613 77.869 1.57613C77.9447 1.57613 78.2339 1.43973 78.4543 1.35638C78.4543 1.35638 78.4543 1.35638 78.7021 1.417C78.9845 1.4852 78.9845 1.48521 78.9845 1.48521C79.3081 1.4549 79.6111 1.46247 79.6524 1.51551C79.7006 1.56098 79.8383 1.56855 79.9278 1.49278C80.0173 1.417 80.4305 1.16695 80.5062 1.25788C80.5751 1.34881 80.8229 1.56855 80.9607 1.60644C81.0915 1.64433 81.663 1.57613 81.9315 1.46246C82.2001 1.35638 82.9231 1.46246 83.0677 1.46246C83.2123 1.46246 83.653 1.33365 83.77 1.38669C83.8871 1.43974 84.2658 1.58371 84.3347 1.57613C84.3347 1.57613 84.3347 1.57613 84.3691 1.54582C84.5825 1.36395 84.5825 1.36396 84.5825 1.36396C84.8717 1.38669 85.1678 1.40943 85.2505 1.40943C85.3331 1.40943 85.6842 1.32607 85.8908 1.30334C86.0974 1.28061 86.5587 1.34123 86.5863 1.05328C86.5863 1.05328 86.5863 1.05328 86.9925 1.31091C87.0614 1.35638 87.0614 1.35638 87.0614 1.35638C87.144 1.39426 87.3644 1.40943 87.5572 1.40943C87.75 1.40185 88.3835 1.47005 88.5762 1.36396C88.7691 1.25788 89.4232 1.13663 89.554 1.13663C89.554 1.13663 89.554 1.13664 89.6298 1.18968C89.795 1.30334 89.9121 1.46246 90.1737 1.43973C90.401 1.417 90.401 1.417 90.401 1.417C90.5111 1.27303 90.6695 1.12906 90.759 1.10633C90.759 1.10633 90.759 1.10632 90.8416 1.09874C91.1033 1.06843 91.1033 1.06844 91.1033 1.06844C91.3787 0.992662 91.7712 0.879002 91.9847 0.810804C91.9847 0.810804 91.9847 0.810793 92.1362 1.06085C92.2877 1.31091 92.5631 1.33364 92.8247 1.14421L94.0848 0.985084C94.4498 1.02297 94.4498 1.02297 94.4498 1.02297C94.856 1.06086 95.3036 1.06843 95.4413 1.05328C95.579 1.03055 95.9164 1.26545 95.9371 1.15179C95.9577 1.03813 96.1092 0.939621 96.2332 1.12906C96.3571 1.3185 97.2247 1.10632 97.5346 1.1139C97.8375 1.12148 98.6845 0.932041 98.7602 0.901731C98.7602 0.901731 98.7602 0.90173 98.7878 0.924462C99.2835 1.29576 99.2835 1.29577 99.2835 1.29577C99.917 1.22757 100.489 1.19725 100.557 1.21999C100.557 1.21999 100.557 1.21998 100.571 1.20483C100.75 1.02297 100.902 0.909302 101.212 1.06085C101.363 1.12905 101.363 1.12906 101.363 1.12906C101.625 1.03055 102.058 0.916887 102.32 0.878999C102.32 0.878999 102.32 0.878991 102.554 0.871414C102.878 0.863836 102.878 0.86384 102.878 0.86384C103.229 0.894151 103.566 0.962354 103.635 1.02297C103.704 1.08359 103.918 1.20483 103.945 1.13663C103.973 1.06843 104.186 0.909309 104.365 0.878999C104.544 0.848689 105.136 0.825955 105.26 0.901731C105.26 0.901731 105.26 0.901724 105.26 0.977499C105.247 1.31091 105.247 1.31091 105.247 1.31091C105.488 1.26545 105.887 1.15936 106.135 1.08358C106.135 1.08358 106.135 1.08359 106.39 1.22756C106.5 1.28818 106.755 1.29576 106.837 1.22756C107.044 1.0457 107.285 1.09875 107.519 1.06844C107.746 1.03813 107.746 1.03812 107.746 1.03812C107.987 0.969923 108.283 0.878992 108.4 0.848682C108.517 0.810794 108.868 1.03055 109.054 1.00024C109.24 0.969932 109.826 0.916889 109.929 0.916889C110.032 0.916889 110.273 0.788062 110.335 0.848682C110.397 0.901725 110.865 1.21998 111.244 1.43973C111.244 1.43973 111.244 1.43974 111.285 0.818377C111.285 0.803222 111.499 0.772908 111.588 0.803219C112.112 1.00024 112.112 1.00024 112.112 1.00024C112.36 0.924467 112.986 0.825956 113.516 0.795645C113.516 0.795645 113.516 0.795645 113.998 0.795645C114.04 0.795645 114.04 0.795645 114.04 0.795645C114.095 0.977507 114.59 1.03054 115.141 0.909304C115.141 0.909304 115.141 0.90931 115.658 0.939621C115.789 0.947198 115.768 1.16694 115.61 1.25029C115.541 1.28818 115.541 1.28818 115.541 1.28818C115.424 1.30334 115.41 1.35639 115.513 1.40185C115.616 1.44732 115.913 1.46247 115.913 1.3185C115.913 1.17452 116.071 0.719863 116.271 0.681975C116.47 0.651665 117.159 0.863838 117.379 0.82595C117.379 0.82595 117.379 0.82595 117.593 0.82595C117.827 0.82595 118.088 0.833532 118.288 0.924462C118.639 1.08359 118.639 1.08358 118.639 1.08358C118.97 0.962344 119.355 0.795645 119.514 0.712292C119.672 0.628939 119.906 1.02297 119.934 1.03055C119.961 1.03813 120.113 0.947194 120.244 0.86384C120.244 0.86384 120.244 0.863843 120.395 0.985084C120.629 1.16695 120.767 1.15179 120.788 0.833535C120.794 0.750182 120.794 0.750182 120.794 0.750182C120.939 0.659251 121.125 0.697139 121.208 0.833535C121.29 0.969931 121.82 0.878996 122.103 0.86384C122.385 0.848685 123.225 0.788064 123.349 0.803219C123.349 0.803219 123.349 0.803217 123.404 0.659243C123.418 0.621356 123.659 0.591046 123.7 0.636512C123.804 0.73502 123.748 1.02297 124.017 0.901731C124.12 0.856265 124.12 0.856267 124.12 0.856267C124.155 0.628941 124.444 0.560733 124.761 0.704707C124.761 0.704707 124.761 0.704717 125.057 0.833535C125.126 0.863846 125.849 0.788062 125.904 0.742597C126.103 0.568313 126.296 0.39403 126.365 0.82595C126.372 0.856261 126.372 0.856267 126.372 0.856267C126.434 0.879 126.592 0.916884 126.73 0.947194C126.868 0.977504 127.267 1.03813 127.315 0.985084C127.363 0.932041 127.508 0.75018 127.529 0.712292C127.549 0.674404 127.763 0.553156 127.949 0.515268C128.135 0.47738 128.651 0.644087 128.679 0.598622C128.706 0.560734 128.995 0.522853 129.099 0.606206C129.195 0.697137 129.594 0.924458 129.684 0.848682C129.773 0.780484 130.07 0.644091 130.138 0.697133C130.207 0.750176 130.441 0.863844 130.455 0.772914C130.469 0.681983 130.627 0.568322 130.765 0.72745C130.765 0.72745 130.765 0.727446 130.896 0.735023C131.164 0.750179 131.164 0.750182 131.164 0.750182C131.254 0.932043 131.405 0.985085 131.502 0.856267C131.598 0.735026 131.908 0.431916 131.929 0.492536C131.949 0.553157 132.108 0.681981 132.218 0.628938C132.328 0.575895 132.659 0.484968 132.686 0.538011C132.686 0.538011 132.686 0.538001 132.707 0.598622C132.769 0.78806 133.003 0.795638 133.03 0.681975C133.12 0.303097 133.354 0.318261 133.616 0.477389C133.822 0.606208 133.822 0.606206 133.822 0.606206C134.022 0.545586 134.387 0.431921 134.635 0.356146C134.635 0.356146 134.635 0.356142 134.828 0.553158C135.034 0.772907 135.261 0.833535 135.537 0.644097C135.557 0.628941 135.661 0.666819 135.695 0.704707C135.922 0.939611 135.922 0.939621 135.922 0.939621C136.005 0.84869 136.136 0.68956 136.212 0.583475C136.212 0.583475 136.212 0.583475 136.28 0.583475C136.577 0.583475 136.577 0.583475 136.577 0.583475C136.9 0.62894 137.21 0.659248 137.265 0.65167C137.32 0.644092 137.547 0.568317 137.685 0.545585C137.823 0.522852 138.326 0.818381 138.491 0.72745C138.656 0.628942 139.145 0.522854 139.214 0.68956C139.283 0.856266 139.937 0.553159 140.219 0.530426C140.501 0.507694 141.252 0.704715 141.266 0.606206C141.286 0.507698 141.39 0.257642 141.445 0.348572C141.445 0.348572 141.445 0.348566 141.472 0.401609C141.5 0.447075 141.5 0.447073 141.5 0.447073C141.52 0.500116 141.727 0.560742 141.954 0.583475C142.188 0.606207 142.684 0.825958 142.567 0.916889C142.45 1.0154 140.887 1.04571 140.563 1.10633C140.24 1.16695 140.267 1.36396 140.467 1.29577C140.467 1.29577 140.467 1.29576 140.674 1.37154C140.694 1.37911 140.694 1.37912 140.694 1.37912C140.749 1.31092 140.949 1.1821 141.135 1.09117C141.321 1.00024 141.582 1.53067 141.658 1.5534C141.734 1.57613 141.837 1.37154 141.83 1.28061C141.83 1.28061 141.83 1.2806 141.851 1.20483C141.941 0.901726 141.92 0.962344 141.713 0.894146C141.459 0.803215 141.459 0.803219 141.459 0.803219C141.218 0.871417 140.99 0.947189 140.942 0.977499C140.942 0.977499 140.942 0.97751 140.894 1.00024C140.653 1.13664 140.653 1.13663 140.653 1.13663C140.928 1.05328 141.369 1.11389 141.631 1.27302C141.892 1.43215 142.478 1.47005 142.636 1.42458C142.794 1.37912 143.359 1.49278 143.504 1.44732C143.648 1.39427 143.634 1.06843 143.593 0.992657C143.545 0.916882 143.325 0.72745 143.207 0.72745C143.09 0.72745 142.918 0.666828 143.084 0.583475C143.249 0.507699 143.703 0.234908 143.731 0.181865C143.758 0.128823 144.096 0.151551 144.144 0.189439C144.192 0.227327 144.412 0.477381 144.516 0.598622C144.619 0.719862 145.191 0.992663 145.239 1.04571C145.287 1.09875 145.356 0.856263 145.335 0.757755C145.335 0.757755 145.335 0.757756 145.28 0.735023C145.074 0.644093 145.074 0.644097 145.074 0.644097C144.846 0.575899 144.715 0.416761 144.777 0.303097C144.777 0.303097 144.777 0.303099 144.743 0.257634C144.66 0.151548 144.619 0.0227373 144.798 0.0757801C145.08 0.166711 145.08 0.166707 145.08 0.166707C145.397 0.212172 145.81 0.287952 146.003 0.348572C146.196 0.409193 147.008 0.197014 147.119 0.151549C147.236 0.106083 147.484 0.0606204 147.649 0C147.649 0 147.649 1.38885e-06 147.8 0.0606218C147.828 0.0681994 147.876 0.0530443 147.89 0.0606218C147.993 0.166708 147.993 0.166707 147.993 0.166707C148.103 0.287948 148.255 0.32584 148.337 0.242487C148.42 0.159134 148.723 0.166712 148.868 0.242487C149.012 0.318263 149.556 0.16671 149.77 0.287951C149.77 0.287951 149.77 0.287949 149.949 0.416768C149.969 0.431923 149.88 0.560744 149.866 0.644097C149.852 0.719872 149.852 0.719865 149.852 0.719865C149.873 0.803218 149.942 0.750173 150.017 0.598622C150.086 0.44707 150.548 0.318258 150.527 0.272792C150.506 0.227327 150.568 0.0909269 150.727 0.0909269C150.885 0.0909269 151.512 0.303105 151.766 0.394036C152.028 0.484967 152.779 0.272796 152.827 0.287951C152.882 0.303106 153.006 0.378876 152.978 0.424341C152.951 0.469806 152.779 0.606208 152.689 0.666828C152.6 0.727449 152.827 1.25029 153.226 1.31091C153.226 1.31091 153.226 1.31091 153.385 0.977499C153.508 0.712285 153.509 0.712292 153.509 0.712292C153.281 0.371302 153.309 0.0530461 153.57 0.0151583C153.57 0.0151583 153.57 0.0151597 153.646 0.0757801C153.805 0.197021 153.846 0.431918 154.114 0.447073C154.121 0.447073 154.121 0.484966 154.121 0.500121C154.17 0.878999 154.176 0.863842 154.583 0.924462C154.789 0.954772 154.789 0.954767 154.789 0.954767C155.058 1.0457 155.285 0.977502 155.285 0.803219C155.285 0.628935 155.381 0.219752 155.498 0.204597C155.498 0.204597 155.498 0.204596 155.526 0.227329C155.684 0.363725 155.684 0.363719 155.684 0.363719C155.843 0.522848 155.843 0.681982 155.684 0.712292C155.526 0.742602 155.567 1.16694 155.691 1.1821C155.815 1.19725 156.16 0.932041 156.215 0.985084C156.27 1.0457 156.462 1.1821 156.524 1.17452C156.524 1.17452 156.524 1.17452 156.559 1.15179C156.607 1.12148 156.607 1.12147 156.607 1.12147C156.655 1.07601 156.759 0.985083 156.848 0.924462C156.931 0.863842 157.289 1.17452 157.358 1.07601C157.426 0.977503 157.688 0.810798 157.812 0.86384C157.936 0.916883 158.356 1.01539 158.446 0.977499C158.535 0.939611 158.749 0.757755 158.776 0.86384C158.804 0.969926 158.955 1.22757 159.065 1.21241C159.065 1.21241 159.065 1.21241 159.134 1.17452C159.589 0.947196 159.589 0.947194 159.589 0.947194C160.009 1.16694 160.401 1.37154 160.47 1.40943C160.539 1.44731 160.732 1.53067 160.752 1.50794C160.773 1.4852 160.821 1.31092 160.849 1.19725C160.883 1.07601 161.276 1.15936 161.386 1.20483C161.496 1.25029 161.778 1.22756 161.785 1.30334C161.792 1.37912 162.178 1.26545 162.295 1.16694C162.419 1.06843 162.949 1.00023 163.018 0.932036C163.018 0.932036 163.018 0.932034 163.093 0.871414C163.135 0.833526 163.231 0.780483 163.238 0.78806C163.679 1.20483 163.679 1.20483 163.679 1.20483C163.727 0.856261 163.94 0.613781 164.161 0.674402C164.381 0.735022 164.691 1.25788 164.718 1.18968C164.746 1.12148 164.815 0.939614 164.849 0.909304C165.008 1.0457 165.18 1.16695 165.304 1.3185C165.338 1.36396 165.221 1.50036 165.207 1.59886C165.187 1.68979 165.187 1.68979 165.187 1.68979C165.2 1.79588 165.297 1.89438 165.407 1.90196C165.407 1.90196 165.407 1.90197 165.455 1.86408C165.738 1.6216 165.861 1.70494 165.923 2.00805C165.93 2.0232 165.93 2.02321 165.93 2.02321C166.096 2.01563 166.233 1.93985 166.24 1.8565C166.247 1.77314 166.247 1.59129 166.151 1.56856C166.054 1.54583 166.206 1.27303 166.343 1.23514C166.481 1.19726 166.75 1.59129 166.791 1.81103C166.791 1.81103 166.791 1.81104 166.77 2.01563C166.764 2.09141 166.598 2.22779 166.516 2.22022C166.137 2.20506 166.137 2.20507 166.137 2.20507C165.724 2.14445 165.4 2.18991 165.414 2.31873C165.428 2.44755 166.04 2.50817 166.13 2.64457C166.213 2.77339 166.24 3.02344 166.261 3.11437C166.282 3.20531 166.158 3.52356 166.04 3.66753C166.04 3.66753 166.04 3.66754 165.923 3.78878C165.779 3.93275 165.62 4.06915 165.462 4.20554C165.448 4.2207 165.448 4.2207 165.448 4.2207C165.421 4.2207 165.407 4.09188 165.414 3.91759C165.421 3.75089 165.138 3.31139 165.015 3.39474C164.891 3.47809 164.574 3.76604 164.656 3.85697C164.656 3.85697 164.656 3.85697 164.718 3.90243C164.794 3.96306 164.794 3.96306 164.794 3.96306C164.884 4.0161 164.918 4.09946 164.863 4.13735C164.808 4.17524 164.718 4.34194 164.78 4.41014C164.842 4.47834 166.089 4.65262 165.999 4.69051C165.91 4.72839 165.834 4.80417 166.02 4.79659C166.206 4.78901 166.357 5.19062 166.419 5.18304C166.474 5.17547 166.612 5.11485 166.591 5.07696C166.571 5.03149 166.612 4.94815 166.729 4.97846C166.729 4.97846 166.729 4.97845 166.832 5.00876C167.184 5.20578 167.342 5.37249 167.197 5.38764C167.046 5.4028 166.619 5.53161 166.619 5.6377C166.619 5.74379 166.784 5.97869 166.894 6.11509C166.998 6.25149 167.562 6.31967 167.604 6.28179C167.645 6.2439 167.907 6.15297 168.058 6.21359C168.21 6.27421 168.554 6.3121 168.451 6.1454C168.347 5.97869 168.843 5.38764 169.043 5.10727C169.043 5.10727 169.043 5.10727 169.263 5.09969C169.587 5.09211 169.587 5.09212 169.587 5.09212C169.683 4.8951 169.766 4.80417 169.786 4.8951C169.8 4.98603 169.91 5.25882 169.986 5.16031C170.062 5.0618 170.351 4.93299 170.502 5.05423C170.654 5.17547 171.205 5.45584 171.377 5.4028C171.549 5.34976 172.024 5.01634 172.382 5.12242C172.382 5.12242 172.382 5.12243 172.706 5.21336C172.713 5.21336 172.74 5.11485 172.782 5.08454C172.85 5.01634 172.94 4.91026 173.009 4.91784C173.243 4.94057 173.243 4.94057 173.243 4.94057C173.188 5.10727 173.085 5.31944 173.016 5.41037C172.947 5.50888 173.009 5.94838 173.381 6.09993C173.381 6.09993 173.381 6.09992 173.573 5.63012C173.622 5.52403 173.856 5.45583 174.021 5.41795C174.083 5.40279 174.228 5.49373 174.262 5.56951C174.31 5.67559 174.303 5.78925 174.462 5.66043C174.599 5.54677 174.737 5.52404 174.827 5.68316C174.889 5.80441 174.957 5.96353 174.916 6.06962C174.834 6.25905 174.661 6.41818 174.537 6.59247C174.407 6.77433 174.407 6.77433 174.407 6.77433C174.503 6.95619 174.785 7.18352 175.033 7.27445C175.281 7.36539 175.798 7.41085 175.983 7.41085C176.169 7.41085 176.913 7.87308 177.023 8.03221C177.133 8.19134 177.712 8.28985 177.753 8.32773C177.788 8.3732 177.788 8.69902 177.76 9.04001C177.76 9.04001 177.76 9.04001 177.973 9.31281C178.056 9.41889 178.056 9.41889 178.056 9.41889C178.104 9.56287 177.994 9.74473 177.808 9.82809C177.808 9.82809 177.808 9.82808 177.677 9.9569C177.471 10.1615 177.491 10.1842 177.333 10.0706C177.306 10.0554 177.292 10.0251 177.264 10.01C177.003 9.83567 177.003 9.83566 177.003 9.83566C176.892 10.0554 176.748 10.116 176.679 9.9569C176.61 9.80535 176.004 9.76746 175.832 9.79777C175.66 9.82808 175.185 10.0099 175.412 10.0857C175.639 10.1615 176.059 10.4419 175.977 10.5783C175.977 10.5783 175.977 10.5783 176.149 10.6692C176.438 10.8283 176.438 10.8283 176.438 10.8283C176.638 10.5858 176.81 10.4191 176.817 10.4722C176.824 10.5252 176.982 10.6465 177.113 10.6692C177.244 10.6919 177.085 11.0935 176.872 11.1466C176.872 11.1466 176.872 11.1466 176.762 11.2678C176.638 11.4042 176.638 11.4042 176.638 11.4042C176.534 11.6391 176.514 11.8665 176.596 11.9043C176.679 11.9422 176.706 12.2074 176.493 12.4196C176.28 12.6318 175.791 13.1925 175.86 13.2153C175.928 13.238 176.066 13.3971 175.97 13.5108C175.97 13.5108 175.97 13.5108 175.894 13.5108C175.729 13.5184 175.729 13.5184 175.729 13.5184C175.563 13.5638 175.391 13.7608 175.329 13.9578C175.329 13.9578 175.329 13.9579 175.508 14.117C175.563 14.17 175.288 15.0793 175.205 15.1324C175.019 15.2612 175.019 15.2612 175.019 15.2612C174.813 15.3976 174.648 15.587 174.648 15.6855C174.648 15.784 174.393 16.1175 174.338 16.2538C174.338 16.2538 174.338 16.2539 174.255 16.3524C174.062 16.5721 174.062 16.5721 174.062 16.5721C174.193 16.7994 174.296 17.1783 174.296 17.4208C174.296 17.4208 174.296 17.4208 174.248 17.633C174.179 17.9361 174.179 17.9361 174.179 17.9361C174.427 17.9664 174.531 18.08 174.407 18.1861C174.283 18.2846 173.759 18.5802 173.546 18.5726C173.546 18.5726 173.546 18.5726 173.332 18.5802C173.009 18.5953 173.009 18.5953 173.009 18.5953C172.768 18.7999 172.506 18.9893 172.417 19.0121C172.417 19.0121 172.417 19.0121 172.41 18.9969C172.224 18.6938 172.031 19.1333 171.818 18.9893C171.639 18.8681 171.404 18.8151 171.177 18.7544C171.157 18.7469 171.157 18.7469 171.157 18.7469C171.067 18.9363 170.847 19.0121 170.675 18.906C170.502 18.7999 169.993 19.0727 169.952 19.0803C169.952 19.0803 169.952 19.0803 169.938 19.0651C169.793 18.9136 169.566 19.0651 169.47 19.0045C169.187 18.8378 169.187 18.8378 169.187 18.8378C168.946 18.959 168.554 18.9439 168.299 18.8151C168.299 18.8151 168.299 18.8151 168.044 19.0272C167.996 19.0651 167.996 19.0651 167.996 19.0651C167.886 19.05 167.473 18.9287 167.08 18.7999C167.08 18.7999 167.08 18.7999 166.715 19.05C166.653 19.0879 166.653 19.0879 166.653 19.0879C166.543 19.0727 166.337 19.0803 166.199 19.1106C166.061 19.1409 165.593 18.9818 165.483 18.9439C165.373 18.906 165.001 18.9666 164.884 19.0348C164.767 19.103 164.147 19.0197 163.885 19.0424C163.885 19.0424 163.885 19.0424 163.644 19.0575C163.527 19.0651 163.376 19.0651 163.3 19.0045C163.128 18.8605 163.128 18.8605 163.128 18.8605C162.969 18.9363 162.618 19.0651 162.35 19.1485C162.35 19.1485 162.35 19.1485 162.109 19.2318C162.047 19.2546 162.005 19.3303 161.95 19.3834C161.82 19.5198 161.82 19.5198 161.82 19.5198C161.751 19.3758 161.634 19.2849 161.551 19.3152C161.468 19.3531 161.214 19.6941 161.221 19.982C161.221 19.982 161.221 19.982 161.207 20.2548C161.207 20.3003 161.207 20.3003 161.207 20.3003C160.752 20.3003 160.277 20.3382 160.153 20.3912C160.153 20.3912 160.153 20.3912 160.215 20.3381C160.663 19.9668 160.663 19.9669 160.663 19.9669C160.656 20.2927 160.752 20.5352 160.876 20.5049C161 20.4745 161.014 20.1184 161.007 19.982C161 19.8456 160.8 19.4819 160.745 19.4364C160.69 19.391 160.367 19.6183 160.243 19.7395C160.119 19.8608 160.849 20.4367 161.42 20.6034C161.42 20.6034 161.42 20.6034 161.579 20.4594C161.758 20.3003 161.758 20.3003 161.758 20.3003C161.923 20.0275 162.24 19.8683 162.467 19.9517C162.694 20.0275 163.252 20.3003 163.238 20.1108C163.238 20.1108 163.238 20.1108 163.279 19.9896C163.293 19.9441 163.293 19.9441 163.293 19.9441C163.451 19.9365 163.562 19.9593 163.541 20.0047C163.52 20.0502 163.534 20.2017 163.63 20.2169C163.727 20.2321 163.961 20.323 163.933 20.3912C163.933 20.3912 163.933 20.3912 163.92 20.3912C163.658 20.3685 163.658 20.3685 163.658 20.3685C163.438 20.5427 163.403 20.7246 163.582 20.7701C163.582 20.7701 163.582 20.7701 163.644 20.7246C163.899 20.52 163.899 20.52 163.899 20.52C164.209 20.5276 164.588 20.5731 164.739 20.6261C164.891 20.6791 165.262 20.4063 165.331 20.3836C165.331 20.3836 165.331 20.3836 165.373 20.4063C165.531 20.4897 165.531 20.4897 165.531 20.4897C165.689 20.5806 165.958 20.6109 166.13 20.5579C166.13 20.5579 166.13 20.5579 166.295 20.6943C166.343 20.7322 166.495 20.6791 166.605 20.6716C166.667 20.664 166.667 20.664 166.667 20.664C166.736 20.664 166.798 20.7398 166.798 20.8307C166.798 20.8307 166.798 20.8307 166.798 20.914C166.798 21.0277 166.798 21.0277 166.798 21.0277C166.798 21.1489 166.688 21.4066 166.557 21.596C166.557 21.596 166.557 21.596 166.275 21.5884C165.972 21.5733 165.972 21.5733 165.972 21.5733C165.552 21.5809 165.607 21.8234 166.082 22.1189C166.082 22.1189 166.082 22.1189 166.591 22.081C166.805 22.0658 166.805 22.0658 166.805 22.0658C166.915 21.9294 167.122 21.7855 167.259 21.7552C167.259 21.7552 167.259 21.7552 167.314 21.8006C167.473 21.9294 167.473 21.9294 167.473 21.9294C167.486 22.1947 167.576 22.4978 167.672 22.5963C167.672 22.5963 167.672 22.5963 167.81 22.566C167.858 22.5584 167.92 22.4371 167.907 22.3765C167.9 22.3235 167.9 22.3235 167.9 22.3235C167.81 22.278 167.61 22.2856 167.466 22.3386C167.466 22.3386 167.466 22.3386 167.28 22.2856C167.163 22.2477 167.018 22.4144 166.764 22.3386C166.412 22.2401 166.412 22.2401 166.412 22.2401C165.958 22.3462 165.455 22.5887 165.29 22.7857C165.29 22.7857 165.29 22.7857 165.497 22.9979C165.552 23.0509 165.552 23.0509 165.552 23.0509C165.662 23.0888 166.013 22.8994 166.33 22.6341C166.33 22.6341 166.33 22.6341 166.764 22.8009L167.486 23.2252C167.803 22.8766 167.803 22.8766 167.803 22.8766C167.638 22.6266 167.583 22.3007 167.679 22.1643C167.776 22.0279 168.141 21.7627 168.34 21.9825C168.34 21.9825 168.34 21.9825 168.437 22.1416C168.478 22.2022 168.43 22.3386 168.375 22.4144C168.306 22.5129 168.306 22.5129 168.306 22.5129C168.223 22.8994 168.34 23.1797 168.568 23.1343C168.795 23.0964 169.153 23.6344 169.05 23.7102C168.953 23.7859 168.65 24.089 168.836 24.0512C169.022 24.0057 170.861 23.7708 171.143 23.6495C171.425 23.5283 171.046 23.4525 170.668 23.5056C170.668 23.5056 170.668 23.5056 170.351 23.6495C170.255 23.695 170.255 23.695 170.255 23.695C170.131 23.7102 170.048 23.695 170.069 23.6495C170.089 23.6041 170.048 23.4525 169.931 23.3995C169.931 23.3995 169.931 23.3995 169.91 23.4222C169.779 23.5586 169.683 23.7102 169.566 23.8541C169.476 23.9602 169.476 23.9602 169.476 23.9602C169.573 24.1042 169.807 24.2709 170 24.3391C170.186 24.3997 170.564 23.9678 170.613 23.9223C170.668 23.8769 170.84 23.9451 170.867 24.2027C170.867 24.2027 170.867 24.2027 171.219 24.0436C171.418 23.9526 171.418 23.9526 171.418 23.9526C170.984 23.8996 170.337 23.7784 169.993 23.6723C169.642 23.5662 169.669 23.2252 169.759 23.1267C169.848 23.0282 170.096 22.7705 170.117 22.7781C170.117 22.7781 170.117 22.7781 170.124 22.8009C170.172 22.9448 170.172 23.1797 170.268 23.2176C170.551 23.3313 170.551 23.3313 170.551 23.3313C170.564 23.1115 170.626 22.8842 170.688 22.816C170.75 22.7478 171.57 22.8994 172.134 23.0206C172.134 23.0206 172.134 23.0206 172.658 22.7478C172.837 22.6569 172.837 22.6569 172.837 22.6569C172.802 22.8236 172.837 23.0054 172.912 23.0585C172.988 23.1191 173.27 23.2328 173.291 23.1115C173.312 22.9979 173.539 22.8084 173.759 22.869C173.98 22.9297 173.801 23.5359 173.904 23.6495C174.014 23.7556 174.668 23.8087 175.192 23.5889C175.192 23.5889 175.192 23.5889 175.66 23.4298C175.722 23.4071 175.722 23.4071 175.722 23.4071C175.873 23.5813 176.039 23.6874 176.087 23.6495C176.135 23.6117 176.259 23.4904 176.273 23.4601C176.273 23.4601 176.273 23.4601 176.266 23.4525C176.073 23.3313 176.073 23.3313 176.073 23.3313C175.86 23.21 175.591 23.1115 175.474 23.1191C175.474 23.1191 175.474 23.1191 175.371 23.1267C175.309 23.1343 175.226 23.157 175.178 23.1267C174.758 22.8994 174.813 23.1797 174.799 23.3995C174.799 23.445 174.799 23.4449 174.799 23.4449C174.758 23.498 174.716 23.4374 174.71 23.3237C174.703 23.21 174.296 23.1418 174.241 23.0661C174.241 23.0661 174.241 23.0661 174.255 23.0054C174.269 22.9524 174.393 22.8766 174.434 22.8842C174.668 22.9676 174.875 22.619 175.137 22.8615C175.171 22.8918 175.171 22.8918 175.171 22.8918C175.439 22.7251 175.694 22.6796 175.736 22.7933C175.736 22.7933 175.736 22.7933 175.832 22.8615C175.873 22.8918 175.873 22.8918 175.873 22.8918C176.018 22.8236 176.231 22.7023 176.348 22.6341C176.465 22.5659 176.879 22.4371 176.927 22.5508C176.975 22.6645 177.154 22.9827 177.188 22.96C177.188 22.96 177.188 22.96 177.25 22.9448C177.609 22.8463 177.608 22.8463 177.608 22.8463C177.994 22.7327 178.49 22.7023 178.703 22.7705C178.703 22.7705 178.703 22.7705 178.703 22.7933C178.683 23.0812 178.869 23.3995 178.545 23.6495C178.517 23.6723 178.566 23.8238 178.621 23.8541C178.669 23.8844 178.827 23.8769 178.855 23.839C178.958 23.7177 179.013 23.5662 179.103 23.4298C179.151 23.354 179.151 23.354 179.151 23.354C179.227 23.2782 179.309 23.2934 179.337 23.3919C179.364 23.4904 179.543 23.7556 179.626 23.7935C179.709 23.8314 179.991 23.7708 180.06 23.8314C180.129 23.892 180.349 24.0133 180.377 23.9526C180.404 23.892 180.528 23.8011 180.59 23.892C180.652 23.983 181.044 24.1042 181.23 23.8769C181.23 23.8769 181.23 23.8769 181.437 23.7329C181.451 23.7253 181.451 23.7253 181.451 23.7253C181.582 23.8541 181.637 24.0133 181.575 24.0739C181.506 24.1345 181.382 24.3467 181.485 24.3618C181.588 24.377 181.885 24.4982 181.843 24.5967C181.802 24.6877 181.788 25.0059 181.926 25.0211C182.064 25.0362 182.201 25.2484 181.85 25.4227C181.85 25.4227 181.85 25.4227 181.568 25.5894C181.471 25.6424 181.375 25.7409 181.334 25.8319C181.299 25.9304 181.299 26.0744 181.361 26.1426C181.416 26.2032 181.595 26.2335 181.692 26.2032C181.891 26.1426 181.891 26.1426 181.891 26.1426C181.891 25.9531 181.94 25.7409 182.002 25.6652C182.002 25.6652 182.002 25.6652 182.077 25.6349C182.305 25.5364 182.966 25.8091 182.993 26.0213C183 26.0819 183 26.0819 183 26.0819C182.89 26.1577 182.683 26.3017 182.539 26.4002C182.394 26.4987 182.07 26.8473 182.064 26.8927C182.057 26.9306 181.94 26.9306 181.829 26.7639C181.829 26.7639 181.829 26.7639 181.712 26.7412C181.609 26.7184 181.609 26.7184 181.609 26.7184C181.437 26.8473 181.368 27.0064 181.464 27.067C181.561 27.1276 181.885 27.6581 181.878 28.0521C181.878 28.0521 181.878 28.0521 181.891 28.4613C181.912 28.9159 181.912 28.9159 181.912 28.9159C181.52 29.1812 181.189 29.3251 181.168 29.2418C181.148 29.1584 181.031 28.9917 180.934 29.0599C180.838 29.1281 180.893 29.5221 180.79 29.5373C180.693 29.5525 180.459 29.7267 180.583 29.8783C180.583 29.8783 180.583 29.8783 180.68 29.8783C180.838 29.8783 180.996 29.7571 181.162 29.7343C181.285 29.7192 181.506 29.651 181.506 29.8783C181.506 29.9919 181.465 30.189 181.382 30.2193C181.093 30.3254 181.093 30.3254 181.093 30.3254C180.797 30.3784 180.569 30.1587 180.597 29.8252C180.597 29.8252 180.597 29.8252 180.149 29.9086C179.791 29.9768 179.791 29.9768 179.791 29.9768C179.936 30.2723 179.922 30.53 179.757 30.5375C179.592 30.5451 179.123 30.4997 179.11 30.4087C179.096 30.3178 178.958 30.1662 178.855 30.2875C178.745 30.4163 178.4 30.7118 178.387 30.6133C178.366 30.5148 178.235 30.2496 178.152 30.3481C178.07 30.4466 177.553 30.6815 177.195 30.6436C177.195 30.6436 177.195 30.6436 176.947 30.78C176.679 30.924 176.679 30.924 176.679 30.924C176.424 30.9088 175.983 30.9088 175.701 30.9316C175.701 30.9316 175.701 30.9316 175.446 30.9164C175.364 30.9088 175.364 30.9088 175.364 30.9088C175.267 30.9467 174.951 30.924 174.661 30.871C174.372 30.8179 173.56 31.0073 173.491 30.977C173.422 30.9467 173.098 30.9013 172.933 30.8785C172.768 30.8558 172.341 30.9013 172.21 30.8179C172.079 30.7346 171.549 31.1058 171.301 31.2044C171.301 31.2044 171.301 31.2044 171.26 30.8103C171.246 30.6815 171.246 30.6815 171.246 30.6815C171.067 30.7573 170.833 30.8634 170.716 30.9164C170.599 30.9619 170.385 31.1362 170.317 31.0301C170.248 30.924 169.697 31.0604 169.545 31.0755C169.387 31.0983 168.933 31.0073 168.843 30.977C168.753 30.9467 168.478 31.1437 168.423 31.1968C168.368 31.2422 168.079 31.1589 168.01 31.1286C167.934 31.0983 167.535 31.1665 167.294 31.2801C167.053 31.3938 166.171 31.0755 165.91 31.0604C165.648 31.0377 164.966 31.4014 164.849 31.4241C164.732 31.4468 164.298 31.3862 164.126 31.5529C164.126 31.5529 164.126 31.5529 163.81 31.3332C163.679 31.2423 163.348 31.3938 163.1 31.3938C162.901 31.3938 162.701 31.3104 162.494 31.3029C162.343 31.3029 162.191 31.3635 162.04 31.4014C161.696 31.4999 161.696 31.4999 161.696 31.4999C161.675 31.2726 161.675 31.2044 161.696 31.3559C161.716 31.4999 161.145 31.3332 160.945 31.409C160.945 31.409 160.945 31.4089 160.766 31.3938C160.016 31.3256 160.016 31.3256 160.016 31.3256C159.189 31.2801 158.273 31.2574 157.984 31.2726C157.695 31.2953 156.896 31.4923 156.841 31.5226C156.779 31.5529 156.497 31.5984 156.221 31.6363C156.221 31.6363 156.221 31.6363 156.146 31.5529C155.905 31.2953 155.636 31.5605 155.485 31.4847C155.209 31.3483 155.209 31.3483 155.209 31.3483C154.92 31.3786 154.562 31.3786 154.404 31.3408C154.252 31.3029 153.619 31.5605 153.268 31.606C153.268 31.606 153.268 31.606 152.93 31.4241C152.737 31.318 152.737 31.318 152.737 31.318C152.414 31.3938 152.056 31.4241 151.939 31.3786C151.828 31.3332 151.553 31.4696 151.484 31.3862C151.422 31.3029 151.126 31.1513 150.988 31.2271C150.844 31.3029 150.327 31.4999 150.183 31.515C150.038 31.5302 149.652 31.4544 149.542 31.3938C149.432 31.3407 148.792 31.5453 148.406 31.6363C148.021 31.7272 146.946 31.4999 146.864 31.5757C146.781 31.6514 146.43 31.462 146.34 31.4393C146.251 31.4241 146.024 31.4847 145.982 31.4317C145.941 31.3786 145.817 31.265 145.783 31.3256C145.748 31.3862 145.507 31.4923 145.335 31.3862C145.163 31.2801 144.564 31.5529 144.419 31.5681C144.419 31.5681 144.419 31.5681 144.337 31.515C144.027 31.318 143.758 31.3256 143.435 31.5226C143.166 31.6893 142.877 31.2801 142.705 31.4014C142.443 31.5757 142.147 31.606 141.941 31.5226C141.761 31.4468 141.686 31.4696 141.527 31.515C141.424 31.5453 141.176 31.409 141.162 31.4241C141.025 31.6666 140.859 31.3256 140.756 31.4393C140.646 31.5605 140.598 31.5075 140.481 31.4317C140.254 31.2877 140.254 31.2877 140.254 31.2877C139.964 31.3332 139.345 31.4241 138.876 31.4847C138.408 31.5454 136.804 31.4923 136.604 31.5378C136.604 31.5378 136.604 31.5378 136.418 31.5454C135.888 31.5605 135.888 31.5605 135.888 31.5605C135.31 31.5453 134.724 31.5984 134.593 31.6893C134.463 31.7803 133.767 31.6211 133.485 31.5681C133.485 31.5681 133.485 31.5681 133.216 31.5529C132.906 31.5378 132.597 31.5453 132.287 31.5529C132.087 31.5529 132.087 31.5529 132.087 31.5529C132.011 31.4165 131.922 31.3029 131.887 31.3029C131.853 31.3029 131.688 31.3559 131.591 31.4165C131.495 31.4772 131.206 31.6439 131.102 31.5757C130.999 31.5075 130.338 31.6817 129.877 31.6666C129.415 31.6514 128.052 31.5226 127.88 31.4923C127.715 31.462 127.191 31.6211 127.067 31.5302C126.943 31.4393 126.351 31.6514 126.193 31.6666C126.035 31.6817 125.429 31.7272 125.222 31.7575C125.015 31.7878 124.403 31.5832 124.251 31.6287C124.1 31.6742 123.549 31.6817 123.397 31.6363C123.246 31.5832 122.537 31.6817 122.227 31.6666C122.227 31.6666 122.227 31.6666 121.931 31.5832C121.697 31.515 121.697 31.515 121.697 31.515C121.311 31.6211 120.595 31.7121 120.099 31.7121C119.603 31.7121 117.992 31.7575 117.62 31.8257C117.62 31.8257 117.62 31.8257 117.51 31.3938C117.503 31.3635 117.503 31.3635 117.503 31.3635C117.248 31.3711 117.069 31.4241 117.104 31.4771C117.138 31.5378 117.104 31.7121 116.945 31.7045C116.787 31.6969 116.195 31.7802 115.954 31.856C115.954 31.856 115.954 31.856 115.692 31.7272C115.541 31.6514 115.541 31.6514 115.541 31.6514C115.444 31.5454 115.3 31.4544 115.217 31.4468C115.217 31.4468 115.217 31.4468 115.183 31.4771C115.114 31.5378 115.052 31.7045 115.017 31.6969C114.274 31.5757 114.274 31.5757 114.274 31.5757C113.461 31.7272 112.786 31.7575 112.773 31.659C112.759 31.5605 112.58 31.3104 112.408 31.3786C112.408 31.3786 112.408 31.3786 112.263 31.3635C111.953 31.3256 112.077 31.606 111.946 31.6666C111.822 31.7196 111.65 31.6818 111.499 31.7121C111.334 31.7424 111.175 31.8257 111.003 31.8485C110.907 31.8636 110.907 31.8636 110.907 31.8636C110.79 31.8181 110.555 31.7575 110.397 31.7196C110.239 31.6817 109.819 31.7727 109.715 31.8181C109.619 31.8636 109.158 31.7727 109.006 31.8106C108.855 31.8484 108.118 31.8863 107.698 32C107.698 32 107.698 32 107.326 31.7272C107.237 31.659 106.982 31.6666 106.885 31.7348C106.576 31.9545 106.576 31.9545 106.576 31.9545C106.252 31.8484 105.811 31.7348 105.591 31.7045C105.591 31.7045 105.591 31.7045 105.563 31.7499C105.37 32.1137 105.116 31.6439 104.895 31.8106C104.682 31.9773 104.682 31.9773 104.682 31.9773C104.448 31.8484 103.993 31.6893 103.677 31.6211C103.677 31.6211 103.677 31.6211 103.374 31.8181C103.16 31.9545 103.16 31.9545 103.16 31.9545C102.995 31.7348 102.678 31.5908 102.444 31.6514C102.444 31.6514 102.444 31.6514 102.375 31.7499C102.217 31.9848 102.093 31.6439 101.969 31.7651C101.928 31.803 101.928 31.803 101.928 31.803C101.879 31.8333 101.611 31.8106 101.335 31.7575C101.06 31.6969 99.5521 31.8788 99.4695 31.9015C99.4695 31.9015 99.4694 31.9015 99.4419 31.8788C99.2491 31.7045 99.0081 31.6136 98.8084 31.7803C98.5605 31.9924 98.5055 31.5984 98.2645 31.6893C98.0785 31.7575 98.0785 31.7575 98.0785 31.7575C97.81 31.6514 97.2247 31.6211 96.784 31.6817C96.784 31.6817 96.784 31.6817 96.3778 31.7045C96.1368 31.7196 95.7443 31.7575 95.6823 31.659C95.5102 31.3786 95.5102 31.3786 95.5102 31.3786C95.3311 31.4999 95.1246 31.5908 95.0626 31.5832C94.9937 31.5757 94.7252 31.5984 94.5186 31.5681C94.5186 31.5681 94.5186 31.5681 94.3465 31.5605C94.1881 31.5529 94.0297 31.6666 93.8645 31.7045C93.8438 31.7121 93.8438 31.7121 93.8438 31.7121C93.7887 31.6136 93.6786 31.4772 93.6028 31.4241C93.5271 31.3635 93.3343 31.6136 93.2723 31.7348C93.2723 31.7348 93.2723 31.7348 93.0933 31.7196C92.8661 31.7045 92.866 31.7045 92.866 31.7045C92.6182 31.7121 92.1775 31.7424 91.8952 31.7727C91.8952 31.7727 91.8952 31.7727 91.6266 31.7348C91.3581 31.6969 91.3581 31.6969 91.3581 31.6969C91.0551 31.7121 90.7866 31.6514 90.7728 31.5529C90.7521 31.4544 90.6971 31.2271 90.6833 31.2271C90.6695 31.2271 90.6144 31.3029 90.5938 31.3938C90.5731 31.4847 90.4079 31.7348 90.277 31.7121C90.277 31.7121 90.277 31.7121 90.2288 31.659C89.9809 31.3711 89.9878 31.3711 89.6366 31.6211C89.5953 31.6514 89.5953 31.6514 89.5953 31.6514C89.554 31.6817 89.2304 31.7272 88.8792 31.7575C88.5281 31.7878 87.6054 31.462 87.5021 31.5302C87.3988 31.5984 87.1853 31.462 87.2886 31.3711C87.3919 31.2801 87.5709 31.0225 87.385 31.0755C87.1991 31.1286 86.7791 31.4393 86.7102 31.5529C86.7102 31.5529 86.7102 31.5529 86.6482 31.5529C86.5105 31.5529 86.3728 31.4544 86.2351 31.4544C86.1112 31.4544 85.9941 31.5453 85.8702 31.5605C85.7187 31.5757 85.5465 31.5908 85.4226 31.5378C84.9888 31.3408 84.9888 31.3408 84.9888 31.3408C84.5275 31.4544 84.0179 31.5529 83.8527 31.5605C83.8527 31.5605 83.8527 31.5605 83.7218 31.515C83.5084 31.4468 83.0126 31.3332 82.8198 31.4014C82.4135 31.5529 82.4135 31.5529 82.4135 31.5529C82.0417 31.3862 81.6905 31.3256 81.6355 31.4241C81.5804 31.5226 80.6852 31.4165 80.1481 31.4014C80.1481 31.4014 80.1481 31.4014 79.6524 31.4014C79.2805 31.4014 79.2805 31.4014 79.2805 31.4014C78.8812 31.3862 78.2615 31.4393 77.9034 31.5302C77.9034 31.5302 77.9034 31.5302 77.566 31.4165C77.3801 31.3559 76.8912 31.2195 76.7466 31.1362C76.6709 31.0907 76.4505 31.121 76.4505 31.1437C76.3885 31.4696 76.2508 31.5226 75.9892 31.2801C75.9685 31.265 75.9685 31.265 75.9685 31.265C75.9341 31.2574 75.6173 31.3256 75.2593 31.4241C75.2593 31.4241 75.2593 31.4241 74.9839 31.3559C74.6465 31.2726 74.3917 31.1741 74.0749 31.4014C73.9992 31.462 73.7926 31.3862 73.648 31.3559C73.5379 31.3332 73.5379 31.3332 73.5379 31.3332C73.4208 31.2877 73.2211 31.318 73.0903 31.4014C72.9595 31.4847 72.3673 31.3408 72.2089 31.3256C72.0505 31.3029 71.3413 31.3029 71.0039 31.3711C71.0039 31.3711 71.0039 31.3711 70.756 31.1134C70.7491 31.1059 70.6734 31.1665 70.6321 31.1816C69.8609 31.318 69.8609 31.318 69.8609 31.318C69.4477 31.2195 69.0484 31.1286 68.9864 31.1286C68.9175 31.121 68.3805 31.174 67.864 31.174C67.864 31.174 67.864 31.174 67.4027 31.2422C67.3545 31.2498 67.3545 31.2498 67.3545 31.2498C67.2719 31.068 67.1686 31.0225 67.141 31.1362C67.1135 31.2498 66.3354 31.3256 65.8672 31.4014C65.8672 31.4014 65.8672 31.4014 65.4885 31.1059C65.454 31.0831 65.454 31.0831 65.454 31.0831C65.3439 31.1362 65.034 31.1816 64.7655 31.1892C64.7655 31.1892 64.7655 31.1892 64.5245 31.1059C64.3248 31.0377 64.1664 31.4544 63.8979 31.1665C63.8566 31.121 63.6913 31.1513 63.588 31.1589C63.5191 31.1589 63.4503 31.2044 63.3883 31.1968C63.2781 31.1816 63.2782 31.1816 63.2782 31.1816C63.168 31.1513 62.8788 31.1816 62.6378 31.2574C62.6378 31.2574 62.6378 31.2574 62.4932 31.0604C62.2935 30.7876 62.142 31.2347 61.8941 31.0604C61.6462 30.8861 61.784 30.636 61.6325 30.4845C61.5636 30.4163 61.3226 30.4087 61.2124 30.4618C60.9921 30.5678 60.9921 30.5678 60.9921 30.5678C60.7718 30.7421 60.6409 30.8937 60.696 30.9164C60.7511 30.9316 60.7167 31.0301 60.4619 31.0907C60.4619 31.0907 60.4619 31.0907 60.2278 31.0452C60.0901 31.0149 59.9455 30.9391 59.8146 30.9467C59.3877 30.9695 59.3877 30.9695 59.3877 30.9695C59.1329 30.6967 58.9195 30.5527 58.9195 30.6512C58.9195 30.7497 58.7129 31.1513 58.465 31.1437C58.2172 31.1362 57.6525 30.8103 57.625 30.8558C57.625 30.8558 57.625 30.8558 57.5906 30.8937C57.5286 30.9619 57.5286 30.9619 57.5286 30.9619C57.4597 31.0301 57.1843 31.068 56.9226 31.0452C56.661 31.0225 55.9104 30.8558 55.8278 30.7876C55.7452 30.7194 55.4835 30.7042 55.4766 30.8179C55.4629 30.9316 55.0979 30.9316 55.0773 30.9316C55.0566 30.9316 55.0015 30.7194 54.974 30.4466C54.974 30.4466 54.974 30.4466 54.5815 30.7042C54.4025 30.8179 54.1615 30.871 53.948 30.9316C53.8378 30.9619 53.8378 30.9619 53.8378 30.9619C53.6519 30.9467 53.5004 30.8179 53.5004 30.6664C53.5004 30.6664 53.5004 30.6664 53.5073 30.5375C53.5142 30.3936 53.5211 30.242 53.287 30.2723C53.046 30.3026 53.163 30.4769 53.1286 30.5982C53.1148 30.6512 53.1148 30.6512 53.1148 30.6512C53.0666 30.7497 52.984 30.7649 52.9289 30.6815C52.8738 30.5982 52.5984 30.4996 52.4745 30.6967C52.4745 30.6967 52.4745 30.6967 52.3781 30.8179C52.3368 30.8709 52.2404 30.9316 52.1784 30.924C52.1164 30.9164 52.1164 30.9164 52.1164 30.9164C52.0613 30.8406 51.9787 30.6739 51.9374 30.5375C51.8961 30.4011 51.538 30.3481 51.6138 30.386C51.6895 30.4315 51.5931 30.7573 51.2213 31.0225C51.2213 31.0225 51.2213 31.0225 50.8908 30.6891C50.7599 30.5603 50.7599 30.5603 50.7599 30.5603C50.6222 30.6209 50.4088 30.7346 50.2848 30.8179C50.1609 30.9013 49.4998 30.6285 49.4448 30.5982C49.4448 30.5982 49.4448 30.5982 49.3897 30.5982C49.3346 30.5982 49.3346 30.5982 49.3346 30.5982C49.2795 30.6285 49.252 30.6815 49.2795 30.7194C49.307 30.7497 49.066 30.9391 48.6667 31.0149C48.6667 31.0149 48.6667 31.0149 48.4463 30.9013C48.1089 30.7194 48.1089 30.7194 48.1089 30.7194C47.7853 30.7876 47.5512 30.7724 47.5856 30.6967C47.62 30.6133 47.4204 30.1587 47.0416 29.9162C47.0416 29.9162 47.0416 29.9162 46.5321 30.2117C46.2222 30.3936 46.2222 30.3936 46.2222 30.3936C45.7127 30.2269 45.4097 30.1056 45.5474 30.1208C45.5474 30.1208 45.5474 30.1208 45.5612 30.0905C45.7058 29.7495 45.7058 29.7495 45.7058 29.7495C46.0226 29.8177 46.3118 29.8934 46.36 29.9086C46.4082 29.9238 46.4426 29.6358 46.1052 29.6661C46.1052 29.6661 46.1052 29.6661 45.9193 29.5449C45.513 29.2797 45.513 29.2797 45.513 29.2797C45.3891 29.5449 45.2789 29.7192 45.2651 29.6585C45.2514 29.6055 45.1412 29.4312 45.0379 29.4161C44.9346 29.3933 44.7074 29.6055 44.6867 29.6585C44.6592 29.7116 44.432 29.9313 44.2736 30.0677C44.1152 30.2041 43.8742 30.8331 43.8467 30.7042C43.8191 30.5754 43.6745 30.2647 43.5644 30.2723C43.4542 30.2799 43.103 30.2269 43.0273 30.1966C42.9515 30.1662 42.7587 30.2496 42.862 30.3026C42.9653 30.3557 43.2407 30.5603 43.2545 30.6209C43.2545 30.6209 43.2545 30.6209 43.2338 30.6664C43.2201 30.6967 43.1443 30.7421 43.1168 30.727C42.924 30.6739 42.924 30.6739 42.924 30.6739C42.6761 30.583 42.4764 30.4314 42.4764 30.3329C42.4764 30.2344 42.3869 29.9541 42.2698 29.992C42.1597 30.0298 42.0633 30.4239 42.022 30.53C41.9806 30.636 41.5537 30.583 41.5124 30.5678C41.4711 30.5527 41.3747 30.2875 41.4986 30.0374C41.6226 29.7949 41.6777 29.2948 41.4918 29.5373C41.3058 29.7798 40.7274 30.3329 40.6104 30.242C40.4933 30.1511 40.2248 30.439 40.1697 30.5451C40.1146 30.6512 39.6533 30.6815 39.5775 30.5527C39.5018 30.4239 40.1008 30.1965 40.2592 30.1283C40.4176 30.0601 40.872 29.8783 40.9134 29.8177C40.9478 29.7571 40.9822 29.5297 40.9616 29.4615C40.9616 29.4615 40.9616 29.4615 40.9271 29.4539C40.8514 29.4388 40.7206 29.4236 40.6861 29.4615C40.5553 29.5979 40.5553 29.5979 40.5553 29.5979C40.4382 29.7646 40.3005 29.901 40.2592 29.8934C40.2179 29.8859 40.0871 29.7874 40.0802 29.6964C40.0733 29.6055 39.8874 29.3251 39.8254 29.2418C39.7634 29.1584 39.55 28.969 39.5087 28.9993C39.4674 29.0296 39.2126 29.219 39.0749 29.3857C39.0749 29.3857 39.0749 29.3857 39.2332 29.3933C39.5913 29.4161 39.5913 29.4161 39.5913 29.4161C39.7428 29.6434 39.8667 29.848 39.8667 29.8783C39.8667 29.9086 39.7497 30.0526 39.5982 30.0601C39.5982 30.0601 39.5982 30.0601 39.4605 30.0829C39.3503 30.098 39.3503 30.098 39.3503 30.098C39.2332 30.1359 39.0955 30.189 39.0404 30.2193C38.9922 30.2496 38.7994 30.1283 38.7306 30.189C38.6617 30.2496 38.4345 30.2875 38.3725 30.1662C38.3106 30.045 37.9456 29.7571 37.7528 29.901C37.7528 29.901 37.7528 29.901 37.622 30.0071C37.4843 30.1132 37.4843 30.1132 37.4843 30.1132C37.3741 30.0298 37.1124 29.8707 36.9059 29.7646C36.9059 29.7646 36.9059 29.7646 36.775 29.5828C36.6442 29.4009 36.6442 29.4009 36.6442 29.4009C36.4376 29.5146 36.1829 29.651 36.0727 29.704C36.0727 29.704 36.0727 29.704 36.0176 29.7798C35.9006 29.9313 35.9006 29.9313 35.9006 29.9313C35.7904 30.1283 35.5356 30.2344 35.329 30.1587C35.1225 30.0829 34.7713 29.7874 34.6336 29.7419C34.4959 29.704 34.1791 29.6737 34.2342 29.8404C34.2342 29.8404 34.2342 29.8404 34.186 29.8859C34.0965 29.9768 33.9312 29.9995 33.8211 30.0829C33.7935 30.1056 33.7935 30.1056 33.7935 30.1056C33.8486 30.2193 33.8417 30.3329 33.7866 30.3557C33.7316 30.3784 33.5594 30.2875 33.5043 30.1662C33.4492 30.0526 32.9466 29.7419 32.5541 29.7949C32.5541 29.7949 32.5541 29.7949 32.5885 30.2723C32.5954 30.4087 32.1547 30.4693 32.0721 30.3329C31.9895 30.2041 32.017 30.0829 32.2443 30.0526C32.3131 30.045 32.4233 29.8783 32.4026 29.8328C32.3131 29.6434 32.3131 29.6434 32.3131 29.6434C32.2305 29.7646 31.9757 29.8404 31.7416 29.8177C31.5075 29.7949 30.8809 30.0223 30.8051 29.9768C30.8051 29.9768 30.8051 29.9768 30.7225 29.9616C30.6192 29.9389 30.4815 29.9086 30.4126 29.9541C30.1234 30.1283 30.1235 30.1283 30.1235 30.1283C29.8274 30.0298 29.5313 29.9313 29.4762 29.9162C29.4211 29.901 29.1319 29.9313 28.884 29.9541C28.884 29.9541 28.884 29.9541 28.6843 29.8025C28.6224 29.757 28.6224 29.7571 28.6224 29.7571C28.4984 29.7192 28.3814 29.7722 28.3538 29.8707C28.3332 29.9692 28.0509 30.3178 27.803 30.3254C27.5551 30.3329 26.8872 30.2875 26.8596 30.3329C26.8596 30.3329 26.8596 30.3329 26.8321 30.3784C26.7977 30.4314 26.7977 30.4315 26.7977 30.4315C26.7495 30.4845 26.7013 30.4921 26.6806 30.4315C26.6806 30.4315 26.6806 30.4315 26.6531 30.386C26.5773 30.2723 26.5773 30.2723 26.5773 30.2723C26.4947 30.1662 26.2261 30.189 25.9783 30.3329C25.9783 30.3329 25.9783 30.3329 25.9438 30.3026C25.7166 30.0905 25.7166 30.0905 25.7166 30.0905C25.5582 30.2269 25.3517 30.3102 25.2621 30.2723C25.1726 30.2344 24.7457 30.3026 24.5736 30.2344C24.4014 30.1662 23.823 30.4011 23.6784 30.4315C23.5338 30.4693 23.0656 30.3178 22.8728 30.4315C22.8728 30.4315 22.8728 30.4315 22.6387 30.2193C22.4597 30.0602 22.4597 30.0601 22.4597 30.0601C22.1705 30.1662 21.7367 30.2572 21.5025 30.2572C21.5025 30.2572 21.5025 30.2572 21.296 30.3633C21.0825 30.4769 21.0825 30.4769 21.0825 30.4769C20.8622 30.386 20.573 30.2041 20.4421 30.0829C20.4421 30.0829 20.4421 30.0829 20.27 30.3102C20.1185 30.5072 19.9739 30.2117 19.8224 30.2117C19.6641 30.2117 19.4162 30.4011 19.3542 30.3481C19.1132 30.1662 18.8447 30.1814 18.5761 30.2041C18.2525 30.2269 17.8944 30.0753 17.619 30.3557C17.5915 30.386 17.5915 30.386 17.5915 30.386C17.5088 30.3784 17.3298 30.3178 17.1852 30.2572C17.0406 30.1965 16.4347 30.1283 16.1523 30.2269C16.1523 30.2269 16.1523 30.2269 15.9113 30.189C15.4018 30.1056 14.8991 29.9692 14.4103 29.8177C14.3001 29.7874 14.2588 29.6055 14.1693 29.4994C14.1211 29.4464 14.0453 29.3782 13.9833 29.3782C13.8663 29.3857 13.7286 29.4767 13.6322 29.4539C13.5633 29.4388 13.5633 29.4388 13.5633 29.4388C13.522 29.3024 13.3499 29.1433 13.1708 29.0902C12.9918 29.0372 12.4616 29.113 12.3377 29.1357C12.3377 29.1357 12.3377 29.1357 12.2206 29.0523C11.9658 28.878 11.656 28.8326 11.1395 28.8326C11.0982 28.8326 10.9949 28.6583 11.0156 28.6356C11.1258 28.5067 11.3323 28.4082 10.9399 28.3628C10.7608 28.34 10.7815 28.1658 10.9123 28.0521C10.9812 27.9991 10.9812 27.9991 10.9812 27.9991C11.0431 27.9309 11.0569 27.7945 11.0018 27.696C10.9536 27.5974 11.2153 27.4535 11.3117 27.5292C11.4081 27.605 11.7868 27.4838 11.8832 27.5671C11.8832 27.5671 11.8832 27.5671 11.9314 27.6581C11.9658 27.7263 11.9176 27.8324 11.9452 27.9006C11.9658 27.9612 12.0553 28.0066 12.1242 28.0369C12.1655 28.0521 12.1655 28.0521 12.1655 28.0521C12.2275 28.0142 12.3721 27.8702 12.4823 27.7263C12.5924 27.5823 12.8403 27.0746 12.7783 26.9458C12.7164 26.817 12.1517 26.9306 11.9934 26.8852C11.9934 26.8852 11.9934 26.8852 11.9727 26.8094C11.9176 26.5972 11.9176 26.5972 11.9176 26.5972C11.7937 26.4002 11.6422 26.3244 11.5733 26.4229C11.5114 26.5214 11.4287 26.9534 11.2635 26.7942C11.1051 26.6351 10.4234 26.4078 10.3133 26.3168C10.2031 26.2259 10.4992 25.9001 10.63 25.9986C10.7677 26.0971 11.1671 26.3244 11.2359 26.2789C11.2979 26.2335 11.4356 25.9759 11.5251 25.8167C11.5251 25.8167 11.5251 25.8167 11.7661 25.9758C11.8419 26.0213 12.0347 26.0289 12.0691 25.991C12.1586 25.8698 12.138 25.7788 11.9314 25.7031C11.7799 25.65 11.7799 25.65 11.7799 25.65C11.6422 25.4378 11.6422 25.2029 11.7799 25.1196C11.7799 25.1196 11.7799 25.1196 11.8625 25.0135C11.9107 24.9529 11.9107 24.9529 11.9107 24.9529C11.8832 24.8316 11.8006 24.7104 11.7317 24.6725C11.6629 24.6346 11.2566 24.4149 10.933 24.3618C10.933 24.3618 10.933 24.3618 10.8572 24.6195C10.7402 25.0362 10.7402 25.0362 10.7402 25.0362C10.4097 24.9301 10.2237 24.8089 10.3201 24.771C10.4234 24.7256 10.6025 24.6119 10.5611 24.5816C10.5198 24.5513 10.3064 24.3543 10.1687 24.2254C10.1687 24.2254 10.1687 24.2254 10.0309 24.1118C9.87946 24.0587 9.87946 24.0587 9.87946 24.0587C9.72109 24.1042 9.45943 24.0663 9.30106 23.9754C9.30106 23.9754 9.30106 23.9754 9.1358 23.9451C8.95677 23.9148 8.76398 23.9375 8.57806 23.9375C8.2682 23.9375 7.95146 23.8996 7.64849 23.9451C7.35929 23.9905 7.13206 23.7935 6.83598 23.8541C6.69138 23.8844 6.47792 23.7784 6.32643 23.695C6.11986 23.5738 6.11986 23.5738 6.11986 23.5738C5.87886 23.5738 5.42441 23.5359 5.11455 23.4828C4.80469 23.4298 3.77872 22.9524 3.42755 22.8387C3.42755 22.8387 3.42755 22.8387 3.09015 22.763C2.86292 22.7099 2.86292 22.7099 2.86292 22.7099C2.60126 22.6872 2.27075 22.6342 2.11926 22.5811C2.11926 22.5811 2.11926 22.5811 1.97466 22.5053C1.41004 22.1946 1.41004 22.1946 1.41004 22.1946C1.49955 21.8537 1.63038 21.4369 1.69235 21.2702C1.69235 21.2702 1.69235 21.2702 1.27232 21.346C1.06575 21.3839 0.955579 21.2778 0.996893 21.0883C1.02444 20.9595 1.02444 20.9595 1.02444 20.9595C1.05886 20.8231 1.03821 20.6488 0.976236 20.5806C0.914265 20.5124 0.762779 20.2851 0.845407 20.2472C0.928036 20.2018 1.23101 19.982 1.34806 19.8456C1.34806 19.8456 1.34806 19.8456 1.11395 19.7698C0.92115 19.7016 0.838522 19.6107 0.934922 19.497C1.10018 19.2849 1.10018 19.2849 1.10018 19.2849C0.941807 19.1788 0.68015 18.6635 0.528665 18.1407C0.528665 18.1407 0.528665 18.1407 0.177493 17.7315C0.0948649 17.633 0.0948649 17.633 0.0948649 17.633C0.232579 17.3526 0.267008 17.1177 0.170608 17.1025C0.0742078 17.0874 -0.0772779 16.9586 0.0466649 16.8449C0.170608 16.7312 0.0466649 16.322 0.143065 16.2993C0.239465 16.2766 0.48735 16.0341 0.411608 15.8295C0.411608 15.8295 0.411608 15.8295 0.349636 15.6401C0.280779 15.4431 0.149951 15.2309 0.184379 15.0414C0.218808 14.852 0.384065 14.655 0.549322 14.5186C0.659493 14.4277 0.955579 14.4731 1.01066 14.3746C1.13461 14.1776 1.13461 14.1776 1.13461 14.1776C1.31364 14.2003 1.53398 14.2306 1.63726 14.2382C1.73366 14.2458 2.20878 13.7836 2.29829 13.8215C2.38781 13.8593 2.93866 13.6699 3.13146 13.6623C3.13146 13.6623 3.13146 13.6623 3.31738 13.5941C3.46198 13.5411 3.73052 13.7305 3.84758 13.6699C4.04726 13.5638 4.13678 13.579 4.32269 13.6851C4.43286 13.7533 4.67386 13.7229 4.81158 13.6548C5.21783 13.4653 5.21783 13.4653 5.21783 13.4653C5.17652 13.6926 5.45883 13.6169 5.85132 13.2986C5.85132 13.2986 5.85132 13.2986 6.42283 13.3971C6.51235 13.4123 6.51235 13.4123 6.51235 13.4123C6.63629 13.3365 6.79466 13.3062 6.87729 13.3441C6.95992 13.382 7.41438 13.3592 7.74489 13.094C7.74489 13.094 7.74489 13.094 8.21312 13.3289C8.35772 13.4047 8.73643 13.1849 8.81906 13.2683C9.08072 13.5108 9.08072 13.5108 9.08072 13.5108C9.2804 13.3744 9.63157 13.1622 9.86569 13.041C9.86569 13.041 9.86569 13.041 10.0654 12.9955C10.2719 12.95 10.5543 12.95 10.7677 12.9879C11.1258 13.0561 11.4356 13.1319 11.7868 12.9349C12.0622 12.7833 12.0622 12.7833 12.0622 12.7833C12.4272 12.7682 12.7577 12.8061 12.799 12.8667C12.799 12.8667 12.799 12.8667 12.8403 12.9197C12.9298 13.0258 12.9298 13.0258 12.9298 13.0258C13.0331 13.1471 13.2053 13.094 13.3223 12.9121C13.4325 12.7303 14.2381 12.8818 14.4998 12.897C14.7614 12.9122 15.5257 12.5636 15.7254 12.556C15.7254 12.556 15.7254 12.556 15.9113 12.5636C16.3383 12.5787 16.5586 12.5636 16.7514 12.4878C16.8271 12.4575 16.9098 12.3969 16.9855 12.3969C17.1232 12.412 17.1232 12.412 17.1232 12.412C17.2472 12.3514 17.5019 12.2529 17.6947 12.1999C17.6947 12.1999 17.6947 12.1999 17.8531 12.2377C17.9839 12.2681 17.9839 12.2681 17.9839 12.2681C18.101 12.4196 18.1905 12.3666 18.1836 12.1544C18.1836 12.1544 18.1836 12.1544 18.5486 12.215C18.7689 12.2529 19.0443 12.3135 19.2371 12.1089C19.2509 12.0938 19.3611 12.1241 19.3611 12.1392C19.3749 12.2756 19.3886 12.4499 19.5952 12.3893C19.6916 12.359 19.7191 12.1468 19.8155 12.1014C20.0497 12.0028 20.3113 11.9195 20.5592 11.9119C20.8484 11.9043 20.8484 11.9043 20.8484 11.9043C21.1789 11.9422 21.5576 11.9346 21.6885 11.8816C21.8193 11.8286 22.2875 11.7604 22.4046 11.7755C22.5285 11.7907 22.921 11.8058 22.9692 11.7604C23.0174 11.7149 23.2171 11.5937 23.2377 11.6543C23.2584 11.7073 23.4237 11.8361 23.5614 11.7755C23.6991 11.7149 24.1398 11.6088 24.2224 11.677C24.305 11.7452 24.6424 11.9195 24.7251 11.874C24.8077 11.8286 24.9729 11.6012 25.0693 11.4876C25.1589 11.3815 25.5995 11.4345 25.7579 11.3891C25.7579 11.3891 25.7579 11.3891 25.9163 11.3891C26.116 11.3815 26.116 11.3815 26.116 11.3815C26.3432 11.3739 26.7357 11.4118 26.9767 11.4724C26.9767 11.4724 26.9767 11.4724 27.2108 11.5027C27.2728 11.5103 27.3554 11.4952 27.4036 11.4648C27.9063 11.1769 27.9063 11.1769 27.9063 11.1769C28.2092 11.3891 28.464 11.4876 28.4847 11.3966C28.4984 11.3133 28.6568 11.0784 28.7876 11.1466C28.7876 11.1466 28.7876 11.1466 28.8909 11.1693C28.9942 11.192 28.9942 11.192 28.9942 11.192C29.1113 11.192 29.3247 11.0632 29.4693 10.9117C29.4693 10.9117 29.4693 10.9117 29.7103 10.8889C29.8067 10.8814 29.8067 10.8814 29.8067 10.8814C29.91 10.7525 29.9031 10.5555 29.7861 10.4419C29.7861 10.4419 29.7861 10.4419 29.6621 10.4116C29.4487 10.3585 29.4555 10.5252 29.4142 10.654C29.3936 10.7071 29.2077 10.7147 29.0906 10.7298C28.8427 10.7677 28.5329 10.9041 28.3676 10.8207C28.0853 10.6768 27.8305 10.7601 27.5689 10.7374C27.2934 10.7147 27.0111 10.7298 26.7288 10.7298C26.4465 10.7298 26.1642 10.7071 25.8887 10.7374C25.4963 10.7829 25.3585 10.4949 25.1589 10.313C24.9247 10.1009 24.9247 10.1009 24.9247 10.1009C24.67 10.1009 24.3532 10.1388 24.2155 10.1842C24.0778 10.2297 23.8712 10.2448 23.7679 10.26C23.6647 10.2752 23.3273 10.0554 23.224 9.98721C23.1207 9.91901 22.7075 9.77504 22.6318 9.85839C22.6318 9.85839 22.6318 9.8584 22.5836 9.94933C22.501 10.0933 22.5147 10.1009 22.7764 10.1085C22.8177 10.1085 22.9003 10.1312 22.9003 10.1388C22.8935 10.2145 22.8866 10.3509 22.859 10.3585C22.6731 10.3888 22.4115 10.5404 22.3701 10.2297C22.3495 10.0706 22.3495 10.0706 22.3495 10.0706C22.3908 9.87355 22.439 9.68412 22.4597 9.63107C22.4734 9.58561 22.4597 9.47194 22.3908 9.49467C22.3908 9.49467 22.3908 9.49468 22.3219 9.50983C22.2393 9.53256 22.1498 9.54771 22.0672 9.56287C21.7091 9.66138 21.7091 9.66138 21.7091 9.66138C21.8468 9.85082 21.778 10.0933 21.5576 10.207C21.3373 10.3206 20.6763 10.313 20.6694 10.2297C20.6694 10.2297 20.6694 10.2297 20.69 10.1615C20.7176 10.0478 20.7176 10.0478 20.7176 10.0478C20.7658 9.91901 20.7382 9.82808 20.6556 9.83566C20.573 9.84324 20.3113 9.66138 20.3457 9.40374C20.3457 9.40374 20.3457 9.40375 20.2769 9.38101C19.6365 9.16126 19.6365 9.16126 19.6365 9.16126C19.7673 8.68387 20.029 8.33531 20.2218 8.38836C20.2218 8.38836 20.2218 8.38835 20.3595 8.43382C20.4903 8.47928 20.6143 8.56263 20.752 8.59294C20.8277 8.6081 20.9379 8.57779 20.9999 8.5399C21.1583 8.43382 21.1583 8.43382 21.1583 8.43382C21.3579 8.41866 21.6334 8.305 21.7642 8.18376C21.7642 8.18376 21.7642 8.18376 21.7573 8.07767C21.7504 7.97159 21.7504 7.97159 21.7504 7.97159C21.6058 7.8655 21.3511 7.77456 21.1789 7.77456C21.1789 7.77456 21.1789 7.77457 21.0687 7.84277C20.9792 7.89581 21.0619 8.15344 20.8346 8.09282C20.6763 8.04735 20.6763 8.04736 20.6763 8.04736C20.5179 7.91096 20.332 7.90339 20.2631 8.03221C20.1943 8.16103 19.8018 8.01705 19.8155 7.97159C19.8362 7.9337 19.8293 7.78972 19.7467 7.78972C19.6641 7.78972 19.3955 7.85035 19.3817 7.92612C19.368 8.0019 19.2716 8.22164 19.2027 8.21406C19.2027 8.21406 19.2027 8.21406 19.1889 8.19133C19.1545 8.12313 19.1614 8.02463 19.1132 7.97159C18.9204 7.73668 18.9204 7.73669 18.9204 7.73669C18.6037 7.75184 18.3007 7.75941 18.2525 7.75183C18.2043 7.74426 18.1354 7.44874 18.3695 7.13048C18.3695 7.13048 18.3695 7.13047 18.7069 7.31233C18.9686 7.44873 18.9686 7.44874 18.9686 7.44874C19.2578 7.44116 19.5057 7.31992 19.5126 7.17594C19.5195 7.03197 19.4644 6.62278 19.3749 6.62278C19.2853 6.62278 19.0306 6.69097 19.1201 6.76675C19.1201 6.76675 19.1201 6.76676 19.1476 6.83496C19.1683 6.90315 19.1683 6.90315 19.1683 6.90315C19.1476 7.01681 18.9893 7.06227 18.824 7.01681C18.6587 6.97134 18.3764 6.78949 18.5761 6.71371C18.5761 6.71371 18.5761 6.71371 18.583 6.63793C18.5899 6.53185 18.4728 6.40303 18.3764 6.3121C18.3558 6.28937 18.2043 6.41819 18.1148 6.41061C18.0253 6.40304 17.9357 6.32725 17.8669 6.25905C17.8531 6.2439 17.9426 6.14539 17.9977 6.09235C18.0115 6.07719 18.0115 6.0772 18.0115 6.0772C18.0528 6.08478 18.342 6.13782 18.6519 6.19086C18.9617 6.2439 19.7949 5.97869 19.8775 6.03174C19.8775 6.03174 19.8775 6.03173 19.9464 6.02415C20.0359 6.01657 20.1254 5.94838 20.208 5.89533C20.2356 5.88018 20.2356 5.81199 20.2218 5.78168C20.1943 5.73621 20.1943 5.73621 20.1943 5.73621C20.1392 5.69832 20.1667 5.63013 20.2562 5.59224C20.3389 5.55435 20.6349 5.48615 20.6969 5.53919C20.7589 5.59223 20.993 5.69832 21.055 5.64527C21.1169 5.59223 21.3786 5.55434 21.475 5.7059C21.5714 5.86502 21.8399 6.26663 21.8606 6.25905C21.8813 6.25148 21.8744 6.00142 21.8124 5.7059C21.8124 5.7059 21.8124 5.7059 21.7849 5.4331C21.778 5.38006 21.778 5.38007 21.778 5.38007C21.895 5.31187 22.0465 5.29671 22.1154 5.34975C22.1154 5.34975 22.1154 5.34975 22.1429 5.41037C22.2118 5.57708 22.2118 5.57708 22.2118 5.57708C22.2875 5.80441 22.4528 5.75137 22.5767 5.46342C22.5767 5.46342 22.5767 5.46342 22.742 5.31944C22.9348 5.15274 22.9348 5.15274 22.9348 5.15274C23.0312 4.93299 23.1413 4.79659 23.1827 4.84963C23.2171 4.90267 23.4856 5.07696 23.6578 5.07696C23.6578 5.07696 23.6578 5.07696 23.8093 5.15274C23.9539 5.22094 23.9539 5.22093 23.9539 5.22093C24.188 5.25882 24.3739 5.20578 24.3739 5.09969C24.3739 4.9936 24.4359 4.78902 24.5185 4.83448C24.5185 4.83448 24.5185 4.83448 24.5942 4.86479C24.7733 4.94056 24.9523 5.0618 25.1313 5.0618C25.2208 5.0618 25.3172 4.77385 25.4136 4.76628C25.5927 4.7587 25.5927 4.7587 25.5927 4.7587C25.8061 4.76628 26.0333 4.79659 26.0953 4.8269C26.1573 4.85721 26.4052 4.79659 26.3914 4.57684C26.3914 4.57684 26.3914 4.57684 26.4189 4.42529C26.4534 4.251 26.4534 4.25101 26.4534 4.25101C26.536 4.06915 26.9216 4.03126 27.321 4.16765C27.321 4.16765 27.321 4.16765 27.7754 3.78878C28.044 3.56145 28.2712 3.16742 28.7463 3.55387C28.7601 3.56903 28.7601 3.56903 28.7601 3.56903C28.9598 3.40233 29.2214 3.34928 29.3316 3.46295C29.3316 3.46295 29.3316 3.46294 29.4555 3.54629C29.5175 3.58418 29.5175 3.58418 29.5175 3.58418C29.6139 3.5766 29.8067 3.56903 29.9444 3.56903C30.0821 3.56903 30.5159 3.37958 30.6881 3.33412C30.8602 3.28865 31.4937 3.25834 31.7072 3.25076C31.9206 3.24319 32.4164 2.96283 32.5335 3.06891C32.6505 3.175 32.9259 3.48568 32.8984 3.56903C32.8708 3.65239 32.9397 3.9176 33.1119 3.91002C33.1119 3.91002 33.1119 3.91001 33.284 3.92517C33.5663 3.95548 33.5663 3.95548 33.5663 3.95548C33.7384 3.7812 33.9657 3.50841 34.069 3.34928C34.1722 3.19015 34.5372 2.79612 34.6198 2.85674C34.6198 2.85674 34.6198 2.85674 34.6818 2.88705C35.0054 3.05375 35.0054 3.05375 35.0054 3.05375C34.9572 3.24319 34.8264 3.46294 34.7093 3.53872C34.7093 3.53872 34.7093 3.53871 34.668 3.62964C34.6336 3.70542 34.6336 3.70542 34.6336 3.70542C34.6749 3.81909 34.7575 3.89486 34.8126 3.8797C34.8746 3.86455 35.1844 3.62964 35.4323 3.4402C35.4323 3.4402 35.4323 3.44021 35.7697 3.57661C35.8661 3.61449 35.8661 3.6145 35.8661 3.6145C35.9625 3.66754 36.1209 3.56903 36.2173 3.38717C36.3137 3.20531 36.6993 2.77338 36.8301 2.86431C36.8301 2.86431 36.8301 2.86432 36.961 2.89463C37.1882 2.95525 37.1882 2.95524 37.1882 2.95524C37.3879 3.09164 37.6427 3.22046 37.7528 3.24319C37.863 3.26592 37.8492 3.62965 37.8974 3.68269C37.9456 3.74331 38.1315 3.75846 38.166 3.83424C38.2004 3.91002 38.4689 3.79636 38.5034 3.67512C38.5378 3.55388 38.9922 3.58418 39.0886 3.60691C39.185 3.62964 39.5569 3.46294 39.8943 3.53872C39.8943 3.53872 39.8943 3.53872 40.211 3.56903C40.5071 3.59934 40.5071 3.59934 40.5071 3.59934C40.8307 3.67511 41.1475 3.63722 41.2163 3.51598C41.2921 3.4099 41.058 3.01587 41.0924 2.91736ZM171.921 6.56216C172.065 6.34241 171.969 6.0772 171.707 5.97111C171.707 5.97111 171.707 5.97111 171.487 5.93322C171.163 5.8726 171.163 5.8726 171.163 5.8726C170.799 5.84987 170.606 5.91049 170.737 6.01658C170.861 6.12266 171.776 6.78191 171.921 6.56216ZM175.219 8.75208C175.274 8.69903 175.219 8.4035 175.102 8.09282C175.102 8.09282 175.102 8.09282 174.613 8.08525C174.152 8.07767 174.152 8.07767 174.152 8.07767C173.938 8.3732 173.89 8.75965 174.049 8.92636C174.049 8.92636 174.049 8.92635 174.124 8.9112C174.331 8.86573 174.331 8.86573 174.331 8.86573C174.537 8.73692 174.751 8.6763 174.813 8.72934C174.875 8.78239 175.164 8.80512 175.219 8.75208ZM177.505 27.0897C177.595 27.1125 177.781 26.9458 177.918 26.726C178.063 26.5063 177.615 25.9758 177.684 25.9304C177.684 25.9304 177.684 25.9304 177.684 25.8925C177.67 25.7182 177.67 25.7182 177.67 25.7182C177.457 25.6576 177.257 25.65 177.223 25.7106C177.188 25.7712 177.319 26.0213 177.367 26.1274C177.416 26.2335 177.34 26.529 177.423 26.6502C177.505 26.7639 177.416 27.067 177.505 27.0897ZM25.6822 7.88823C25.6753 8.01705 25.5651 8.06252 25.4412 7.99432C25.3172 7.92612 25.3999 8.25195 25.7028 8.2368C25.7028 8.2368 25.7028 8.2368 25.9714 8.26711C26.4809 8.32773 26.4809 8.32773 26.4809 8.32773C26.6599 8.06252 26.6806 7.87308 26.5153 7.91097C26.357 7.94885 25.9094 7.84277 25.8887 7.75942C25.8612 7.66849 25.7855 7.45632 25.7717 7.46389C25.751 7.46389 25.6891 7.75942 25.6822 7.88823ZM32.2236 4.09946C32.3406 3.87213 32.1547 3.69784 31.8105 3.70542C31.8105 3.70542 31.8104 3.70542 31.597 3.47052C31.5901 3.46294 31.5901 3.46295 31.5901 3.46295C31.4593 3.53872 31.3285 3.69026 31.3009 3.79635C31.2734 3.90244 31.7003 4.11461 31.8242 4.14492C31.8242 4.14492 31.8242 4.14492 31.8242 4.17523C31.8242 4.43286 31.9137 4.48591 32.0928 4.26617C32.2236 4.09946 32.2236 4.09946 32.2236 4.09946ZM164.113 4.39498C164.106 4.24343 164.057 4.20554 164.009 4.30404C163.961 4.40255 163.741 4.53137 163.603 4.44802C163.465 4.35709 162.997 4.31162 163.045 4.36467C163.093 4.41771 163.128 4.55411 163.052 4.59958C162.976 4.65262 162.935 4.81175 163.293 4.71324C163.293 4.71324 163.293 4.71324 163.451 4.78143C163.672 4.87236 163.672 4.87236 163.672 4.87236C163.933 4.85721 164.119 4.53896 164.113 4.39498ZM177.677 23.748C177.794 23.8238 177.925 23.7859 177.96 23.6723C177.994 23.5586 177.753 23.1646 177.698 23.0585C177.698 23.0585 177.698 23.0585 177.54 23.2025C177.25 23.4677 177.25 23.4677 177.25 23.4677C176.996 23.4071 176.727 23.3616 176.651 23.3616C176.651 23.3616 176.651 23.3616 176.624 23.3919C176.596 23.4222 176.61 23.5207 176.638 23.5435C176.803 23.6495 176.975 23.7405 177.14 23.839C177.188 23.8693 177.188 23.8693 177.188 23.8693C177.244 23.8996 177.56 23.6723 177.677 23.748ZM28.2437 4.41771C28.4778 4.48591 28.6706 4.49348 28.6637 4.44802C28.6568 4.40255 28.7119 4.18281 28.7532 4.0843C28.8014 3.98579 28.6568 3.88728 28.5122 4.00095C28.5122 4.00095 28.5122 4.00095 28.2712 3.8494C28.0509 3.713 27.982 4.0161 27.8305 4.10703C27.679 4.19796 27.7066 4.32678 27.8374 4.44045C27.9407 4.53138 28.0027 4.62988 28.1748 4.48591C28.2437 4.41771 28.2437 4.41771 28.2437 4.41771ZM160.002 21.0504C159.919 21.1262 160.002 21.1565 160.181 21.1262C160.36 21.0959 160.849 21.4217 161.048 21.4217C161.248 21.4142 161.31 20.9671 161.09 20.9444C160.869 20.914 160.084 20.9747 160.002 21.0504ZM114.763 30.53C114.659 30.4769 114.57 30.5224 114.57 30.636C114.57 30.7497 114.522 31.0149 114.46 31.0073C114.398 30.9998 114.191 31.0377 114.198 31.1059C114.198 31.1816 114.226 31.3786 114.239 31.3862C114.253 31.3938 114.673 31.3483 115.148 31.2498C115.148 31.2498 115.148 31.2498 115.121 31.0604C115.107 30.9391 115.107 30.9391 115.107 30.9391C115.107 30.8179 114.866 30.583 114.763 30.53ZM151.642 1.30334C151.76 1.40943 151.966 1.3488 152.111 1.1821C152.111 1.1821 152.111 1.1821 152.152 1.04571C152.18 0.947198 152.118 0.8108 152.056 0.712292C151.973 0.583473 151.842 0.530433 151.677 0.644097C151.553 0.735027 151.553 0.735023 151.553 0.735023C151.346 0.818377 151.532 1.19725 151.642 1.30334ZM147.793 1.32607C148.041 1.26545 148.22 1.12147 148.179 1.01539C148.138 0.901726 147.718 0.735022 147.601 0.780487C147.484 0.825952 147.545 1.38669 147.793 1.32607ZM179.791 24.915C179.839 24.7331 179.688 24.6498 179.447 24.7331C179.447 24.7331 179.447 24.7331 179.254 24.8392C179.103 24.9226 178.965 25.0362 179.213 25.1954C179.282 25.2408 179.282 25.2408 179.282 25.2408C179.309 25.4 179.743 25.0969 179.791 24.915ZM45.2238 2.95524C45.0035 3.06133 45.1068 3.22046 45.451 3.31139C45.451 3.31139 45.451 3.31139 45.692 3.39474C45.933 3.47809 46.0226 3.31139 46.1327 3.2053C46.1809 3.15984 46.174 3.05376 46.1603 2.98556C46.1465 2.93251 45.4786 2.834 45.4028 2.87189C45.2238 2.95524 45.2238 2.95524 45.2238 2.95524ZM20.8622 6.78949C20.8346 6.67583 20.7245 6.58489 20.6143 6.57731C20.5041 6.56973 20.2769 6.66067 20.1116 6.7516C19.9464 6.84253 19.7329 7.28203 19.7398 7.34265C19.7398 7.34265 19.7398 7.34264 19.7742 7.37295C19.8087 7.40327 19.8087 7.40327 19.8087 7.40327C19.8775 7.41085 20.208 7.22898 20.5385 7.00924C20.5385 7.00924 20.5385 7.00924 20.8346 6.79707C20.8622 6.78949 20.8622 6.78949 20.8622 6.78949ZM43.585 3.46295C43.5712 3.57661 43.6814 3.60691 43.8398 3.53872C43.9982 3.47052 44.3906 3.22804 44.4526 3.12953C44.4526 3.12953 44.4526 3.12953 44.3493 3.00829C44.2736 2.91736 44.3356 2.71276 44.1083 2.75823C43.8949 2.79612 43.8949 2.79612 43.8949 2.79612C43.7503 2.97798 43.5988 3.35686 43.585 3.46295ZM109.178 1.79588C109.378 1.90196 109.392 1.90197 109.22 1.7883C109.041 1.67464 108.641 1.31849 108.586 1.43973C108.531 1.56097 108.614 1.94743 108.882 2.0611C108.882 2.0611 108.882 2.06109 108.944 2.00805C109.178 1.79588 109.178 1.79588 109.178 1.79588ZM57.0053 3.12195C57.019 3.22046 57.1361 3.19015 57.26 3.04618C57.3909 2.90221 57.4322 2.44755 57.26 2.48544C57.0879 2.52332 56.6748 2.6673 56.661 2.70519C56.6472 2.74308 56.6748 2.84159 56.7367 2.83401C56.7987 2.82643 56.9915 3.01586 57.0053 3.12195ZM81.4564 2.16718C81.0226 2.12929 80.8023 2.27326 80.9675 2.47028C80.9675 2.47028 80.9675 2.47028 81.2223 2.41724C81.4633 2.3642 81.7043 2.28084 81.9315 2.18991C81.9591 2.17476 81.9522 2.04594 81.9247 1.97774C81.9109 1.94743 81.8007 1.90954 81.7801 1.92469C81.4564 2.16717 81.4564 2.16718 81.4564 2.16718ZM18.2663 28.1809C18.3489 28.0142 18.3971 27.7338 18.3627 27.5747C18.3627 27.5747 18.3627 27.5747 18.1148 27.6353C18.0321 27.6581 17.9289 27.8627 17.8807 27.6732C17.8256 27.4535 17.7567 27.3625 17.5433 27.4989C17.5088 27.5217 17.5088 27.5217 17.5088 27.5217C17.5846 27.6884 17.7705 27.9233 17.9151 28.0369C17.9151 28.0369 17.9151 28.0369 18.0735 28.1051C18.2663 28.1809 18.2663 28.1809 18.2663 28.1809ZM157.151 19.9593C157.206 19.8532 157.055 19.7395 156.827 19.7168C156.827 19.7168 156.827 19.7168 156.69 19.785C156.538 19.8608 156.538 19.8608 156.538 19.8608C156.428 20.0351 156.4 20.2775 156.476 20.3912C156.476 20.3912 156.476 20.3912 156.566 20.3988C156.683 20.4139 156.683 20.4139 156.683 20.4139C156.821 20.3382 157.096 20.0654 157.151 19.9593ZM133.113 1.25029C133.209 1.09874 133.147 1.03812 132.975 1.12147C132.803 1.20483 132.356 1.14421 132.28 1.20483C132.28 1.20483 132.28 1.20483 132.28 1.25788C132.28 1.37912 132.183 1.53825 132.418 1.59129C132.542 1.6216 132.542 1.6216 132.542 1.6216C132.686 1.68222 133.017 1.40184 133.113 1.25029ZM160.442 4.66019C160.222 4.47833 160.215 4.43287 160.415 4.56169C160.621 4.69051 161.262 4.87995 161.317 4.83448C161.372 4.79659 161.289 4.55411 160.979 4.43287C160.979 4.43287 160.98 4.43287 160.814 4.50107C160.442 4.6602 160.442 4.66019 160.442 4.66019ZM137.547 1.57613C137.72 1.68222 137.864 1.71253 137.857 1.64433C137.85 1.57613 137.892 1.37154 137.919 1.3185C137.947 1.26546 137.864 1.06086 137.658 1.05328C137.451 1.0457 137.368 1.46247 137.547 1.57613ZM111.705 1.62917C111.533 1.62917 111.568 1.79588 111.788 1.9929C111.788 1.9929 111.788 1.99289 112.015 2.06867C112.084 2.0914 112.084 2.0914 112.084 2.0914C112.304 1.83376 111.877 1.62917 111.705 1.62917ZM44.4044 28.4613C44.2116 28.4613 44.0946 28.5674 44.1565 28.6962C44.2116 28.825 44.5077 29.0675 44.7074 28.9993C44.8933 28.9311 44.5972 28.4613 44.4044 28.4613ZM161.833 22.7933C161.861 22.8236 161.792 22.9221 161.682 23.013C161.572 23.104 161.544 23.3692 161.716 23.2858C161.716 23.2858 161.716 23.2858 161.861 23.2252C162.04 23.1494 162.04 23.1494 162.04 23.1494C162.281 23.0888 162.357 22.9297 162.226 22.8084C162.226 22.8084 162.226 22.8084 162.109 22.7024C162.067 22.6645 162.019 22.6038 161.971 22.6038C161.888 22.6038 161.888 22.6038 161.888 22.6038C161.799 22.6493 161.806 22.763 161.833 22.7933ZM159.1 20.2472C159.341 20.2321 159.416 20.1411 159.279 20.035C159.134 19.9365 158.611 20.0275 158.418 20.0654C158.218 20.0957 158.859 20.2624 159.1 20.2472ZM104.207 1.90196C104.448 2.11413 104.709 1.98531 104.792 1.60644C104.792 1.60644 104.792 1.60644 104.379 1.43216C104.283 1.39427 104.283 1.39427 104.283 1.39427C104.083 1.53066 103.945 1.66706 103.986 1.70495C103.986 1.70495 103.986 1.70495 104.007 1.72768C104.207 1.90196 104.207 1.90196 104.207 1.90196ZM37.0643 7.03954C36.9747 7.10774 36.9747 7.2214 37.0711 7.2896C37.1606 7.3578 37.56 7.53209 37.7115 7.57755C37.7115 7.57755 37.7115 7.57756 37.8561 7.59271C37.8974 7.60029 37.9663 7.53966 37.9869 7.50177C38.0076 7.45631 38.0145 7.36538 37.98 7.34265C37.7735 7.19868 37.7735 7.19867 37.7735 7.19867C37.5256 7.0547 37.1538 6.97134 37.0643 7.03954ZM24.3877 8.18376C24.0916 7.85792 23.7886 7.85792 23.4237 8.00189C23.8161 8.54748 23.823 8.54748 24.3877 8.18376Z" fill="#162542"/>
<path d="M179.35 23.1646C179.178 23.0661 179.164 22.96 179.316 22.9373C179.474 22.9145 180.032 22.566 180.28 22.4296C180.28 22.4296 180.28 22.4296 180.355 22.816C180.369 22.8766 180.369 22.8766 180.369 22.8766C180.562 22.9069 180.817 22.8842 180.934 22.8387C181.051 22.7933 181.512 22.7857 181.691 22.9524C181.691 22.9524 181.691 22.9524 181.622 23.2025C181.609 23.2404 181.471 23.2631 181.388 23.2707C181.361 23.2707 181.292 23.2025 181.306 23.1722C181.326 23.0964 181.547 23.0509 181.361 22.9448C181.313 22.9145 181.313 22.9145 181.313 22.9145C181.209 22.96 180.955 23.1343 180.755 23.301C180.755 23.301 180.755 23.301 180.603 23.4753C180.404 23.695 180.404 23.695 180.404 23.695C180.142 23.6344 179.529 23.2631 179.35 23.1646Z" fill="#162542"/>
<path d="M40.9748 2.66734C41.0712 2.7128 41.1262 2.82647 41.0918 2.9174C41.0574 3.00833 40.7957 3.27354 40.5823 3.29628C40.3688 3.31901 39.818 3.19776 39.6871 3.19776C39.5563 3.19776 39.2464 3.4554 39.1845 3.49329C39.1225 3.53118 39.0812 3.26596 39.274 2.86435C39.274 2.86435 39.274 2.86435 39.6871 2.65975C39.7629 2.62187 39.7629 2.62187 39.7629 2.62187C39.8524 2.60672 40.0452 2.59156 40.1967 2.58398C40.3344 2.59156 40.8784 2.62187 40.9748 2.66734Z" fill="#162542"/>
<path d="M167.192 21.49C166.944 21.3687 166.744 21.2172 166.744 21.1566C166.744 21.0959 166.799 20.8989 166.868 20.861C166.937 20.8231 167.15 20.664 167.212 20.6261C167.274 20.5882 167.591 20.7019 167.722 20.7474C167.853 20.7928 168.149 20.8383 168.128 21.1793C168.128 21.1793 168.128 21.1793 167.743 21.0656C167.639 21.0353 167.543 20.9671 167.433 20.9368C167.405 20.9292 167.329 20.9899 167.309 21.0277C167.288 21.0732 167.288 21.1641 167.316 21.1793C167.412 21.2323 167.536 21.2475 167.619 21.3081C167.667 21.346 167.687 21.4748 167.646 21.5203C167.612 21.5733 167.474 21.6112 167.419 21.5885C167.192 21.49 167.192 21.49 167.192 21.49Z" fill="#162542"/>
<path d="M24.7538 4.10699C25.167 4.09942 25.5388 4.25096 25.5801 4.44798C25.5801 4.44798 25.5801 4.44798 25.2702 4.42525C25.1601 4.41767 25.1601 4.41768 25.1601 4.41768C25.043 4.37979 24.8089 4.32674 24.6436 4.30401C24.4784 4.28127 24.1134 4.70562 24.0239 4.83444C23.9344 4.96326 23.7554 4.50102 23.6934 4.47071C23.6314 4.4404 23.4937 4.28886 23.6039 4.2434C23.7141 4.19793 24.0721 4.00849 24.2167 3.95544C24.2167 3.95544 24.2167 3.95545 24.4164 4.01607C24.7538 4.107 24.7538 4.10699 24.7538 4.10699Z" fill="#162542"/>
<path d="M156.475 0.295517C156.599 0.166698 156.902 0.128813 157.15 0.227321C157.15 0.227321 157.15 0.227323 157.205 0.181858C157.412 0.00757432 157.439 0.257627 157.563 0.257627C157.742 0.257627 157.928 0.265211 158.107 0.287943C158.135 0.287943 158.183 0.386446 158.169 0.424334C158.155 0.477377 158.155 0.477382 158.155 0.477382C158.093 0.522847 157.983 0.515267 157.907 0.462224C157.832 0.409181 157.494 0.568307 157.377 0.613772C157.377 0.613772 157.377 0.613773 157.356 0.591041C157.081 0.280361 156.895 0.48496 156.695 0.666821C156.661 0.697131 156.537 0.704705 156.51 0.674394C156.454 0.613774 156.379 0.500108 156.406 0.447065C156.475 0.295514 156.475 0.295517 156.475 0.295517Z" fill="#162542"/>
<path d="M169.265 20.8686C169.43 20.9519 169.43 21.1186 169.272 21.2399C169.113 21.3611 168.865 21.6794 168.804 21.5657C168.742 21.4521 168.735 20.9671 168.879 20.7246C168.879 20.7246 168.879 20.7246 169.134 20.8155C169.265 20.8686 169.265 20.8686 169.265 20.8686Z" fill="#162542"/>
<path d="M19.3273 9.381C19.3273 9.57802 19.162 9.76745 18.9692 9.79776C18.7764 9.82807 18.5423 9.42646 18.7007 9.43404C18.7007 9.43404 18.7007 9.43404 18.7558 9.48709C18.8728 9.60075 18.9348 9.57044 19.0243 9.47193C19.1001 9.38857 19.1896 9.3431 19.0588 9.22944C19.0037 9.18398 19.0037 9.18398 19.0037 9.18398C19.0243 9.06274 19.1414 8.96423 19.2653 8.96423C19.2653 8.96423 19.2653 8.96423 19.348 9.0097C19.4581 9.07032 19.6027 9.14609 19.4099 9.30522C19.3273 9.381 19.3273 9.381 19.3273 9.381Z" fill="#162542"/>
<path d="M26.6134 3.71303C26.6134 3.82669 26.5583 3.91005 26.4826 3.89489C26.4826 3.89489 26.4826 3.89489 26.4413 3.91763C26.3173 4.00098 26.214 4.1601 26.0901 4.17526C25.9042 4.19799 25.9042 4.19799 25.9042 4.19799C25.6838 4.13737 25.615 3.9934 25.7527 3.87974C25.8835 3.77365 26.6134 3.59936 26.6134 3.71303Z" fill="#162542"/>
<path d="M33.2067 3.40228C33.0827 3.40986 32.9863 3.3265 32.9863 3.20525C32.9863 3.08401 33.0483 2.75818 33.124 2.76575C33.1998 2.77333 33.4064 2.85669 33.5854 2.94762C33.7644 3.03855 33.5578 3.50078 33.4477 3.44774C33.4477 3.44774 33.4477 3.44774 33.3306 3.42501C33.2067 3.40228 33.2067 3.40228 33.2067 3.40228Z" fill="#162542"/>
<path d="M46.1181 30.6891C46.3523 30.6891 46.2765 30.8406 45.946 31.0301C45.946 31.0301 45.946 31.0301 45.5742 30.9392C45.5122 30.924 45.5122 30.924 45.5122 30.924C45.4778 30.7952 45.6499 30.5906 45.8978 30.4769C45.8978 30.4769 45.8978 30.4769 45.9391 30.5148C46.1181 30.6891 46.1181 30.6891 46.1181 30.6891Z" fill="#162542"/>
</svg>
