<svg width="35" height="35" viewBox="0 0 35 35" fill="none" xmlns="http://www.w3.org/2000/svg">
<path d="M12.1204 0.123047C11.635 0.293945 11.2522 0.560547 10.9993 0.90918C10.5344 1.53809 10.5686 1.13477 10.5276 7.04102C10.5003 11.6484 10.4797 12.4072 10.3977 12.3867C10.343 12.373 9.94654 12.332 9.52271 12.291C8.16236 12.1543 6.75416 12.3594 5.70826 12.8516C4.37525 13.4736 3.56178 14.458 3.13111 15.9619C3.00123 16.4268 2.98072 16.6797 2.97389 17.6709C2.97389 18.3066 2.98072 18.9697 2.99439 19.1406C3.00123 19.3115 2.99439 19.6807 2.96705 19.9678C2.92603 20.46 2.93287 20.5146 3.16529 21.0273C3.30885 21.3555 3.43189 21.7656 3.47974 22.0664C3.55494 22.6338 3.76002 22.9756 4.13599 23.1533C4.33424 23.249 4.36842 23.3037 4.4026 23.5977C4.51197 24.4248 4.91529 25.1357 5.51002 25.5596L5.8108 25.7783V26.5918V27.3984L4.29322 27.4258C2.94654 27.4531 2.72096 27.4736 2.36549 27.6035C1.20338 28.0342 0.294197 29.0732 0.0686111 30.249C0.0207595 30.5088 0.000251708 31.2197 0.0139236 32.1973C0.0344314 33.6191 0.0481033 33.7559 0.184822 34.0088C0.355721 34.3301 0.690682 34.6582 1.02564 34.8359C1.25806 34.959 1.57935 34.9658 8.75025 34.9658C15.9212 34.9658 16.2424 34.959 16.4749 34.8359C16.8098 34.6582 17.1448 34.3301 17.3157 34.0088C17.4592 33.749 17.4661 33.6465 17.4661 31.9922C17.4661 30.4746 17.4524 30.2012 17.3362 29.873C16.9807 28.8203 16.1741 27.9863 15.135 27.6035C14.7796 27.4736 14.554 27.4531 13.2141 27.4258L11.6897 27.3984V26.5918V25.792L12.0042 25.5459C12.6194 25.0674 12.9885 24.4043 13.0979 23.5771C13.1321 23.3447 13.1799 23.2354 13.262 23.208C13.6721 23.0781 13.9729 22.6064 14.0344 21.9912C14.0549 21.7588 14.1643 21.3965 14.301 21.1094C14.5266 20.624 14.5745 20.2207 14.4993 19.4824C14.4856 19.3867 14.5061 18.9014 14.5335 18.4092L14.5813 17.5H15.4631H16.3381V19.3594C16.3381 21.0342 16.3518 21.2529 16.468 21.5059C16.6663 21.9365 16.9602 22.1143 17.5003 22.1143H17.9446L21.3079 19.8105L24.6712 17.5068L28.9641 17.4863L33.2571 17.4658L33.6399 17.2744C34.0979 17.0557 34.6106 16.5293 34.8157 16.0781L34.9661 15.7568V8.75V1.74316L34.7815 1.36719C34.5423 0.881836 34.1184 0.458008 33.6399 0.21875L33.2571 0.0341797L22.8665 0.0205078C13.0159 0.00683594 12.4553 0.00683594 12.1204 0.123047ZM33.1067 1.25781C33.3733 1.36719 33.6673 1.6748 33.763 1.93457C33.8176 2.06445 33.8382 4.23828 33.8382 8.75684C33.8382 14.2324 33.8245 15.4219 33.7424 15.6064C33.6331 15.873 33.3255 16.167 33.0657 16.2627C32.9358 16.3105 31.4729 16.3379 28.6702 16.3379C25.2727 16.3379 24.4251 16.3584 24.2473 16.4336C24.1243 16.4814 22.5657 17.5273 20.7815 18.751L17.5344 20.9863L17.5003 19.0518C17.4661 17.1924 17.4592 17.1172 17.3088 16.8711C17.0354 16.4268 16.7346 16.3379 15.511 16.3379H14.4583L14.3352 15.8867C14.0071 14.6289 13.1868 13.5762 12.0862 12.9883L11.6897 12.7764L11.7034 7.32812L11.7239 1.87988L11.8879 1.64746C11.9768 1.52441 12.1751 1.36035 12.3323 1.29199C12.5989 1.16895 13.009 1.16211 22.7503 1.16211C31.2063 1.16211 32.9221 1.17578 33.1067 1.25781ZM10.343 13.5762C11.1497 13.7539 11.8743 14.1436 12.346 14.6426C13.0569 15.4082 13.3235 16.1533 13.3713 17.5342L13.3987 18.4229L13.2073 17.8076C12.968 17.0215 12.7835 16.6592 12.4417 16.2422C11.9905 15.6953 11.7171 15.5176 11.3547 15.5176C11.0471 15.5176 10.76 15.6475 10.6438 15.8389C10.4797 16.1055 9.61158 16.3379 8.75025 16.3379C7.88893 16.3379 7.02076 16.1055 6.8567 15.8389C6.74049 15.6406 6.45338 15.5176 6.13209 15.5176C5.82447 15.5176 5.77662 15.5449 5.39381 15.9004C4.8401 16.4336 4.594 16.8506 4.33424 17.6982L4.10865 18.4229L4.10182 17.7529C4.09498 15.9141 4.80592 14.5742 6.11842 13.9453C6.63111 13.6992 7.34205 13.5078 7.96412 13.4395C8.46998 13.3848 9.844 13.4668 10.343 13.5762ZM6.66529 17.1035C7.23268 17.3906 7.67701 17.4658 8.75025 17.4658C9.36549 17.4658 9.88502 17.4316 10.1174 17.3701C10.5139 17.2744 11.1018 17.0078 11.2864 16.8369C11.3889 16.748 11.4299 16.7822 11.6487 17.1377C11.9221 17.5684 12.0999 18.0879 12.2981 19.0244C12.4553 19.7832 12.5579 19.9062 13.0227 19.8857C13.3508 19.8652 13.3645 19.8721 13.385 20.0566C13.3987 20.1729 13.3235 20.4463 13.1936 20.7266C13.0774 20.9795 12.9475 21.4102 12.9065 21.6699C12.8381 22.1143 12.8245 22.1484 12.6672 22.1484C12.2434 22.1484 12.052 22.3809 11.9973 22.9688C11.8879 24.0762 11.6213 24.4932 10.6643 25.0537C10.384 25.2178 10.0286 25.4775 9.87818 25.6348C9.58424 25.9492 9.02369 26.25 8.75025 26.25C8.47682 26.25 7.91627 25.9492 7.62232 25.6348C7.47193 25.4775 7.11646 25.2178 6.83619 25.0537C5.87916 24.4932 5.61256 24.0762 5.50318 22.9688C5.4485 22.3877 5.25709 22.1484 4.83326 22.1484C4.68971 22.1484 4.6692 22.1074 4.60084 21.6768C4.55982 21.4102 4.42994 20.9863 4.30689 20.7266C4.17701 20.4463 4.10182 20.1729 4.11549 20.0566C4.13599 19.8721 4.14967 19.8652 4.47779 19.8857C4.94264 19.9062 5.04517 19.7832 5.2024 19.0244C5.40064 18.0879 5.57838 17.5684 5.85182 17.1377C6.07057 16.7822 6.11158 16.748 6.21412 16.8369C6.27564 16.8916 6.48072 17.0146 6.66529 17.1035ZM7.32838 26.9336C8.14186 27.5283 9.26978 27.542 10.1174 26.9678C10.3157 26.8379 10.4866 26.7285 10.5071 26.7285C10.596 26.7285 10.4729 28.4102 10.3772 28.6494C10.1038 29.2852 9.43385 29.7363 8.75025 29.7363C8.0735 29.7363 7.39674 29.2852 7.1233 28.6494C7.02076 28.4033 6.91139 26.7285 7.00025 26.7285C7.02076 26.7285 7.17115 26.8242 7.32838 26.9336ZM5.9817 28.8818C6.11158 29.3125 6.28248 29.5996 6.64478 29.9893C7.23268 30.6045 7.90943 30.8984 8.75025 30.8984C9.59107 30.8984 10.2678 30.6045 10.8557 29.9893C11.218 29.5996 11.3889 29.3125 11.5188 28.8818L11.6008 28.6084L12.9202 28.5879C14.6975 28.5674 15.1282 28.6904 15.7776 29.4355C16.2493 29.9688 16.3381 30.3721 16.3381 32.04V33.4414L16.1399 33.6396L15.9417 33.8379H8.75025H1.55885L1.35377 33.6328L1.14869 33.4277L1.17603 31.8691C1.20338 30.1191 1.24439 29.9551 1.75709 29.3877C2.38599 28.6904 2.77564 28.5811 4.53932 28.5947L5.89967 28.6084L5.9817 28.8818Z" fill="#987750"/>
<path d="M15.2783 3.08999C15.1758 3.17203 14.9775 3.48648 14.834 3.80093C14.5537 4.40933 14.5879 4.38199 13.8428 4.48453C13.1523 4.57339 12.8516 4.83316 12.8516 5.33218C12.8516 5.63296 12.9473 5.78335 13.4189 6.2687L13.8291 6.69253L13.7539 7.17105C13.5967 8.11441 13.665 8.42886 14.082 8.64761C14.3896 8.80484 14.5605 8.77749 15.1826 8.44937L15.7568 8.14859L16.3105 8.44937C16.9053 8.77066 17.1172 8.81167 17.4316 8.64761C17.8281 8.44253 17.9033 8.0939 17.7461 7.19839L17.6572 6.7062L17.8965 6.48062C18.7031 5.71499 18.8535 5.25699 18.4434 4.81949C18.2109 4.57339 18.2109 4.57339 17.1719 4.40249C16.9736 4.37515 16.9189 4.31363 16.6455 3.75992C16.4814 3.42495 16.2695 3.10367 16.1875 3.04898C15.9619 2.89175 15.5039 2.91226 15.2783 3.08999ZM15.9346 4.94937C16.0986 5.30484 16.2764 5.44156 16.6523 5.50308C17.1309 5.58511 17.1377 5.59195 16.8096 5.92007L16.5088 6.22769L16.5225 6.73355L16.5293 7.23941L16.2217 7.06851C15.8252 6.86343 15.6885 6.86343 15.2715 7.07535C15.0869 7.17105 14.9297 7.24624 14.9297 7.24624C14.9229 7.24624 14.9502 7.08902 14.9844 6.89761C15.0664 6.43277 15.0186 6.27554 14.6904 5.91324C14.3896 5.58511 14.3896 5.58511 14.8613 5.50308C15.2373 5.44156 15.374 5.33902 15.5586 4.96988C15.6475 4.79214 15.7363 4.64859 15.7568 4.64859C15.7773 4.64859 15.8525 4.78531 15.9346 4.94937Z" fill="#987750"/>
<path d="M22.2383 3.12409C22.1289 3.23346 21.9375 3.55475 21.8076 3.84186L21.5684 4.36823L21.0898 4.44343C20.3516 4.55964 20.3174 4.56647 20.0781 4.77839C19.8867 4.95612 19.8594 5.02448 19.8594 5.31842C19.8594 5.63971 19.8799 5.67389 20.3584 6.18659C20.6729 6.52155 20.8438 6.76081 20.8232 6.82917C20.8027 6.89069 20.7549 7.19147 20.707 7.49909C20.6113 8.16217 20.6729 8.40143 21.0215 8.61335C21.3496 8.81159 21.5615 8.78424 22.1904 8.44245L22.7578 8.14167L23.2568 8.42194C24.0566 8.87311 24.542 8.81159 24.7949 8.21686C24.8701 8.02546 24.8701 7.90925 24.7744 7.34186L24.665 6.69245L25.1504 6.18659C25.6221 5.70807 25.6357 5.67389 25.6357 5.34577C25.6357 4.79206 25.3896 4.58698 24.6104 4.4776C23.9199 4.3819 23.9541 4.40925 23.6807 3.82135C23.3662 3.1446 23.1406 2.93952 22.7305 2.93952C22.5049 2.93952 22.3955 2.98053 22.2383 3.12409ZM22.9014 4.9151C23.0723 5.25007 23.3252 5.45514 23.6465 5.50983C24.0977 5.58503 24.1045 5.59186 23.8379 5.8653C23.4619 6.25495 23.4004 6.53522 23.5576 7.12311C23.5918 7.22565 23.5439 7.21882 23.2295 7.07526C22.7783 6.86335 22.6689 6.86335 22.2725 7.07526L21.9512 7.24616L21.9922 6.80866C22.0332 6.34382 21.9375 6.07721 21.6025 5.77643C21.4043 5.5987 21.4316 5.55768 21.7734 5.5235C22.1768 5.47565 22.3955 5.31842 22.5732 4.95612C22.6553 4.78522 22.7305 4.6485 22.7441 4.6485C22.751 4.6485 22.8262 4.77155 22.9014 4.9151Z" fill="#987750"/>
<path d="M29.2988 3.08301C29.1963 3.16504 28.9912 3.47949 28.834 3.78711C28.6836 4.08789 28.5537 4.34766 28.54 4.36133C28.5332 4.36816 28.2598 4.42285 27.9453 4.4707C27.0566 4.61426 26.8652 4.77148 26.8652 5.35254C26.8652 5.67383 26.8857 5.70801 27.3506 6.18652L27.8359 6.69238L27.7266 7.3418C27.6309 7.90918 27.6309 8.02539 27.7061 8.2168C27.959 8.81152 28.4443 8.87305 29.2441 8.42187L29.7432 8.1416L30.3105 8.44238C30.6182 8.61328 30.96 8.75 31.0625 8.75C31.3291 8.75 31.623 8.55859 31.7598 8.29883C31.8691 8.10059 31.8691 8.01855 31.7939 7.50586C31.7529 7.19141 31.6982 6.89062 31.6777 6.82227C31.6572 6.75391 31.8145 6.52832 32.1221 6.19336C32.7441 5.53027 32.8125 5.26367 32.4707 4.83301C32.3135 4.63477 32.0947 4.55273 31.4043 4.44336L30.9258 4.36816L30.6592 3.78027C30.4678 3.35644 30.3379 3.1582 30.1875 3.06934C29.9072 2.89844 29.5244 2.90527 29.2988 3.08301ZM30.3516 5.41406C30.4814 5.48242 30.6934 5.53711 30.8164 5.53711C31.0693 5.53711 31.0898 5.59863 30.8984 5.77637C30.5635 6.07715 30.4678 6.34375 30.5088 6.80859L30.5498 7.24609L30.2148 7.0752C29.7979 6.86328 29.7227 6.86328 29.2715 7.0752C28.957 7.21875 28.9092 7.22559 28.9434 7.12305C29.1006 6.53516 29.0254 6.2002 28.6494 5.85156C28.5332 5.73535 28.4375 5.62598 28.4375 5.59863C28.4375 5.57812 28.5811 5.53711 28.752 5.5166C29.1416 5.47559 29.3809 5.30469 29.5928 4.92871L29.7568 4.63477L29.9346 4.96289C30.0508 5.18164 30.1943 5.33887 30.3516 5.41406Z" fill="#987750"/>
<path d="M15.3466 10.698C15.1278 10.91 15.1278 11.2107 15.3397 11.4637L15.5038 11.6551L22.6405 11.6756C27.9179 11.6893 29.8183 11.6688 29.9618 11.6141C30.3446 11.45 30.4403 10.9578 30.1464 10.6639C30.0097 10.5271 29.8866 10.5271 22.7636 10.5271H15.5106L15.3466 10.698Z" fill="#987750"/>
<path d="M18.9492 12.8994C18.833 12.9404 18.6621 13.2891 18.6621 13.4668C18.6621 13.5488 18.751 13.7061 18.8604 13.8154L19.0586 14.0137H22.6953C26.667 14.0137 26.6738 14.0137 26.7764 13.6172C26.8516 13.3369 26.8105 13.1729 26.6191 13.002L26.4482 12.8516L22.7432 12.8584C20.7061 12.8584 18.9971 12.8789 18.9492 12.8994Z" fill="#987750"/>
</svg>
