<svg width="102" height="15" viewBox="0 0 102 15" fill="none" xmlns="http://www.w3.org/2000/svg">
<g opacity="0.5">
<path d="M92.4436 0.702339C92.5043 0.85284 92.6055 0.727407 92.6743 0.451487C92.6743 0.451487 92.6743 0.451485 92.6824 0.489111C92.7675 0.82774 92.8404 0.351178 92.8727 0.438971C92.9861 0.739975 93.0671 0.714865 93.1926 0.451487C93.225 0.388778 93.3789 0.765055 93.4882 0.827764C93.5692 0.877932 93.5692 0.877904 93.5692 0.877904C93.6704 0.77757 93.8202 0.714865 93.9012 0.765032C93.9822 0.8152 94.3142 0.990797 94.464 1.09113C94.464 1.09113 94.464 1.09114 94.5814 0.79014C94.5936 0.752515 94.6341 0.752491 94.6584 0.765032C94.796 0.902992 94.9337 1.16638 95.0714 1.16638C95.1807 1.16638 95.1807 1.16638 95.1807 1.16638C95.286 0.940627 95.3629 1.10367 95.3467 1.55517C95.3467 1.55517 95.3467 1.55517 95.5613 1.04095C95.7395 0.614532 95.7395 0.614537 95.7395 0.614537C95.9136 0.815206 96.1525 0.877909 96.2699 0.765032C96.3873 0.652156 96.7396 1.20402 96.8651 1.17893C96.9906 1.15385 97.4117 1.55517 97.5372 1.63042C97.5372 1.63042 97.5372 1.63041 97.5291 1.15383C97.5291 1.12874 97.6061 1.04098 97.6223 1.06606C97.7842 1.39215 97.7842 1.39212 97.7842 1.39212C97.9826 1.29179 98.2053 1.35452 98.2742 1.5301C98.3471 1.70569 98.6021 1.32944 98.6669 1.41723C98.7317 1.50502 98.9746 1.64295 99.0597 1.50499C99.1447 1.37958 99.6103 1.41722 99.8776 1.4423C99.8776 1.4423 99.8776 1.44229 100.108 1.74329C100.181 1.84363 100.327 1.54262 100.44 1.50499C100.525 1.47991 100.525 1.47993 100.525 1.47993C100.623 1.55518 100.736 1.56772 100.781 1.47993C100.781 1.47993 100.781 1.47994 100.785 1.49248C100.995 2.00669 100.995 2.0067 100.995 2.0067C101.246 1.73078 101.481 1.79346 101.517 2.13209C101.554 2.48326 101.756 3.29848 101.805 3.2734C101.854 3.24831 101.991 3.26086 101.999 3.3612C102.007 3.46153 101.947 3.8127 101.866 3.95066C101.785 4.08862 101.777 5.17977 101.643 5.75669C101.643 5.75669 101.643 5.7567 101.688 6.47158C101.7 6.63462 101.7 6.63463 101.7 6.63463C101.696 6.88547 101.663 7.03594 101.631 6.96069C101.598 6.88544 101.505 6.87292 101.473 7.06105C101.473 7.06105 101.473 7.06105 101.477 7.06105C101.708 7.34951 101.436 7.82609 101.546 8.15218C101.558 8.18981 101.558 8.30267 101.546 8.3403C101.372 8.81689 101.372 8.81689 101.372 8.81689C101.364 9.18061 101.177 9.58193 100.955 9.70735C100.955 9.70735 100.955 9.70736 100.756 9.24331C100.724 9.16806 100.724 9.16806 100.724 9.16806C100.594 9.33111 100.388 9.48162 100.262 9.49416C100.137 9.50671 99.7156 9.40636 99.6022 9.48161C99.6022 9.48161 99.6022 9.48161 99.4929 9.48161C99.3876 9.48161 99.3876 9.48161 99.3876 9.48161C99.2743 9.4189 99.1407 9.36872 99.0921 9.35618C99.0435 9.35618 98.8572 9.31857 98.7965 9.36874C98.7357 9.4189 98.3389 9.46906 98.0474 9.46906C97.7559 9.46906 96.8529 9.44396 96.6829 9.38125C96.5169 9.31854 96.0674 9.75753 96.0269 9.75753C96.0269 9.75753 96.0269 9.75754 95.9905 9.77008C95.7719 9.82025 95.7719 9.82022 95.7719 9.82022C95.537 9.69481 95.2536 9.66974 95.1402 9.75753C95.0309 9.84532 94.6746 9.56941 94.5814 9.60703C94.4883 9.64466 94.1644 9.71991 94.0551 9.64466C93.9457 9.56941 93.4113 9.74499 93.1562 9.75753C93.1562 9.75753 93.1562 9.75753 92.9173 9.75753C92.6784 9.75753 92.4436 9.75753 92.2047 9.75753C92.0589 9.75753 91.8281 9.8955 91.7836 9.73246C91.6742 9.33112 91.5325 9.89547 91.4515 9.5443C91.4353 9.48159 91.3503 9.46908 91.3017 9.49416C91.1924 9.54433 91.0304 9.77006 90.9859 9.66973C90.828 9.30602 90.828 9.30601 90.828 9.30601C90.7106 9.56938 90.5486 9.69482 90.4676 9.59448C90.3866 9.49415 90.2125 9.44398 90.1194 9.35618C90.0263 9.26839 89.7347 9.60701 89.6538 9.46906C89.5728 9.33109 89.2853 9.79517 89.1922 9.84533C89.1031 9.8955 88.7589 9.45653 88.5889 9.36874C88.5889 9.36874 88.5889 9.36872 88.4067 9.70735C88.2771 9.94565 88.2771 9.94565 88.2771 9.94565C88.0261 9.83277 87.775 9.68229 87.7224 9.60703C87.6697 9.53178 87.4308 9.43145 87.3013 9.36874C87.1717 9.30603 86.6737 9.90802 86.4469 10.1714C86.4469 10.1714 86.4469 10.1714 86.285 9.48161C86.2688 9.4189 86.1594 9.40636 86.1311 9.48161C85.957 9.90803 85.7545 9.19313 85.5764 9.58193C85.5197 9.70735 85.4104 9.75754 85.3335 9.73246C85.1836 9.68229 85.0338 9.49416 84.884 9.49416C84.7544 9.49416 84.7544 9.49416 84.7544 9.49416C84.6127 9.61958 84.4305 9.69481 84.3495 9.66973C84.2685 9.64464 83.977 9.61957 83.9082 9.51923C83.8394 9.4189 83.5721 9.79514 83.483 9.89547C83.394 9.99581 83.1551 9.56939 83.07 9.66973C82.985 9.78261 82.5963 9.6948 82.4424 9.61955C82.4424 9.61955 82.4424 9.61955 82.3007 9.61955C82.1631 9.61955 82.0254 9.74498 81.8877 9.74498C81.6326 9.73243 81.6326 9.73246 81.6326 9.73246C81.3532 9.63213 80.8998 9.55684 80.6244 9.58193C80.6244 9.58193 80.6244 9.58193 80.3936 9.7826C80.1912 9.95819 80.1912 9.9582 80.1912 9.9582C79.9847 9.83279 79.6243 9.745 79.3854 9.77008C79.3854 9.77008 79.3854 9.77008 79.1668 9.77008C78.9481 9.77008 78.7295 9.77008 78.5108 9.77008C78.2922 9.77008 78.0735 9.77008 77.8549 9.77008C77.6362 9.77008 77.4176 9.77008 77.1989 9.77008C76.9803 9.77008 76.7616 9.74498 76.543 9.7826C76.4053 9.79514 76.4053 9.79515 76.4053 9.79515C76.2555 9.89549 76.1138 9.98326 76.0854 10.0083C76.0571 10.0334 75.8547 9.94564 75.6886 9.85785C75.5226 9.77006 74.5954 9.98329 74.5266 9.92058C74.4618 9.85787 74.2755 9.87042 74.2067 9.84533C74.1379 9.82025 73.8018 10.0334 73.6236 10.0585C73.6236 10.0585 73.6236 10.0585 73.4576 10.0585C73.2916 10.0585 73.1297 10.0585 72.9636 10.0585C72.7814 10.0585 72.5992 10.0585 72.417 10.0585C72.251 10.0585 72.0891 10.0585 71.923 10.0585C71.757 10.0585 71.5951 10.0585 71.4291 10.0585C71.263 10.0585 71.1011 10.0585 70.9351 10.0585C70.7691 10.0585 70.7691 10.0585 70.7691 10.0585C70.5909 10.0711 70.0524 10.1087 69.5787 10.1589C69.1049 10.209 67.708 10.51 67.5298 10.6982C67.5298 10.6982 67.5298 10.6982 67.4772 10.5727C67.3395 10.2592 67.3395 10.2592 67.3395 10.2592C67.2464 10.4599 67.0602 10.4473 66.9265 10.2466C66.9265 10.2466 66.9265 10.2467 66.7565 10.5727C66.6674 10.7483 66.473 10.6104 66.3273 10.6104C66.0884 10.6104 66.0884 10.6104 66.0884 10.6104C65.8292 10.5978 65.5256 10.6605 65.4122 10.7358C65.3029 10.811 64.9061 10.51 64.7886 10.2968C64.7886 10.2968 64.7886 10.2968 64.7036 10.6229C64.5821 11.0995 64.5821 11.0995 64.5821 11.0995C64.485 10.8361 64.2987 10.6606 64.1651 10.7107C64.0315 10.7734 63.5982 10.8486 63.493 10.8361C63.3917 10.811 62.9828 11.0117 62.7925 10.9239C62.7925 10.9239 62.7925 10.9239 62.6184 10.8863C62.4362 10.8487 62.4362 10.8487 62.4362 10.8487C62.2337 10.8737 61.9827 10.949 61.8774 11.0368C61.7721 11.1246 61.4603 11.1748 61.2984 11.3754C61.2984 11.3754 61.2984 11.3754 61.1081 11.1873C60.9502 11.0368 60.7477 11.1497 60.5655 11.1497C60.3833 11.1497 60.3833 11.1497 60.3833 11.1497C60.1808 11.1622 59.9339 11.2751 59.8286 11.4005C59.8286 11.4005 59.8286 11.4005 59.7355 11.4005C59.6423 11.4005 59.6423 11.4005 59.6423 11.4005C59.5411 11.2751 59.0998 11.1998 58.6665 11.2249C58.2333 11.2625 57.0307 11.6263 56.9578 11.9147C56.9578 11.9147 56.9578 11.9147 56.8282 11.5134C56.7999 11.4256 56.6217 11.6514 56.5124 11.689C56.4031 11.7266 56.4031 11.7266 56.4031 11.7266C56.2816 11.7266 56.0994 11.551 55.9941 11.3503C55.8889 11.1497 55.5123 11.689 55.3949 11.689C55.2734 11.689 54.8604 11.689 54.7389 11.689C54.6175 11.689 54.1883 11.7768 54.0506 11.8645C54.0506 11.8645 54.0506 11.8645 53.9251 11.8645C53.8077 11.8645 53.6862 11.7015 53.5728 11.7141C53.3461 11.7517 53.3461 11.7517 53.3461 11.7517C53.0991 11.7266 52.7185 11.7141 52.5039 11.7266C52.2893 11.7391 51.6455 12.0276 51.5119 11.9398C51.5119 11.9398 51.5119 11.9398 51.3904 11.9273C51.2163 11.9022 51.2163 11.9022 51.2163 11.9022C51.026 11.9649 50.7871 11.9649 50.6899 11.9022C50.5927 11.8395 50.2607 12.2533 50.1311 12.291C50.0016 12.3411 49.5197 12.2784 49.3699 12.291C49.2201 12.3035 48.5682 12.3035 48.2564 12.3662C47.9447 12.4289 46.8555 12.5293 46.5316 12.5418C46.2117 12.5544 45.3087 12.592 45.244 12.6923C45.1792 12.7926 44.8795 12.5293 44.7945 12.5042C44.7095 12.4666 44.3896 12.8303 44.2358 12.8554C44.0819 12.8804 43.4664 12.8428 43.2154 12.8554C42.9644 12.8679 42.106 12.8428 41.863 12.9306C41.6201 13.0184 40.5835 13.0811 40.1017 13.0811C40.1017 13.0811 40.1017 13.0811 39.6644 13.0811C39.2068 13.0811 39.2068 13.0811 39.2068 13.0811C38.7048 13.0811 38.1865 13.0811 38.0529 13.0937C38.0529 13.0937 38.0529 13.0936 37.9557 13.3445C37.8626 13.5828 37.7816 12.8177 37.652 13.2943C37.6277 13.3947 37.6277 13.3946 37.6277 13.3946C37.5103 13.3319 37.3402 13.3696 37.2512 13.4699C37.1621 13.5702 36.8179 13.2065 36.6155 13.3445C36.6155 13.3445 36.6155 13.3445 36.4292 13.3445C35.0039 13.357 35.004 13.357 35.004 13.357C33.437 13.357 31.9915 13.2567 31.7931 13.1438C31.7931 13.1438 31.7931 13.1438 31.6392 13.5703C31.6149 13.633 31.6149 13.6329 31.6149 13.6329C31.5501 13.6079 31.4044 13.5452 31.2869 13.495C31.1736 13.4448 30.8375 13.4574 30.8011 13.5577C30.7606 13.658 30.5865 13.4323 30.5379 13.495C30.4893 13.5577 30.2585 13.5953 30.1451 13.5703C30.1451 13.5703 30.1451 13.5703 30.0398 13.5326L29.5418 13.6204C29.4325 13.6329 29.4325 13.6329 29.4325 13.6329C29.3151 13.6329 29.1976 13.5451 29.1733 13.4323C29.149 13.3194 28.9263 13.5452 28.8211 13.5577C28.8211 13.5577 28.8211 13.5577 28.7239 13.5201C28.6753 13.5075 28.6146 13.3445 28.5903 13.3696C28.2178 13.8838 28.2178 13.8838 28.2178 13.8838C27.7845 13.7333 27.0678 13.6204 26.6265 13.6329C26.6265 13.6329 26.6265 13.6329 26.2256 13.6329C25.9706 13.6329 25.7155 13.6329 25.4604 13.6329C25.2215 13.6329 25.2215 13.6329 25.2215 13.6329C24.9623 13.658 24.6506 13.6204 24.525 13.5577C24.3995 13.495 23.9582 14.0594 23.7638 14.26C23.7638 14.26 23.7638 14.26 23.6343 13.6956C23.6181 13.6329 23.5168 13.5953 23.4844 13.6455C23.2982 13.959 23.2982 13.959 23.2982 13.959C23.0917 13.8211 22.7556 13.7709 22.5451 13.8462C22.5451 13.8462 22.5451 13.8461 22.3548 13.8963C22.1361 13.9465 21.9175 13.9089 21.6988 13.9089C21.4964 13.9089 21.298 13.9089 21.0955 13.9089C20.8769 13.9089 20.6582 13.9089 20.4396 13.9089C20.2371 13.9089 20.0387 13.9089 19.8363 13.9089C19.6176 13.9089 19.399 13.9089 19.1803 13.9089C18.9779 13.9089 18.9779 13.9089 18.9779 13.9089C18.7592 13.9214 18.4393 13.8587 18.2733 13.7834C18.1073 13.7082 17.6336 14.1095 17.5729 14.0343C17.5121 13.9716 17.1396 13.8838 16.8805 13.8462C16.6213 13.8085 15.8723 14.1346 15.7832 14.1221C15.6901 14.1096 15.4066 14.097 15.3418 13.9716C15.2771 13.8461 14.9774 14.1597 14.8883 14.1973C14.8033 14.235 14.5199 13.959 14.4065 14.0468C14.2972 14.1346 13.9125 14.1973 13.8073 14.235C13.702 14.2726 13.3578 13.9966 13.2809 14.0468C13.2039 14.097 12.8274 14.1472 12.6249 14.1472C12.4225 14.1472 11.6046 14.0845 11.2523 13.9841C11.2523 13.9841 11.2523 13.9841 10.9527 14.4356C10.9 14.5109 10.9 14.5109 10.9 14.5109C10.815 14.4607 10.6004 14.4356 10.4223 14.4607C10.4223 14.4607 10.4223 14.4607 10.3089 14.2851C10.1226 13.9966 10.1226 13.9967 10.1226 13.9967C9.98901 14.2224 9.77846 14.3478 9.66104 14.2977C9.66104 14.2977 9.66104 14.2977 9.52742 14.4231C9.38166 14.5485 9.38166 14.5485 9.38166 14.5485C9.19135 14.4858 8.9727 14.4732 8.89172 14.5234C8.81074 14.5736 8.22363 14.1723 7.72155 14.0719C7.72155 14.0719 7.72155 14.0719 7.3045 14.6865C7.15469 14.9122 7.15469 14.9122 7.15469 14.9122C6.98868 14.8119 6.76193 14.7241 6.65261 14.7366C6.54328 14.7366 6.16267 14.7492 6.05335 14.7743C5.94403 14.7993 5.68894 14.6488 5.6444 14.6865C5.59986 14.7241 5.34882 14.7492 5.2071 14.7366C5.06539 14.7241 4.59975 14.699 4.48637 14.6739C4.36895 14.6363 4.02478 14.7241 3.92761 14.6488C3.83043 14.561 3.60368 14.9498 3.57534 14.8746C3.547 14.7993 3.41338 14.6112 3.37694 14.7115C3.3405 14.8119 3.11375 15 2.99633 15C2.99633 15 2.99633 15 2.88701 15C2.68455 15 2.48615 15 2.2837 15C2.17438 15 2.17437 15 2.17437 15C2.12579 14.7742 2.06505 14.5987 2.04886 14.5987C2.02861 14.5987 1.97192 14.699 1.96382 14.8119C1.95573 14.9373 1.67229 14.9248 1.48199 14.8495C1.48199 14.8495 1.48199 14.8495 1.30788 14.8495C1.17426 14.8495 1.17426 14.8495 1.17426 14.8495C1.01635 14.837 0.911076 14.8119 0.939419 14.7743C0.967763 14.7492 1.0285 14.5234 0.979909 14.3604C0.93537 14.1973 0.907027 13.5702 0.927272 13.3696C0.947517 13.1689 0.963714 12.5669 0.898929 12.5669C0.834144 12.5669 0.688379 12.6296 0.700526 12.7049C0.712673 12.7801 0.720771 13.0058 0.688379 13.0309C0.655987 13.056 0.554761 12.9055 0.498075 12.7676C0.441388 12.6296 0.153907 12.3161 0.0972203 12.153C0.0405338 11.99 -0.0606924 11.3253 0.0486316 11.25C0.157955 11.1748 0.287525 12.0401 0.364457 12.2157C0.364457 12.2157 0.364456 12.2157 0.457584 12.2157C0.489976 12.2157 0.530467 12.0778 0.550712 11.9774C0.562859 11.9273 0.562859 11.9273 0.562859 11.9273C0.542614 11.8269 0.502123 11.7642 0.47378 11.8019C0.445437 11.8395 0.352309 11.8269 0.352309 11.7015C0.352309 11.5761 0.445437 11.1622 0.55881 11.087C0.672183 10.9992 0.996106 10.6229 0.996106 10.4599C0.996106 10.2968 1.0366 9.77008 1.08518 9.9582C1.13377 10.1463 1.32813 10.4473 1.40506 10.2216C1.40506 10.2216 1.40506 10.2216 1.42935 10.0083C1.46579 9.73242 1.48604 9.79516 1.55892 9.92058C1.61156 10.0084 1.61156 10.0083 1.61156 10.0083C1.69254 10.0209 1.91119 10.0335 2.09339 10.0335C2.2756 10.0335 2.71695 9.58195 2.67646 9.53179C2.63596 9.48162 2.77363 9.16807 3.07326 8.94232C3.07326 8.94232 3.07326 8.94229 3.39718 9.30601C3.45792 9.38126 3.5227 9.44397 3.58749 9.46906C3.63608 9.4816 3.63608 9.48161 3.63608 9.48161C3.71706 9.4189 3.74135 9.21824 3.69681 9.05519C3.64822 8.89215 3.57129 8.41554 3.62798 8.36537C3.62798 8.36537 3.62798 8.36538 3.67657 8.37792C3.73325 8.40301 3.80209 8.57859 3.83043 8.52842C4.01264 8.2525 4.01264 8.2525 4.01264 8.2525C4.12601 8.57858 4.25153 8.85453 4.29607 8.86707C4.34061 8.87961 4.51877 8.85451 4.47828 8.72909C4.43374 8.60367 4.47828 8.31521 4.56736 8.102C4.65643 7.88879 4.9925 7.85116 5.05324 7.8637C5.11397 7.88879 5.36906 7.83863 5.45814 7.87626C5.55127 7.91388 5.82256 7.85117 5.94808 7.95151C6.0736 8.05184 6.32868 7.34951 6.39752 7.37459C6.46635 7.39968 6.59592 7.80102 6.60807 7.85119C6.62021 7.90136 6.67285 7.96405 6.6931 7.87626C6.6931 7.87626 6.6931 7.87626 6.6931 7.80101C6.69715 7.0485 6.69715 7.04849 6.69715 7.04849C6.9077 7.16137 7.19518 7.39966 7.3288 7.58778C7.3288 7.58778 7.3288 7.58781 7.49886 7.33697C7.65272 7.11122 7.65272 7.11119 7.65272 7.11119C7.86732 7.03594 8.11026 6.898 8.19934 6.78513C8.28842 6.68479 8.49897 7.13629 8.53946 7.08612C8.53946 7.08612 8.53946 7.08613 8.55161 7.02342C8.5759 6.89801 8.5759 6.898 8.5759 6.898C8.62449 6.86037 8.75001 6.88545 8.86338 6.97325C8.86338 6.97325 8.86338 6.97325 8.96461 6.97325C9.11442 6.97325 9.11442 6.97325 9.11442 6.97325C9.27233 6.87291 9.45049 6.76002 9.51527 6.72239C9.58006 6.68477 9.86349 6.64715 9.98496 6.60952C10.1064 6.5719 10.5356 6.49666 10.6652 6.54683C10.7948 6.597 11.2118 6.20818 11.3414 6.17055C11.4669 6.13293 11.8354 6.32105 11.8961 6.20818C11.9568 6.0953 12.1876 6.32105 12.2443 6.20818C12.301 6.0953 12.4994 6.32108 12.5359 6.23328C12.5723 6.14549 12.7019 5.98245 12.7464 6.08279C12.7869 6.18312 12.9529 6.38379 13.0258 6.32109C13.0987 6.25838 13.3862 6.2082 13.5036 6.23328C13.6169 6.25837 13.9611 6.15801 14.0461 6.17055C14.1312 6.18309 14.4025 6.09531 14.4672 6.02006C14.532 5.94481 14.7871 5.84447 14.9045 5.78176C15.022 5.70651 15.3742 6.19566 15.4471 6.27091C15.52 6.34616 15.6091 5.75668 15.6496 5.70651C15.6496 5.70651 15.6496 5.70653 15.6698 5.73162C15.8399 5.96991 15.8399 5.96992 15.8399 5.96992C16.014 5.79433 16.1719 5.63128 16.1881 5.60619C16.1881 5.60619 16.1881 5.60617 16.2002 5.61871C16.2974 5.7065 16.4027 5.91972 16.4796 5.85701C16.5727 5.7943 16.5727 5.79431 16.5727 5.79431C16.6537 5.84448 16.759 5.8194 16.8076 5.71906C16.8562 5.63127 17.087 5.70651 17.1922 5.81938C17.1922 5.81938 17.1922 5.81939 17.2894 5.86956C17.3542 5.90719 17.3542 5.90718 17.3542 5.90718C17.4311 5.86956 17.581 5.80684 17.6862 5.78176C17.7915 5.75667 18.1721 5.78177 18.3098 5.99499C18.3098 5.99499 18.3098 5.99498 18.4717 5.63126C18.5649 5.41805 18.7552 5.76922 18.8766 5.43059C18.8888 5.39296 18.9738 5.55603 19.0305 5.60619C19.2734 5.78178 19.2734 5.78176 19.2734 5.78176C19.5407 5.68142 19.812 5.50587 19.8727 5.38045C19.9334 5.25503 20.1561 5.48077 20.2047 5.33027C20.2533 5.17977 20.4477 5.55601 20.476 5.59364C20.5084 5.63126 20.6542 5.65636 20.7635 5.71906C20.8728 5.78177 21.2777 5.48076 21.4721 5.43059C21.4721 5.43059 21.4721 5.4306 21.6138 5.79431C21.634 5.84448 21.634 5.84449 21.634 5.84449C21.6948 5.88212 21.7838 5.78178 21.8324 5.64382C21.881 5.50586 22.0146 5.38045 22.0956 5.34283C22.1766 5.3052 22.5775 5.40551 22.7921 5.51839C22.7921 5.51839 22.7921 5.51841 22.9621 5.0669C23.0067 4.95403 23.1524 5.11707 23.2253 5.02928C23.3954 4.82861 23.3954 4.82861 23.3954 4.82861C23.5411 5.04182 23.7112 5.22994 23.7679 5.25502C23.8286 5.28011 24.0513 5.14215 24.1323 5.2174C24.1323 5.2174 24.1323 5.21738 24.2052 5.31772C24.2983 5.45568 24.3428 4.79098 24.4643 5.2174C24.4765 5.25502 24.5979 5.05434 24.6708 5.0418C24.772 5.0418 24.772 5.0418 24.772 5.0418C24.8814 5.11705 25.0069 5.21739 25.0433 5.24247C25.0798 5.26755 25.3227 5.19232 25.4685 5.2174C25.6142 5.24248 25.9948 4.81606 26.0353 4.86623C26.0758 4.9164 26.2702 5.20486 26.3714 5.41807C26.3714 5.41807 26.3714 5.41804 26.4726 4.99162C26.6265 4.33944 26.6265 4.33946 26.6265 4.33946C26.8532 4.61538 27.1407 4.89131 27.2703 4.9791C27.3958 5.05435 27.825 4.74081 27.9222 4.62793C28.0194 4.51506 28.2906 4.50252 28.3878 4.43981C28.3878 4.43981 28.3878 4.43981 28.4526 4.55268C28.5214 4.6781 28.5214 4.67807 28.5214 4.67807C28.5822 4.87874 28.6956 4.87874 28.7765 4.67807C28.7765 4.67807 28.7765 4.6781 28.8413 4.51506C28.8535 4.48998 28.8535 4.48995 28.8535 4.48995C28.894 4.45233 28.9628 4.50249 29.0114 4.60282C29.06 4.70316 29.2341 4.8913 29.2827 4.77843C29.3313 4.66555 29.7483 4.66554 29.8293 4.72825C29.9103 4.79096 30.1046 4.75333 30.1815 4.8035C30.2625 4.85367 30.4407 4.72826 30.5055 4.7408C30.5703 4.75335 30.8091 4.66555 30.8942 4.54013C30.9792 4.41471 31.3355 4.79098 31.5056 4.86623C31.5056 4.86623 31.5056 4.86622 31.6149 4.46488C31.6271 4.42726 31.6837 4.45234 31.7202 4.46488C31.9429 4.55268 31.9429 4.55268 31.9429 4.55268C32.1858 4.64048 32.4814 4.57775 32.5948 4.41471C32.7081 4.25166 33.1333 4.70317 33.275 4.69063C33.275 4.69063 33.275 4.69063 33.3924 4.61538C33.5018 4.54013 33.5018 4.54013 33.5018 4.54013C33.6232 4.52759 33.8176 4.45233 33.935 4.37708C34.0524 4.30183 34.3683 4.74079 34.4087 4.76587C34.4087 4.76587 34.4087 4.76588 34.4371 4.72825C34.757 4.36454 34.757 4.36453 34.757 4.36453C35.1295 4.41469 35.5101 4.45233 35.6032 4.45233C35.6963 4.43979 36.0445 4.52758 36.1903 4.8035C36.1903 4.8035 36.1903 4.80351 36.3158 4.22659C36.3725 3.97575 36.3725 3.97573 36.3725 3.97573C36.5264 4.10115 36.6924 4.31437 36.7369 4.45233C36.7815 4.59029 37.0163 4.22659 37.0811 4.18896C37.1459 4.15134 37.3443 4.4398 37.4091 4.46488C37.4091 4.46488 37.4091 4.4649 37.4374 4.40219C37.5913 4.05102 37.5913 4.05098 37.5913 4.05098C37.7411 4.25165 37.9476 4.46489 38.0529 4.51506C38.1581 4.56523 38.4578 4.35199 38.5307 4.25166C38.6035 4.15132 38.8546 4.36453 38.8951 4.3269C38.9315 4.28928 39.0692 4.10116 39.1137 3.98829C39.1542 3.87541 39.3162 4.06355 39.3567 3.92559C39.3567 3.92559 39.3567 3.92559 39.4781 4.07609C39.6158 4.25168 39.6158 4.25166 39.6158 4.25166C39.8183 4.15132 40.0895 4.00083 40.2191 3.91304C40.3487 3.82525 40.6888 4.05098 40.7495 4.01336C40.8062 3.97573 41.0451 4.06355 41.1504 4.15134C41.1504 4.15134 41.1504 4.15132 41.2516 4.17641C41.288 4.18895 41.2881 4.18896 41.2881 4.18896C41.3447 4.02592 41.4014 4.01336 41.4136 4.17641C41.4257 4.33945 41.535 4.7408 41.612 4.61538C41.693 4.48996 41.944 4.12626 42.0088 4.03847C42.0736 3.95067 42.5311 3.93812 42.6121 3.98829C42.6931 4.03846 42.9522 3.69981 43.0534 3.66219C43.1547 3.6371 43.4948 3.67476 43.5839 3.7751C43.6729 3.87543 44.1102 3.73746 44.337 3.72492C44.337 3.72492 44.337 3.72493 44.4787 3.49918C44.6042 3.29851 44.6042 3.2985 44.6042 3.2985C44.6852 3.46155 44.7783 3.67475 44.8188 3.76254C44.8593 3.85034 45.1994 3.6873 45.3735 3.5368C45.5476 3.3863 46.0862 3.43647 46.159 3.49918C46.2319 3.56189 46.5032 3.57441 46.6044 3.52425C46.7057 3.47408 47.062 3.39881 47.1672 3.42389C47.2725 3.44897 47.556 3.23577 47.6126 3.16052C47.6693 3.08527 47.8353 3.36118 47.8556 3.38627C47.8556 3.38627 47.8556 3.38629 47.8677 3.37375C47.9649 3.28596 48.054 3.13543 48.1512 3.11035C48.2362 3.08526 48.3334 3.28595 48.4144 3.24833C48.5399 3.19816 48.5399 3.19815 48.5399 3.19815C48.6816 3.16052 48.8678 3.09781 48.9569 3.0351C49.046 2.97239 49.2566 3.26088 49.2768 3.14801C49.2768 3.14801 49.2768 3.148 49.3051 3.06021C49.3254 2.9975 49.3254 2.99747 49.3254 2.99747C49.3618 2.95985 49.5076 2.99747 49.6453 3.07272C49.7829 3.14797 50.3984 2.93478 50.5037 3.01003C50.5037 3.01003 50.5037 3.01002 50.5887 3.1229C50.694 3.26086 50.694 3.26088 50.694 3.26088C50.779 3.11038 50.9329 3.07273 51.03 3.16052C51.03 3.16052 51.03 3.16054 51.0989 3.09783C51.2244 2.98495 51.2244 2.98496 51.2244 2.98496C51.3459 2.75921 51.5078 2.63379 51.5766 2.70904C51.6495 2.78429 51.9168 2.75921 52.0058 2.67141C52.0949 2.58362 52.2771 2.60868 52.35 2.57106C52.4229 2.53343 52.6334 2.63377 52.6982 2.69648C52.763 2.74665 52.9533 2.63376 52.9776 2.72155C53.0019 2.80935 53.1639 2.95988 53.2772 2.87209C53.3906 2.77175 54.0547 2.82188 54.2814 2.7968C54.5081 2.77172 54.9373 2.42058 55.0224 2.35787C55.0224 2.35787 55.0224 2.35786 55.1357 2.43312C55.3544 2.58362 55.3544 2.58361 55.3544 2.58361C55.6135 2.57107 55.9091 2.55854 56.0063 2.55854C56.0063 2.55854 56.0063 2.55851 56.1035 2.44563C56.229 2.29513 56.229 2.29514 56.229 2.29514C56.395 2.28259 56.6015 2.32023 56.6825 2.38294C56.7635 2.44565 57.0509 2.32024 57.1238 2.35787C57.1238 2.35787 57.1238 2.35787 57.1886 2.39549C57.2493 2.43312 57.2493 2.43312 57.2493 2.43312C57.3141 2.47074 57.5409 2.43312 57.7514 2.35787C57.7514 2.35787 57.7514 2.35786 57.9377 2.27007C58.0956 2.19481 58.0956 2.19482 58.0956 2.19482C58.2738 2.13211 58.4317 2.06939 58.4479 2.06939C58.4641 2.06939 58.5734 2.14465 58.6706 2.19482C58.7677 2.24498 59.0795 2.29513 59.1605 2.37038C59.2415 2.44563 59.4439 2.68396 59.4723 2.55854C59.5006 2.43312 59.6423 2.28262 59.699 2.28262C59.7597 2.27008 59.9743 1.9816 60.0958 1.95652C60.2173 1.93144 60.7072 1.9189 60.9016 1.88127C61.0959 1.85619 61.683 2.00667 61.7721 2.05684C61.8612 2.10701 62.1163 1.79348 62.177 1.84365C62.2378 1.89382 62.3471 1.89381 62.3876 1.9189C62.4281 1.95652 62.7074 1.80603 62.9423 1.65553C62.9423 1.65553 62.9423 1.65551 63.1569 1.71822C63.3148 1.76839 63.3148 1.7684 63.3148 1.7684C63.4444 1.59282 63.6509 1.55517 63.7764 1.66804C63.7764 1.66804 63.7764 1.66807 63.8898 1.69315C64.0072 1.71824 64.0072 1.71822 64.0072 1.71822C64.1367 1.60535 64.3109 1.64295 64.3959 1.81854C64.4809 1.99413 64.8494 1.37959 65.0437 1.27925C65.0437 1.27925 65.0437 1.27926 65.2057 1.60535C65.2178 1.63043 65.2786 1.5677 65.2988 1.50499C65.3272 1.40466 65.3272 1.40468 65.3272 1.40468C65.3434 1.26672 65.4122 1.11622 65.477 1.05351C65.5418 0.990799 65.7685 1.25418 65.8535 1.32943C65.9386 1.39214 66.2544 1.36704 66.3354 1.42975C66.4164 1.49246 66.5945 1.39214 66.6593 1.36705C66.72 1.34197 67.0035 1.44229 67.1168 1.50499C67.2343 1.5677 67.6392 1.30436 67.7687 1.37961C67.7687 1.37961 67.7687 1.37961 67.8214 1.26674C67.9874 0.890481 68.0441 1.53008 68.1453 1.42975C68.2506 1.31687 68.2506 1.31688 68.2506 1.31688C68.3518 1.09112 68.5097 0.877932 68.5988 0.827764C68.6879 0.777597 69.028 0.890469 69.113 0.940636C69.2021 0.990803 69.5139 0.965709 69.5989 0.890458C69.6839 0.815207 69.9876 0.965727 70.0686 1.06606C70.1496 1.1664 70.4613 1.06604 70.6233 0.965706C70.6233 0.965706 70.6233 0.965724 70.7934 1.14131C70.9108 1.26673 71.0849 1.25417 71.178 0.852834L71.5262 0.689785C71.8907 1.0535 72.2672 0.978257 72.6235 0.739963C72.7612 0.65217 72.8867 1.24165 73.0244 0.677269C73.0649 0.501683 73.2957 0.589453 73.4374 0.614537C73.5184 0.627079 73.5184 0.627091 73.5184 0.627091C73.6034 0.739967 73.7046 0.790142 73.7451 0.752517C73.7856 0.702349 73.8868 0.576931 73.9678 0.438971C74.0488 0.301011 74.2715 0.802658 74.3444 0.765032C74.4173 0.727407 74.6035 0.501679 74.6399 0.476595C74.6764 0.451511 74.8424 0.70232 74.9234 0.84028C74.9234 0.84028 74.9234 0.84028 75.0003 0.84028C75.0772 0.84028 75.1501 0.652176 75.2311 0.589467C75.3647 0.489132 75.3647 0.489111 75.3647 0.489111C75.5024 0.627071 75.6482 0.765057 75.6886 0.79014C75.7291 0.827766 75.8304 0.714896 75.879 0.639645C75.9275 0.564394 76.1016 0.739976 76.1421 0.714893C76.1421 0.714893 76.1421 0.71487 76.1745 0.652161C76.2191 0.57691 76.2555 0.376239 76.292 0.376239C76.3851 0.401323 76.4782 0.576901 76.5673 0.564359C76.6807 0.539275 76.79 0.351171 76.9074 0.313545C77.0086 0.27592 77.0086 0.275921 77.0086 0.275921C77.118 0.338631 77.284 0.301008 77.369 0.200674C77.369 0.200674 77.369 0.200666 77.4581 0.388793C77.5148 0.514211 77.5148 0.514219 77.5148 0.514219C77.6119 0.539303 77.8103 0.576911 77.948 0.614537C78.0897 0.652162 78.5149 0.388801 78.608 0.514219C78.7011 0.639637 79.2154 0.464033 79.5433 0.652161C79.5433 0.652161 79.5433 0.652162 79.8511 0.300991C79.9401 0.200657 80.0859 0.188115 80.1709 0.300991C80.3207 0.489119 80.3207 0.489111 80.3207 0.489111C80.4625 0.376235 80.6447 0.163056 80.7297 0.0125541C80.7297 0.0125541 80.7297 0.0125541 80.8066 0.0125541C80.8836 0.0125541 80.9605 0.175561 81.0334 0.288437C81.0739 0.351146 81.0739 0.351169 81.0739 0.351169C81.1144 0.438962 81.3613 0.551828 81.6286 0.614537C81.8958 0.677246 82.5639 0.0501642 82.5801 0.0752478C82.5963 0.100331 82.6287 0.2132 82.653 0.263367C82.6773 0.313535 82.8838 0.250841 83.0012 0.200674C83.1186 0.150506 83.5316 0.0501764 83.645 0.0878019C83.7543 0.125427 84.1187 0.464036 84.2119 0.576913C84.305 0.689789 84.5965 0.401341 84.6694 0.551843C84.7423 0.702345 85.0703 0.188127 85.216 0C85.216 0 85.216 9.19487e-06 85.382 0.401347C85.4549 0.576933 85.4549 0.576913 85.4549 0.576913C85.6736 0.413869 86.0177 0.263355 86.2202 0.250813C86.2202 0.250813 86.2202 0.250838 86.4024 0.275921C86.5927 0.301005 86.5927 0.300991 86.5927 0.300991C86.7952 0.426409 87.0705 0.338612 87.2041 0.100318C87.2041 0.100318 87.2041 0.100341 87.3782 0.476595C87.5159 0.765057 87.6697 -0.0627228 87.8519 0.338615C88.0058 0.677244 88.1354 0.601996 88.269 0.263367C88.2771 0.238284 88.3054 0.250826 88.3216 0.263367C88.4472 0.401327 88.4472 0.401347 88.4472 0.401347C88.5848 0.451515 88.7387 0.526733 88.7913 0.564359C88.844 0.614526 89.091 0.35116 89.2084 0.263367C89.2084 0.263367 89.2084 0.26338 89.3096 0.275921C89.5201 0.301005 89.5201 0.300991 89.5201 0.300991C89.7509 0.288449 90.1316 0.263381 90.3704 0.238298C90.3704 0.238298 90.3704 0.238284 90.5891 0.263367C90.7268 0.275909 90.7268 0.275921 90.7268 0.275921C90.8766 0.388798 91.0588 0.501663 91.1357 0.539289C91.2126 0.576914 91.3989 0.401337 91.4556 0.351169C91.5163 0.301002 91.7026 0.539275 91.7552 0.564359C91.7552 0.564359 91.7552 0.56436 91.7633 0.526735C91.8767 0.0125204 91.8767 0.0125541 91.8767 0.0125541C92.0063 0.413892 92.3828 0.551837 92.4436 0.702339Z" fill="#987750"/>
</g>
</svg>
