<svg width="35" height="35" viewBox="0 0 35 35" fill="none" xmlns="http://www.w3.org/2000/svg">
<path d="M15.9629 0.102573C14.0967 0.389683 12.4287 1.27835 11.123 2.66605C9.68749 4.19046 8.94237 5.95413 8.83983 8.06644C8.69628 11.0196 10.1455 13.8428 12.6474 15.4766C13.8779 16.2832 15.0605 16.6934 16.4961 16.8096C19.1553 17.0147 21.4248 16.1807 23.2568 14.3145C25.0478 12.4893 25.8476 10.2403 25.6289 7.65628C25.4375 5.44144 24.4599 3.53421 22.7646 2.07132C21.4248 0.922885 20.1943 0.348667 18.4922 0.102573C17.6719 -0.0136375 16.7148 -0.0204735 15.9629 0.102573ZM18.875 2.24906C19.9482 2.52249 20.7549 2.99417 21.6572 3.86234C22.833 4.97659 23.4277 6.20706 23.5849 7.79984C23.7695 9.68656 23.1885 11.4092 21.9101 12.7764C21.1172 13.6241 19.9482 14.3418 18.957 14.5948C17.4873 14.9639 15.7373 14.8067 14.4795 14.1846C12.7637 13.3369 11.4922 11.751 11.0273 9.87796C10.8496 9.16019 10.8701 7.54007 11.0683 6.80179C11.5947 4.81937 13.3174 2.9805 15.2314 2.35843C16.2705 2.02347 17.8222 1.97562 18.875 2.24906Z" fill="#987750"/>
<path d="M9.75528 16.96C8.70939 17.0693 7.62931 17.4658 6.77481 18.04C4.642 19.4893 3.26114 22.7295 2.93985 27.0361C2.76212 29.4561 2.90567 30.6523 3.52774 31.9033C3.86954 32.6006 4.51895 33.3662 5.18204 33.8584C5.6879 34.2275 6.53556 34.6104 7.28067 34.8018L7.89591 34.9658H17.4662H27.0365L27.6518 34.8086C29.8119 34.2412 31.3227 32.7852 31.8627 30.7275C32.143 29.668 32.1088 27.1387 31.7807 25.1426C31.0629 20.6992 29.2445 18.0332 26.3666 17.1992C25.7104 17.0078 24.5346 16.8643 24.186 16.9326C23.851 16.9941 23.3861 17.2402 22.3334 17.917C21.1986 18.6484 21.0209 18.7441 20.1733 19.0518C19.1752 19.4141 18.4301 19.5576 17.5072 19.5576C16.5502 19.5576 15.8119 19.4209 14.8412 19.0791C13.9252 18.751 13.8842 18.7305 12.4486 17.8213C11.6967 17.3428 11.1361 17.0352 10.9174 16.9736C10.5346 16.8779 10.5346 16.8779 9.75528 16.96ZM11.5326 19.6602C12.8178 20.4873 13.3578 20.7539 14.4858 21.123C17.4252 22.0869 20.4262 21.6221 23.2563 19.7695C24.5346 18.9287 24.5072 18.9424 25.0473 19.0107C27.5287 19.3252 29.0805 21.4102 29.7367 25.3271C30.0033 26.9404 30.0854 29.1895 29.9076 30.0439C29.6205 31.418 28.6908 32.3887 27.269 32.792C26.8588 32.9082 26.3188 32.915 17.4662 32.915C8.59317 32.915 8.08048 32.9082 7.65665 32.792C6.6381 32.5049 5.75626 31.8076 5.3461 30.9668C4.99063 30.2422 4.90177 29.6338 4.95645 28.1641C5.00431 26.6807 5.07267 25.9902 5.31192 24.7803C5.48966 23.8369 5.90665 22.4971 6.2006 21.916C7.08243 20.166 8.27872 19.209 9.83048 19.0107C10.0834 18.9766 10.3158 18.9492 10.3432 18.9424C10.3705 18.9424 10.9037 19.2637 11.5326 19.6602Z" fill="#987750"/>
</svg>
