<svg width="60" height="60" viewBox="0 0 60 60" fill="none" xmlns="http://www.w3.org/2000/svg">
<path d="M44.7661 0.175835C44.4145 0.257866 36.0005 2.68365 26.0747 5.55474C13.3481 9.24615 7.78172 10.9102 7.18407 11.2032C4.93407 12.293 3.4575 14.9415 3.66844 17.4493C3.7036 17.9063 4.16063 19.6758 4.77 21.7383L5.80125 25.254L5.85985 40.0196C5.93016 56.1797 5.87157 55.0313 6.65672 56.543C7.53563 58.2188 9.38719 59.5665 11.2153 59.8711C11.7661 59.9649 14.2856 60 19.477 59.9766L26.9536 59.9415L27.2583 59.625C27.6919 59.1915 27.6919 58.4649 27.2583 58.0313L26.9536 57.7149L19.1841 57.6563C10.9223 57.586 11.145 57.6094 10.1958 57.0118C9.31688 56.4493 8.69578 55.629 8.3911 54.6094C8.22703 54.0586 8.2036 52.9219 8.2036 45.7383V37.5001L31.1489 37.5235L54.0825 37.5586L54.1176 45.3516C54.1294 49.7227 54.0942 53.4961 54.0356 53.9415C53.8247 55.4297 53.0278 56.5665 51.7036 57.211L50.9184 57.5977L43.1841 57.6563C38.9301 57.6915 35.3559 57.7618 35.2505 57.8086C34.9341 57.9727 34.688 58.4297 34.688 58.8633C34.688 59.3204 35.0864 59.836 35.5317 59.9415C35.6723 59.9766 39.2817 59.9883 43.5356 59.9766C51.2231 59.9415 51.27 59.9415 51.9614 59.6719C52.9341 59.3086 53.6255 58.875 54.3637 58.1954C55.1723 57.4336 55.6997 56.6133 56.0981 55.4649L56.4262 54.5508V39.7501V24.9375L56.0395 24.5977L55.6645 24.2579H35.5434C24.4809 24.2579 15.4575 24.2344 15.4809 24.1993C15.5161 24.1758 24.188 21.6446 34.7583 18.586C55.7114 12.5157 54.4926 12.9141 54.4926 12.0352C54.4926 11.4141 52.4301 4.47662 51.9731 3.55083C50.7192 1.00787 47.5083 -0.492134 44.7661 0.175835ZM47.895 2.74224C48.6801 3.0938 49.5356 3.89068 49.9106 4.62896C50.1098 5.0274 51.7036 10.2774 51.8208 10.9454C51.8559 11.1446 51.5864 11.2501 49.5356 11.8594L47.2036 12.5274L45.6098 10.9805C44.7309 10.1133 42.8325 8.28521 41.3911 6.91412C39.9614 5.5313 38.8247 4.37115 38.8716 4.33599C38.9536 4.26568 44.0044 2.78912 45.2934 2.44927C45.9614 2.27349 47.1333 2.4024 47.895 2.74224ZM40.3247 9.14068C42.5981 11.3204 44.4848 13.1602 44.5083 13.2188C44.52 13.2657 43.1489 13.711 41.4614 14.2032L38.3794 15.0821L36.8559 13.5938C36.0239 12.7852 34.1372 10.9571 32.6723 9.55083C31.1958 8.14458 30.0005 6.96099 30.0005 6.92583C30.0005 6.8438 35.6841 5.17974 35.9887 5.16802C36.0942 5.1563 38.0395 6.94927 40.3247 9.14068ZM32.2036 12.3633C34.1489 14.2266 35.6958 15.7852 35.6489 15.8321C35.5552 15.9258 29.8598 17.5782 29.6489 17.5782C29.5786 17.5782 27.6216 15.75 25.3012 13.5118L21.0825 9.44537L24.1645 8.55474L27.2466 7.66412L27.9614 8.30865C28.3481 8.67193 30.2583 10.4883 32.2036 12.3633ZM22.7348 14.2969C25.4067 16.8516 26.895 18.3633 26.8012 18.4102C26.7309 18.4571 25.3364 18.8672 23.7075 19.336L20.7544 20.1915L16.5239 16.1016C13.9575 13.6407 12.3403 12 12.4341 11.9649C13.0903 11.7422 18.3637 10.2188 18.4223 10.2422C18.4692 10.2422 20.4145 12.0704 22.7348 14.2969ZM13.9341 16.875C16.2544 19.0899 18.1411 20.918 18.1294 20.9415C18.0005 21.0586 7.91063 23.8829 7.84032 23.8243C7.79344 23.7657 7.37157 22.4063 6.90282 20.8008C6.15282 18.2461 6.04735 17.754 6.04735 16.9336C6.04735 16.1719 6.10594 15.879 6.34032 15.3516C6.66844 14.6368 7.2075 13.9688 7.77 13.5704C8.19188 13.2657 9.37547 12.7618 9.57469 12.8086C9.65672 12.8204 11.6138 14.6485 13.9341 16.875ZM18.3989 26.6836C18.3989 26.7188 17.3091 28.6407 15.9731 30.961L13.5473 35.1563H10.8755H8.2036V30.879V26.6016H13.3013C16.102 26.6016 18.3989 26.6368 18.3989 26.6836ZM27.6216 26.6836C27.5864 26.7422 26.4966 28.6172 25.1958 30.879C23.895 33.129 22.7934 35.0157 22.7466 35.0743C22.6997 35.1211 21.2231 35.1446 19.477 35.1329L16.2895 35.0977L18.5864 31.1133C19.852 28.9219 20.9536 27.0118 21.0473 26.8594C21.2114 26.6016 21.2231 26.6016 24.4458 26.6016C26.2153 26.6016 27.645 26.6368 27.6216 26.6836ZM36.7739 26.7071C36.7622 26.754 35.6606 28.6875 34.3364 30.9727L31.9341 35.1446L28.6645 35.1563H25.4067L25.5708 34.8868C25.6645 34.7461 26.7895 32.8243 28.0552 30.6094L30.3755 26.6016H33.5981C35.3677 26.6016 36.7973 26.6485 36.7739 26.7071ZM43.5708 30.879L41.0981 35.1563H37.8872C35.8716 35.1563 34.688 35.1094 34.7114 35.0391C34.7348 34.9805 35.8247 33.0586 37.1489 30.7735L39.5512 26.6016H42.7973H46.0317L43.5708 30.879ZM54.1411 30.879V35.1563H48.9731C46.1372 35.1563 43.8403 35.1211 43.8637 35.0625C44.1333 34.5821 48.4692 27.0586 48.5864 26.8594C48.7505 26.6016 48.7856 26.6016 51.4458 26.6016H54.1411V30.879Z" fill="#6d9f38"/>
<path d="M27.3047 40.5236C27.082 40.6291 26.8359 40.8518 26.7539 41.0158C26.6367 41.2385 26.6016 42.7971 26.6016 47.5432V53.7893L26.9414 54.1643C27.5859 54.8908 27.5625 54.9025 33.5508 51.4455C37.5586 49.1252 38.9649 48.258 39.0938 48.0236C39.3399 47.5432 39.293 47.1564 38.9414 46.7697C38.6016 46.3947 28.5 40.5236 27.9961 40.3947C27.8203 40.3478 27.5391 40.3947 27.3047 40.5236ZM33.082 45.9377C34.4766 46.7463 35.6133 47.4377 35.5899 47.4846C35.5664 47.5666 29.1094 51.3283 29.0039 51.3283C28.9688 51.3283 28.9453 49.5822 28.9453 47.4494V43.5705L29.7422 44.0275C30.1875 44.2736 31.6875 45.1291 33.082 45.9377Z" fill="#6d9f38"/>
<path d="M30.6442 57.7852C29.4958 58.4532 30.0583 60.1876 31.3356 59.9532C32.6013 59.7189 32.5544 57.8907 31.277 57.7032C31.0661 57.6798 30.7731 57.7149 30.6442 57.7852Z" fill="#6d9f38"/>
</svg>
