<svg width="38" height="38" viewBox="0 0 38 38" fill="none" xmlns="http://www.w3.org/2000/svg">
<path d="M9.32858 0.111324C6.73834 0.601166 4.586 2.22656 3.41334 4.56445C1.81764 7.75585 2.42623 11.4965 4.96452 14.0348C5.57311 14.6508 6.81256 15.5414 7.18366 15.6305C7.42858 15.6973 7.38405 15.7715 7.05006 15.8754C6.88678 15.9199 6.38952 16.1426 5.95162 16.3652C3.01256 17.8348 0.956703 20.5066 0.207093 23.8094C0.0512339 24.4996 0.043812 24.7148 0.0215464 29.5019C-0.000719223 33.0644 0.0141245 34.6008 0.0734995 34.9199C0.348109 36.3523 1.60241 37.6215 3.02741 37.9184C3.30202 37.9777 5.69186 38 10.7833 38C18.888 38 18.6505 38.0074 19.5411 37.5398C20.0903 37.243 20.7657 36.5676 21.0626 36.0035C21.4411 35.3059 21.5227 34.8086 21.5227 33.1609V31.6914L29.0411 31.6766C37.3536 31.6543 36.7673 31.684 37.361 31.1719C37.5094 31.0383 37.7098 30.7859 37.7989 30.6226L37.9622 30.3184V21.8574C37.9622 13.7453 37.9548 13.3891 37.8212 13.1367C37.6282 12.773 37.2719 12.4094 36.9231 12.2238C36.6337 12.0605 36.552 12.0605 33.2048 12.0383L29.7758 12.016L29.7536 11.1105C29.7239 10.2793 29.709 10.1754 29.5235 9.86367C29.2934 9.47031 28.9817 9.18085 28.5809 8.99531C28.3434 8.88398 27.9872 8.86913 25.3821 8.86913C22.0274 8.86913 21.9977 8.87656 21.4485 9.47031C20.9958 9.96015 20.929 10.1828 20.929 11.1699V12.0234H19.5114C18.4055 12.0234 18.1012 12.0012 18.1309 11.9269C18.7766 10.4648 18.9548 9.65586 18.9548 8.23828C18.9548 7.03593 18.836 6.32343 18.4798 5.36601C17.5298 2.81289 15.3551 0.883198 12.6758 0.215229C11.852 0.00741577 10.145 -0.0445366 9.32858 0.111324ZM12.468 1.48437C14.9098 2.10039 16.8915 4.08203 17.5075 6.53124C18.1161 8.95078 17.4184 11.4074 15.6298 13.1738C14.8208 13.9754 14.0192 14.4727 13.0024 14.8141C10.4196 15.675 7.72545 15.0367 5.82545 13.107C4.88287 12.157 4.25202 11.0066 3.96256 9.71523C3.79928 8.99531 3.79186 7.49609 3.94772 6.79101C4.49694 4.33437 6.27077 2.38242 8.66803 1.5957C9.79616 1.23203 11.2657 1.1875 12.468 1.48437ZM28.3137 10.3535C28.4844 10.5168 28.4993 10.5836 28.4993 11.2812V12.0234H25.345H22.1907V11.2664C22.1907 10.591 22.2055 10.4945 22.354 10.3387L22.5098 10.168H25.3227H28.1356L28.3137 10.3535ZM36.5223 13.5078L36.745 13.7305L36.7227 15.7121L36.7005 17.7012L36.4926 18.1465C36.2329 18.7105 35.6762 19.2301 35.1196 19.4601L34.6965 19.6309L27.0891 19.6531L19.4817 19.6754L19.2219 19.3414C19.0809 19.1633 18.784 18.8144 18.5688 18.5695C18.3462 18.3098 18.2126 18.1019 18.2571 18.0723C18.361 18.0055 18.3462 17.5008 18.2274 17.3523C18.0864 17.1594 17.7747 17.0703 17.27 17.0703C16.8989 17.0703 16.7505 17.0332 16.5352 16.8848C16.1641 16.6324 14.9692 16.0387 14.5239 15.8902L14.1602 15.7641L14.8356 15.3633C15.6446 14.8883 16.3051 14.3613 16.8544 13.7453L17.2551 13.2852H26.7774H36.3071L36.5223 13.5078ZM12.468 16.625C12.6907 16.6769 12.8911 16.7289 12.9059 16.7437C12.9208 16.7586 12.2899 18.6437 11.4958 20.9297C10.5458 23.6832 10.0411 25.0488 10.004 24.9598C9.93717 24.7668 9.0317 16.6918 9.08366 16.6473C9.25436 16.4766 11.711 16.4543 12.468 16.625ZM7.82936 17.2336C7.88873 17.6269 10.0188 36.3894 10.0188 36.5676V36.7383H7.86647H5.71412V27.3273V17.9164L6.23366 17.6344C6.7903 17.3375 7.55475 17.0035 7.69577 16.9961C7.74772 16.9961 7.80709 17.1074 7.82936 17.2336ZM14.8579 17.4191C15.177 17.5676 15.4368 17.716 15.4368 17.7605C15.4368 17.8273 12.8762 31.2016 12.802 31.5207C12.7649 31.684 12.7352 31.6914 11.763 31.6914C11.2137 31.6914 10.761 31.684 10.761 31.6691C10.7536 31.6617 10.6645 30.8601 10.5532 29.8953L10.3454 28.1289L12.238 22.6367C13.2844 19.616 14.1676 17.1445 14.2122 17.1445C14.2493 17.1445 14.5387 17.2633 14.8579 17.4191ZM17.3516 19.1633C18.7544 20.5289 19.6524 22.1617 20.0829 24.1211C20.2165 24.7 20.2239 25.1453 20.2239 29.7988V34.8457L20.0161 35.2613C19.7786 35.7586 19.2071 36.3152 18.7173 36.5379C18.4352 36.6641 18.1829 36.7012 17.4258 36.7234L16.4833 36.7531L16.7505 36.2262C16.988 35.7586 17.0251 35.6176 17.0548 35.0387C17.1067 33.9773 16.795 33.1906 16.0602 32.5078C15.6594 32.1367 14.9321 31.7805 14.4571 31.7211C14.2567 31.6914 14.1008 31.6543 14.0934 31.6246C14.0786 31.4539 16.602 18.5547 16.654 18.5547C16.6911 18.5547 17.0028 18.8293 17.3516 19.1633ZM4.4153 31.6023C4.39303 31.6543 4.22975 31.6914 3.96998 31.6914C3.45787 31.6914 3.19069 31.9066 3.19069 32.3C3.19811 32.7379 3.48756 32.9531 4.07389 32.9531H4.45241V34.8531V36.7605L3.79928 36.7234C3.30202 36.6937 3.04967 36.6344 2.73795 36.4859C2.24811 36.2559 1.69889 35.6992 1.46139 35.2019L1.29811 34.8457V29.873C1.29811 26.1547 1.32037 24.7742 1.39459 24.4031C1.75827 22.4883 2.59694 20.8109 3.85866 19.4898L4.4153 18.9109L4.43756 25.2047C4.44498 28.6707 4.43756 31.5504 4.4153 31.6023ZM36.6559 30.066C36.463 30.4371 36.5817 30.4297 28.7962 30.4297H21.5227V27.8098C21.5227 24.982 21.4559 24.225 21.1219 23.0746C20.9067 22.3398 20.7137 21.8203 20.4465 21.3008L20.261 20.9297H21.5227H22.7844V21.9539C22.7844 23.2676 22.8809 23.6312 23.3782 24.1211C23.8458 24.5961 24.2465 24.7148 25.3376 24.7148C25.7903 24.7148 26.2876 24.6777 26.436 24.6406C26.9184 24.507 27.4008 24.1211 27.6235 23.6832C27.8239 23.2973 27.8313 23.2527 27.8313 22.1172V20.9371L31.3419 20.9148C34.7262 20.8852 34.8598 20.8777 35.3423 20.7219C35.6094 20.6328 36.0325 20.425 36.27 20.2691L36.7005 19.9723L36.7227 24.9449C36.7301 28.4184 36.7153 29.9621 36.6559 30.066ZM26.5696 21.991C26.5696 23.4457 26.5251 23.4902 25.1669 23.4383C24.0981 23.4012 24.0907 23.4012 24.061 22.0059L24.0387 20.9297H25.3005H26.5696V21.991ZM14.6946 33.109C15.1399 33.3094 15.4219 33.584 15.6298 34.0293C16.1344 35.0832 15.5333 36.3746 14.42 36.6566C14.2493 36.7012 13.4922 36.7383 12.7352 36.7383C11.3696 36.7383 11.3547 36.7383 11.3176 36.5676C11.288 36.4191 10.9094 33.1461 10.9094 33.0051C10.9094 32.9754 11.6887 32.9531 12.6387 32.9531C14.2122 32.9531 14.3903 32.968 14.6946 33.109Z" fill="#987750"/>
<path d="M34.4523 14.7324C34.2223 14.9254 34.2148 14.9477 34.2148 15.4969C34.2223 16.0906 34.2742 16.2391 34.5637 16.3875C34.8234 16.5285 35.0312 16.4914 35.2613 16.2613C35.4617 16.0609 35.4766 16.0016 35.4766 15.5191C35.4766 15.0887 35.4469 14.9699 35.3133 14.8141C35.0535 14.5172 34.7344 14.4949 34.4523 14.7324Z" fill="#987750"/>
<path d="M20.1128 17.1223C19.66 17.3004 19.5116 17.8645 19.8382 18.1687C19.9866 18.3098 20.0979 18.332 20.5878 18.332C21.0925 18.332 21.1815 18.3098 21.3374 18.1465C21.5749 17.9164 21.5749 17.5898 21.3448 17.3227C21.1964 17.1445 21.1073 17.1148 20.6991 17.0926C20.4393 17.0852 20.1721 17.0926 20.1128 17.1223Z" fill="#987750"/>
<path d="M23.1695 17.1816C22.7613 17.3597 22.6796 17.857 23.0062 18.1835C23.2214 18.3988 24.2753 18.3988 24.4906 18.1835C24.8245 17.8496 24.7355 17.3523 24.305 17.1816C23.9859 17.0406 23.4886 17.0406 23.1695 17.1816Z" fill="#987750"/>
<path d="M26.3769 17.1371C25.9687 17.3152 25.8574 17.8496 26.1617 18.1465C26.3176 18.3098 26.4066 18.332 26.9262 18.332C27.4383 18.332 27.5273 18.3098 27.6683 18.1613C27.8984 17.9164 27.8836 17.5156 27.6461 17.293C27.4976 17.152 27.3566 17.1074 26.993 17.0926C26.7406 17.0777 26.4586 17.1 26.3769 17.1371Z" fill="#987750"/>
<path d="M29.6128 17.1223C29.16 17.3004 29.0116 17.8645 29.3382 18.1687C29.4866 18.3098 29.5979 18.332 30.0878 18.332C30.5925 18.332 30.6815 18.3098 30.8374 18.1465C31.0749 17.9164 31.0749 17.5898 30.8448 17.3227C30.6964 17.1445 30.6073 17.1148 30.1991 17.0926C29.9393 17.0852 29.6721 17.0926 29.6128 17.1223Z" fill="#987750"/>
<path d="M32.6695 17.1816C32.2613 17.3597 32.1796 17.857 32.5062 18.1835C32.7214 18.3988 33.7753 18.3988 33.9906 18.1835C34.3245 17.8496 34.2355 17.3523 33.805 17.1816C33.4859 17.0406 32.9886 17.0406 32.6695 17.1816Z" fill="#987750"/>
<path d="M34.4004 22.3769C34.2371 22.5328 34.2148 22.6219 34.2148 23.1191C34.2148 23.6164 34.2371 23.7055 34.4004 23.8613C34.7047 24.173 35.1797 24.0914 35.3875 23.698C35.5137 23.4754 35.4988 22.748 35.3652 22.4957C35.1797 22.132 34.6973 22.0726 34.4004 22.3769Z" fill="#987750"/>
<path d="M34.6156 25.3829C34.3187 25.5016 34.2148 25.7466 34.2148 26.3106C34.2223 26.845 34.2816 27.0009 34.5637 27.1493C34.8234 27.2903 35.0312 27.2532 35.2687 27.0157C35.484 26.793 35.4914 26.7708 35.4617 26.2364C35.4394 25.8059 35.4023 25.6501 35.291 25.5387C35.1055 25.3606 34.8234 25.2938 34.6156 25.3829Z" fill="#987750"/>
<path d="M23.1856 27.936C22.6809 28.1587 22.6958 28.8563 23.2005 29.0641C24.0243 29.4055 24.9075 28.9157 24.6329 28.27C24.4696 27.8692 23.7274 27.6985 23.1856 27.936Z" fill="#987750"/>
<path d="M26.4441 27.8766C26.2141 27.9285 25.9766 28.2551 25.9766 28.5074C25.9766 28.6188 26.0582 28.8117 26.1547 28.923C26.3254 29.116 26.3699 29.1309 26.8895 29.1309C27.3793 29.1309 27.4758 29.1086 27.6391 28.9527C27.8988 28.7078 27.9062 28.2996 27.6539 28.0621C27.5203 27.9359 27.3645 27.884 27.0379 27.8691C26.8004 27.8543 26.5332 27.8617 26.4441 27.8766Z" fill="#987750"/>
<path d="M29.6496 27.884C29.1672 28.0102 29.0039 28.6113 29.3602 28.9527C29.5235 29.1086 29.62 29.1309 30.1098 29.1309C30.6293 29.1309 30.6739 29.116 30.8446 28.923C31.0672 28.6633 31.0746 28.3441 30.852 28.0918C30.7184 27.9285 30.6145 27.8914 30.2434 27.8691C29.9985 27.8543 29.7313 27.8617 29.6496 27.884Z" fill="#987750"/>
<path d="M32.6856 27.936C32.1809 28.1587 32.1958 28.8563 32.7005 29.0641C33.5243 29.4055 34.4075 28.9157 34.1329 28.27C33.9696 27.8692 33.2274 27.6985 32.6856 27.936Z" fill="#987750"/>
</svg>
